<svg width="45" height="45" viewBox="0 0 45 45" fill="none" xmlns="http://www.w3.org/2000/svg">
<path d="M34.8553 0H10.1447C4.54193 0 0 4.54193 0 10.1447V34.8553C0 40.4581 4.54193 45 10.1447 45H34.8553C40.4581 45 45 40.4581 45 34.8553V10.1447C45 4.54193 40.4581 0 34.8553 0Z" fill="#06C755"/>
<path d="M37.499 20.3804C37.499 13.667 30.7687 8.20508 22.4957 8.20508C14.2227 8.20508 7.49243 13.667 7.49243 20.3804C7.49243 26.3991 12.8306 31.4391 20.0404 32.3926C20.5284 32.498 21.1935 32.7146 21.3623 33.1323C21.5142 33.512 21.4607 34.1054 21.4115 34.4893C21.4115 34.4893 21.2357 35.5482 21.1977 35.7732C21.1317 36.1529 20.8968 37.2568 22.4971 36.5818C24.0988 35.9068 31.1371 31.494 34.2843 27.8715C36.4584 25.4865 37.5004 23.0677 37.5004 20.3804H37.499Z" fill="white"/>
<path d="M32.5064 24.258H28.2919C28.133 24.258 28.005 24.13 28.005 23.9711V23.9669V17.4306V17.4236C28.005 17.2647 28.133 17.1367 28.2919 17.1367H32.5064C32.6639 17.1367 32.7933 17.2661 32.7933 17.4236V18.4881C32.7933 18.647 32.6653 18.775 32.5064 18.775H29.6419V19.8803H32.5064C32.6639 19.8803 32.7933 20.0097 32.7933 20.1672V21.2317C32.7933 21.3906 32.6653 21.5186 32.5064 21.5186H29.6419V22.6239H32.5064C32.6639 22.6239 32.7933 22.7533 32.7933 22.9108V23.9753C32.7933 24.1342 32.6653 24.2622 32.5064 24.2622V24.258Z" fill="#06C755"/>
<path d="M16.9155 24.2574C17.073 24.2574 17.2024 24.1295 17.2024 23.9705V22.906C17.2024 22.7485 17.073 22.6191 16.9155 22.6191H14.051V17.4216C14.051 17.2641 13.9216 17.1348 13.7641 17.1348H12.6996C12.5407 17.1348 12.4127 17.2627 12.4127 17.4216V23.9649V23.9705C12.4127 24.1295 12.5407 24.2574 12.6996 24.2574H16.9141H16.9155Z" fill="#06C755"/>
<path d="M19.4525 17.1367H18.3894C18.231 17.1367 18.1025 17.2652 18.1025 17.4236V23.9711C18.1025 24.1295 18.231 24.258 18.3894 24.258H19.4525C19.611 24.258 19.7394 24.1295 19.7394 23.9711V17.4236C19.7394 17.2652 19.611 17.1367 19.4525 17.1367Z" fill="#06C755"/>
<path d="M26.696 17.1367H25.6315C25.4726 17.1367 25.3446 17.2647 25.3446 17.4236V21.3119L22.3493 17.2661C22.3423 17.2562 22.3338 17.2464 22.3268 17.2366C22.3268 17.2366 22.3268 17.2366 22.3254 17.2352C22.3198 17.2295 22.3142 17.2225 22.3085 17.2169C22.3071 17.2155 22.3043 17.2141 22.3029 17.2127C22.2973 17.2084 22.2931 17.2042 22.2874 17.2C22.2846 17.1986 22.2818 17.1958 22.279 17.1944C22.2748 17.1902 22.2692 17.1873 22.2635 17.1845C22.2607 17.1831 22.2579 17.1803 22.2551 17.1789C22.2495 17.1761 22.2452 17.1733 22.2396 17.1705C22.2368 17.1691 22.234 17.1677 22.2312 17.1662C22.2256 17.1634 22.2199 17.1606 22.2143 17.1592C22.2115 17.1592 22.2087 17.1564 22.2045 17.1564C22.1988 17.155 22.1932 17.1522 22.1876 17.1508C22.1848 17.1508 22.1806 17.1494 22.1778 17.148C22.1721 17.148 22.1665 17.1452 22.1609 17.1438C22.1567 17.1438 22.1524 17.1438 22.1482 17.1423C22.1426 17.1423 22.1384 17.1409 22.1327 17.1409C22.1271 17.1409 22.1229 17.1409 22.1173 17.1409C22.1145 17.1409 22.1103 17.1409 22.1074 17.1409H21.0499C20.8924 17.1409 20.7631 17.2689 20.7631 17.4278V23.9753C20.7631 24.1328 20.891 24.2622 21.0499 24.2622H22.1145C22.2734 24.2622 22.4013 24.1342 22.4013 23.9753V20.087L25.4009 24.1384C25.422 24.168 25.4473 24.1919 25.4754 24.2102C25.4754 24.2102 25.4782 24.2116 25.4782 24.213C25.4838 24.2172 25.4895 24.22 25.4965 24.2242C25.4993 24.2256 25.5021 24.227 25.5049 24.2284C25.5092 24.2312 25.5148 24.2327 25.519 24.2355C25.5232 24.2383 25.5288 24.2397 25.5331 24.2411C25.5359 24.2411 25.5387 24.2439 25.5415 24.2439C25.5485 24.2467 25.5542 24.2481 25.5612 24.2495C25.5612 24.2495 25.564 24.2495 25.5654 24.2495C25.5893 24.2552 25.6146 24.2594 25.6399 24.2594H26.6974C26.8549 24.2594 26.9843 24.1314 26.9843 23.9725V17.425C26.9843 17.2675 26.8563 17.1381 26.6974 17.1381L26.696 17.1367Z" fill="#06C755"/>
</svg>
