<svg width="60" height="60" viewBox="0 0 60 60" fill="none" xmlns="http://www.w3.org/2000/svg">
<circle cx="30" cy="30" r="29.25" stroke="#D9B855" stroke-width="1.5"/>
<path d="M17.8134 44.75C17.7574 44.75 17.7294 44.6847 17.7294 44.554C17.7294 44.4327 17.7574 44.372 17.8134 44.372H18.0234C18.4248 44.372 18.7234 44.302 18.9194 44.162C19.1248 44.0127 19.2274 43.7607 19.2274 43.406V35.818C19.2274 35.4727 19.1341 35.2393 18.9474 35.118C18.7608 34.9873 18.4994 34.922 18.1634 34.922C18.1074 34.922 17.9954 34.9313 17.8274 34.95C17.4261 34.9873 16.9734 35.16 16.4694 35.468C15.9748 35.776 15.5874 36.126 15.3074 36.518C15.2701 36.5833 15.2234 36.616 15.1674 36.616C15.1394 36.616 15.1068 36.6067 15.0694 36.588C14.9854 36.5507 14.9434 36.5087 14.9434 36.462L14.9574 36.378C15.3774 35.2673 15.6108 34.6513 15.6574 34.53H24.1414C24.1881 34.6513 24.4214 35.2673 24.8414 36.378L24.8554 36.462C24.8554 36.5087 24.8134 36.5507 24.7294 36.588C24.6921 36.6067 24.6594 36.616 24.6314 36.616C24.5754 36.616 24.5288 36.5833 24.4914 36.518C24.2114 36.126 23.8194 35.776 23.3154 35.468C22.8208 35.16 22.3728 34.9873 21.9714 34.95C21.8034 34.9313 21.6914 34.922 21.6354 34.922C21.2901 34.922 21.0241 34.9873 20.8374 35.118C20.6601 35.2487 20.5714 35.482 20.5714 35.818V43.406C20.5714 43.77 20.6741 44.022 20.8794 44.162C21.0848 44.302 21.3834 44.372 21.7754 44.372H21.9714C22.0368 44.372 22.0694 44.4327 22.0694 44.554C22.0694 44.6847 22.0368 44.75 21.9714 44.75H17.8134ZM30.5791 44.946C29.8325 44.946 29.0951 44.7453 28.3671 44.344C27.6485 43.9333 27.0558 43.3313 26.5891 42.538C26.1225 41.7353 25.8891 40.7787 25.8891 39.668C25.8891 38.5667 26.1225 37.6193 26.5891 36.826C27.0558 36.0233 27.6485 35.4213 28.3671 35.02C29.0951 34.6093 29.8325 34.404 30.5791 34.404C31.3258 34.404 32.0585 34.6093 32.7771 35.02C33.4958 35.4213 34.0885 36.0233 34.5551 36.826C35.0218 37.6193 35.2551 38.5667 35.2551 39.668C35.2551 40.7787 35.0218 41.7353 34.5551 42.538C34.0885 43.3313 33.4958 43.9333 32.7771 44.344C32.0585 44.7453 31.3258 44.946 30.5791 44.946ZM30.5791 44.484C31.1391 44.484 31.6571 44.3067 32.1331 43.952C32.6185 43.588 33.0058 43.042 33.2951 42.314C33.5938 41.586 33.7431 40.704 33.7431 39.668C33.7431 38.632 33.5938 37.7547 33.2951 37.036C33.0058 36.3173 32.6185 35.776 32.1331 35.412C31.6571 35.048 31.1391 34.866 30.5791 34.866C30.0191 34.866 29.5011 35.048 29.0251 35.412C28.5491 35.7667 28.1618 36.308 27.8631 37.036C27.5738 37.7547 27.4291 38.632 27.4291 39.668C27.4291 40.704 27.5738 41.586 27.8631 42.314C28.1618 43.042 28.5491 43.588 29.0251 43.952C29.5011 44.3067 30.0191 44.484 30.5791 44.484ZM41.5586 34.53C42.1653 34.5487 42.73 34.67 43.2526 34.894C43.7846 35.1087 44.2093 35.4167 44.5266 35.818C44.844 36.2193 45.0026 36.6907 45.0026 37.232C45.0026 38.9493 43.752 39.8827 41.2506 40.032C41.092 40.0413 40.798 40.046 40.3686 40.046H39.6546V43.406C39.6546 43.77 39.7526 44.022 39.9486 44.162C40.1446 44.302 40.4433 44.372 40.8446 44.372H41.0546C41.12 44.372 41.1526 44.4327 41.1526 44.554C41.1526 44.6847 41.12 44.75 41.0546 44.75H36.8826C36.8173 44.75 36.7846 44.6847 36.7846 44.554C36.7846 44.4327 36.8173 44.372 36.8826 44.372H37.0926C37.4846 44.372 37.7833 44.302 37.9886 44.162C38.194 44.022 38.2966 43.77 38.2966 43.406V35.874C38.2966 35.5193 38.194 35.272 37.9886 35.132C37.7926 34.9827 37.494 34.908 37.0926 34.908H36.8826C36.8173 34.908 36.7846 34.8473 36.7846 34.726C36.7846 34.5953 36.8173 34.53 36.8826 34.53H40.0326H41.5586ZM40.7326 39.64C41.7406 39.6213 42.45 39.3973 42.8606 38.968C43.2713 38.5293 43.4766 37.932 43.4766 37.176C43.4766 36.5507 43.3086 36.07 42.9726 35.734C42.646 35.398 42.282 35.1787 41.8806 35.076C41.4793 34.9733 41.12 34.922 40.8026 34.922C40.0373 34.922 39.6546 35.2207 39.6546 35.818V39.64H40.0886H40.7326Z" fill="white"/>
<path d="M37.5 22.5L30 15L22.5 22.5" stroke="#D9B855" stroke-width="2" stroke-linecap="round"/>
</svg>
