<?xml version="1.0" encoding="utf-8"?>
<!-- Generator: Adobe Illustrator 26.1.0, SVG Export Plug-In . SVG Version: 6.00 Build 0)  -->
<svg version="1.1" id="レイヤー_1" xmlns="http://www.w3.org/2000/svg" xmlns:xlink="http://www.w3.org/1999/xlink" x="0px"
	 y="0px" viewBox="0 0 150 127" style="enable-background:new 0 0 150 127;" xml:space="preserve">
<style type="text/css">
	.st0{fill:#DC4F54;}
	.st1{fill:none;stroke:#313333;stroke-width:0.93;stroke-miterlimit:10;}
	.st2{fill:#323333;}
	.st3{fill:#313333;}
	.st4{fill:#FFFFFF;}
</style>
<g>
	<g>
		<path class="st0" d="M76.6,3.9L76.4,4c-0.1,0.1-0.3,0.1-0.4,0.2c-0.1,0.1-0.2,0.1-0.2,0.2c0,0.1,0,0.1,0,0.2
			c0,0.1,0.1,0.1,0.2,0.1l0.3,0c0.2,0,0.5,0,0.7-0.1l0.4-0.1c0.2-0.1,0.5-0.2,0.7-0.3l0.2-0.1c0.1-0.1,0.3-0.1,0.4-0.2
			C78.8,4,78.8,4,78.9,3.9c0-0.1,0-0.1,0-0.2c0-0.1-0.1-0.1-0.2-0.1l-0.3,0c-0.2,0-0.5,0-0.7,0.1l-0.4,0.1
			C77.1,3.7,76.8,3.8,76.6,3.9C76.6,3.9,76.6,3.9,76.6,3.9z"/>
		<path class="st0" d="M78.4,7.1c-0.2-0.4,0-0.9,0.8-1.3c0.9-0.4,1.6-0.2,1.7-0.1c0.2,0.1,0.5,0.5,0.7,1.2s0.3,1.4,0.3,2.1
			c0,0.7-0.2,1.5-0.5,2.1c-0.2,0.6-0.7,1.4-0.9,1.8s-0.5,0.8-0.9,1.4c-0.4,0.6-1,1.1-1.5,1.5c-0.5,0.3-1.1,0.8-1.5,1.1
			c-0.4,0.3-1.2,1-1.5,1.3c-0.3,0.3-1.5,1.5-2.1,2.7c-0.6,1.2-0.9,1.5-0.4,2.3s1.8,1.9,2.4,1.8c0.7-0.1,3.6-1.1,4.2-1.4
			c0.6-0.4,1.6-1.3,2.7-1.2c1,0.1,0.9,0.5,0.8,1c-0.1,0.4-0.3,0.8-0.4,1.1c-0.1,0.4-0.1,1.9-0.1,2.5s-0.1,1.9-0.6,2.8
			c-0.5,0.8-1.3,1.8-2.7,2.5c-1.4,0.8-2.2,1.4-3.3,1.5c-1.1,0.2-2.4,0-3.4-0.3s-3.9-1.4-4.6-2.1c-0.6-0.7-1.5-1.4-1.9-3.3
			c-0.3-1.9-0.3-4,0.6-5.5c0.9-1.5,2.1-3.4,4.3-5c2.2-1.6,3.7-2.4,4.3-2.9s2.5-1.9,2.8-2.3c0.3-0.4,1.4-2,1.2-3.6
			C78.9,8,78.6,7.4,78.4,7.1L78.4,7.1z"/>
	</g>
	<path class="st1" d="M29,68.9c1.7-16.5,12.2-30.5,26.8-37.1"/>
	<path class="st1" d="M90.8,30.7c9.5,3.5,17.4,10.1,22.7,18.5"/>
	<g>
		<path class="st2" d="M31,77.3c0.6-0.1,1.2-0.2,1.8-0.3s1.2-0.2,1.8-0.3c0,0.2,0,0.5,0.1,0.7c0,0.3,0.1,0.5,0.1,0.7
			c0,0.2,0.1,0.5,0.1,0.7c0.1,0.2,0.1,0.5,0.1,0.7c0.1,0.4,0.1,0.8,0.1,1.1c0,0.4-0.1,0.7-0.2,1s-0.3,0.5-0.5,0.7
			c-0.2,0.2-0.5,0.3-0.9,0.4c-0.7,0.1-1.3,0-1.7-0.4c-0.5-0.4-0.8-0.9-1.1-1.6h0c0.1,0.8,0,1.5-0.3,2c-0.3,0.5-0.8,0.9-1.6,1
			c-0.5,0.1-1,0-1.4-0.1s-0.7-0.4-1-0.7c-0.3-0.3-0.5-0.7-0.6-1.1c-0.1-0.4-0.3-0.8-0.3-1.2c0-0.2-0.1-0.4-0.1-0.7
			c0-0.2-0.1-0.5-0.1-0.7c0-0.2-0.1-0.4-0.1-0.7c0-0.2-0.1-0.5-0.1-0.7c0.6-0.1,1.2-0.1,1.8-0.2c0.6-0.1,1.2-0.1,1.8-0.2L31,77.3
			L31,77.3z M28.6,78.9c-0.5,0.1-0.9,0.2-1.4,0.2c-0.5,0.1-0.9,0.2-1.4,0.3c0,0.2,0,0.4,0,0.6c0,0.2,0.1,0.5,0.1,0.7
			c0,0.3,0.1,0.6,0.3,0.8s0.3,0.5,0.6,0.6c0.2,0.2,0.5,0.3,0.8,0.4c0.3,0.1,0.6,0.1,1,0c0.4-0.1,0.7-0.2,0.9-0.4
			c0.2-0.2,0.4-0.4,0.5-0.7c0.1-0.3,0.2-0.6,0.2-1c0-0.4,0-0.8-0.1-1.3L30,78.7L28.6,78.9L28.6,78.9z M30.6,79.3
			c0.1,0.3,0.1,0.6,0.2,1s0.3,0.6,0.5,0.8c0.2,0.2,0.4,0.4,0.7,0.5c0.3,0.1,0.6,0.1,1,0.1c0.4-0.1,0.7-0.2,0.9-0.3
			c0.2-0.2,0.4-0.4,0.5-0.6c0.1-0.2,0.1-0.5,0.1-0.8s0-0.5-0.1-0.8c0-0.2-0.1-0.4-0.1-0.6s-0.1-0.3-0.1-0.4
			c-0.4,0.1-0.9,0.1-1.3,0.1c-0.4,0-0.9,0.1-1.3,0.2l-1,0.2L30.6,79.3L30.6,79.3z"/>
		<path class="st2" d="M29.5,85.7c1.1-0.4,2-0.4,2.8-0.1c0.8,0.3,1.4,1,1.7,2c0.2,0.5,0.2,0.9,0.2,1.3c0,0.4-0.1,0.7-0.3,1.1
			c-0.2,0.3-0.4,0.6-0.7,0.8c-0.3,0.2-0.6,0.4-1,0.5c-0.1,0-0.2,0.1-0.3,0.1c-0.1,0-0.2,0-0.3,0.1c-0.2-0.5-0.3-1-0.5-1.4
			c-0.1-0.5-0.3-0.9-0.5-1.4c-0.1-0.3-0.2-0.6-0.3-0.9c-0.1-0.3-0.2-0.6-0.3-0.9c0,0-0.1,0-0.2,0.1l-0.2,0.1
			c-0.3,0.1-0.7,0.3-0.9,0.5c-0.3,0.2-0.5,0.4-0.6,0.7C28.1,88.4,28,88.7,28,89c0,0.3,0,0.7,0.1,1c0.1,0.2,0.1,0.3,0.3,0.5
			c0.1,0.2,0.2,0.3,0.4,0.5c0.1,0.2,0.3,0.3,0.5,0.4s0.3,0.2,0.5,0.3l0,0.1L29.1,92c-0.3-0.2-0.6-0.5-0.9-0.8
			c-0.3-0.3-0.5-0.7-0.6-1.2c-0.2-0.5-0.2-0.9-0.2-1.4c0-0.4,0.1-0.9,0.3-1.2c0.2-0.4,0.4-0.7,0.8-1C28.7,86.1,29.1,85.9,29.5,85.7
			L29.5,85.7z M33.6,87.8c-0.1-0.3-0.3-0.6-0.5-0.8s-0.5-0.3-0.8-0.4c-0.3-0.1-0.6-0.1-0.9-0.1c-0.3,0-0.6,0.1-0.8,0.1
			c0.1,0.3,0.2,0.6,0.3,0.9c0.1,0.3,0.2,0.6,0.3,0.9c0.1,0.3,0.2,0.6,0.3,0.9c0.1,0.3,0.2,0.6,0.3,0.9c0.2-0.1,0.5-0.2,0.7-0.3
			s0.5-0.3,0.7-0.5c0.2-0.2,0.3-0.4,0.4-0.7C33.8,88.4,33.8,88.1,33.6,87.8L33.6,87.8z"/>
		<path class="st2" d="M34.9,92c0.5,0.2,0.9,0.5,1.1,0.7c0.3,0.3,0.5,0.6,0.7,0.9c0.2,0.3,0.3,0.6,0.3,0.9c0,0.3,0,0.6,0,0.8
			c-0.1,0.3-0.2,0.5-0.4,0.7c-0.2,0.2-0.4,0.4-0.7,0.5c-0.5,0.2-0.9,0.5-1.4,0.7c-0.5,0.2-1,0.5-1.5,0.8c-0.1,0.1-0.2,0.1-0.3,0.2
			c-0.1,0.1-0.2,0.1-0.3,0.2c-0.1,0.1-0.1,0.2-0.1,0.3c0,0.1,0,0.2,0.1,0.3c0,0,0,0.1,0.1,0.1c0,0,0.1,0.1,0.1,0.1l-0.3,0.1
			c-0.1-0.1-0.2-0.2-0.3-0.3c-0.1-0.1-0.2-0.3-0.3-0.4c-0.1-0.3-0.2-0.5-0.1-0.7c0.1-0.2,0.2-0.4,0.4-0.5c-0.5-0.1-0.8-0.3-1.1-0.5
			s-0.6-0.5-0.8-1c-0.1-0.2-0.2-0.4-0.2-0.7c0-0.2,0-0.5,0-0.7c0.1-0.2,0.1-0.4,0.3-0.6c0.1-0.2,0.3-0.4,0.6-0.5
			c0.5-0.3,1-0.3,1.4-0.1c0.4,0.2,0.8,0.5,1.2,1c0.3,0.4,0.6,0.7,0.7,0.9c0.2,0.2,0.3,0.4,0.5,0.5c0.1,0.1,0.2,0.1,0.3,0.1
			s0.2-0.1,0.3-0.1c0.2-0.1,0.4-0.2,0.6-0.4c0.2-0.2,0.3-0.3,0.4-0.5c0.1-0.2,0.1-0.4,0.1-0.6c0-0.2-0.1-0.5-0.2-0.7
			c-0.2-0.3-0.4-0.6-0.7-0.8c-0.3-0.2-0.6-0.3-1-0.3l-0.1-0.1L34.9,92L34.9,92z M34.3,96.2c-0.1-0.1-0.3-0.3-0.4-0.4
			c-0.1-0.2-0.3-0.3-0.4-0.5c-0.1-0.2-0.3-0.3-0.4-0.5c-0.2-0.2-0.3-0.3-0.5-0.4c-0.2-0.1-0.4-0.1-0.6-0.2c-0.2,0-0.4,0.1-0.6,0.2
			c-0.4,0.2-0.6,0.5-0.7,0.8c-0.1,0.3-0.1,0.6,0.1,0.9c0.2,0.3,0.4,0.6,0.7,0.7c0.3,0.2,0.6,0.3,0.9,0.3L34.3,96.2L34.3,96.2z"/>
		<path class="st2" d="M35.1,100.2c0.4-0.3,0.7-0.6,1-0.7c0.3-0.2,0.6-0.4,0.8-0.6c0.3-0.2,0.5-0.4,0.8-0.7c0.3-0.2,0.6-0.5,0.9-0.7
			c0.1,0.2,0.2,0.4,0.3,0.5c0.1,0.1,0.2,0.3,0.4,0.4c-0.5,0.3-1,0.6-1.5,1c-0.5,0.4-1.1,0.8-1.7,1.2c-0.4,0.3-0.7,0.6-0.8,0.8
			c-0.2,0.2-0.2,0.4-0.3,0.6c0,0.2,0,0.4,0,0.6c0,0.2,0.1,0.4,0.3,0.7c0.2,0.3,0.5,0.5,0.8,0.6c0.3,0.1,0.6,0.1,0.9,0.1
			c0.2,0,0.3-0.1,0.4-0.1c0.1,0,0.2-0.1,0.4-0.2c0.2-0.1,0.4-0.2,0.6-0.4c0.3-0.2,0.6-0.5,1-0.8l0.9-0.7c0.2-0.1,0.3-0.2,0.5-0.4
			c0.1-0.1,0.3-0.2,0.4-0.3c0.1,0.1,0.1,0.2,0.1,0.3c0,0.1,0.1,0.2,0.2,0.2s0.1,0.2,0.2,0.2c0.1,0.1,0.1,0.1,0.2,0.2
			c-0.6,0.4-1.2,0.8-1.7,1.2c-0.5,0.4-1.1,0.8-1.7,1.3c-0.3,0.3-0.7,0.5-1,0.8c-0.3,0.2-0.6,0.5-0.9,0.7c-0.1-0.2-0.2-0.3-0.3-0.5
			s-0.2-0.3-0.4-0.4c0.1,0,0.1-0.1,0.2-0.1c0.1-0.1,0.2-0.1,0.2-0.2l0.5-0.4l0,0c-0.5,0.1-1,0-1.4-0.2c-0.4-0.2-0.7-0.4-1-0.8
			c-0.4-0.6-0.6-1.2-0.6-1.7C34.2,101.2,34.5,100.7,35.1,100.2L35.1,100.2z"/>
		<path class="st2" d="M45.7,102.9c-0.3,0.2-0.5,0.5-0.8,0.7c-0.3,0.2-0.5,0.5-0.8,0.7c0.1,0.1,0.2,0.2,0.4,0.4
			c0.2,0.2,0.4,0.4,0.7,0.6c0,0-0.1,0-0.1,0.1l-0.1,0.1l-0.1,0.1c0,0-0.1,0.1-0.1,0.1c-0.1-0.1-0.2-0.2-0.3-0.3
			c-0.1-0.1-0.2-0.2-0.3-0.3l-0.5-0.5c0,0-0.1,0.1-0.3,0.3c-0.2,0.2-0.4,0.4-0.7,0.6c-0.3,0.2-0.5,0.5-0.8,0.8
			c-0.3,0.3-0.5,0.5-0.7,0.7c-0.2,0.2-0.4,0.4-0.5,0.6s-0.3,0.4-0.4,0.6s-0.1,0.4-0.1,0.6c0,0.2,0.1,0.4,0.3,0.6
			c0.1,0.1,0.1,0.1,0.2,0.2c0.1,0.1,0.2,0.1,0.3,0.2l-0.2,0.2c-0.1-0.1-0.3-0.2-0.4-0.3c-0.2-0.1-0.3-0.2-0.4-0.3
			c-0.4-0.4-0.6-0.8-0.6-1.2c0-0.4,0.2-0.8,0.6-1.2c0.2-0.2,0.4-0.4,0.6-0.6c0.2-0.2,0.5-0.4,0.7-0.7s0.5-0.5,0.9-0.8
			c0.3-0.3,0.6-0.6,1-1l-0.3-0.3c-0.1-0.1-0.1-0.1-0.2-0.2c-0.1-0.1-0.1-0.1-0.2-0.2c0,0,0.1-0.1,0.1-0.1c0,0,0.1-0.1,0.1-0.1
			c0,0,0.1-0.1,0.1-0.1c0,0,0.1-0.1,0.1-0.1c0.3,0.3,0.5,0.5,0.6,0.7c0.1-0.1,0.3-0.3,0.5-0.5c0.2-0.2,0.4-0.4,0.6-0.6L45.7,102.9
			L45.7,102.9L45.7,102.9z"/>
		<path class="st2" d="M43.5,112.5c0.1-0.3,0.2-0.6,0.3-1c0.1-0.4,0.2-0.9,0.4-1.3c0.1-0.5,0.3-0.9,0.4-1.4s0.3-0.9,0.4-1.4
			c0.1-0.4,0.2-0.8,0.3-1.1c0.1-0.3,0.2-0.6,0.2-0.7c0.1,0.1,0.2,0.2,0.2,0.2c0.1,0.1,0.1,0.1,0.2,0.2s0.2,0.1,0.3,0.2
			c0.1,0.1,0.2,0.1,0.3,0.2c-0.3,0.9-0.6,1.8-0.9,2.7c-0.3,0.9-0.5,1.9-0.8,2.8c0.8-0.4,1.7-0.9,2.5-1.4c0.9-0.5,1.7-1,2.5-1.6
			c0.1,0.2,0.2,0.3,0.3,0.3c0.1,0.1,0.2,0.2,0.4,0.2c-0.1,0.1-0.4,0.2-0.7,0.3c-0.3,0.2-0.7,0.3-1.1,0.6c-0.4,0.2-0.9,0.5-1.4,0.7
			c-0.5,0.3-1,0.5-1.6,0.8c-0.5,0.3-1.1,0.6-1.6,0.8s-1,0.5-1.5,0.8c-0.5,0.3-0.9,0.5-1.3,0.7c-0.4,0.2-0.7,0.4-0.9,0.5
			c-0.1-0.2-0.2-0.3-0.3-0.3c-0.1-0.1-0.2-0.2-0.4-0.2C41.1,113.7,42.4,113.1,43.5,112.5L43.5,112.5z"/>
		<path class="st2" d="M52.6,114.6c0.3-0.6,0.6-1,0.9-1.3c0.4-0.3,0.8-0.5,1.2-0.6c0.4-0.1,0.9-0.2,1.3-0.1c0.4,0.1,0.9,0.2,1.3,0.4
			c0.5,0.2,0.9,0.5,1.2,0.7c0.3,0.3,0.5,0.5,0.6,0.8c-0.1,0.1-0.2,0.2-0.3,0.3c-0.1,0.1-0.2,0.2-0.3,0.4l-0.1,0c0-0.1,0-0.3-0.1-0.5
			c0-0.2-0.1-0.3-0.2-0.5c-0.1-0.2-0.2-0.3-0.4-0.5s-0.3-0.3-0.5-0.4c-0.4-0.2-0.7-0.3-1.1-0.2c-0.3,0-0.7,0.1-0.9,0.3
			s-0.6,0.4-0.8,0.7c-0.2,0.3-0.4,0.6-0.6,1c-0.4,0.9-0.5,1.6-0.4,2.2c0.2,0.6,0.6,1.1,1.3,1.4c0.2,0.1,0.4,0.1,0.6,0.2
			s0.4,0.1,0.6,0.1c0.2,0,0.4,0,0.6-0.1s0.4-0.1,0.6-0.2l0,0.1c-0.1,0.2-0.3,0.4-0.4,0.6c-0.3,0.1-0.7,0.1-1.2,0.1s-0.9-0.1-1.3-0.3
			c-0.4-0.2-0.7-0.4-1-0.7c-0.3-0.3-0.6-0.6-0.8-1c-0.2-0.4-0.3-0.8-0.3-1.3C52.2,115.7,52.4,115.2,52.6,114.6L52.6,114.6z"/>
		<path class="st2" d="M58.8,117.5c0.2-0.6,0.4-1.1,0.7-1.5c0.3-0.4,0.7-0.6,1.1-0.8c0.4-0.2,0.8-0.3,1.2-0.3c0.4,0,0.8,0,1.2,0.1
			c0.4,0.1,0.8,0.3,1.1,0.5c0.3,0.2,0.6,0.5,0.9,0.9c0.2,0.4,0.4,0.8,0.5,1.3c0.1,0.5,0,1-0.1,1.6c-0.2,0.6-0.4,1.1-0.7,1.5
			c-0.3,0.4-0.7,0.6-1.1,0.8c-0.4,0.2-0.8,0.3-1.2,0.3s-0.8-0.1-1.2-0.2c-0.4-0.1-0.8-0.3-1.1-0.5c-0.4-0.2-0.7-0.5-0.9-0.9
			c-0.2-0.4-0.4-0.8-0.5-1.3C58.6,118.6,58.7,118.1,58.8,117.5L58.8,117.5z M60,117.8c-0.1,0.4-0.2,0.7-0.2,1.1c0,0.4,0,0.7,0.1,1
			s0.2,0.6,0.5,0.8s0.5,0.4,0.9,0.5c0.4,0.1,0.7,0.1,1.1,0c0.3-0.1,0.6-0.2,0.8-0.5c0.2-0.2,0.4-0.5,0.6-0.8
			c0.2-0.3,0.3-0.7,0.4-1.1c0.1-0.4,0.2-0.7,0.2-1.1c0-0.4,0-0.7-0.1-1c-0.1-0.3-0.2-0.6-0.5-0.8s-0.5-0.4-0.9-0.5
			c-0.4-0.1-0.7-0.1-1.1,0s-0.6,0.2-0.8,0.5c-0.2,0.2-0.4,0.5-0.6,0.8C60.3,117.1,60.1,117.4,60,117.8z"/>
		<path class="st2" d="M66.3,119.5c0.1-0.6,0.2-1.2,0.5-1.6c0.2-0.4,0.5-0.7,0.9-1c0.4-0.2,0.7-0.4,1.2-0.5c0.4-0.1,0.8-0.1,1.2-0.1
			c0.4,0,0.8,0.2,1.2,0.3s0.7,0.4,1,0.7s0.5,0.7,0.7,1.2c0.2,0.5,0.2,1,0.1,1.6c-0.1,0.6-0.2,1.2-0.5,1.6c-0.2,0.4-0.6,0.7-0.9,1
			c-0.4,0.2-0.7,0.4-1.1,0.5c-0.4,0.1-0.8,0.1-1.2,0c-0.4,0-0.8-0.1-1.2-0.3c-0.4-0.2-0.7-0.4-1-0.7c-0.3-0.3-0.5-0.7-0.7-1.2
			C66.3,120.7,66.2,120.1,66.3,119.5L66.3,119.5z M67.5,119.6c0,0.4-0.1,0.8,0,1.1c0,0.4,0.1,0.7,0.2,1s0.3,0.6,0.6,0.7
			c0.3,0.2,0.6,0.3,1,0.4c0.4,0,0.8,0,1.1-0.1c0.3-0.1,0.5-0.3,0.7-0.6c0.2-0.3,0.3-0.6,0.5-0.9c0.1-0.4,0.2-0.7,0.2-1.1
			c0-0.4,0.1-0.8,0-1.1c0-0.4-0.1-0.7-0.3-1c-0.1-0.3-0.3-0.6-0.6-0.7c-0.3-0.2-0.6-0.3-1-0.4c-0.4,0-0.8,0-1.1,0.1
			c-0.3,0.1-0.5,0.3-0.7,0.6c-0.2,0.3-0.3,0.6-0.5,0.9C67.6,118.8,67.5,119.2,67.5,119.6L67.5,119.6z"/>
		<path class="st2" d="M74.4,115.9c0-0.4,0-0.7-0.1-1.1c0-0.4-0.1-0.7-0.1-1c0-0.3-0.1-0.6-0.1-0.8c0.3,0,0.5,0,0.6,0
			c0.2,0,0.4,0,0.6-0.1c0,0.2,0,0.5,0,0.9c0,0.3,0,0.7,0,1c0,0.4,0,0.7,0,1.1c0,0.4,0,0.7,0,1l0.1,2.6c0,0.2,0.1,0.3,0.2,0.3
			c0.1,0,0.2,0,0.2-0.1c0.1-0.1,0.2-0.1,0.3-0.2c0.1-0.1,0.2-0.2,0.4-0.4c0.2-0.2,0.4-0.4,0.6-0.7c0.2-0.3,0.5-0.5,0.7-0.8
			s0.5-0.6,0.7-0.8c0.2,0,0.4,0.1,0.5,0c0.1,0,0.2,0,0.3,0c0.1,0,0.2,0,0.4-0.1c-0.6,0.5-1.1,1-1.6,1.5c-0.5,0.5-1,1-1.5,1.5
			c0.6,0.6,1.1,1.2,1.7,1.9c0.6,0.6,1.2,1.2,1.8,1.8c-0.2,0-0.3,0-0.4,0c-0.1,0-0.2,0-0.4,0c-0.1,0-0.2,0-0.3,0c-0.1,0-0.2,0-0.4,0
			c-0.2-0.2-0.5-0.5-0.7-0.8c-0.3-0.3-0.6-0.6-0.8-0.9c-0.3-0.3-0.5-0.6-0.8-0.8c-0.2-0.3-0.5-0.5-0.6-0.6c0,0-0.1-0.1-0.1-0.1
			c0,0-0.1,0-0.1,0c-0.1,0-0.1,0.1-0.1,0.2l0,0.8c0,0.4,0,0.8,0.1,1.2s0.1,0.8,0.1,1.2c-0.2,0-0.4,0-0.6,0c-0.2,0-0.4,0-0.6,0.1
			c0-0.2,0-0.5,0-0.8c0-0.3,0-0.7,0-1c0-0.4,0-0.7,0-1.1c0-0.4,0-0.7,0-1l-0.1-2.5C74.4,116.6,74.4,116.3,74.4,115.9L74.4,115.9z"/>
		<path class="st2" d="M80.5,113.9c0-0.2,0-0.4,0.1-0.5c0.1-0.2,0.3-0.3,0.5-0.3c0.2,0,0.4,0,0.5,0.1c0.2,0.1,0.3,0.3,0.3,0.5
			c0,0.2,0,0.4-0.1,0.5c-0.1,0.2-0.3,0.3-0.5,0.3c-0.2,0-0.4,0-0.5-0.1C80.6,114.3,80.5,114.1,80.5,113.9z M81.5,118.9
			c-0.1-0.4-0.1-0.9-0.2-1.3s-0.2-0.9-0.3-1.3c0.3,0,0.5,0,0.6,0c0.2,0,0.4-0.1,0.6-0.2c0,0.4,0.1,0.8,0.1,1.3
			c0.1,0.5,0.1,0.9,0.2,1.3l0.2,1.4c0.1,0.4,0.1,0.9,0.2,1.3c0.1,0.5,0.2,0.9,0.3,1.2c-0.2,0-0.4,0-0.6,0.1c-0.2,0-0.4,0.1-0.6,0.1
			c0-0.4-0.1-0.8-0.1-1.3c-0.1-0.5-0.1-0.9-0.2-1.3C81.7,120.3,81.5,118.9,81.5,118.9z"/>
		<path class="st2" d="M88.3,115.8c-0.4-0.3-0.8-0.3-1.2-0.2c-0.6,0.2-1,0.5-1.2,1c-0.2,0.5-0.2,1.1,0,1.8l0.3,1.1
			c0.1,0.4,0.2,0.8,0.4,1.3s0.3,0.8,0.4,1.2c-0.2,0-0.4,0.1-0.6,0.1c-0.2,0.1-0.4,0.1-0.6,0.2c-0.1-0.4-0.1-0.8-0.3-1.2
			c-0.1-0.5-0.2-0.9-0.3-1.3l-0.4-1.4c-0.1-0.4-0.2-0.8-0.4-1.3s-0.3-0.9-0.5-1.2c0.3,0,0.5-0.1,0.6-0.1c0.1,0,0.1-0.1,0.2-0.1
			c0.1,0,0.2-0.1,0.3-0.1c0.1,0.4,0.2,0.7,0.3,1.1h0c0.1-0.5,0.4-0.9,0.6-1.2c0.3-0.3,0.7-0.5,1.2-0.7c0.3-0.1,0.5-0.1,0.8-0.1
			c0.3,0,0.5,0.1,0.8,0.2c0.3,0.1,0.5,0.3,0.7,0.6c0.2,0.3,0.4,0.6,0.5,1.1c0.1,0.4,0.2,0.8,0.3,1.2c0.1,0.4,0.2,0.9,0.3,1.3
			l0.3,0.9c0,0.1,0.1,0.3,0.1,0.4c0,0.1,0.1,0.3,0.1,0.4c-0.2,0-0.4,0.1-0.6,0.1c-0.2,0.1-0.4,0.1-0.5,0.2c-0.1-0.5-0.2-1-0.4-1.5
			c-0.1-0.5-0.3-1-0.4-1.5l-0.2-0.8C88.9,116.5,88.6,116,88.3,115.8L88.3,115.8z"/>
		<path class="st2" d="M91.4,115.8c-0.2-0.4-0.2-0.7-0.2-1c0-0.3,0.1-0.6,0.2-0.9c0.1-0.3,0.3-0.5,0.6-0.7c0.3-0.2,0.5-0.4,0.9-0.6
			c0.2-0.1,0.3-0.1,0.5-0.2c0.2-0.1,0.3-0.1,0.6-0.2c0.2-0.1,0.4-0.1,0.5-0.2c0.2-0.1,0.3-0.1,0.4-0.2c0.5-0.2,0.8-0.4,1-0.5
			c0,0,0,0.1,0,0.1c0,0.1,0,0.1,0.1,0.1c0,0,0,0.1,0.1,0.1c0,0,0.1,0.1,0.1,0.1c-0.3,0.1-0.5,0.2-0.7,0.3c-0.2,0.1-0.5,0.2-0.7,0.3
			l0,0c0.3,0,0.6,0.1,0.9,0.4c0.3,0.2,0.5,0.5,0.7,0.8c0.3,0.6,0.3,1.2,0.1,1.8c-0.3,0.6-0.7,1-1.5,1.3c-0.1,0.1-0.2,0.1-0.4,0.2
			c-0.1,0-0.2,0.1-0.4,0.2c-0.2,0.1-0.3,0.2-0.3,0.4c-0.1,0.2-0.1,0.3,0,0.5c0.1,0.2,0.2,0.4,0.4,0.4c0.2,0.1,0.4,0,0.7-0.1
			c0.2-0.1,0.5-0.2,0.7-0.3c0.2-0.1,0.5-0.2,0.7-0.3c0.4-0.2,0.7-0.3,1.1-0.3c0.3,0,0.6,0,0.8,0s0.4,0.2,0.6,0.3s0.3,0.3,0.4,0.6
			c0.1,0.3,0.2,0.6,0.3,1c0,0.4,0,0.7-0.1,1.1c-0.1,0.4-0.3,0.7-0.6,1c-0.3,0.3-0.7,0.6-1.3,0.9c-0.8,0.4-1.5,0.5-2.2,0.4
			c-0.6-0.1-1.1-0.4-1.3-1c-0.1-0.2-0.2-0.4-0.2-0.7c0-0.2,0-0.4,0.1-0.6c0.1-0.2,0.2-0.4,0.3-0.5s0.3-0.3,0.4-0.4l0,0
			c-0.3,0-0.6,0-0.8-0.1c-0.2-0.1-0.4-0.3-0.5-0.5c-0.1-0.1-0.1-0.3-0.1-0.4c0-0.1,0-0.3,0.1-0.4c0-0.1,0.1-0.3,0.2-0.4
			c0.1-0.1,0.2-0.2,0.3-0.3l0,0c-0.5,0-0.9-0.1-1.3-0.3C91.9,116.6,91.6,116.3,91.4,115.8L91.4,115.8z M95.2,114
			c-0.2-0.5-0.6-0.9-1-1c-0.4-0.2-0.8-0.1-1.2,0.1c-0.5,0.2-0.7,0.5-0.9,1c-0.1,0.4,0,0.9,0.2,1.4c0.2,0.5,0.6,0.9,0.9,1.1
			c0.4,0.2,0.8,0.2,1.3,0c0.2-0.1,0.4-0.3,0.6-0.4c0.1-0.2,0.2-0.4,0.2-0.6c0-0.2,0-0.5,0-0.7C95.3,114.4,95.3,114.2,95.2,114
			L95.2,114z M98.4,119.1c-0.2-0.5-0.6-0.8-0.9-0.9c-0.4-0.1-0.9,0.1-1.6,0.4c-0.6,0.3-1.1,0.6-1.3,1c-0.2,0.4-0.2,0.8,0,1.4
			c0.1,0.3,0.3,0.5,0.5,0.7c0.2,0.2,0.4,0.3,0.6,0.3c0.2,0.1,0.5,0.1,0.7,0c0.3-0.1,0.5-0.1,0.8-0.3c0.3-0.1,0.5-0.3,0.7-0.5
			c0.2-0.2,0.4-0.4,0.5-0.6c0.1-0.2,0.2-0.5,0.2-0.7C98.6,119.7,98.5,119.4,98.4,119.1L98.4,119.1z"/>
		<path class="st2" d="M102.9,113.4c0.1,0,0.3,0,0.5,0c0.2,0,0.3,0,0.5-0.1c0.2-0.1,0.3-0.1,0.5-0.3c0.1-0.1,0.3-0.2,0.4-0.4
			c0.1-0.1,0.2-0.3,0.2-0.5c0-0.2,0-0.3,0-0.5c0-0.2-0.1-0.3-0.2-0.5c-0.2-0.2-0.4-0.4-0.6-0.4c-0.2,0-0.5,0-0.7,0.1
			c-0.3,0.1-0.5,0.2-0.8,0.3s-0.6,0.2-0.8,0.2c-0.3,0-0.5,0-0.8-0.1c-0.3-0.1-0.5-0.3-0.8-0.6c-0.2-0.2-0.3-0.5-0.4-0.8
			c-0.1-0.3-0.1-0.5,0-0.8c0-0.3,0.1-0.5,0.3-0.8c0.2-0.3,0.4-0.5,0.7-0.7c0.3-0.2,0.5-0.3,0.8-0.4c0.2-0.1,0.5-0.1,0.7-0.2
			c0,0.2,0.1,0.3,0.1,0.5c0.1,0.2,0.1,0.4,0.2,0.5l-0.1,0.1c-0.2-0.1-0.4-0.2-0.7-0.2c-0.3,0-0.5,0.1-0.8,0.3
			c-0.1,0.1-0.2,0.2-0.3,0.3c-0.1,0.1-0.1,0.3-0.2,0.4c0,0.1,0,0.3,0,0.5c0,0.2,0.1,0.3,0.2,0.5c0.2,0.2,0.4,0.4,0.6,0.4
			c0.2,0,0.5,0,0.7-0.1c0.2-0.1,0.5-0.2,0.8-0.3c0.3-0.1,0.5-0.2,0.8-0.2s0.5,0,0.8,0.1c0.3,0.1,0.5,0.3,0.8,0.6
			c0.2,0.2,0.3,0.5,0.3,0.7s0.1,0.6,0,0.9c-0.1,0.3-0.2,0.6-0.3,0.9c-0.2,0.3-0.4,0.5-0.7,0.8c-0.3,0.3-0.7,0.4-0.9,0.6
			c-0.3,0.1-0.5,0.2-0.8,0.2c0-0.1-0.1-0.3-0.2-0.5c-0.1-0.2-0.2-0.4-0.2-0.5l0.1-0.1C102.7,113.4,102.8,113.4,102.9,113.4
			L102.9,113.4z"/>
		<path class="st2" d="M103.9,106.3c0.1-0.5,0.2-0.9,0.4-1.3s0.4-0.6,0.7-0.9c0.2-0.2,0.5-0.4,0.8-0.5c0.3-0.1,0.5-0.2,0.8-0.2
			c0.3,0,0.5,0,0.8,0.1c0.3,0.1,0.5,0.3,0.7,0.5c0.4,0.4,0.7,0.8,1.1,1.1c0.4,0.4,0.7,0.8,1.2,1.2c0.1,0.1,0.2,0.2,0.3,0.2
			c0.1,0.1,0.2,0.2,0.3,0.2s0.2,0.1,0.3,0.1s0.2-0.1,0.3-0.2c0,0,0.1-0.1,0.1-0.1c0,0,0.1-0.1,0.1-0.1l0.2,0.2
			c0,0.1-0.1,0.2-0.2,0.3c-0.1,0.1-0.2,0.3-0.3,0.4c-0.2,0.2-0.4,0.3-0.7,0.3c-0.2,0-0.4-0.1-0.6-0.2c0,0.5-0.1,0.9-0.2,1.2
			c-0.1,0.3-0.3,0.7-0.7,1c-0.2,0.2-0.3,0.3-0.6,0.4c-0.2,0.1-0.4,0.2-0.7,0.2c-0.2,0-0.5,0-0.7-0.1c-0.2-0.1-0.4-0.2-0.6-0.4
			c-0.4-0.4-0.6-0.8-0.5-1.3c0-0.5,0.2-1,0.6-1.5c0.3-0.4,0.5-0.7,0.7-1c0.2-0.2,0.3-0.4,0.3-0.6s0.1-0.3,0-0.3
			c0-0.1-0.1-0.2-0.2-0.3c-0.2-0.2-0.3-0.3-0.5-0.4c-0.2-0.1-0.4-0.2-0.6-0.2c-0.2,0-0.4,0-0.6,0.1c-0.2,0.1-0.4,0.2-0.6,0.4
			c-0.3,0.3-0.5,0.6-0.6,0.9c-0.1,0.3-0.1,0.7,0,1l-0.1,0.1L103.9,106.3L103.9,106.3z M108.1,105.7c-0.1,0.2-0.2,0.3-0.3,0.5
			c-0.1,0.2-0.2,0.4-0.4,0.5s-0.2,0.4-0.3,0.6c-0.1,0.2-0.2,0.4-0.2,0.6c0,0.2,0,0.4,0,0.6c0.1,0.2,0.2,0.4,0.3,0.6
			c0.3,0.3,0.6,0.5,1,0.4c0.3,0,0.6-0.1,0.8-0.4c0.3-0.2,0.4-0.5,0.5-0.9c0.1-0.3,0.1-0.7,0-1L108.1,105.7L108.1,105.7z"/>
		<path class="st2" d="M107.3,100.4c-0.3-0.2-0.6-0.5-0.9-0.7c-0.3-0.2-0.6-0.4-0.8-0.6c-0.3-0.2-0.5-0.4-0.7-0.5
			c0.2-0.2,0.3-0.3,0.5-0.5c0.1-0.1,0.2-0.3,0.3-0.5c0.2,0.2,0.4,0.3,0.6,0.6c0.2,0.2,0.5,0.4,0.8,0.7c0.3,0.2,0.6,0.5,0.9,0.7
			c0.3,0.2,0.6,0.5,0.8,0.7l2,1.6c0.2,0.2,0.5,0.4,0.8,0.6s0.6,0.5,0.9,0.7c0.3,0.2,0.6,0.4,0.8,0.6s0.5,0.3,0.7,0.5
			c-0.1,0.2-0.3,0.3-0.4,0.5c-0.1,0.2-0.3,0.3-0.4,0.5c-0.2-0.1-0.4-0.3-0.6-0.5c-0.2-0.2-0.5-0.4-0.8-0.7c-0.3-0.2-0.6-0.5-0.9-0.7
			c-0.3-0.2-0.6-0.5-0.8-0.7l-2-1.6C107.9,100.8,107.6,100.6,107.3,100.4L107.3,100.4z"/>
		<path class="st2" d="M112.5,100.8c-0.5-0.3-1-0.7-1.2-1.1c-0.3-0.4-0.4-0.8-0.5-1.2c-0.1-0.4,0-0.8,0.1-1.3
			c0.1-0.4,0.3-0.8,0.5-1.1c0.2-0.3,0.5-0.7,0.8-0.9s0.7-0.5,1.1-0.6c0.4-0.1,0.9-0.2,1.3-0.1c0.5,0.1,1,0.3,1.5,0.6
			c0.5,0.3,1,0.7,1.2,1.1c0.3,0.4,0.4,0.8,0.5,1.2c0.1,0.4,0,0.8-0.1,1.2c-0.1,0.4-0.3,0.8-0.5,1.1c-0.2,0.3-0.5,0.7-0.8,0.9
			c-0.3,0.3-0.7,0.5-1.1,0.6s-0.9,0.2-1.3,0.1S113.1,101.2,112.5,100.8L112.5,100.8z M113.2,99.8c0.3,0.2,0.7,0.4,1,0.5
			c0.3,0.1,0.7,0.2,1,0.2s0.6-0.1,0.9-0.2c0.3-0.2,0.5-0.4,0.8-0.8c0.2-0.3,0.3-0.7,0.3-1c0-0.3-0.1-0.6-0.2-0.9
			c-0.2-0.3-0.4-0.6-0.6-0.8c-0.3-0.2-0.6-0.5-0.9-0.7c-0.3-0.2-0.7-0.4-1-0.5c-0.3-0.1-0.7-0.2-1-0.2c-0.3,0-0.6,0.1-0.9,0.2
			s-0.5,0.4-0.8,0.8c-0.2,0.4-0.3,0.7-0.3,1s0.1,0.6,0.2,0.9c0.2,0.3,0.4,0.6,0.6,0.8C112.5,99.3,112.8,99.6,113.2,99.8L113.2,99.8z
			"/>
		<path class="st2" d="M116.2,88.8c-0.4,0.1-0.7,0.4-0.9,0.8c-0.2,0.6-0.2,1.1,0,1.6c0.3,0.4,0.7,0.8,1.4,1.1l1.1,0.4
			c0.4,0.2,0.8,0.3,1.2,0.5s0.8,0.3,1.2,0.4c-0.1,0.2-0.2,0.4-0.3,0.6c-0.1,0.2-0.1,0.4-0.2,0.6c-0.3-0.2-0.7-0.4-1.1-0.6
			c-0.4-0.2-0.8-0.4-1.2-0.5l-1.4-0.5c-0.4-0.2-0.8-0.3-1.2-0.5s-0.9-0.3-1.2-0.4c0.1-0.2,0.2-0.4,0.3-0.6c0-0.1,0.1-0.1,0.1-0.2
			c0-0.1,0-0.2,0.1-0.3c0.3,0.2,0.7,0.3,1,0.5l0,0c-0.3-0.4-0.5-0.8-0.5-1.2c-0.1-0.4,0-0.9,0.2-1.3c0.1-0.2,0.2-0.5,0.4-0.7
			c0.2-0.2,0.4-0.4,0.6-0.5c0.2-0.1,0.5-0.2,0.9-0.2s0.7,0.1,1.2,0.3c0.4,0.2,0.8,0.3,1.1,0.5s0.8,0.3,1.2,0.5l0.8,0.3
			c0.1,0.1,0.3,0.1,0.4,0.2c0.1,0.1,0.3,0.1,0.4,0.1c-0.1,0.2-0.2,0.3-0.2,0.5c-0.1,0.2-0.1,0.4-0.2,0.5c-0.4-0.2-0.9-0.4-1.4-0.6
			c-0.5-0.2-1-0.4-1.5-0.6l-0.8-0.3C117.2,88.8,116.7,88.7,116.2,88.8L116.2,88.8z"/>
	</g>
	<g>
		<path class="st2" d="M123.9,54.2l1.4,0.2c0.2,0,0.3,0.1,0.3,0.3c0,0,0,0.1,0,0.1c-0.1,0.2-0.2,0.2-0.3,0.2c-0.2,0-0.3,0-0.4,0
			c-0.7,0-1.2,0.3-1.7,0.8c-0.5,0.5-0.9,1.3-1.3,2.3c-0.4,1-1.1,3.2-2.1,6.5s-1.6,5.1-1.7,5.5c1.1-0.3,1.8-0.4,2.2-0.4
			c0.4,0,0.6,0,0.7,0.1c0.1,0.1,0.2,0.2,0.1,0.3c-0.1,0.1-0.2,0.1-0.2,0.1c-0.1,0-0.2-0.1-0.5-0.1s-0.7,0.1-1.4,0.3
			c-0.7,0.2-1.1,0.4-1.2,0.8c-2.1,5.2-4.6,8.9-7.5,10.9c-1.3,0.9-2.5,1.4-3.5,1.4c-0.4,0-0.8-0.1-1.1-0.2c-1-0.3-1.5-1.1-1.5-2.1
			c0-1.2,0.7-2.6,2-4.1c2.6-2.9,6-5.1,10.3-6.5c0.1-0.3,0.5-1.5,1-3.5c0.5-2,0.9-3.5,1.2-4.3c-1.8,2.8-3.8,5.1-5.7,7
			c-2,1.9-3.8,2.8-5.4,2.8c-1.5,0-2.2-1-2.2-2.9c0-1.7,0.9-4.4,2.6-7.9c0.9-1.9,1.5-3.1,1.7-3.5c0.2-0.4,0.2-0.6,0-0.6
			c-0.2,0-0.4,0.2-0.7,0.4c-1.6,1.4-3,2.1-4.2,2.2c-0.2,0-0.3,0-0.3-0.2c0-0.2,0.2-0.3,0.4-0.3c0.8-0.1,2-0.8,3.6-2.1
			c1.6-1.3,2.6-2.3,2.9-2.9c0.1-0.2,0.5-0.4,1.2-0.4c0.5,0,0.8,0.2,0.8,0.4c-3.6,6-5.6,10.3-6.1,12.9c-0.1,0.6-0.2,1.1-0.2,1.6
			c0,1.4,0.5,2.2,1.6,2.2c0.9,0,1.8-0.4,2.9-1.3c1.1-0.9,2.2-2,3.3-3.4c2.5-3.3,4.5-6.6,5.9-9.9c0.4-0.9,0.7-1.4,0.9-1.6
			C121.8,54.6,122.6,54.2,123.9,54.2L123.9,54.2z M105.7,80.7c0,0.2,0,0.5,0.1,0.7c0.2,0.8,0.7,1.2,1.6,1.2c1.2,0,2.5-0.8,3.8-2.5
			c2-2.4,3.7-5.4,4.9-9c-3.6,1.2-6.5,3.1-8.6,5.7C106.3,78.3,105.7,79.6,105.7,80.7L105.7,80.7z"/>
		<path class="st2" d="M134.3,69.3c-0.8,0.9-1.5,1.5-2.2,2c-0.8,0.6-1.7,0.9-2.7,0.9c-0.2,0-0.4-0.1-0.7-0.3
			c-0.3-0.2-0.5-0.4-0.6-0.8c-0.1-0.3-0.2-0.7-0.2-1c0-1.1,0.2-2.1,0.6-3.2c-0.1,0-0.3,0.5-0.9,1.3c-0.5,0.8-1.1,1.6-1.9,2.4
			c-0.7,0.7-1.5,1.1-2.2,1.1c-0.4,0-0.8-0.1-1.2-0.3c-0.8-0.4-1.2-1.1-1.2-2.1c0-1.2,0.4-2.5,1.3-3.8c0.8-1.3,1.4-2,1.6-2.1
			c0.3-0.1,0.6-0.1,0.9-0.1s0.6,0.1,0.9,0.2c0.3,0.1,0.2,0.3-0.1,0.6c-1.4,1.3-2.4,2.8-3,4.3c-0.2,0.6-0.3,1.1-0.3,1.6
			c0,0.4,0.1,0.7,0.3,0.8c0.2,0.1,0.4,0.2,0.6,0.2c0.5,0,1.2-0.3,2-1c0.9-0.7,2-2.1,3.6-4.3c0.2-0.3,0.6-0.9,1.1-1.8
			c0.5-0.9,0.8-1.4,0.9-1.6c0.3,0,0.7,0.1,1.2,0.2c0.4,0.2,0.6,0.4,0.5,0.6c-1,1.7-1.7,2.9-2.1,3.7c-0.4,0.8-0.7,1.7-0.8,2.8
			c0,0.2,0,0.4,0,0.7c0,0.3,0.1,0.5,0.2,0.7c0.3,0.3,0.7,0.3,1.3,0c0.5-0.3,1.3-0.9,2.3-1.7s1.7-1.7,2.3-2.5
			c0.1-0.1,0.2-0.1,0.3-0.1C136,66.9,136,67,136,67c0,0.1,0,0.1-0.1,0.2C135.7,67.7,135.1,68.5,134.3,69.3L134.3,69.3z"/>
	</g>
	<path class="st3" d="M74.1,57.2c0-0.5,0.2-0.9,0.4-1.2c0.6-1,1.4-1.8,2.3-2.6c0.2-0.2,0.6,0.1,0.4,0.4c-0.9,1.1-2,2.2-2.6,3.5
		C74.5,57.6,74.1,57.5,74.1,57.2L74.1,57.2L74.1,57.2z"/>
	<path class="st2" d="M66.2,32.4c0.8-0.1,1.6,0.5,2.3,0.9c0.8,0.4,1.5,0.8,2.3,1.2c0.1,0.1,0.3,0.1,0.4,0c0.1-0.1,0.2-0.2,0-0.3
		c-0.9-0.4-1.7-0.8-2.5-1.3c-0.8-0.4-1.5-0.9-2.5-0.8c-0.1,0-0.3,0.1-0.3,0.2C65.9,32.4,66.1,32.4,66.2,32.4
		C66.2,32.4,66.2,32.4,66.2,32.4z"/>
	<path class="st2" d="M65.8,32L65.8,32l0.1-0.1l0.1,0l0.2,0c0.1,0,0.3-0.6,0.4-0.7c0.1-0.2,0.3-0.4,0.5-0.6c0.4-0.3,1-0.5,1.6-0.5
		c0.3,0,0.6,0.1,0.8,0.2c0.3,0.1,0.5,0.2,0.8,0.1c0.6-0.1,1.1-0.6,1.5-0.9c0.5-0.3,1-0.5,1.6-0.6c0.6,0,1.1,0.2,1.7,0.4
		c1,0.5,2,1.2,3.1,1.5c1.2,0.4,2.5,0.4,3.7-0.1c0.1,0,0.2-0.2,0.2-0.3s-0.3-0.1-0.4,0c-1.2,0.6-2.6,0.3-3.8-0.2
		c-1.2-0.5-2.2-1.4-3.5-1.7c-1.4-0.2-2.6,0.4-3.7,1.2c-0.1,0.1-0.3,0.2-0.4,0.2S70,30,69.8,29.9c-0.3-0.1-0.7-0.2-1-0.2
		c-0.6,0-1.3,0.1-1.8,0.4s-1,0.8-1.3,1.4c-0.1,0.2-0.3,0.6,0.1,0.7c0.2,0.1,0.6-0.1,0.6-0.4C66.4,31.6,65.8,31.8,65.8,32L65.8,32
		L65.8,32z"/>
	<path class="st2" d="M72.2,29.5c0.9-0.1,1.6,0.8,2.1,1.4c0.3,0.3,0.6,0.6,0.9,0.8c0.4,0.2,0.9,0.3,1.3,0.4c0.5,0.1,0.9,0.2,1.4,0.4
		c0.4,0.2,0.8,0.3,1.3,0.4c0.9,0.2,1.6-0.1,2.1-0.8c0.2-0.3,0.4-0.7,0.8-0.9c0.2-0.1,0.4-0.2,0.4-0.4c0-0.2-0.1-0.3-0.3-0.3
		c-0.3-0.1-0.6,0.3-0.2,0.4l0,0l-0.2-0.1c0,0,0.1,0,0,0c0,0-0.1,0-0.1,0.1c-0.1,0-0.1,0.1-0.2,0.1c-0.1,0.1-0.3,0.2-0.4,0.4
		c-0.2,0.2-0.4,0.5-0.6,0.8c-0.6,0.6-1.4,0.4-2.1,0.1c-0.4-0.2-0.7-0.3-1.1-0.4c-0.4-0.1-0.9-0.1-1.3-0.2c-0.8-0.2-1.2-0.9-1.7-1.4
		c-0.5-0.6-1.3-1.2-2.2-1.1c-0.1,0-0.3,0.1-0.3,0.2C71.9,29.4,72.1,29.5,72.2,29.5L72.2,29.5L72.2,29.5z"/>
	<g>
		<path class="st2" d="M77.3,35.1c0.5,0.1,1,0.2,1.5,0.3c0.2,0.1,0.3,0.1,0.5,0.1c0.5,0.1,1-0.1,1.5-0.1c0.5-0.1,1.1,0,1.4,0.4
			c0,0-1.7,0-2.2,0.2c-0.2,0.1-0.4,0.2-0.7,0.2c-0.6,0.1-1.2-0.1-1.8-0.2s-1.3-0.2-1.8,0.1L77.3,35.1L77.3,35.1z"/>
		<path class="st2" d="M77.1,35.3c0.5,0,0.9,0.1,1.4,0.3c0.4,0.1,0.8,0.2,1.2,0.2c0.7-0.1,1.7-0.5,2.2,0.2l0.4-0.3c-0.3,0-0.6,0-1,0
			c-0.5,0-1,0-1.4,0.2c-0.4,0.1-0.7,0.3-1.1,0.2c-0.4,0-0.8-0.2-1.2-0.2c-0.7-0.1-1.4-0.1-2.1,0.2l0.4,0.1l1.6-1.1
			c0.1-0.1,0.1-0.1,0-0.2c-0.1,0-0.3,0-0.4,0.1l-1.6,1.1c-0.1,0.1-0.1,0.1,0,0.2c0.1,0,0.3,0,0.4-0.1c0.6-0.4,1.4,0,2.1,0.1
			c0.7,0.2,1.4,0.1,2.1-0.2c0.3-0.1,0.8-0.1,1.2-0.2c0.3,0,0.6,0,0.9,0c0.1,0,0.5-0.1,0.4-0.3c-0.5-0.7-1.5-0.5-2.2-0.3
			c-0.2,0-0.5,0.1-0.8,0.1c-0.2,0-0.4-0.1-0.7-0.2c-0.5-0.1-0.9-0.2-1.4-0.3c-0.1,0-0.3,0-0.4,0.1C76.9,35.2,76.9,35.3,77.1,35.3
			L77.1,35.3z"/>
	</g>
	<path class="st2" d="M72.3,28.9c0.5-2.7,1.6-5.4,3.9-7c0.6-0.4,1.2-0.7,1.9-1c0.6-0.3,1.1-0.7,1.6-1.1c0.9-0.8,1.8-1.8,2.8-2.5
		c1.3-0.9,2.9-1.2,4.4-0.9c0.1,0,0.3,0,0.4-0.1c0.1-0.1,0.1-0.2-0.1-0.3c-1.4-0.3-2.9-0.2-4.2,0.4c-1.3,0.6-2.2,1.6-3.2,2.5
		c-0.5,0.5-1,1-1.6,1.4c-0.6,0.4-1.3,0.7-2,1.1c-1.2,0.7-2.1,1.7-2.8,2.9c-0.9,1.4-1.4,3.1-1.7,4.7C71.6,29.3,72.2,29.2,72.3,28.9
		C72.3,28.9,72.3,28.9,72.3,28.9z"/>
	<path class="st2" d="M72.7,28.1c0.8-2.1,2.4-4,4.4-5.1c0.5-0.3,1.1-0.5,1.6-0.7s1.2-0.4,1.7-0.8c0.5-0.4,0.9-0.9,1.3-1.3
		c0.4-0.5,0.8-1,1.3-1.5c1-1,2.4-1.9,3.9-2c0.1,0,0.3,0,0.4-0.2c0.1-0.1-0.1-0.2-0.2-0.1c-1.4,0.1-2.7,0.6-3.7,1.5
		c-0.6,0.4-1,0.9-1.5,1.5c-0.5,0.5-0.8,1.1-1.3,1.6c-0.5,0.5-1.1,0.9-1.7,1.1c-0.6,0.2-1.2,0.4-1.8,0.7c-1.1,0.5-2,1.3-2.8,2.1
		c-0.9,1-1.6,2.1-2.1,3.4C72,28.4,72.6,28.3,72.7,28.1L72.7,28.1L72.7,28.1z"/>
	<path class="st2" d="M80.6,13.9c1-0.2,2-0.1,3,0.2c1,0.3,1.9,0.7,2.7,1.4c0.4,0.3,0.6,0.9,0.1,1.3c-0.4,0.2-0.7,0.5-1,0.8
		c-0.6,0.7-1.1,1.6-1.4,2.5c-0.4,1.1-0.7,2.2-0.7,3.4c0,0.1,0.6,0,0.6-0.2c0.1-1.1,0.3-2.2,0.7-3.3c0.4-1,0.9-2,1.6-2.7
		c0.2-0.2,0.4-0.3,0.6-0.4c0.2-0.1,0.4-0.2,0.5-0.4c0.2-0.4,0-0.9-0.3-1.1c-0.7-0.7-1.8-1.2-2.7-1.4c-1.1-0.3-2.3-0.4-3.4-0.2
		c-0.1,0-0.3,0.1-0.3,0.2C80.3,13.9,80.5,13.9,80.6,13.9L80.6,13.9L80.6,13.9z"/>
	<path class="st2" d="M83.1,23.2c-0.2,2.5,0.1,5.5-1.8,7.5c-0.2,0.3,0.3,0.3,0.5,0.1c2-2.1,1.7-5.1,1.9-7.7
		C83.7,22.9,83.1,23,83.1,23.2L83.1,23.2L83.1,23.2z"/>
	<path class="st2" d="M84.1,22.2c0.2-0.1,0.2,0.2,0.2,0.3c0,0.2-0.1,0.5-0.1,0.7c-0.1,0.4-0.1,0.8-0.2,1.2c-0.1,0.9-0.2,1.9-0.4,2.8
		c-0.3,1.5-0.9,3-2,4c-0.1,0.1,0.1,0.1,0.1,0.1c0.1,0,0.3-0.1,0.4-0.1c2.4-2.1,2.2-5.6,2.8-8.5c0.1-0.3,0.1-0.6-0.3-0.7
		c-0.3-0.1-0.7,0.1-1,0.2c-0.1,0.1-0.1,0.1,0,0.1C83.9,22.3,84,22.2,84.1,22.2L84.1,22.2L84.1,22.2z"/>
	<path class="st2" d="M65.5,17.4c-1.4-0.6-3-0.7-4.4-0.2c-0.5,0.2-1.2,0.7-1,1.4c0.2,0.6,1.2,0.7,1.8,0.7c0.8,0,1.6,0,2.4,0.2
		c0.8,0.2,1.5,0.5,2.2,0.9c1.3,0.8,2.2,2,3.1,3.2c1,1.3,2.2,2.7,2.3,4.4c0,0.2,0.6,0.1,0.6-0.2c-0.1-1.4-0.9-2.6-1.7-3.7
		C70,23.1,69.1,22,68.1,21c-1-0.9-2.3-1.6-3.6-1.9c-0.7-0.2-1.4-0.2-2.2-0.2c-0.5,0-1.8,0-1.7-0.8c0.1-0.7,1.3-0.8,1.9-0.9
		c0.8-0.1,1.7,0.1,2.4,0.4c0.1,0.1,0.3,0,0.4,0C65.5,17.6,65.6,17.4,65.5,17.4L65.5,17.4L65.5,17.4z"/>
	<path class="st2" d="M60.4,19c0.7,0.5,1.6,0.7,2.2,1.4c0.3,0.4,0.5,0.9,0.7,1.3c0.2,0.5,0.4,1,0.6,1.5c0.3,1,0.4,2.1,0.4,3.2
		c0,0.9,0,1.9,0.3,2.8c0.2,0.9,0.7,1.7,1.4,2.3c0.2,0.1,0.7-0.1,0.5-0.3c-1.5-1.2-1.5-3.3-1.6-5c0-1-0.1-2.1-0.4-3.1
		c-0.2-0.5-0.4-1-0.6-1.5c-0.2-0.4-0.4-0.9-0.6-1.3c-0.5-0.9-1.5-1.1-2.3-1.6C60.6,18.6,60.1,18.9,60.4,19L60.4,19L60.4,19z"/>
	<path class="st2" d="M65,19c0.1-1,0.9-1.9,1.8-2.3c1.2-0.5,2.5-0.3,3.7,0.1c1.2,0.3,2.4,0.9,3.7,1.1c0.6,0.1,1.3,0.2,1.9,0.1
		s1.3-0.2,1.9-0.4c1.3-0.4,2.7-1.1,4.1-0.5c0.2,0.1,0.7-0.2,0.4-0.4c-1.3-0.5-2.6-0.1-3.8,0.3c-0.7,0.2-1.3,0.5-2,0.6
		c-0.7,0.1-1.4,0-2.1-0.1c-2.6-0.5-5.2-2.2-7.9-1.1c-1.1,0.4-2.1,1.4-2.2,2.6C64.4,19.3,65,19.2,65,19L65,19L65,19z"/>
	<path class="st2" d="M65.8,17.5c1.5-0.4,3.1-0.3,4.5,0.5c0.7,0.4,1.3,1.1,2,1.6c0.6,0.5,1.3,0.9,2.1,1.2c0.9,0.3,1.8,0.5,2.7,0.5
		c0.4,0,0.5-0.5,0.1-0.5c-1.7,0-3.3-0.6-4.6-1.7c-0.6-0.5-1.2-1.1-2-1.5c-0.7-0.4-1.4-0.6-2.2-0.7c-0.9-0.1-1.8,0-2.6,0.2
		C65.3,17.2,65.4,17.6,65.8,17.5L65.8,17.5L65.8,17.5z"/>
	<path class="st2" d="M67.2,16.2c1.6-1.2,3.4-1.9,5.4-2.4c1-0.2,2-0.3,3-0.1c0.9,0.2,1.8,0.5,2.6,1c0.9,0.5,1.7,1.2,2.4,2
		c0.1,0.1,0.7-0.1,0.6-0.2c-1.3-1.5-3.1-2.6-5-3c-1.1-0.2-2.1-0.1-3.2,0.1s-2.1,0.5-3.1,0.9c-1.1,0.4-2.2,1-3.1,1.8
		c-0.1,0.1,0.1,0.1,0.1,0.1C66.9,16.4,67.1,16.3,67.2,16.2L67.2,16.2L67.2,16.2z"/>
	<path class="st2" d="M68.1,16.3c3-0.8,6.2-2.1,9.4-1.3c0.8,0.2,1.6,0.5,2.3,1c0.1,0.1,0.3,0.1,0.4,0c0.1,0,0.3-0.1,0.2-0.2
		c-2.7-2-6.3-1.4-9.4-0.6c-1,0.3-2,0.6-3,0.8c-0.1,0-0.3,0.1-0.3,0.2C67.8,16.4,68,16.3,68.1,16.3C68.1,16.3,68.1,16.3,68.1,16.3z"
		/>
	<path class="st2" d="M65.5,17c-0.1-1.5,0.4-3.1,1.6-3.9c0.1-0.1,0.3-0.2,0.4-0.2c0.1,0,0.4-0.2,0.5-0.2c0.1,0,0.1,0.3,0.2,0.4
		c0.1,0.1,0.2,0.2,0.3,0.2c0.3,0.2,0.7,0.3,1.1,0.4l1.3,0.5c0.3,0.1,0.7-0.3,0.4-0.4l-1.5-0.5c-0.3-0.1-0.9-0.2-1.1-0.6
		c-0.1-0.2-0.1-0.3-0.3-0.4c-0.2-0.1-0.3-0.1-0.5,0c-0.4,0.1-0.7,0.3-1.1,0.5c-1.4,0.9-2.1,2.7-2,4.3C64.9,17.4,65.5,17.3,65.5,17
		C65.5,17,65.5,17,65.5,17z"/>
	<path class="st2" d="M67.7,12.6c-0.2,0.2-0.4,0.5-0.5,0.7c-0.1,0.3,0,0.6,0.2,0.8c0.2,0.2,0.6,0.3,0.8,0.4c0.3,0.1,0.6,0.2,1,0.2
		c0.1,0,0.3,0,0.4-0.1c0.1-0.1,0.1-0.2-0.1-0.2c-0.3-0.1-0.6-0.1-0.8-0.2c-0.2-0.1-0.5-0.2-0.7-0.3c-0.2-0.1-0.3-0.3-0.2-0.6
		c0.1-0.2,0.2-0.4,0.4-0.6c0.1-0.1,0.1-0.2-0.1-0.2C68,12.4,67.7,12.5,67.7,12.6L67.7,12.6L67.7,12.6z"/>
	<path class="st2" d="M69.3,12.8c0.3-0.6,1-0.9,1.6-1.2c0.3-0.2,0.5-0.4,0.7-0.7c0.1-0.1,0.1-0.1,0.2-0.1c0.1,0,0.2,0,0.3,0
		c0.3,0,0.5,0.1,0.8,0.2c0.9,0.3,1.7,0.7,2.6,1.1c0.9,0.4,1.8,0.8,2.6,1.3c0.8,0.5,1.5,1.3,1.7,2.3c0,0.2,0.6,0,0.6-0.2
		c-0.4-2.1-2.7-2.9-4.4-3.7c-1-0.5-1.9-1-2.9-1.3c-0.5-0.1-1-0.2-1.4-0.1c-0.4,0.1-0.5,0.5-0.8,0.8c-0.6,0.6-1.6,0.7-2,1.6
		C68.7,13,69.2,13,69.3,12.8L69.3,12.8L69.3,12.8z"/>
	<path class="st2" d="M78,13c0.2-0.1,0.4-0.1,0.6-0.1c0.3,0,0.6-0.1,0.8-0.1c0.1,0,0.3-0.2,0.4-0.2c0.1,0,0.2,0.1,0.2,0.2
		c0.2,0.2,0.1,0.6,0.2,0.8c0.1,0.5,0.4,0.9,0.7,1.3c0.3,0.4,0.6,1,0.4,1.5c-0.1,0.3,0.5,0.3,0.6,0.1c0.3-0.6,0-1.2-0.3-1.7
		c-0.2-0.3-0.4-0.5-0.5-0.8c-0.1-0.3-0.2-0.6-0.2-1c0-0.3-0.2-0.6-0.4-0.7c-0.3-0.2-0.6-0.1-0.9,0c-0.3,0.1-0.6,0.2-0.9,0.2
		c-0.3,0-0.7,0-0.9,0.2C77.3,13,77.8,13.2,78,13L78,13L78,13z"/>
	<path class="st2" d="M63.4,16.6c0-0.1,0-0.2,0.1-0.3c0.1-0.1,0.1-0.3,0.1-0.4c0-0.1-0.1-0.2-0.1-0.4c0-0.1,0-0.1,0-0.2
		c0-0.1,0,0,0-0.1c0,0,0,0,0,0c0,0,0,0,0,0c0,0,0,0,0,0c0,0,0,0,0,0h0c0,0,0,0,0,0c0.1,0,0.1,0,0.2,0.1c0.2,0.1,0.3,0.1,0.5,0.2
		c0.4,0.1,0.7,0.1,1.1,0c0.1,0,0.3-0.1,0.3-0.2c0-0.1-0.2-0.2-0.3-0.2c-0.4,0-0.7,0.1-1.1-0.1c-0.2-0.1-0.4-0.2-0.6-0.2
		c-0.2,0-0.5,0-0.6,0.2c-0.2,0.1-0.2,0.3-0.2,0.5c0,0.2,0.1,0.3,0.1,0.4c0,0.1,0,0.3,0,0.4c-0.1,0.2-0.1,0.3-0.1,0.5
		c0,0.1,0.2,0.1,0.3,0.1C63.2,16.9,63.4,16.8,63.4,16.6L63.4,16.6L63.4,16.6z"/>
	<g>
		<path class="st2" d="M76.8,32.1c-0.2,0.3-0.1,0.7,0,1c0.1,0.3,0.2,0.7,0.2,1c-0.1,0.5-0.5,0.8-0.8,1.1c0,0,1.4-1.3,1.9-1.4
			c0.5-0.2,1-0.4,1.5-0.7l0.7-0.2c-1.2,1-2.5,2-3.8,2.7c-0.2,0.1-0.5,0.3-0.7,0.5c0,0-0.5,1.8-0.6,3.2l-0.9,19.9
			c-0.1,2.1-0.2,4.1-0.1,6.2c0.1,3.6,0.8,7.2,1.3,10.7c0.8,5.4,1.2,10.8,1.7,16.2c0.2,1.9,0.3,3.9,0.5,5.8c0.3,3.4,0.5,7.3-1.7,9.9
			c-1.2-0.5-2-2.9-2-2.9c3.2-13.9-1.2-28.4-1.1-42.7c0.1-8.3,1.7-16.6,0.6-24.9c0-0.1,0-0.1-0.1-0.2c-0.2-0.2-0.8-0.8-1.3-0.9
			c-0.5-0.2-1.1-0.1-1.5,0.2c1.5-1.9,2.5-0.5,2.5-0.5c-0.3-0.6-1-0.9-1.7-0.8c-0.7,0-1.3,0.3-1.9,0.5c-0.6,0.3-1.2,0.5-1.9,0.6
			c-1.4,0.1-2.7-0.8-4.1-0.7c0,0,0.8-0.4,1.2-0.3c0.4,0,0.9,0.2,1.3,0.2c1,0.2,2.1-0.1,3.1-0.6c0.4-0.2,0.8-0.5,1.2-0.7
			c0.4-0.2,0.9-0.3,1.3,0l1.9,0.8c-0.2-0.2-0.2-0.5,0-0.7c0.1-0.2,0.3-0.4,0.6-0.6c0.8-0.6,1.7-1.1,2.1-1.9"/>
		<path class="st2" d="M76.5,32c-0.2,0.5,0,1,0.1,1.5c0.2,0.7-0.1,1.1-0.6,1.6l0.4,0.2c0.5-0.4,1-0.9,1.6-1.3
			c0.2-0.1,0.4-0.2,0.7-0.3c0.3-0.1,0.6-0.3,0.9-0.5c0.1-0.1,0.5-0.2,0.7-0.2L80,32.8c-0.9,0.8-2,1.6-3,2.2c-0.5,0.3-1,0.5-1.4,0.9
			c-0.1,0.2-0.2,0.4-0.2,0.6c-0.2,0.9-0.5,1.9-0.5,2.8c-0.1,1.4-0.1,2.8-0.2,4.2c-0.2,5.5-0.5,11-0.7,16.5c-0.1,2.7-0.2,5.4,0.1,8.1
			c0.2,2.7,0.7,5.4,1.1,8.1c0.8,5.4,1.2,10.9,1.7,16.4c0.2,2.6,0.5,5.2,0.6,7.8c0.1,2.2,0,4.4-0.9,6.4c-0.2,0.5-0.5,1-0.9,1.4
			L76,108c-0.7-0.3-1.2-1.1-1.5-1.8c-0.1-0.2-0.2-0.5-0.3-0.8c-0.1-0.3,0.1-0.7,0.1-1c0.5-2.5,0.8-5.1,0.9-7.6
			c0.2-5.1-0.2-10.3-0.8-15.4c-0.6-5.2-1.2-10.4-1.4-15.7c-0.2-5.4,0.4-10.7,0.7-16c0.2-2.7,0.3-5.3,0.2-8c-0.1-1.3-0.1-2.7-0.3-4
			c-0.1-0.4-0.5-0.6-0.8-0.9c-0.4-0.3-0.7-0.5-1.2-0.5c-0.5,0-1,0.1-1.4,0.4l0.4,0.2c0.3-0.4,0.9-1,1.5-0.8c0.2,0.1,0.4,0.2,0.5,0.4
			c0.1,0.2,0.7,0,0.6-0.3c-1-1.6-3.1-0.7-4.5-0.2c-0.4,0.2-0.9,0.3-1.4,0.3c-0.5,0-0.9-0.1-1.4-0.2c-0.8-0.2-1.7-0.5-2.5-0.5
			l0.1,0.4c0.3-0.1,0.6-0.3,0.9-0.3c0.6,0,1.2,0.3,1.8,0.3c1.2,0.1,2.3-0.3,3.2-0.9c0.5-0.3,1.2-0.8,1.8-0.5
			c0.2,0.1,0.3,0.2,0.5,0.2l1.4,0.6c0.1,0.1,0.6-0.1,0.5-0.3c-0.5-0.6,0.8-1.4,1.2-1.7c0.6-0.4,1.1-0.8,1.4-1.4
			c0.2-0.3-0.4-0.3-0.6-0.1c-0.4,0.8-1.2,1.2-1.9,1.7c-0.5,0.3-1.3,1.1-0.7,1.7l0.5-0.3L72,34.4c-0.2-0.1-0.5-0.2-0.7-0.3
			c-0.5-0.1-1.1,0.1-1.6,0.4c-0.6,0.3-1.1,0.7-1.7,0.9c-0.7,0.2-1.4,0.3-2.1,0.2c-0.6-0.1-1.1-0.3-1.7-0.2c-0.3,0.1-0.7,0.2-1,0.3
			c-0.3,0.1-0.2,0.4,0.1,0.4c0.8,0,1.6,0.3,2.4,0.5c0.7,0.2,1.5,0.3,2.2,0.1c1.3-0.3,3.6-1.9,4.6-0.2l0.6-0.3
			c-0.2-0.3-0.6-0.5-0.9-0.6c-0.9-0.2-1.6,0.5-2.1,1.1C70,37,70.5,37,70.6,36.9c0.6-0.3,1.1-0.2,1.6,0.1c0.2,0.1,0.3,0.3,0.5,0.4
			c0.2,0.2,0.3,0.4,0.3,0.7c0.2,1.4,0.3,2.7,0.3,4.1c0.1,2.6,0,5.2-0.2,7.8c-0.3,5.2-0.9,10.4-0.7,15.7c0.2,5.1,0.8,10.2,1.3,15.2
			c0.5,5.1,1,10.2,0.8,15.3c-0.1,2.5-0.3,5.1-0.8,7.5c-0.1,0.3-0.1,0.6-0.2,0.9c0,0.2-0.1,0.4-0.1,0.6c0,0.2,0.1,0.3,0.2,0.5
			c0.3,0.7,0.6,1.3,1.1,1.9c0.2,0.3,0.5,0.5,0.8,0.6c0.1,0.1,0.3,0,0.4-0.1c1.3-1.7,1.8-3.8,1.9-5.9c0.1-2.4-0.2-4.7-0.4-7.1
			c-0.5-5.5-0.9-11-1.5-16.4c-0.3-2.7-0.8-5.4-1.1-8.1c-0.4-2.7-0.6-5.5-0.5-8.3c0.1-2.7,0.2-5.5,0.3-8.2l0.4-8.3l0.2-4.1
			c0.1-1.2,0-2.5,0.2-3.8c0.1-0.5,0.2-1,0.3-1.4c0-0.2,0.1-0.5,0.2-0.6c0.2-0.2,0.5-0.3,0.7-0.5c0.3-0.2,0.5-0.3,0.8-0.5
			c0.5-0.3,1.1-0.7,1.6-1.1c0.5-0.4,0.9-0.7,1.4-1.1c0.2-0.2-0.1-0.3-0.3-0.3c-0.3,0.1-0.6,0.1-0.8,0.3c-0.3,0.2-0.7,0.4-1,0.5
			c-0.2,0.1-0.5,0.2-0.7,0.3c-0.6,0.4-1.2,0.9-1.7,1.4c-0.3,0.2,0.3,0.3,0.4,0.2c0.4-0.3,0.9-0.7,0.9-1.3c0.1-0.7-0.5-1.3-0.2-2
			C77.2,31.8,76.6,31.8,76.5,32L76.5,32L76.5,32z"/>
	</g>
	<g>
		<path class="st2" d="M76.2,53.8c0.2-1.9,0.9-3.8,2.1-5.2c1.3-1.4,3.1-2.4,5-2.3c1.2,0,2.4,0.4,3.6,0.6c1.3,0.2,2.7,0.1,4,0
			l-1.1,4.4c-0.2,0.9-0.5,1.8-1,2.5c-0.7,1-1.8,1.6-2.9,2.1c-1,0.5-2,0.9-3.1,0.8c-0.7-0.1-1.4-0.4-2-0.6c-0.9-0.3-1.8-0.3-2.7-0.6
			C77.3,55.3,76.5,54.8,76.2,53.8"/>
		<path class="st2" d="M76.5,53.7c0.2-2.3,1.2-4.6,3.1-6.1c0.9-0.7,1.9-1.1,3-1.3c1.3-0.1,2.6,0.3,3.8,0.6c1.5,0.3,3,0.1,4.4,0
			L90.7,47c-0.4,1.5-0.7,3-1.1,4.5c-0.2,0.6-0.3,1.3-0.6,1.9c-0.3,0.6-0.7,1.1-1.2,1.5c-0.5,0.4-1.1,0.7-1.6,1
			c-0.6,0.3-1.3,0.6-2,0.7c-0.7,0.1-1.4-0.1-2.1-0.3c-0.7-0.2-1.4-0.4-2.1-0.5C78.6,55.6,76.2,55.3,76.5,53.7c0-0.2-0.5-0.1-0.6,0.3
			c-0.3,1.3,1.9,1.7,3.1,2c0.8,0.1,1.6,0.3,2.4,0.5c0.7,0.2,1.3,0.5,2.1,0.4c1.4-0.1,2.8-0.8,4-1.5c0.6-0.3,1.1-0.7,1.5-1.2
			c0.5-0.6,0.8-1.3,1-2c0.3-0.9,0.4-1.7,0.7-2.6l0.7-2.8c0-0.1-0.1-0.1-0.2-0.1c-1.5,0.1-2.9,0.2-4.4-0.1c-1.3-0.2-2.6-0.7-4-0.5
			c-2.4,0.3-4.5,1.7-5.6,3.7c-0.7,1.2-1.1,2.6-1.2,3.9C75.9,54,76.5,53.9,76.5,53.7L76.5,53.7L76.5,53.7z"/>
	</g>
	<path class="st4" d="M77.5,53.7c1.2-1.2,2.8-1.7,4.4-2.1c1.8-0.4,3.2-0.9,4-1.6c0.3-0.2,0.2-0.3,0-0.1c-0.9,0.6-1.6,0.8-2.5,1
		c-1.7,0.4-2.4,0.3-4.1,1c-0.9,0.4-1.7,0.8-2.3,1.5c-0.1,0.1-0.1,0.3,0.1,0.3C77.3,53.9,77.4,53.8,77.5,53.7L77.5,53.7L77.5,53.7z"
		/>
	<path class="st2" d="M62.6,19.4c1.5,0.3,3.1,0.6,4.1,1.8c0.5,0.6,0.8,1.3,1.3,1.9c0.5,0.6,1.2,1,1.8,1.5c0.7,0.5,1.5,1,1.8,1.8
		c0.1,0.2,0.7,0.1,0.6-0.2c-0.6-1.6-2.5-2-3.5-3.2c-0.5-0.6-0.9-1.4-1.4-2c-0.5-0.6-1.1-1.1-1.9-1.4c-0.8-0.3-1.7-0.5-2.6-0.7
		C62.5,18.9,62.2,19.3,62.6,19.4C62.6,19.4,62.6,19.4,62.6,19.4z"/>
	<path class="st3" d="M73,69.7c-0.6-2.1-1.8-4.3-3.5-5.6c-0.1-0.1-0.1-0.2-0.1-0.3c0.1-0.2,0.3-0.1,0.5-0.1c1.1,0.4,1.9,1.5,2.6,2.4
		c0.6,1,1.7,2.4,1,3.6C73.3,70.1,73,70,73,69.7L73,69.7L73,69.7z"/>
	<g>
		<g>
			<path class="st2" d="M58.2,57.9c2.1-1.4,5.3-1.7,7.2-1.3c1.2,0.3,2.7,1,3.6,2.1c0.7,0.9,1.1,2,1.5,3.1c0.3,0.8,0.6,1.7,0.5,2.6
				c-0.1,0.9-0.6,1.8-1.4,2c-0.6,0.2-1.3,0-2-0.1c-1-0.1-2,0.3-3,0.3c-2.1,0.1-4.1-1.1-5.1-2.9c-1.1-2-1-4.7-2.7-6.1
				C56.8,57.7,58.2,57.9,58.2,57.9z"/>
			<path class="st2" d="M58.2,58c2.2-1.4,4.9-1.7,7.4-1.2c1.1,0.2,2.3,0.9,3.1,1.8c0.9,1,1.3,2.3,1.7,3.6c0.4,1.2,0.7,2.7-0.3,3.6
				c-0.2,0.2-0.4,0.4-0.7,0.4c-0.4,0.1-0.8,0-1.2-0.1c-0.7-0.1-1.3,0-2,0.1c-0.7,0.1-1.3,0.2-2,0.2c-0.6,0-1.2-0.2-1.7-0.4
				c-1-0.4-2-1.2-2.6-2.2c-1.2-2-1-4.8-2.9-6.4l-0.5,0.2l1.3,0.4C57.9,58.1,58.1,58,58.2,58c0,0,0.1-0.1,0-0.1L57,57.4
				c-0.1,0-0.6,0.1-0.5,0.2c1.9,1.5,1.7,4.3,2.8,6.2c0.6,1,1.6,1.8,2.7,2.3c0.5,0.2,1.1,0.4,1.7,0.4c0.7,0.1,1.4,0,2.1-0.1
				c0.4-0.1,0.8-0.1,1.2-0.2c0.4,0,0.8,0,1.2,0.1c0.7,0.1,1.3,0.1,2-0.2c1.2-0.6,1.4-2.1,1.1-3.2c-0.2-0.7-0.4-1.4-0.7-2.1
				c-0.2-0.6-0.5-1.3-0.9-1.8c-0.7-1.1-1.8-1.8-3.1-2.2c-2.6-0.9-5.5-0.5-7.9,0.7c-0.3,0.2-0.6,0.3-0.9,0.5c-0.1,0.1-0.1,0.1,0,0.1
				C58,58.1,58.1,58,58.2,58L58.2,58z"/>
		</g>
		<path class="st4" d="M69.8,64.2c-1.3-1.6-2.5-2.2-4.1-3c-1.8-0.8-3-0.9-3.7-1.5c-0.1-0.1-0.3-0.3,0.1-0.1c0.8,0.4,2.1,0.5,3.4,1
			c0.6,0.2,2.1,0.7,3.7,1.9c0.6,0.5,1.1,1.3,1.2,1.7c0,0.1,0,0.3-0.1,0.3C70,64.4,69.8,64.3,69.8,64.2L69.8,64.2L69.8,64.2z"/>
	</g>
</g>
</svg>
