<?xml version="1.0" encoding="UTF-8"?>
<svg id="_レイヤー_2" data-name="レイヤー 2" xmlns="http://www.w3.org/2000/svg" viewBox="0 0 286.09 78.15">
  <defs>
    <style>
      .cls-1 {
        fill: #fff;
      }

      .cls-2 {
        fill: #323333;
      }

      .cls-3 {
        fill: #dc4f54;
      }

      .cls-4 {
        fill: #231815;
      }

      .cls-5 {
        fill: #313333;
      }

      .cls-6 {
        fill: none;
        stroke: #231815;
        stroke-miterlimit: 10;
        stroke-width: .5px;
      }
    </style>
  </defs>
  <g id="_レイヤー_2-2" data-name="レイヤー 2">
    <g>
      <g>
        <path class="cls-4" d="M273.22,27.3l1.52,.2c.24,.04,.36,.14,.36,.3,0,.02-.01,.05-.03,.1-.07,.18-.19,.26-.36,.25-.18-.01-.31-.02-.4-.02-.7,0-1.32,.29-1.85,.86-.53,.57-.99,1.4-1.39,2.48-.4,1.08-1.14,3.38-2.24,6.9-1.1,3.52-1.72,5.46-1.85,5.81,1.14-.29,1.91-.43,2.29-.43s.63,.03,.74,.1c.15,.13,.19,.25,.1,.36-.09,.11-.18,.14-.26,.1s-.26-.07-.51-.07-.75,.09-1.5,.28c-.75,.19-1.19,.46-1.32,.81-2.2,5.57-4.86,9.44-7.99,11.62-1.39,.97-2.64,1.45-3.76,1.45-.42,0-.8-.07-1.15-.2-1.03-.37-1.55-1.13-1.55-2.28,0-1.32,.69-2.77,2.08-4.36,2.73-3.12,6.38-5.42,10.96-6.9,.15-.35,.52-1.59,1.09-3.73,.57-2.13,1-3.67,1.29-4.62-1.96,2.97-3.99,5.46-6.1,7.46-2.11,2-4.04,3-5.78,3-1.56,0-2.34-1.01-2.34-3.04,0-1.85,.91-4.64,2.74-8.38,.99-2.05,1.58-3.28,1.77-3.71,.19-.43,.19-.63,.02-.61-.18,.04-.43,.19-.76,.43-1.72,1.45-3.21,2.22-4.49,2.31-.22,.02-.33-.03-.33-.17,.04-.2,.19-.32,.43-.36,.86-.09,2.14-.82,3.84-2.2,1.7-1.37,2.73-2.39,3.08-3.05,.09-.26,.51-.4,1.25-.4,.57,.04,.85,.18,.83,.4-3.78,6.36-5.93,10.91-6.43,13.66-.11,.62-.17,1.17-.17,1.65,0,1.54,.55,2.31,1.65,2.31,.9,0,1.94-.47,3.1-1.4,1.17-.93,2.32-2.13,3.46-3.58,2.71-3.52,4.8-7.03,6.27-10.53,.4-.92,.7-1.47,.92-1.65,.46-.77,1.39-1.16,2.77-1.16Zm-19.37,28.18c0,.26,.03,.51,.1,.73,.22,.86,.77,1.29,1.65,1.29,1.3,0,2.65-.87,4.06-2.61,2.13-2.57,3.88-5.77,5.25-9.6-3.81,1.25-6.85,3.29-9.14,6.1-1.28,1.56-1.91,2.93-1.91,4.09Z"/>
        <path class="cls-4" d="M284.24,43.37c-.86,.92-1.63,1.64-2.31,2.14-.88,.64-1.84,.96-2.87,.96-.2,0-.46-.09-.78-.28-.32-.19-.53-.46-.64-.81-.11-.35-.17-.69-.17-1.02,0-1.14,.22-2.28,.66-3.4-.07,.04-.37,.51-.91,1.4s-1.2,1.73-1.98,2.52c-.78,.79-1.57,1.19-2.36,1.19-.38,0-.8-.1-1.29-.3-.88-.4-1.32-1.12-1.32-2.18,0-1.3,.45-2.63,1.34-4.01,.89-1.38,1.46-2.11,1.7-2.2,.33-.09,.64-.13,.94-.13s.6,.06,.91,.18c.31,.12,.26,.33-.13,.61-1.52,1.39-2.6,2.93-3.23,4.62-.24,.66-.36,1.22-.36,1.67s.12,.74,.35,.87c.23,.13,.46,.2,.68,.2,.53,0,1.25-.37,2.16-1.11,.91-.74,2.17-2.27,3.78-4.6,.22-.33,.6-.97,1.16-1.93,.55-.96,.88-1.52,.99-1.7,.35,0,.76,.08,1.24,.25,.47,.17,.63,.38,.48,.64-1.06,1.76-1.8,3.06-2.23,3.89-.43,.84-.72,1.81-.88,2.94-.02,.2-.03,.45-.03,.76s.09,.56,.26,.76c.33,.35,.79,.37,1.37,.05,.58-.32,1.38-.93,2.39-1.85s1.83-1.81,2.44-2.69c.09-.11,.19-.14,.31-.08,.12,.06,.18,.11,.18,.17s-.02,.12-.07,.18c-.33,.59-.92,1.35-1.78,2.28Z"/>
      </g>
      <path class="cls-6" d="M74.74,54.44c-5.95,13.8-19.68,23.46-35.67,23.46C17.63,77.9,.25,60.52,.25,39.08S17.63,.25,39.08,.25c16.23,0,30.14,9.96,35.94,24.11"/>
      <g>
        <path class="cls-4" d="M61.15,36.72c0-.88-.02-1.75-.05-2.6-.03-.85-.07-1.71-.11-2.56,.35,.03,.7,.05,1.06,.07,.36,.02,.71,.03,1.06,.03s.7-.02,1.06-.05c.36-.03,.71-.05,1.06-.05,.57,0,1.11,.04,1.62,.13,.51,.09,.95,.24,1.34,.46,.39,.22,.69,.52,.92,.89s.34,.84,.34,1.4c0,.99-.31,1.76-.93,2.32s-1.43,.95-2.43,1.18v.04c1.19,.05,2.12,.34,2.81,.86,.69,.52,1.03,1.35,1.03,2.5,0,.75-.15,1.37-.46,1.88s-.71,.92-1.2,1.23c-.49,.31-1.04,.53-1.63,.66-.59,.13-1.18,.19-1.77,.19-.32,0-.64,0-.97-.02-.33-.01-.65-.02-.97-.02h-.97c-.33,0-.65,.01-.97,.04,.04-.85,.08-1.7,.11-2.55,.03-.85,.05-1.71,.05-2.59v-3.44Zm2.72,.98c.47,0,.93-.05,1.39-.14,.46-.09,.87-.25,1.23-.47,.36-.22,.65-.51,.87-.88,.22-.37,.33-.83,.33-1.39s-.1-.98-.3-1.31c-.2-.33-.45-.58-.76-.76-.31-.18-.65-.3-1.04-.36-.39-.06-.77-.09-1.16-.09-.35,0-.64,0-.88,.03-.24,.02-.45,.04-.64,.07-.03,.64-.05,1.27-.08,1.9-.03,.63-.04,1.26-.04,1.9v1.5h1.08Zm-1.08,2.78c0,.68,.01,1.35,.04,2.02,.03,.67,.05,1.34,.08,2.02,.25,.03,.55,.05,.9,.07,.35,.02,.7,.03,1.06,.03,.43,0,.84-.07,1.23-.22,.39-.15,.74-.36,1.03-.65,.29-.29,.53-.64,.7-1.06,.17-.42,.26-.9,.26-1.43,0-.57-.1-1.04-.31-1.41-.21-.37-.5-.65-.89-.86-.39-.21-.85-.35-1.39-.43s-1.14-.12-1.81-.12h-.9v2.04Z"/>
        <path class="cls-4" d="M72.11,40.86c0-1.64,.39-2.93,1.17-3.86,.78-.93,1.92-1.4,3.41-1.4,.71,0,1.32,.11,1.83,.33s.94,.51,1.29,.88c.35,.37,.6,.8,.77,1.29,.17,.49,.25,1.02,.25,1.58,0,.13,0,.26,0,.39,0,.13-.02,.26-.03,.39-.72-.01-1.43-.03-2.14-.04-.71-.01-1.42-.02-2.14-.02-.44,0-.88,0-1.31,.02-.43,.01-.87,.03-1.31,.04-.01,.07-.02,.17-.02,.3v.26c0,.52,.08,1.01,.23,1.46,.15,.45,.38,.84,.67,1.17,.29,.33,.65,.59,1.08,.78s.92,.29,1.48,.29c.27,0,.54-.04,.82-.11,.28-.07,.55-.17,.82-.3,.27-.13,.52-.28,.75-.45,.23-.17,.44-.36,.61-.56l.1,.06-.12,.98c-.4,.32-.9,.59-1.49,.82-.59,.23-1.21,.34-1.85,.34-.72,0-1.38-.11-1.97-.33s-1.11-.54-1.54-.96-.77-.92-1-1.49-.35-1.19-.35-1.86Zm4.62-4.62c-.49,0-.91,.11-1.25,.34-.34,.23-.62,.51-.84,.85s-.39,.71-.5,1.12c-.11,.41-.18,.79-.21,1.15,.41,.01,.84,.03,1.29,.04,.45,.01,.88,.02,1.31,.02s.89,0,1.34-.02c.45-.01,.89-.03,1.32-.04,0-.36-.03-.74-.09-1.14-.06-.4-.18-.77-.36-1.12-.18-.35-.43-.63-.75-.86-.32-.23-.74-.34-1.26-.34Z"/>
        <path class="cls-4" d="M83.13,36.76c.6-.45,1.15-.76,1.66-.92s1.03-.24,1.56-.24c.48,0,.92,.07,1.32,.21,.4,.14,.74,.34,1.02,.6,.28,.26,.5,.57,.66,.94,.16,.37,.24,.77,.24,1.21,0,.76-.01,1.52-.04,2.27-.03,.75-.04,1.55-.04,2.39,0,.16,0,.33,0,.51,0,.18,.04,.34,.09,.48,.05,.14,.13,.26,.23,.35,.1,.09,.25,.14,.45,.14,.07,0,.14,0,.21-.01,.07,0,.14-.03,.21-.07v.44c-.15,.07-.33,.12-.55,.16s-.46,.06-.73,.06c-.43,0-.75-.11-.98-.33-.23-.22-.36-.5-.4-.85-.48,.48-.95,.83-1.42,1.06-.47,.23-1.04,.34-1.72,.34-.33,0-.66-.05-.98-.14-.32-.09-.6-.25-.85-.46-.25-.21-.45-.47-.6-.77s-.23-.64-.23-1.03c0-.8,.25-1.42,.75-1.86,.5-.44,1.19-.73,2.07-.88,.72-.12,1.28-.22,1.69-.31,.41-.09,.71-.18,.9-.27,.19-.09,.31-.2,.35-.33,.04-.13,.06-.29,.06-.49,0-.33-.04-.65-.12-.96s-.21-.57-.38-.8c-.17-.23-.4-.41-.68-.55-.28-.14-.62-.21-1.02-.21-.53,0-1.03,.12-1.49,.36-.46,.24-.8,.57-1.03,1h-.22v-1.04Zm4.94,3.56c-.23,.08-.49,.15-.79,.2-.3,.05-.6,.11-.91,.17-.31,.06-.61,.14-.91,.23-.3,.09-.57,.22-.8,.38-.23,.16-.42,.36-.56,.6-.14,.24-.21,.55-.21,.92,0,.63,.18,1.1,.54,1.42,.36,.32,.76,.48,1.2,.48,.51,0,.97-.14,1.39-.42s.74-.61,.97-.98l.08-3Z"/>
        <path class="cls-4" d="M92.93,42.28c0-.71,0-1.31,.03-1.81s.03-1,.03-1.49c0-.47,0-.97-.01-1.52s-.02-1.1-.03-1.66c.33,.07,.61,.1,.84,.1,.21,0,.49-.03,.82-.1-.07,.8-.12,1.68-.15,2.63s-.05,1.93-.05,2.93c0,.69,.06,1.22,.18,1.59,.12,.37,.27,.64,.44,.83,.19,.21,.42,.39,.71,.53,.29,.14,.62,.21,1.01,.21,.56,0,1.03-.12,1.4-.37,.37-.25,.65-.55,.82-.91,.09-.23,.17-.42,.22-.58,.05-.16,.1-.37,.13-.64,.03-.27,.05-.63,.06-1.08,0-.45,0-1.07,0-1.86v-1.68c0-.29,0-.57,0-.84,0-.27-.02-.52-.03-.76,.15,.03,.29,.05,.42,.07,.13,.02,.27,.03,.42,.03s.29,0,.42-.03c.13-.02,.27-.04,.4-.07-.07,1.04-.11,2.04-.12,3.01s-.02,1.99-.02,3.07c0,.6,0,1.19,.02,1.76s.03,1.13,.06,1.66c-.27-.03-.53-.04-.78-.04s-.51,.01-.78,.04c.01-.12,.02-.25,.03-.38s.01-.27,.01-.42v-.86h-.04c-.35,.64-.79,1.11-1.34,1.41-.55,.3-1.14,.45-1.78,.45-1.04,0-1.86-.28-2.45-.83-.59-.55-.89-1.35-.89-2.39Z"/>
        <path class="cls-4" d="M105.87,33.13c-.04,.51-.07,1-.09,1.49-.02,.49-.04,.98-.07,1.47,.15,0,.42,0,.82-.01,.4,0,.83-.02,1.3-.05-.01,.04-.02,.11-.02,.22v.42c0,.09,0,.16,.02,.2-.17-.01-.35-.02-.54-.03-.19,0-.39-.01-.6-.01h-.98c-.01,.05-.03,.27-.05,.64s-.04,.82-.05,1.33c-.01,.51-.02,1.05-.03,1.61,0,.56,0,1.06,0,1.5,0,.37,0,.74,.03,1.1,.02,.36,.08,.68,.19,.97,.11,.29,.27,.52,.48,.69,.21,.17,.52,.26,.92,.26,.11,0,.25-.01,.43-.04,.18-.03,.34-.06,.47-.1v.48c-.23,.04-.48,.09-.75,.15-.27,.06-.54,.09-.79,.09-.84,0-1.46-.21-1.86-.62-.4-.41-.6-1.02-.6-1.82,0-.36,0-.75,.02-1.17,.01-.42,.03-.88,.05-1.38s.04-1.05,.05-1.66c.01-.61,.02-1.28,.02-2.03h-.64c-.11,0-.22,0-.34,.01-.12,0-.25,.02-.38,.03,.01-.08,.02-.16,.03-.23,0-.07,0-.15,0-.23,0-.07,0-.13,0-.2,0-.07-.02-.13-.03-.2,.6,.04,1.04,.06,1.32,.06-.01-.27-.02-.6-.03-1,0-.4-.02-.81-.05-1.24l1.66-.7h.1Z"/>
        <path class="cls-4" d="M112.53,45.32c-.15-.36-.34-.83-.57-1.4-.23-.57-.48-1.18-.75-1.81-.27-.63-.54-1.28-.82-1.94-.28-.66-.54-1.28-.79-1.86s-.46-1.09-.65-1.53c-.19-.44-.33-.77-.42-.98,.17,.03,.33,.05,.48,.07,.15,.02,.29,.03,.44,.03s.29,0,.44-.03c.15-.02,.31-.04,.48-.07,.41,1.28,.87,2.55,1.38,3.8,.51,1.25,1.04,2.55,1.6,3.88,.56-1.17,1.1-2.43,1.61-3.76,.51-1.33,.97-2.64,1.37-3.92,.27,.07,.49,.1,.66,.1s.39-.03,.66-.1c-.09,.19-.24,.5-.45,.95-.21,.45-.45,.98-.74,1.6-.29,.62-.6,1.31-.94,2.06-.34,.75-.69,1.53-1.04,2.32-.35,.79-.7,1.58-1.05,2.36s-.67,1.52-.96,2.22-.55,1.33-.77,1.9c-.22,.57-.38,1.02-.49,1.35-.27-.07-.49-.1-.68-.1s-.41,.03-.68,.1c1.05-1.75,1.95-3.49,2.68-5.24Z"/>
        <path class="cls-4" d="M124.49,40.59c0-.87,.15-1.61,.44-2.24s.68-1.14,1.15-1.55c.47-.41,1.02-.71,1.63-.9s1.24-.29,1.88-.29c.73,0,1.39,.09,1.97,.27,.58,.18,1,.38,1.25,.61-.09,.2-.18,.41-.25,.63-.07,.22-.14,.45-.19,.69h-.16c-.09-.17-.22-.35-.38-.53-.16-.18-.35-.35-.57-.5-.22-.15-.46-.28-.73-.38-.27-.1-.56-.15-.88-.15-.6,0-1.12,.11-1.55,.33-.43,.22-.79,.52-1.06,.91-.27,.39-.47,.84-.6,1.37-.13,.53-.19,1.1-.19,1.71,0,1.37,.29,2.41,.88,3.11,.59,.7,1.45,1.05,2.58,1.05,.27,0,.54-.04,.82-.11,.28-.07,.55-.17,.82-.3,.27-.13,.52-.28,.75-.45,.23-.17,.44-.36,.61-.56l.1,.06c-.07,.32-.11,.65-.12,.98-.4,.32-.9,.59-1.49,.82s-1.21,.34-1.85,.34c-.57,0-1.15-.08-1.73-.25-.58-.17-1.1-.45-1.57-.84-.47-.39-.84-.9-1.13-1.53-.29-.63-.43-1.39-.43-2.3Z"/>
        <path class="cls-4" d="M134.35,40.59c0-.91,.14-1.68,.43-2.31,.29-.63,.66-1.15,1.13-1.54,.47-.39,.99-.68,1.57-.86,.58-.18,1.16-.27,1.73-.27s1.17,.09,1.74,.27c.57,.18,1.09,.47,1.56,.86,.47,.39,.84,.91,1.13,1.54,.29,.63,.43,1.4,.43,2.31s-.14,1.68-.43,2.31c-.29,.63-.66,1.15-1.13,1.54-.47,.39-.99,.67-1.56,.83s-1.15,.24-1.74,.24-1.15-.08-1.73-.24-1.1-.44-1.57-.83c-.47-.39-.84-.91-1.13-1.54-.29-.63-.43-1.4-.43-2.31Zm1.76,0c0,.56,.05,1.1,.15,1.62,.1,.52,.27,.98,.51,1.39,.24,.41,.56,.73,.96,.97s.89,.36,1.48,.36,1.08-.12,1.48-.36,.72-.56,.96-.97c.24-.41,.41-.87,.51-1.39,.1-.52,.15-1.06,.15-1.62s-.05-1.1-.15-1.62c-.1-.52-.27-.98-.51-1.39-.24-.41-.56-.73-.96-.97s-.89-.36-1.48-.36-1.08,.12-1.48,.36-.72,.56-.96,.97c-.24,.41-.41,.87-.51,1.39-.1,.52-.15,1.06-.15,1.62Z"/>
        <path class="cls-4" d="M145.47,40.59c0-.91,.14-1.68,.43-2.31,.29-.63,.66-1.15,1.13-1.54,.47-.39,.99-.68,1.57-.86,.58-.18,1.16-.27,1.73-.27s1.17,.09,1.74,.27c.57,.18,1.09,.47,1.56,.86,.47,.39,.84,.91,1.13,1.54,.29,.63,.43,1.4,.43,2.31s-.14,1.68-.43,2.31c-.29,.63-.66,1.15-1.13,1.54-.47,.39-.99,.67-1.56,.83s-1.15,.24-1.74,.24-1.15-.08-1.73-.24-1.1-.44-1.57-.83c-.47-.39-.84-.91-1.13-1.54-.29-.63-.43-1.4-.43-2.31Zm1.76,0c0,.56,.05,1.1,.15,1.62,.1,.52,.27,.98,.51,1.39,.24,.41,.56,.73,.96,.97s.89,.36,1.48,.36,1.08-.12,1.48-.36,.72-.56,.96-.97c.24-.41,.41-.87,.51-1.39,.1-.52,.15-1.06,.15-1.62s-.05-1.1-.15-1.62c-.1-.52-.27-.98-.51-1.39-.24-.41-.56-.73-.96-.97s-.89-.36-1.48-.36-1.08,.12-1.48,.36-.72,.56-.96,.97c-.24,.41-.41,.87-.51,1.39-.1,.52-.15,1.06-.15,1.62Z"/>
        <path class="cls-4" d="M157.56,34.5c0-.53-.02-1.06-.03-1.58-.01-.52-.03-1.02-.05-1.49-.02-.47-.04-.88-.07-1.21,.37,.07,.67,.1,.9,.1s.53-.03,.9-.1c-.03,.33-.05,.74-.07,1.21-.02,.47-.04,.97-.05,1.49-.01,.52-.02,1.05-.03,1.58s0,1.03,0,1.48v3.64c0,.25,.08,.38,.24,.38,.11,0,.22-.05,.35-.14,.13-.09,.27-.2,.43-.32,.12-.09,.32-.27,.61-.54,.29-.27,.61-.58,.96-.93,.35-.35,.72-.73,1.09-1.13,.37-.4,.71-.78,1.02-1.14,.27,.07,.52,.1,.76,.1,.15,0,.29,0,.44-.03,.15-.02,.33-.04,.56-.07-.84,.68-1.64,1.35-2.41,2.01s-1.5,1.33-2.19,2.01c.76,.92,1.54,1.84,2.35,2.76,.81,.92,1.63,1.83,2.47,2.72-.23-.03-.43-.04-.61-.04h-1.01c-.17,0-.35,.01-.54,.04-.29-.33-.63-.72-1-1.17-.37-.45-.74-.89-1.11-1.33s-.72-.85-1.05-1.24c-.33-.39-.62-.71-.86-.96-.04-.05-.09-.1-.14-.14s-.11-.06-.16-.06c-.13,0-.2,.08-.2,.24v1.2c0,.6,0,1.18,.03,1.75s.06,1.14,.13,1.71c-.31-.03-.61-.04-.9-.04s-.59,.01-.9,.04c.03-.31,.05-.69,.07-1.16s.04-.96,.05-1.48c.01-.52,.02-1.05,.03-1.58s.01-1.03,.01-1.48v-3.62c0-.45,0-.95-.01-1.48Z"/>
        <path class="cls-4" d="M167.65,32.32c0-.28,.1-.52,.3-.72,.2-.2,.44-.3,.72-.3s.52,.1,.72,.3,.3,.44,.3,.72-.1,.52-.3,.72-.44,.3-.72,.3-.52-.1-.72-.3c-.2-.2-.3-.44-.3-.72Zm.28,7.22c0-.6-.01-1.23-.03-1.89-.02-.66-.06-1.28-.13-1.85,.37,.07,.67,.1,.9,.1s.53-.03,.9-.1c-.07,.57-.11,1.19-.13,1.85-.02,.66-.03,1.29-.03,1.89v2.08c0,.6,0,1.23,.03,1.89s.06,1.26,.13,1.79c-.31-.03-.61-.04-.9-.04s-.59,.01-.9,.04c.07-.53,.11-1.13,.13-1.79,.02-.66,.03-1.29,.03-1.89v-2.08Z"/>
        <path class="cls-4" d="M178.91,37.42c-.39-.51-.92-.77-1.6-.77-.93,0-1.62,.29-2.05,.86-.43,.57-.65,1.38-.65,2.42v1.7c0,.6,0,1.23,.03,1.89s.06,1.26,.13,1.79c-.31-.03-.61-.04-.9-.04s-.59,.01-.9,.04c.07-.53,.11-1.13,.13-1.79s.03-1.29,.03-1.89v-2.08c0-.6-.01-1.23-.03-1.89-.02-.66-.06-1.28-.13-1.85,.37,.07,.67,.1,.9,.1,.11,0,.22,0,.35-.03,.13-.02,.28-.04,.45-.07-.04,.53-.06,1.07-.06,1.6h.04c.37-.57,.82-1.02,1.34-1.33,.52-.31,1.14-.47,1.86-.47,.37,0,.75,.05,1.13,.16,.38,.11,.72,.29,1.03,.55,.31,.26,.56,.61,.75,1.06,.19,.45,.29,1.02,.29,1.71,0,.57-.01,1.16-.04,1.77-.03,.61-.04,1.25-.04,1.93v1.3c0,.21,0,.42,0,.63s.02,.4,.03,.59c-.27-.03-.55-.04-.84-.04s-.55,.01-.82,.04c.03-.69,.06-1.41,.09-2.14,.03-.73,.05-1.49,.05-2.26v-1.22c0-1-.19-1.76-.58-2.27Z"/>
        <path class="cls-4" d="M183.57,38.86c0-.56,.1-1.04,.3-1.45,.2-.41,.48-.74,.83-1.01,.35-.27,.76-.47,1.22-.6,.46-.13,.95-.2,1.47-.2,.25,0,.5,0,.73,.02,.23,.01,.53,.03,.89,.06,.31,.03,.58,.05,.82,.06,.24,.01,.43,.02,.58,.02,.75,0,1.29-.03,1.62-.1-.01,.07-.02,.14-.03,.21,0,.07-.01,.14-.01,.21s0,.14,.01,.21c0,.07,.02,.14,.03,.21-.39-.03-.76-.06-1.13-.09-.37-.03-.73-.06-1.09-.07l-.04,.04c.41,.23,.75,.58,1,1.05,.25,.47,.38,.96,.38,1.47,0,1-.34,1.78-1.01,2.35s-1.58,.85-2.71,.85c-.19,0-.37,0-.55-.02-.18-.01-.36-.02-.55-.02-.24,0-.46,.09-.67,.26-.21,.17-.31,.39-.31,.66,0,.35,.08,.6,.25,.76,.17,.16,.48,.25,.93,.26,.37,.01,.74,.02,1.1,.03,.36,0,.73,.02,1.1,.03,.61,.01,1.14,.09,1.57,.22,.43,.13,.79,.31,1.06,.54,.27,.23,.47,.49,.6,.78,.13,.29,.19,.61,.19,.96,0,.47-.09,.94-.27,1.42-.18,.48-.46,.91-.84,1.3-.38,.39-.87,.71-1.47,.96-.6,.25-1.32,.38-2.16,.38-1.29,0-2.31-.26-3.06-.77s-1.12-1.22-1.12-2.11c0-.35,.06-.67,.19-.96,.13-.29,.29-.55,.49-.78,.2-.23,.43-.41,.68-.54,.25-.13,.51-.23,.78-.3v-.04c-.41-.12-.73-.32-.94-.6-.21-.28-.32-.61-.32-1,0-.23,.04-.43,.13-.62,.09-.19,.2-.35,.33-.5,.13-.15,.29-.27,.46-.36,.17-.09,.34-.15,.5-.18v-.04c-.61-.27-1.09-.64-1.44-1.13-.35-.49-.52-1.1-.52-1.83Zm7.1,8.56c0-.8-.23-1.36-.7-1.68-.47-.32-1.24-.48-2.32-.48-1,0-1.77,.16-2.32,.49-.55,.33-.82,.92-.82,1.77,0,.45,.08,.84,.23,1.16s.36,.58,.62,.78c.26,.2,.57,.35,.93,.44,.36,.09,.75,.14,1.16,.14s.79-.05,1.18-.16c.39-.11,.73-.27,1.03-.48,.3-.21,.54-.48,.73-.81,.19-.33,.28-.72,.28-1.17Zm-1.08-8.66c0-.84-.2-1.48-.6-1.92-.4-.44-.93-.66-1.58-.66-.72,0-1.28,.24-1.68,.73-.4,.49-.6,1.14-.6,1.95s.18,1.5,.55,1.99c.37,.49,.94,.73,1.71,.73,.39,0,.72-.08,.99-.23,.27-.15,.5-.36,.68-.62,.18-.26,.31-.56,.4-.9,.09-.34,.13-.7,.13-1.07Z"/>
        <path class="cls-4" d="M199.86,43.88c.14,.16,.31,.31,.5,.45,.19,.14,.41,.26,.66,.35,.25,.09,.51,.14,.79,.14,.25,0,.5-.04,.73-.12,.23-.08,.44-.19,.62-.34,.18-.15,.32-.33,.43-.56,.11-.23,.16-.49,.16-.78,0-.41-.12-.73-.35-.95-.23-.22-.52-.4-.87-.54-.35-.14-.73-.26-1.14-.37-.41-.11-.79-.26-1.14-.45-.35-.19-.64-.45-.87-.77-.23-.32-.35-.76-.35-1.32,0-.44,.07-.84,.22-1.21,.15-.37,.36-.68,.64-.95,.28-.27,.63-.48,1.04-.63s.89-.23,1.42-.23c.49,0,.91,.07,1.25,.2,.34,.13,.66,.25,.97,.36-.11,.2-.21,.45-.3,.74-.09,.29-.15,.52-.18,.68h-.24c-.11-.32-.31-.61-.62-.86-.31-.25-.69-.38-1.14-.38-.2,0-.4,.03-.6,.1-.2,.07-.38,.17-.54,.3-.16,.13-.29,.31-.4,.52s-.16,.47-.16,.76c0,.43,.12,.76,.35,.99s.52,.42,.87,.55c.35,.13,.73,.25,1.14,.35,.41,.1,.79,.24,1.14,.42,.35,.18,.64,.43,.87,.75,.23,.32,.35,.76,.35,1.32,0,.39-.08,.77-.25,1.14-.17,.37-.41,.71-.72,1.01-.31,.3-.69,.53-1.13,.7-.44,.17-.94,.25-1.5,.25-.61,0-1.13-.06-1.54-.18-.41-.12-.76-.26-1.04-.42,.08-.17,.16-.41,.25-.71,.09-.3,.13-.55,.13-.75h.24c.07,.13,.17,.28,.31,.44Z"/>
        <path class="cls-4" d="M207.63,36.76c.6-.45,1.15-.76,1.66-.92s1.03-.24,1.56-.24c.48,0,.92,.07,1.32,.21,.4,.14,.74,.34,1.02,.6,.28,.26,.5,.57,.66,.94,.16,.37,.24,.77,.24,1.21,0,.76-.01,1.52-.04,2.27-.03,.75-.04,1.55-.04,2.39,0,.16,0,.33,0,.51,0,.18,.04,.34,.09,.48,.05,.14,.13,.26,.23,.35,.1,.09,.25,.14,.45,.14,.07,0,.14,0,.21-.01,.07,0,.14-.03,.21-.07v.44c-.15,.07-.33,.12-.55,.16s-.46,.06-.73,.06c-.43,0-.75-.11-.98-.33-.23-.22-.36-.5-.4-.85-.48,.48-.95,.83-1.42,1.06-.47,.23-1.04,.34-1.72,.34-.33,0-.66-.05-.98-.14-.32-.09-.6-.25-.85-.46-.25-.21-.45-.47-.6-.77s-.23-.64-.23-1.03c0-.8,.25-1.42,.75-1.86,.5-.44,1.19-.73,2.07-.88,.72-.12,1.28-.22,1.69-.31,.41-.09,.71-.18,.9-.27,.19-.09,.31-.2,.35-.33,.04-.13,.06-.29,.06-.49,0-.33-.04-.65-.12-.96s-.21-.57-.38-.8c-.17-.23-.4-.41-.68-.55-.28-.14-.62-.21-1.02-.21-.53,0-1.03,.12-1.49,.36-.46,.24-.8,.57-1.03,1h-.22v-1.04Zm4.94,3.56c-.23,.08-.49,.15-.79,.2-.3,.05-.6,.11-.91,.17-.31,.06-.61,.14-.91,.23-.3,.09-.57,.22-.8,.38-.23,.16-.42,.36-.56,.6-.14,.24-.21,.55-.21,.92,0,.63,.18,1.1,.54,1.42,.36,.32,.76,.48,1.2,.48,.51,0,.97-.14,1.39-.42s.74-.61,.97-.98l.08-3Z"/>
        <path class="cls-4" d="M217.94,34.5c0-.53-.02-1.06-.03-1.58-.01-.52-.03-1.02-.05-1.49-.02-.47-.04-.88-.07-1.21,.37,.07,.67,.1,.9,.1s.53-.03,.9-.1c-.03,.33-.05,.74-.07,1.21-.02,.47-.04,.97-.05,1.49-.01,.52-.02,1.05-.03,1.58s0,1.03,0,1.48v3.62c0,.45,0,.95,0,1.48s.02,1.06,.03,1.58c.01,.52,.03,1.01,.05,1.48s.04,.85,.07,1.16c-.31-.03-.61-.04-.9-.04s-.59,.01-.9,.04c.03-.31,.05-.69,.07-1.16s.04-.96,.05-1.48c.01-.52,.02-1.05,.03-1.58s.01-1.03,.01-1.48v-3.62c0-.45,0-.95-.01-1.48Z"/>
        <path class="cls-4" d="M222.17,40.59c0-.91,.14-1.68,.43-2.31,.29-.63,.66-1.15,1.13-1.54,.47-.39,.99-.68,1.57-.86,.58-.18,1.16-.27,1.73-.27s1.17,.09,1.74,.27c.57,.18,1.09,.47,1.56,.86,.47,.39,.84,.91,1.13,1.54,.29,.63,.43,1.4,.43,2.31s-.14,1.68-.43,2.31c-.29,.63-.66,1.15-1.13,1.54-.47,.39-.99,.67-1.56,.83s-1.15,.24-1.74,.24-1.15-.08-1.73-.24-1.1-.44-1.57-.83c-.47-.39-.84-.91-1.13-1.54-.29-.63-.43-1.4-.43-2.31Zm1.76,0c0,.56,.05,1.1,.15,1.62,.1,.52,.27,.98,.51,1.39,.24,.41,.56,.73,.96,.97s.89,.36,1.48,.36,1.08-.12,1.48-.36,.72-.56,.96-.97c.24-.41,.41-.87,.51-1.39,.1-.52,.15-1.06,.15-1.62s-.05-1.1-.15-1.62c-.1-.52-.27-.98-.51-1.39-.24-.41-.56-.73-.96-.97s-.89-.36-1.48-.36-1.08,.12-1.48,.36-.72,.56-.96,.97c-.24,.41-.41,.87-.51,1.39-.1,.52-.15,1.06-.15,1.62Z"/>
        <path class="cls-4" d="M240.05,37.42c-.39-.51-.92-.77-1.6-.77-.93,0-1.62,.29-2.05,.86-.43,.57-.65,1.38-.65,2.42v1.7c0,.6,0,1.23,.03,1.89s.06,1.26,.13,1.79c-.31-.03-.61-.04-.9-.04s-.59,.01-.9,.04c.07-.53,.11-1.13,.13-1.79s.03-1.29,.03-1.89v-2.08c0-.6-.01-1.23-.03-1.89-.02-.66-.06-1.28-.13-1.85,.37,.07,.67,.1,.9,.1,.11,0,.22,0,.35-.03,.13-.02,.28-.04,.45-.07-.04,.53-.06,1.07-.06,1.6h.04c.37-.57,.82-1.02,1.34-1.33,.52-.31,1.14-.47,1.86-.47,.37,0,.75,.05,1.13,.16,.38,.11,.72,.29,1.03,.55,.31,.26,.56,.61,.75,1.06,.19,.45,.29,1.02,.29,1.71,0,.57-.01,1.16-.04,1.77-.03,.61-.04,1.25-.04,1.93v1.3c0,.21,0,.42,0,.63s.02,.4,.03,.59c-.27-.03-.55-.04-.84-.04s-.55,.01-.82,.04c.03-.69,.06-1.41,.09-2.14,.03-.73,.05-1.49,.05-2.26v-1.22c0-1-.19-1.76-.58-2.27Z"/>
      </g>
      <g>
        <g>
          <path class="cls-3" d="M40.69,4.27l-.13,.07c-.09,.04-.17,.09-.24,.15-.06,.04-.11,.09-.14,.15-.03,.05-.02,.09,.02,.13,.03,.05,.08,.08,.14,.08l.16,.02c.15,0,.29,0,.44-.03l.25-.06c.16-.04,.32-.1,.47-.17l.13-.07c.09-.04,.17-.09,.24-.15,.06-.04,.11-.09,.14-.15,.03-.05,.02-.09-.02-.13-.03-.05-.08-.08-.14-.08l-.16-.02c-.15,0-.29,0-.44,.03l-.25,.06c-.16,.04-.32,.1-.47,.17h0Z"/>
          <path class="cls-3" d="M41.88,6.4c-.1-.24-.02-.57,.52-.86,.57-.25,1.01-.1,1.08-.04,.16,.08,.33,.36,.46,.82s.19,.93,.17,1.41-.15,.99-.31,1.37-.45,.9-.6,1.16-.29,.56-.56,.93-.66,.75-1,.97-.71,.55-.95,.73-.76,.68-.98,.88-.98,.99-1.37,1.75-.6,1.01-.28,1.52,1.15,1.24,1.59,1.18,2.36-.7,2.77-.94,1.07-.84,1.74-.77c.67,.04,.59,.36,.51,.66-.06,.24-.2,.51-.24,.75s-.04,1.22-.04,1.63-.07,1.28-.41,1.82-.87,1.16-1.78,1.67-1.45,.91-2.15,1.01-1.57-.02-2.24-.22-2.57-.92-2.99-1.39-1.01-.9-1.23-2.17-.21-2.61,.38-3.63,1.35-2.23,2.81-3.27,2.42-1.59,2.79-1.91,1.63-1.25,1.85-1.53,.89-1.33,.79-2.38c-.05-.53-.23-.92-.32-1.14Z"/>
        </g>
        <path class="cls-5" d="M39.03,39.41c.17-1.07,1.07-1.78,1.78-2.52,.07-.06,.18-.06,.24,.01,.06,.07,.06,.17,0,.23-.59,.69-1.34,1.5-1.68,2.3-.04,.2-.35,.18-.34-.03h0Z"/>
        <path class="cls-2" d="M33.9,23.05c.54-.05,1.04,.33,1.49,.59,.49,.28,.99,.53,1.5,.77,.09,.04,.2,.03,.28-.03,.05-.04,.12-.15,.03-.19-.56-.26-1.12-.55-1.66-.86-.5-.29-1-.61-1.6-.55-.08,0-.21,.06-.22,.15s.1,.12,.18,.12h0Z"/>
        <path class="cls-2" d="M33.66,22.82v.03s.03-.07,.04-.1l.03-.02,.16-.03c.07,0,.2-.37,.25-.45,.09-.15,.22-.29,.35-.4,.29-.23,.65-.35,1.02-.33,.19,.01,.37,.06,.54,.13s.33,.12,.51,.08c.37-.08,.69-.38,1.01-.57s.68-.36,1.07-.38,.75,.11,1.09,.27c.68,.33,1.28,.78,2.01,1.02,.79,.25,1.65,.29,2.41-.07,.06-.03,.15-.11,.1-.18s-.2-.05-.26-.02c-.79,.37-1.71,.19-2.48-.15s-1.44-.94-2.29-1.09c-.89-.16-1.67,.29-2.39,.77-.08,.05-.17,.14-.27,.16s-.18-.03-.27-.07c-.21-.08-.43-.14-.66-.14-.41-.02-.82,.08-1.17,.29s-.67,.55-.83,.94c-.06,.14-.16,.39,.05,.45,.16,.05,.4-.05,.39-.23-.01-.16-.41-.07-.39,.1h0Z"/>
        <path class="cls-2" d="M37.82,21.13c.61-.08,1.02,.55,1.36,.95,.17,.2,.36,.4,.59,.54,.27,.16,.57,.21,.87,.24,.32,.04,.61,.11,.91,.23,.27,.11,.54,.23,.84,.28,.56,.1,1.05-.09,1.39-.55,.15-.21,.29-.46,.52-.58,.1-.06,.23-.12,.25-.25s-.08-.19-.19-.22c-.19-.04-.4,.23-.14,.29h.03s-.07-.03-.11-.05c-.01-.01,.07-.03,0-.01-.03,0-.05,.03-.08,.04-.04,.02-.08,.05-.12,.08-.09,.07-.17,.15-.24,.24-.13,.16-.24,.34-.37,.5-.37,.42-.92,.24-1.36,.06-.25-.1-.49-.21-.75-.27-.28-.06-.56-.06-.84-.13-.51-.13-.81-.57-1.13-.95-.35-.42-.83-.8-1.4-.72-.08,.01-.21,.06-.22,.16,0,.1,.1,.14,.18,.13h0Z"/>
        <g>
          <path class="cls-2" d="M41.1,24.87c.33,.03,.66,.1,.98,.22,.1,.04,.21,.08,.31,.1,.33,.07,.66-.05,.99-.1s.72,0,.91,.27c0,0-1.1-.02-1.44,.13-.14,.06-.28,.13-.43,.16-.39,.09-.79-.04-1.18-.13s-.83-.13-1.16,.09l1.02-.74Z"/>
          <path class="cls-2" d="M40.98,24.96c.3,.03,.6,.09,.89,.19,.27,.09,.5,.16,.78,.14,.47-.03,1.11-.34,1.46,.13l.27-.17c-.21,0-.42,0-.63,.01-.31,.01-.64,.03-.93,.14-.24,.09-.44,.19-.7,.16s-.53-.1-.8-.16c-.45-.09-.94-.1-1.35,.16l.27,.07,1.02-.74c.07-.05,.04-.1-.03-.12-.09-.02-.21,.02-.28,.07l-1.02,.74c-.06,.04-.05,.09,.01,.11,.07,.03,.2,0,.26-.05,.4-.25,.93-.03,1.35,.06,.48,.1,.9,.04,1.35-.15,.23-.1,.51-.09,.76-.1,.18,0,.37-.01,.56,0,.06,0,.34-.07,.27-.17-.33-.43-.95-.31-1.4-.22-.16,.03-.33,.06-.49,.04-.15-.02-.29-.08-.43-.13-.3-.1-.61-.16-.93-.19-.09,0-.21,.01-.28,.07-.05,.05-.06,.11,.03,.12Z"/>
        </g>
        <path class="cls-2" d="M37.86,20.76c.34-1.75,1.03-3.57,2.52-4.64,.38-.28,.81-.46,1.22-.69,.37-.21,.71-.46,1.03-.75,.61-.55,1.14-1.2,1.82-1.67,.83-.57,1.87-.78,2.85-.57,.09,.02,.21,0,.28-.07,.05-.06,.05-.16-.05-.18-.91-.2-1.86-.1-2.71,.29s-1.45,1.04-2.08,1.67c-.33,.32-.66,.64-1.04,.89-.41,.27-.88,.46-1.3,.72-.75,.46-1.36,1.14-1.82,1.9-.57,.95-.9,2.03-1.12,3.12-.04,.18,.37,.13,.4-.03h0Z"/>
        <path class="cls-2" d="M38.13,20.23c.52-1.42,1.54-2.64,2.84-3.39,.34-.2,.69-.35,1.06-.49s.77-.29,1.1-.53,.58-.56,.83-.88c.27-.35,.54-.69,.85-1,.67-.69,1.54-1.29,2.52-1.34,.08,0,.22-.02,.26-.1s-.03-.1-.1-.1c-.89,.05-1.73,.42-2.43,.97-.36,.29-.68,.61-.98,.96s-.55,.71-.85,1.05c-.32,.36-.69,.57-1.13,.74-.39,.15-.78,.29-1.15,.49-.69,.36-1.31,.84-1.84,1.42-.6,.65-1.07,1.41-1.38,2.25-.04,.11,.35,.06,.39-.06h0Z"/>
        <path class="cls-2" d="M43.26,10.84c.65-.11,1.32-.05,1.95,.15s1.25,.49,1.73,.92c.24,.22,.41,.61,.08,.82-.25,.16-.48,.32-.68,.55-.41,.48-.7,1.08-.93,1.66-.28,.72-.43,1.47-.48,2.24,0,.08,.39,.03,.39-.1,.05-.74,.2-1.47,.47-2.17,.24-.64,.56-1.32,1.06-1.8,.12-.11,.25-.21,.38-.29,.12-.07,.25-.15,.32-.28,.14-.27-.02-.57-.22-.76-.49-.45-1.16-.76-1.78-.95-.72-.23-1.49-.29-2.23-.17-.05,0-.23,.04-.23,.12,0,.08,.11,.07,.16,.06h0Z"/>
        <path class="cls-2" d="M44.93,17.02c-.11,1.66,.08,3.65-1.17,4.95-.16,.17,.22,.18,.32,.08,1.3-1.35,1.14-3.33,1.25-5.07,.01-.17-.39-.1-.39,.04h0Z"/>
        <path class="cls-2" d="M45.59,16.31c.11-.07,.15,.12,.14,.2,0,.15-.06,.3-.08,.44-.05,.26-.09,.53-.12,.79-.08,.61-.14,1.22-.26,1.83-.19,.98-.56,1.97-1.33,2.63-.07,.06,.06,.07,.09,.06,.09,0,.2-.03,.26-.09,1.59-1.37,1.42-3.72,1.8-5.61,.04-.18,.04-.39-.18-.43-.21-.04-.46,.05-.63,.17-.07,.04-.05,.07,.02,.09,.08,.01,.21-.03,.28-.07h0Z"/>
        <path class="cls-2" d="M33.42,13.14c-.89-.4-1.95-.45-2.87-.1-.35,.13-.79,.46-.65,.9s.8,.47,1.17,.48c.52,.02,1.03,0,1.54,.13s1,.32,1.44,.6c.83,.53,1.46,1.3,2.04,2.08,.65,.87,1.42,1.8,1.49,2.93,0,.14,.41,.06,.39-.1-.06-.92-.59-1.7-1.12-2.43s-1.05-1.46-1.71-2.06-1.47-1.06-2.36-1.26c-.47-.1-.94-.11-1.42-.12-.34,0-1.2-.02-1.09-.55,.09-.47,.86-.55,1.24-.58,.54-.04,1.08,.07,1.58,.29,.09,.04,.2,.02,.28-.03,.05-.03,.12-.13,.03-.17h0Z"/>
        <path class="cls-2" d="M30.08,14.26c.46,.32,1.07,.45,1.41,.93,.19,.27,.31,.59,.44,.89,.13,.32,.26,.63,.37,.96,.22,.69,.25,1.39,.27,2.1,.01,.62,.03,1.24,.19,1.84s.45,1.13,.93,1.51c.12,.09,.47-.08,.31-.21-.98-.77-1-2.17-1.03-3.31-.02-.69-.06-1.37-.27-2.04-.1-.33-.23-.65-.37-.96-.12-.29-.24-.58-.4-.85-.36-.57-1.01-.71-1.53-1.07-.12-.08-.48,.09-.31,.21h0Z"/>
        <path class="cls-2" d="M33.11,14.2c.07-.68,.56-1.25,1.19-1.5,.78-.31,1.65-.17,2.43,.06s1.57,.56,2.39,.73c.41,.08,.82,.12,1.23,.1s.82-.14,1.22-.27c.85-.28,1.77-.71,2.66-.36,.14,.06,.46-.15,.24-.24-.81-.32-1.69-.08-2.48,.2-.43,.15-.86,.31-1.31,.38s-.93,.03-1.39-.07c-1.69-.36-3.37-1.43-5.13-.74-.73,.29-1.36,.94-1.45,1.75-.02,.18,.38,.11,.4-.04h0Z"/>
        <path class="cls-2" d="M33.64,13.22c.97-.29,2.04-.17,2.92,.35,.48,.29,.86,.69,1.29,1.05,.4,.33,.86,.59,1.34,.77,.56,.21,1.14,.3,1.73,.3,.23,0,.3-.31,.03-.31-1.11,.01-2.14-.41-2.97-1.14-.41-.36-.8-.73-1.29-1-.44-.24-.93-.39-1.43-.46-.57-.07-1.16-.02-1.71,.14-.24,.07-.17,.37,.07,.29h0Z"/>
        <path class="cls-2" d="M34.56,12.39c1.01-.81,2.24-1.28,3.49-1.57,.65-.15,1.29-.21,1.95-.08,.59,.11,1.15,.34,1.67,.65,.58,.35,1.09,.79,1.54,1.29,.06,.07,.43-.07,.37-.13-.86-.97-2-1.73-3.28-1.97-.69-.13-1.38-.07-2.07,.08s-1.36,.34-2.01,.6c-.72,.29-1.41,.67-2.02,1.16-.07,.06,.06,.06,.09,.06,.09,0,.19-.03,.26-.09h0Z"/>
        <path class="cls-2" d="M35.11,12.46c1.98-.53,4.04-1.37,6.12-.86,.53,.13,1.04,.36,1.48,.68,.07,.05,.18,.03,.26,0,.03-.01,.18-.1,.11-.15-1.78-1.31-4.11-.96-6.09-.4-.64,.18-1.28,.38-1.92,.55-.05,.01-.19,.07-.17,.14s.17,.05,.22,.04h0Z"/>
        <path class="cls-2" d="M33.46,12.9c-.05-.97,.24-2.01,1.06-2.6,.08-.06,.17-.11,.26-.16,.06-.03,.23-.14,.29-.12s.08,.18,.13,.24c.05,.07,.13,.12,.2,.16,.22,.12,.48,.19,.72,.27,.28,.1,.55,.2,.83,.3,.17,.06,.46-.18,.23-.26-.32-.11-.64-.23-.96-.34-.22-.08-.61-.14-.7-.39-.04-.1-.06-.18-.17-.24s-.22-.05-.32-.03c-.24,.05-.48,.18-.69,.31-.94,.62-1.34,1.77-1.29,2.87,.01,.21,.41,.15,.4-.03h0Z"/>
        <path class="cls-2" d="M34.84,9.99c-.14,.14-.28,.3-.33,.49s0,.39,.15,.51,.36,.19,.55,.25c.2,.07,.41,.12,.62,.16,.09,.02,.21,0,.28-.07,.06-.06,.05-.14-.04-.16-.18-.03-.36-.08-.54-.13-.16-.05-.34-.11-.48-.2-.13-.08-.17-.22-.14-.37,.04-.16,.16-.28,.26-.4,.06-.06,.04-.13-.04-.16s-.22,0-.28,.07h0Z"/>
        <path class="cls-2" d="M35.93,10.14c.2-.41,.67-.57,1.03-.81,.18-.12,.34-.27,.45-.45,.04-.06,.04-.09,.1-.1,.06-.01,.14,.01,.2,.02,.17,.02,.34,.07,.5,.12,.58,.18,1.12,.49,1.67,.76s1.17,.5,1.7,.87,.96,.86,1.07,1.5c.02,.1,.41,0,.39-.1-.25-1.39-1.75-1.89-2.85-2.42-.63-.31-1.24-.66-1.92-.83-.29-.07-.63-.14-.93-.04-.28,.09-.33,.35-.54,.53-.41,.37-1.02,.49-1.28,1.03-.04,.08,.34,.05,.39-.06h0Z"/>
        <path class="cls-2" d="M41.61,10.26c.11-.09,.28-.04,.41-.04,.18,0,.37-.04,.54-.1,.05-.02,.18-.1,.23-.1,.06,0,.11,.07,.14,.12,.1,.16,.07,.37,.1,.56,.05,.33,.25,.6,.43,.87s.38,.64,.24,.97c-.08,.2,.31,.19,.37,.04,.17-.4,0-.8-.23-1.14-.11-.17-.23-.33-.32-.52-.09-.2-.1-.41-.13-.63-.02-.19-.1-.38-.26-.48-.19-.12-.4-.06-.59,.03-.2,.09-.38,.11-.59,.1s-.43,.01-.6,.15c-.21,.17,.11,.28,.25,.16h0Z"/>
        <path class="cls-2" d="M32.07,12.65c-.03-.08,.03-.16,.06-.23,.04-.09,.05-.18,.04-.28-.02-.08-.05-.16-.08-.25,0-.04-.02-.07-.01-.11,0-.04,0,0,.01-.03,0,0,0,0,0-.01,0,0,0,0-.01,0-.01,0,0,0,.01,0-.02,0-.02,0,0,0h-.02s.03,0,0,0c.05,0,.09,.02,.13,.04,.1,.04,.2,.08,.3,.11,.24,.05,.48,.04,.72,.02,.08,0,.21-.06,.22-.15s-.11-.12-.18-.11c-.24,.02-.47,.03-.7-.05-.12-.05-.23-.1-.36-.11-.14-.01-.29,.02-.41,.11-.1,.07-.16,.18-.15,.3,0,.1,.05,.19,.07,.29s.02,.17-.02,.26c-.05,.1-.1,.21-.06,.32,.03,.09,.16,.09,.23,.07,.06-.02,.19-.08,.17-.17h0Z"/>
        <g>
          <path class="cls-2" d="M40.78,22.83c-.11,.21-.05,.46,.02,.69,.07,.22,.16,.46,.12,.69-.05,.3-.3,.51-.54,.69,0,0,.93-.84,1.21-.93,.34-.11,.66-.25,.95-.45l.48-.16c-.77,.69-1.61,1.29-2.51,1.79-.16,.09-.32,.18-.43,.33,0,0-.36,1.22-.39,2.11-.19,4.38-.37,8.77-.56,13.15-.06,1.36-.12,2.72-.07,4.08,.09,2.38,.5,4.73,.82,7.08,.49,3.55,.78,7.12,1.08,10.69,.11,1.29,.21,2.57,.32,3.86,.19,2.27,.3,4.79-1.12,6.55-.81-.35-1.27-1.88-1.27-1.88,2.06-9.2-.8-18.74-.72-28.17,.05-5.48,1.09-10.97,.39-16.4,0-.05-.03-.1-.07-.13-.15-.14-.55-.5-.82-.58-.33-.1-.71-.05-1,.13,.96-1.26,1.62-.31,1.62-.31-.21-.38-.67-.56-1.1-.55-.43,0-.84,.18-1.23,.34-.4,.17-.8,.34-1.23,.37-.9,.06-1.74-.53-2.64-.46,0,0,.52-.25,.8-.22s.56,.12,.84,.16c.68,.11,1.39-.07,1.99-.42,.26-.15,.51-.33,.78-.44,.28-.11,.59-.18,.85-.02l1.22,.56c-.13-.13-.1-.33-.02-.49s.22-.28,.36-.39c.5-.38,1.08-.7,1.39-1.25"/>
          <path class="cls-2" d="M40.59,22.81c-.14,.34-.02,.64,.07,.97,.14,.48-.06,.75-.42,1.03l.29,.14c.32-.29,.66-.62,1.03-.83,.13-.07,.29-.11,.43-.17,.21-.09,.39-.21,.59-.31,.09-.05,.32-.12,.46-.16l-.2-.18c-.61,.55-1.28,1.04-1.98,1.47-.29,.18-.67,.32-.91,.59-.1,.11-.12,.24-.15,.38-.16,.61-.29,1.23-.33,1.86-.05,.91-.08,1.83-.12,2.74-.15,3.62-.31,7.24-.46,10.86-.07,1.78-.1,3.55,.06,5.33,.16,1.79,.46,3.55,.7,5.33,.5,3.58,.79,7.19,1.09,10.79,.14,1.72,.33,3.45,.4,5.17,.06,1.42,.01,2.92-.61,4.23-.15,.32-.34,.63-.56,.91l.28-.07c-.46-.21-.75-.75-.95-1.19-.08-.17-.14-.33-.2-.51-.07-.21,.05-.46,.09-.68,.33-1.65,.51-3.34,.58-5.02,.14-3.4-.15-6.79-.51-10.16s-.79-6.89-.9-10.35,.25-7.03,.47-10.55c.11-1.75,.18-3.51,.11-5.27-.03-.86-.05-1.76-.21-2.61-.05-.25-.31-.42-.51-.57-.24-.18-.48-.31-.79-.33-.33-.02-.64,.07-.93,.23l.29,.14c.22-.28,.56-.69,.96-.53,.12,.05,.24,.14,.31,.25,.1,.14,.46,0,.36-.17-.65-1.08-2.05-.45-2.91-.1-.28,.11-.58,.21-.89,.22s-.61-.07-.91-.16c-.55-.16-1.08-.34-1.65-.31l.06,.25c.18-.09,.39-.18,.6-.19,.38-.02,.77,.17,1.15,.19,.76,.04,1.47-.21,2.11-.6,.34-.21,.77-.51,1.17-.33,.11,.05,.22,.1,.33,.15l.93,.43c.1,.04,.41-.07,.3-.21-.35-.42,.55-.9,.81-1.1,.36-.26,.7-.55,.92-.94,.11-.18-.29-.18-.37-.04-.29,.5-.79,.79-1.24,1.12-.31,.23-.83,.7-.49,1.12l.3-.21-1-.46c-.15-.07-.31-.16-.48-.19-.36-.05-.73,.08-1.04,.25-.37,.2-.71,.44-1.11,.58-.43,.15-.89,.19-1.34,.11-.36-.07-.71-.2-1.08-.12-.22,.04-.44,.13-.64,.22-.17,.08-.12,.26,.06,.25,.55-.03,1.06,.18,1.58,.32,.48,.13,.96,.19,1.45,.08,.88-.2,2.33-1.28,3.01-.16l.36-.17c-.14-.19-.36-.33-.59-.38-.56-.11-1.04,.31-1.37,.72-.16,.2,.18,.2,.29,.14,.36-.21,.74-.14,1.07,.08,.12,.08,.23,.17,.33,.27,.15,.13,.17,.25,.19,.44,.11,.89,.17,1.79,.19,2.68,.05,1.72-.02,3.45-.14,5.17-.22,3.45-.57,6.89-.45,10.35s.51,6.7,.87,10.04,.67,6.72,.55,10.1c-.06,1.67-.22,3.34-.53,4.98-.04,.2-.08,.4-.12,.6-.03,.13-.09,.28-.08,.41,.01,.1,.07,.22,.11,.31,.17,.43,.38,.87,.69,1.22,.16,.18,.34,.32,.55,.42,.08,.04,.23,0,.28-.07,.88-1.11,1.19-2.51,1.25-3.91,.06-1.56-.13-3.13-.26-4.68-.3-3.62-.57-7.24-1-10.85-.21-1.77-.5-3.54-.73-5.31-.24-1.81-.37-3.63-.33-5.46s.14-3.62,.21-5.43,.16-3.65,.23-5.48c.04-.9,.08-1.79,.11-2.69,.03-.82,.02-1.66,.16-2.47,.05-.31,.12-.63,.2-.94,.03-.12,.06-.31,.12-.38,.11-.14,.32-.22,.48-.31,.17-.1,.34-.2,.51-.31,.35-.22,.69-.45,1.01-.71,.3-.23,.6-.48,.88-.74,.14-.12-.09-.21-.2-.18-.18,.06-.37,.1-.54,.18-.23,.1-.43,.25-.66,.35-.16,.06-.31,.1-.46,.19-.41,.25-.77,.58-1.12,.9-.17,.15,.18,.23,.29,.14,.27-.22,.57-.47,.61-.84,.05-.44-.33-.87-.15-1.29,.08-.2-.31-.19-.37-.04h0Z"/>
        </g>
        <g>
          <path class="cls-2" d="M40.42,37.17c.13-1.25,.58-2.49,1.4-3.43s2.04-1.56,3.28-1.53c.79,.02,1.55,.29,2.34,.41,.87,.13,1.75,.06,2.62-.01-.24,.97-.48,1.94-.72,2.92-.14,.58-.29,1.18-.63,1.68-.44,.66-1.15,1.06-1.86,1.41-.62,.31-1.3,.59-1.99,.51-.46-.05-.88-.27-1.33-.4-.58-.17-1.2-.2-1.79-.37-.58-.17-1.16-.55-1.35-1.13"/>
          <path class="cls-2" d="M40.62,37.12c.16-1.52,.8-3.04,2.01-3.99,.56-.44,1.24-.76,1.95-.82,.85-.08,1.67,.22,2.5,.36,.95,.17,1.93,.1,2.89,.02l-.11-.04c-.24,.99-.49,1.98-.73,2.97-.11,.43-.22,.86-.41,1.26s-.46,.73-.8,1-.7,.47-1.07,.66c-.41,.21-.83,.42-1.29,.5-.48,.08-.93-.05-1.38-.22s-.88-.27-1.34-.34c-.85-.14-2.44-.33-2.24-1.31,.04-.22-.33-.15-.39,.1-.22,.83,1.21,1.15,2,1.29,.53,.1,1.04,.18,1.55,.36,.44,.16,.87,.3,1.35,.28,.93-.04,1.85-.51,2.63-.99,.36-.22,.7-.47,.97-.79,.32-.37,.52-.83,.66-1.3,.17-.56,.29-1.13,.43-1.7,.15-.62,.3-1.24,.46-1.86,.01-.05-.08-.04-.11-.04-.96,.08-1.91,.14-2.86-.04-.86-.16-1.7-.43-2.58-.34-1.54,.17-2.91,1.12-3.68,2.47-.45,.79-.7,1.68-.8,2.59,0,.04,.38,0,.39-.1h0Z"/>
        </g>
        <path class="cls-1" d="M41.29,37.12c.77-.8,1.85-1.14,2.9-1.36,1.19-.25,2.08-.62,2.63-1.03,.21-.16,.13-.19-.03-.09-.6,.38-1.05,.53-1.65,.67-1.14,.26-1.56,.22-2.65,.68-.57,.24-1.09,.53-1.52,.98-.06,.07-.03,.19,.05,.22,.09,.04,.21,0,.28-.07h0Z"/>
        <path class="cls-2" d="M31.52,14.47c.96,.17,2.01,.38,2.66,1.19,.32,.4,.53,.87,.84,1.27s.76,.69,1.18,.96c.48,.31,.97,.66,1.19,1.21,.06,.16,.45,.05,.39-.1-.41-1.06-1.62-1.32-2.32-2.13-.35-.41-.56-.91-.89-1.33s-.74-.69-1.22-.89c-.54-.23-1.12-.33-1.7-.44-.18-.03-.41,.21-.15,.26h0Z"/>
        <path class="cls-5" d="M38.32,47.68c-.36-1.35-1.16-2.86-2.3-3.68-.12-.07-.05-.26,.08-.25,.94,.12,1.38,.99,1.88,1.63,.42,.71,1.09,1.5,.63,2.39-.09,.14-.29,.06-.29-.1h0Z"/>
        <g>
          <g>
            <path class="cls-2" d="M28.7,39.86c1.37-.9,3.45-1.13,4.68-.87,.79,.17,1.73,.65,2.36,1.41,.48,.58,.73,1.33,.97,2.05,.18,.55,.36,1.11,.31,1.69s-.38,1.17-.93,1.33c-.42,.13-.88-.01-1.32-.04-.65-.04-1.29,.17-1.94,.21-1.35,.07-2.7-.7-3.34-1.9-.69-1.31-.62-3.08-1.77-4.01l.95,.13Z"/>
            <path class="cls-2" d="M28.7,39.91c1.42-.92,3.17-1.13,4.83-.78,.71,.15,1.5,.59,2.02,1.2,.56,.66,.83,1.53,1.08,2.35,.24,.77,.42,1.75-.19,2.4-.12,.13-.28,.24-.46,.27-.25,.04-.52-.02-.77-.05-.44-.06-.86-.03-1.3,.04s-.88,.16-1.32,.13c-.38-.02-.75-.11-1.1-.26-.68-.29-1.29-.78-1.68-1.42-.81-1.31-.63-3.18-1.89-4.22l-.31,.13,.82,.27c.07,.02,.18-.01,.25-.04,.03-.02,.12-.07,.04-.09l-.82-.27c-.05-.02-.38,.07-.31,.13,1.22,1,1.07,2.83,1.82,4.11,.39,.68,1.01,1.21,1.73,1.51,.35,.15,.73,.25,1.11,.28,.45,.04,.9-.02,1.34-.1,.26-.04,.52-.09,.78-.1s.52,.02,.77,.06c.44,.06,.88,.06,1.28-.15,.77-.41,.89-1.36,.73-2.14-.1-.48-.27-.95-.43-1.41-.15-.42-.33-.84-.57-1.22-.47-.72-1.2-1.19-1.99-1.46-1.67-.56-3.6-.33-5.15,.48-.19,.1-.38,.21-.56,.33-.06,.04-.04,.07,.02,.08,.07,.01,.19-.03,.25-.07Z"/>
          </g>
          <path class="cls-1" d="M36.22,44.04c-.86-1.05-1.6-1.47-2.69-1.99-1.16-.55-1.96-.58-2.41-1-.08-.07-.19-.19,.04-.07,.49,.26,1.36,.35,2.22,.63,.42,.14,1.38,.49,2.39,1.26,.41,.31,.73,.84,.76,1.11,0,.08,0,.17-.08,.19-.09,.02-.19-.04-.23-.11h0Z"/>
        </g>
      </g>
    </g>
  </g>
</svg>