<svg width="64" height="198" viewBox="0 0 64 198" fill="none" xmlns="http://www.w3.org/2000/svg">
<rect x="0.35" y="0.35" width="63.3" height="197.3" fill="#5B7594" stroke="#5B7594" stroke-width="0.7"/>
<path d="M29.36 60.744C29.28 60.744 29.24 60.712 29.24 60.648C29.24 60.568 29.288 60.48 29.384 60.384C29.448 60.32 29.8 60.008 30.44 59.448C31.176 58.84 31.544 58.488 31.544 58.392C31.544 58.28 31.184 58.144 30.464 57.984C29.84 57.84 29.272 57.584 28.76 57.216C28.248 56.832 27.856 56.464 27.584 56.112C27.392 55.872 27.296 55.664 27.296 55.488C27.296 55.408 27.312 55.368 27.344 55.368L27.464 55.416C27.624 55.512 27.832 55.624 28.088 55.752C28.456 55.928 28.928 56.08 29.504 56.208C30.096 56.32 30.664 56.376 31.208 56.376C31.608 56.376 32.088 56.336 32.648 56.256C33.224 56.192 33.632 56.16 33.872 56.16C34.128 56.16 34.328 56.192 34.472 56.256C34.776 56.352 35.056 56.544 35.312 56.832C35.568 57.12 35.696 57.416 35.696 57.72C35.696 57.976 35.592 58.16 35.384 58.272C35.192 58.368 34.808 58.456 34.232 58.536C32.728 58.728 31.224 59.408 29.72 60.576C29.56 60.688 29.44 60.744 29.36 60.744ZM40.952 59.544C40.584 59.544 40.288 59.4 40.064 59.112C39.68 58.696 39.344 58.384 39.056 58.176C38.784 57.952 38.432 57.768 38 57.624C37.888 57.592 37.76 57.56 37.616 57.528C37.472 57.48 37.368 57.44 37.304 57.408C37.24 57.376 37.208 57.328 37.208 57.264C37.208 57.168 37.4 57.096 37.784 57.048C38.168 56.984 38.464 56.952 38.672 56.952C39.488 56.952 40.208 57.12 40.832 57.456C41.456 57.792 41.768 58.224 41.768 58.752C41.768 59.008 41.68 59.208 41.504 59.352C41.344 59.48 41.16 59.544 40.952 59.544ZM38.6 61.848C38.216 61.848 37.912 61.68 37.688 61.344C37.384 60.912 37.072 60.56 36.752 60.288C36.448 60 36.056 59.768 35.576 59.592C35.496 59.56 35.392 59.528 35.264 59.496C35.152 59.448 35.072 59.408 35.024 59.376C34.976 59.328 34.952 59.28 34.952 59.232C34.952 59.136 35.064 59.072 35.288 59.04C35.512 58.992 35.736 58.968 35.96 58.968C36.904 58.968 37.736 59.152 38.456 59.52C39.176 59.872 39.536 60.368 39.536 61.008C39.536 61.28 39.44 61.488 39.248 61.632C39.056 61.776 38.84 61.848 38.6 61.848ZM31.976 71.88C30.776 71.88 29.664 71.776 28.64 71.568C27.632 71.36 26.848 71.008 26.288 70.512C25.6 69.952 25.256 69.184 25.256 68.208C25.256 67.776 25.304 67.392 25.4 67.056C25.576 66.592 25.728 66.36 25.856 66.36C25.968 66.36 26.024 66.48 26.024 66.72C26.024 66.816 26.016 66.912 26 67.008C25.984 67.104 25.976 67.2 25.976 67.296C25.976 68.24 26.568 68.92 27.752 69.336C28.552 69.608 29.52 69.744 30.656 69.744C31.792 69.744 33.128 69.6 34.664 69.312C35.528 69.184 36.032 69.12 36.176 69.12C36.64 69.12 37.008 69.224 37.28 69.432C37.568 69.624 37.712 69.88 37.712 70.2C37.712 70.712 37.28 71.104 36.416 71.376C35.936 71.52 35.296 71.64 34.496 71.736C33.696 71.832 32.856 71.88 31.976 71.88ZM37.544 88.04C37.624 87.96 37.744 87.84 37.904 87.68C38.064 87.52 38.192 87.44 38.288 87.44C38.384 87.44 38.592 87.584 38.912 87.872C39.232 88.16 39.528 88.472 39.8 88.808C40.088 89.128 40.232 89.344 40.232 89.456C40.12 89.536 39.992 89.592 39.848 89.624C39.704 89.656 39.488 89.68 39.2 89.696C38.496 90.192 37.544 90.728 36.344 91.304C35.16 91.88 33.984 92.392 32.816 92.84C33.392 93.224 33.816 93.632 34.088 94.064C34.376 94.48 34.52 94.872 34.52 95.24C34.52 95.608 34.408 95.88 34.184 96.056H39.512L40.064 95.432C40.128 95.368 40.24 95.248 40.4 95.072C40.576 94.896 40.712 94.808 40.808 94.808C40.904 94.808 41.112 94.96 41.432 95.264C41.752 95.552 42.056 95.864 42.344 96.2C42.632 96.536 42.776 96.76 42.776 96.872C42.632 97.048 42.312 97.144 41.816 97.16C41.192 97.896 40.344 98.728 39.272 99.656C38.2 100.568 37.192 101.336 36.248 101.96L35.984 101.768C36.56 101.096 37.176 100.28 37.832 99.32C38.488 98.36 39.024 97.496 39.44 96.728H32.936V106.232C32.936 106.792 32.856 107.248 32.696 107.6C32.552 107.968 32.248 108.264 31.784 108.488C31.336 108.728 30.672 108.888 29.792 108.968C29.744 108.328 29.52 107.856 29.12 107.552C28.64 107.216 27.776 106.96 26.528 106.784V106.448C28.72 106.592 30.016 106.664 30.416 106.664C30.64 106.664 30.8 106.624 30.896 106.544C30.992 106.464 31.04 106.336 31.04 106.16V96.728H25.4C24.264 96.744 23.064 96.856 21.8 97.064L21.152 95.864C22.032 95.96 23.096 96.024 24.344 96.056H33.032C32.616 95.352 31.912 94.568 30.92 93.704C29.944 92.84 28.808 92.088 27.512 91.448L27.656 91.112C29.544 91.416 31.104 91.896 32.336 92.552C34.016 91.432 35.416 90.36 36.536 89.336H28.064C26.928 89.352 25.728 89.464 24.464 89.672L23.84 88.448C24.72 88.544 25.784 88.608 27.032 88.64H36.968L37.544 88.04ZM23.696 126.328C24 125.592 24.272 124.784 24.512 123.904C24.752 123.024 24.904 122.248 24.968 121.576C26.712 122.232 27.584 122.664 27.584 122.872C27.584 122.92 27.512 122.976 27.368 123.04L26.936 123.184C26.088 124.56 25.2 125.736 24.272 126.712C24.64 127 24.912 127.304 25.088 127.624C25.28 127.928 25.376 128.224 25.376 128.512C25.376 128.784 25.304 129.008 25.16 129.184C25.016 129.36 24.832 129.448 24.608 129.448C24.384 129.448 24.168 129.376 23.96 129.232C23.816 128.688 23.52 128.096 23.072 127.456C22.624 126.816 22.152 126.28 21.656 125.848L21.872 125.632C22.608 125.824 23.216 126.064 23.696 126.352V126.328ZM40.016 126.352C40.08 126.272 40.176 126.152 40.304 125.992C40.448 125.832 40.568 125.752 40.664 125.752C40.76 125.752 40.968 125.88 41.288 126.136C41.608 126.376 41.904 126.64 42.176 126.928C42.464 127.2 42.608 127.392 42.608 127.504C42.4 127.728 42.064 127.864 41.6 127.912C41.504 132.152 41.304 135.512 41 137.992C40.712 140.456 40.28 142.024 39.704 142.696C39.336 143.096 38.904 143.392 38.408 143.584C37.912 143.776 37.328 143.872 36.656 143.872C36.656 143.184 36.496 142.712 36.176 142.456C35.792 142.136 34.88 141.84 33.44 141.568V141.184C35.6 141.392 36.88 141.496 37.28 141.496C37.52 141.496 37.704 141.472 37.832 141.424C37.96 141.36 38.088 141.264 38.216 141.136C39.032 140.4 39.552 135.896 39.776 127.624H33.104C32.288 129.208 31.416 130.496 30.488 131.488L30.152 131.272C30.792 130.008 31.36 128.56 31.856 126.928C32.096 126.16 32.304 125.272 32.48 124.264C32.672 123.24 32.768 122.4 32.768 121.744C33.792 122.048 34.504 122.288 34.904 122.464C35.32 122.64 35.528 122.776 35.528 122.872C35.528 122.936 35.456 123 35.312 123.064L34.88 123.256C34.448 124.6 33.968 125.824 33.44 126.928H39.536L40.016 126.352ZM28.568 131.68C28.264 131.04 27.896 130.4 27.464 129.76L27.728 129.616C28.832 130.16 29.64 130.76 30.152 131.416C30.68 132.072 30.944 132.68 30.944 133.24C30.944 133.56 30.864 133.824 30.704 134.032C30.56 134.224 30.368 134.32 30.128 134.32C29.888 134.32 29.64 134.216 29.384 134.008C29.304 133.544 29.12 132.936 28.832 132.184L27.104 132.616V137.584C27.136 139.568 27.2 141.448 27.296 143.224C27.168 143.4 26.96 143.56 26.672 143.704C26.384 143.848 26.048 143.92 25.664 143.92C25.52 143.92 25.392 143.872 25.28 143.776C25.168 143.68 25.112 143.568 25.112 143.44C25.176 142.496 25.232 141.584 25.28 140.704C25.328 139.808 25.36 138.64 25.376 137.2V133.048L22.544 133.672C22.432 133.976 22.232 134.144 21.944 134.176L21.368 132.136C21.88 132.136 22.752 132.096 23.984 132.016C24.56 131.088 25.144 130.064 25.736 128.944C26.12 128.224 26.472 127.448 26.792 126.616C27.128 125.784 27.368 125.048 27.512 124.408C29.176 125.112 30.008 125.568 30.008 125.776C30.008 125.84 29.936 125.896 29.792 125.944L29.336 126.064C28.76 126.976 28.056 127.968 27.224 129.04C26.408 130.112 25.576 131.088 24.728 131.968L28.568 131.68ZM33.104 130.792C34.384 131.416 35.32 132.12 35.912 132.904C36.52 133.688 36.824 134.424 36.824 135.112C36.824 135.496 36.736 135.808 36.56 136.048C36.384 136.288 36.16 136.408 35.888 136.408C35.632 136.408 35.36 136.288 35.072 136.048C35.024 135.264 34.784 134.408 34.352 133.48C33.92 132.552 33.424 131.712 32.864 130.96L33.104 130.792ZM24.032 135.352C24.704 135.464 25.04 135.592 25.04 135.736C25.04 135.816 24.952 135.896 24.776 135.976L24.368 136.168C24.048 137.288 23.648 138.352 23.168 139.36C22.688 140.368 22.16 141.208 21.584 141.88L21.224 141.688C21.384 141.304 21.584 140.728 21.824 139.96C22.064 139.192 22.256 138.32 22.4 137.344C22.544 136.352 22.608 135.528 22.592 134.872L24.032 135.352ZM28.04 134.896C29.032 135.504 29.752 136.152 30.2 136.84C30.664 137.512 30.896 138.144 30.896 138.736C30.896 139.104 30.808 139.408 30.632 139.648C30.472 139.872 30.264 139.984 30.008 139.984C29.736 139.984 29.48 139.864 29.24 139.624C29.176 138.952 29 138.192 28.712 137.344C28.424 136.48 28.104 135.712 27.752 135.04L28.04 134.896Z" fill="white"/>
<path d="M22.8396 11.0878C22.8396 11.0878 22.83 11.3259 22.7209 11.6892C22.6664 11.8754 22.5861 12.0952 22.4674 12.3272C21.9189 12.8859 20.1127 14.394 19.9747 12.5898C19.9747 12.5898 18.499 13.0446 19.1406 14.2475C19.1663 14.3757 18.7717 14.5528 18.4605 14.8916C17.8637 14.9741 17.2991 14.9924 16.7762 14.9649C16.7762 14.4825 16.7762 13.9819 16.7762 13.2461C17.4242 13.1637 17.9022 12.8309 18.2487 12.5043C18.8551 11.9273 19.0379 11.0786 19.0123 10.3185C18.9962 9.86052 18.9032 9.43312 18.7781 9.11257C19.7084 10.1872 21.3029 11.7625 22.4835 10.3978C23.5807 9.02709 21.8771 8.10818 21.1104 8.42568C21.1104 8.42568 22.3969 9.48807 21.1778 9.80557C20.3116 10.0376 19.2208 9.26522 18.5792 8.73707C18.5503 8.69739 18.5182 8.66075 18.4893 8.63022C18.4765 8.61496 18.4605 8.60275 18.4444 8.59054C18.4284 8.56917 18.4091 8.55085 18.3738 8.51421C18.284 8.42873 18.1172 8.2883 17.8894 8.12956C18.4637 7.63805 19.163 7.42129 19.7341 7.32971C20.3404 7.23202 20.7992 7 20.7992 7H22.6792V7.30529H23V7H22.0376V7.30529H20.8056C20.8056 7.30529 19.0347 7 17.8028 8.07155C17.4371 7.82732 16.9366 7.54951 16.3591 7.37855C15.355 7.07937 14.1134 7.1038 12.9938 8.1723C12.9649 8.19977 12.936 8.2303 12.9072 8.25777C12.9007 8.24556 12.8943 8.23335 12.8847 8.22114C10.9341 6.17878 9.53859 8.18756 9.43914 8.33715C8.73335 7.99523 6.76033 7.59836 6.76033 7.59836C6.76033 7.59836 7.1806 9.47586 7.53671 10.1475C7.3763 10.2421 5.26854 11.5701 7.4148 13.4263C7.42763 13.4324 7.44046 13.4385 7.45329 13.4476C7.42121 13.4751 7.39234 13.5026 7.36346 13.5301C6.24061 14.5955 6.21174 15.777 6.52934 16.7325C6.709 17.282 6.99773 17.7583 7.2576 18.1063C6.13474 19.2755 6.31761 20.9637 6 20.9637L6.32082 22.6092V22.8718V20.9576C6.42668 20.9576 6.37856 20.5241 6.48122 19.9441C6.57747 19.4007 6.80525 18.7352 7.32176 18.1887C7.48858 18.4055 7.63616 18.5673 7.72599 18.6497C7.76448 18.6833 7.78373 18.7046 7.80619 18.7168C7.81902 18.7321 7.83185 18.7474 7.8479 18.7596C7.87998 18.7901 7.91527 18.8176 7.96018 18.8451C8.51519 19.4526 9.32685 20.4936 9.08303 21.3179C8.75259 22.481 7.63616 21.2538 7.63616 21.2538C7.30572 21.9834 8.27137 23.6045 9.70862 22.5604C11.1459 21.4369 9.49047 19.9227 8.35799 19.0343C8.69806 19.1565 9.14399 19.2419 9.62521 19.2572C10.424 19.2816 11.3159 19.1076 11.9223 18.5306C12.2687 18.204 12.6184 17.746 12.7018 17.1294C13.475 17.1294 14.0011 17.1294 14.508 17.1294C14.5401 17.627 14.5209 18.1643 14.431 18.7321C14.0749 19.0282 13.8888 19.4037 13.7541 19.3793C12.4901 18.7657 12.0121 20.1731 12.0121 20.1731C13.9081 20.3013 12.3233 22.0231 11.7362 22.5451C11.4891 22.655 11.2614 22.7344 11.0657 22.7863C10.6839 22.887 10.4337 22.8993 10.4337 22.8993V23C10.4337 23 10.9373 22.9725 11.6207 22.7497C12.2238 22.4902 13.6226 21.7117 14.1808 20.7745C15.1015 19.2297 14.8192 18.9153 16.1987 18.5947C15.432 18.2498 14.9155 18.3932 14.5529 18.6436C14.6267 18.1124 14.6428 17.6056 14.6139 17.1324C15.7624 17.1324 16.2693 17.1324 16.5035 17.1324C16.5709 17.1324 16.635 17.1385 16.6992 17.1416C16.7698 17.8987 17.0393 18.3994 17.3633 18.7077C17.8926 19.2023 18.5471 19.2236 18.7749 19.0221L18.7011 18.9519C18.6337 19.0191 18.438 19.0679 18.2038 19.0282C17.9664 18.9916 17.6873 18.8725 17.4403 18.6375C17.1355 18.3475 16.8788 17.8773 16.8083 17.1507C17.5718 17.2179 18.0659 17.4652 18.3706 17.7521C18.6177 17.9872 18.7396 18.2528 18.7813 18.4757C18.823 18.7016 18.7717 18.8848 18.7011 18.9489L18.7749 19.0191C18.9866 18.8054 18.9674 18.1795 18.4444 17.6758C18.1172 17.3644 17.5911 17.111 16.7986 17.0408C16.7954 16.9798 16.7922 16.9187 16.789 16.8546C16.7826 16.6318 16.7858 16.1525 16.7858 15.0565C17.2831 15.084 17.8156 15.0687 18.3738 14.9985C18.1076 15.3434 17.96 15.835 18.3225 16.5646C18.6562 15.2519 18.9866 15.5205 20.6131 14.6443C21.598 14.1131 22.4161 12.7852 22.6888 12.2082C22.923 11.5579 22.9519 11.0847 22.9519 11.0817L22.846 11.0756L22.8396 11.0878ZM21.7937 8.88972C22.445 8.83782 22.4642 11.4266 19.8624 9.81168C19.8624 9.81168 22.1723 10.5657 21.7937 8.88972ZM8.11738 21.904C9.87866 22.2643 9.08624 20.0662 9.08624 20.0662C10.7834 22.5421 8.06284 22.5238 8.11738 21.904ZM17.8092 8.19672C18.0402 8.35852 18.2102 8.49895 18.2968 8.58138C18.3161 8.59969 18.3321 8.61801 18.3418 8.62717C18.3482 8.63328 18.3514 8.63633 18.3514 8.63938V8.65159L18.3674 8.66075C18.3674 8.66075 18.3963 8.68212 18.4091 8.69739C18.6401 8.91414 18.8807 9.57966 18.9032 10.3215C18.9289 11.0664 18.746 11.8846 18.1717 12.431C17.8477 12.7394 17.3954 12.9653 16.7762 13.0477C16.7762 12.4432 16.7762 11.7441 16.7762 10.9412C16.7762 10.7672 16.7826 10.6024 16.7986 10.4436C17.1965 10.7947 17.3376 11.4083 17.3376 11.4083C17.7611 11.1122 17.6167 10.0895 16.9879 9.49113C17.1676 8.94772 17.4435 8.53558 17.7707 8.22419C17.7803 8.21503 17.79 8.20588 17.8028 8.19672H17.8092ZM13.0644 8.23946C14.1583 7.20149 15.3421 7.18012 16.3238 7.47014C16.8756 7.63499 17.3633 7.89754 17.7194 8.13566C17.713 8.14177 17.7065 8.14787 17.7001 8.15093C17.3697 8.46537 17.0906 8.8775 16.9077 9.41175C16.5388 9.10341 16.0255 8.93856 15.3806 9.10647C13.6771 9.79641 13.7862 11.0817 14.3957 12.0372C14.909 12.8401 15.8939 13.3805 16.6735 13.2736C16.6735 14.0032 16.6735 14.4795 16.6735 14.9588C15.5731 14.8825 14.6588 14.5863 14.0268 14.223C12.1982 12.2356 13.6482 9.65293 12.9585 8.34631C12.9938 8.30967 13.0291 8.27304 13.0644 8.23946ZM10.8475 8.06239C10.8475 8.06239 12.0923 7.5892 12.8205 9.56745C13.1895 10.6451 12.6088 11.6159 13.337 13.527C13.337 13.527 12.6697 12.9439 12.5735 11.5976C12.5575 10.1872 12.0923 8.63633 11.2742 8.36768L10.7224 8.19061L10.8507 8.05934L10.8475 8.06239ZM12.766 13.0324C12.1982 12.428 11.3897 11.2923 12.1051 9.64988C12.3265 10.2727 12.442 11.0878 12.4805 11.9975C12.5478 12.4127 12.6473 12.7516 12.7628 13.0324H12.766ZM12.0538 9.50945C11.2967 11.1183 11.9479 12.312 12.4965 12.9927L11.6303 12.1776C11.3833 11.6678 10.2861 9.42396 9.79845 8.67602C10.9534 8.08071 11.656 8.51116 12.057 9.50945H12.0538ZM12.3714 13.0172C11.6496 12.5043 10.4176 11.9334 8.76864 12.6356C7.71957 12.257 7.26401 11.5854 7.89281 10.4864C8.64993 10.9351 10.8828 11.9273 11.5148 12.2051L12.3746 13.0141L12.3714 13.0172ZM12.4708 13.3133C12.1757 13.2003 11.8196 13.1088 11.3833 13.0446C10.424 13.005 9.57067 12.8951 8.91621 12.6875C10.6422 12.0067 11.8356 12.776 12.4708 13.3133ZM9.34931 9.03931C9.64125 9.31712 11.3993 12.0097 11.3993 12.0097C11.3993 12.0097 8.56973 10.3368 8.27779 10.059C7.98585 9.78115 7.58162 8.37684 7.58162 8.37684C7.58162 8.37684 9.05737 8.7615 9.34931 9.03931ZM7.25118 11.4877L7.38913 11.3686L7.5752 11.8937C7.85431 12.6722 9.48726 13.1149 10.9694 13.1301C12.381 13.2217 12.997 13.8567 12.997 13.8567C10.9887 13.1668 9.96848 13.7163 8.83601 13.3652C6.75392 12.6722 7.25439 11.4877 7.25439 11.4877H7.25118ZM11.842 18.3963C11.2678 18.9458 10.4048 19.1198 9.62521 19.0923C8.84563 19.0679 8.14305 18.839 7.91847 18.6222C7.90564 18.6069 7.89281 18.5947 7.87998 18.5825L7.87035 18.5703H7.85752C7.85752 18.5703 7.8511 18.5612 7.84469 18.555C7.83185 18.5459 7.81581 18.5306 7.79656 18.5123C7.70994 18.4299 7.55916 18.2681 7.39234 18.0483C7.72278 17.7247 8.1655 17.4499 8.75259 17.2728C9.38139 17.8712 10.4593 18.0086 10.7673 17.6056C10.7673 17.6056 10.1225 17.4713 9.75354 17.0927C9.92036 17.0805 10.0936 17.0714 10.2765 17.0714C11.1234 17.0714 11.8549 17.0714 12.4901 17.0714C12.4067 17.6606 12.1693 18.091 11.842 18.3994V18.3963ZM9.4648 17.4896C7.42763 17.1233 8.77505 13.5056 11.3095 14.9191C10.2604 14.5589 8.03397 15.8991 9.4648 17.4896ZM12.4997 17.0317C11.8613 17.0317 11.1234 17.0317 10.2733 17.0317C10.0615 17.0317 9.85941 17.0408 9.66692 17.0591C9.43272 16.7539 9.35894 16.2898 9.88507 15.6915C10.4048 15.0992 11.8805 15.2 12.442 16.4364C12.5382 16.6317 12.519 16.8454 12.4965 17.0317H12.4997ZM12.7243 17.0317C12.8366 16.2898 12.2687 15.3526 11.425 14.8641C10.424 14.2811 9.0702 14.1773 8.34516 15.7983C8.16871 16.4119 8.34516 16.9004 8.66598 17.2515C8.10455 17.4255 7.67145 17.6941 7.34101 18.0055C7.33459 18.0116 7.32818 18.0177 7.32497 18.0238C7.07473 17.6819 6.79562 17.2209 6.62559 16.6959C6.32082 15.7617 6.34327 14.6352 7.43404 13.5942C7.46933 13.5606 7.50783 13.527 7.54633 13.4934C8.91942 14.1498 11.6335 12.7729 13.722 14.51C14.107 15.1084 14.415 15.9784 14.4952 17.0286C13.9915 17.0286 13.491 17.0286 12.7243 17.0286V17.0317ZM15.525 18.6222C14.8802 19.074 14.6877 19.4098 14.2482 20.3715C13.9498 21.0187 12.8687 22.1238 12.6152 21.9834C12.936 21.846 14.1391 20.0967 12.5093 19.7182C12.5093 19.7182 13.6033 18.7932 13.7156 20.5882C13.9562 20.631 13.9723 18.552 15.525 18.6253V18.6222ZM16.5003 17.0317C16.2629 17.0256 15.756 17.0286 14.6011 17.0317C14.5176 15.9326 14.2065 15.0717 13.8728 14.4184C13.8439 14.3696 13.8022 14.3116 13.7477 14.2475C13.8151 14.2994 13.8728 14.3421 13.9273 14.3665C14.6139 14.684 15.5186 14.9802 16.6735 15.0595C16.6735 16.1586 16.6735 16.6409 16.6735 16.8668C16.6735 16.9279 16.6767 16.9859 16.6831 17.0439C16.6222 17.0408 16.5612 17.0378 16.4971 17.0347L16.5003 17.0317ZM16.5805 10.9382C16.5805 11.7472 16.5805 12.4493 16.5805 13.0569C16.3848 13.0752 16.1602 13.0965 15.9549 13.005C14.6556 12.4707 14.5497 11.0664 15.1721 10.5718C15.8009 10.0712 16.2885 10.1414 16.6094 10.3642C16.5901 10.5474 16.5805 10.7367 16.5805 10.9412V10.9382ZM14.4535 11.9212C12.9681 9.50944 16.7698 8.2303 17.1547 10.1658C15.4833 8.80118 14.0749 10.9229 14.4535 11.9212ZM20.1864 14.7176C19.1791 15.1359 18.823 15.3221 18.3482 15.9326C18.2712 14.4551 20.4559 14.4398 20.411 14.2108C18.5278 14.104 19.4967 13.063 19.4967 13.063C19.8945 14.6138 21.7328 13.469 21.8771 13.1637C22.0247 13.4049 20.8634 14.4337 20.1832 14.7176H20.1864Z" fill="white"/>
<path d="M53.6567 22.849C53.6567 22.849 53.4037 22.84 53.0177 22.7373C52.8199 22.686 52.5863 22.6105 52.3398 22.4988C51.7462 21.9824 50.1439 20.2825 52.0609 20.1527C52.0609 20.1527 51.5776 18.7637 50.2996 19.3676C50.1633 19.3918 49.9752 19.0204 49.6151 18.7275C49.5276 18.1659 49.5081 17.6345 49.5373 17.1423C50.0498 17.1423 50.5818 17.1423 51.3635 17.1423C51.4511 17.7522 51.8046 18.2021 52.1517 18.5282C52.7647 19.0989 53.6665 19.271 54.4741 19.2468C54.9607 19.2317 55.4148 19.1442 55.7554 19.0264C54.6136 19.9021 52.9399 21.4027 54.3898 22.5139C55.8462 23.5465 56.8226 21.9432 56.4852 21.2216C56.4852 21.2216 55.3564 22.4323 55.0191 21.285C54.7726 20.4697 55.5932 19.4431 56.1544 18.8392C56.1965 18.812 56.2355 18.7818 56.2679 18.7547C56.2841 18.7426 56.2971 18.7275 56.3101 18.7124C56.3328 18.6973 56.3522 18.6792 56.3911 18.646C56.482 18.5614 56.6312 18.4044 56.7998 18.19C57.3221 18.7305 57.5524 19.3888 57.6497 19.9262C57.7535 20.4969 58 20.9287 58 20.9287L58 22.6981H57.6756V23H58V22.0942H57.6756L57.6756 20.9347C57.6756 20.9347 58 19.268 56.8615 18.1085C57.121 17.7643 57.4161 17.2933 57.5978 16.7498C57.9157 15.8047 57.8897 14.6362 56.7544 13.5824C56.7252 13.5552 56.6928 13.528 56.6636 13.5008C56.6766 13.4948 56.6896 13.4888 56.7025 13.4797C58.8725 11.6439 56.7382 10.3304 56.5793 10.2368C56.9426 9.57256 57.3642 7.71561 57.3642 7.71561C57.3642 7.71561 55.3694 8.11115 54.6558 8.44631C54.5552 8.29534 53.1442 6.31157 51.1721 8.33157C51.1656 8.34365 51.1591 8.35573 51.1494 8.3678C51.1202 8.33761 51.091 8.31044 51.0618 8.28326C49.9298 7.22646 48.6745 7.19928 47.6592 7.49821C47.0754 7.66729 46.5694 7.93904 46.1996 8.18362C44.9573 7.12682 43.1635 7.29892 43.1635 7L41.4152 7.30194H41.1362H43.17C43.17 7.40159 43.6306 7.35629 44.2469 7.45292C44.8243 7.5435 45.5314 7.75788 46.112 8.24401C45.8817 8.40102 45.7098 8.53991 45.6222 8.62446C45.5865 8.66069 45.5638 8.67881 45.5508 8.69994C45.5346 8.71202 45.5184 8.7241 45.5054 8.7392C45.473 8.76939 45.4438 8.8026 45.4146 8.84488C44.7691 9.36724 43.663 10.1312 42.7873 9.90168C41.5514 9.59068 42.8554 8.53991 42.8554 8.53991C42.0801 8.22891 40.3578 9.13776 41.4671 10.4905C42.6608 11.8432 44.2696 10.2851 45.2135 9.21929C45.0838 9.53935 44.9929 9.95905 44.9767 10.412C44.9508 11.1638 45.1357 12.0032 45.7487 12.5739C46.0958 12.9 46.5823 13.2291 47.2376 13.3076C47.2376 14.0353 47.2376 14.5305 47.2376 15.0075C46.7088 15.0377 46.138 15.0196 45.5346 14.9351C45.22 14.5999 44.821 14.4248 44.847 14.298C45.499 13.1083 44.0036 12.6584 44.0036 12.6584C43.8674 14.4429 42.038 12.9513 41.4833 12.3988C41.3665 12.1663 41.2822 11.9519 41.2271 11.7677C41.12 11.4084 41.107 11.1729 41.107 11.1729H41C41 11.1729 41.0292 11.6469 41.266 12.2901C41.5417 12.8577 42.3688 14.1742 43.3646 14.6996C45.0059 15.5661 45.34 15.3004 45.6806 16.5988C46.0471 15.8771 45.8947 15.391 45.6287 15.0498C46.1931 15.1193 46.7315 15.1344 47.2343 15.1072C47.2343 16.1881 47.2343 16.6652 47.2343 16.8856C47.2343 16.949 47.2278 17.0094 47.2246 17.0698C46.4201 17.1363 45.8882 17.3899 45.5606 17.6948C45.0351 18.1931 45.0124 18.809 45.2265 19.0234L45.3011 18.954C45.2297 18.8905 45.1778 18.7064 45.22 18.4859C45.2589 18.2625 45.3854 17.9998 45.6352 17.7673C45.9433 17.4805 46.4429 17.2389 47.2148 17.1725C47.1435 17.8911 46.8807 18.3561 46.5758 18.643C46.3261 18.8754 46.0439 18.9902 45.8071 19.0294C45.5671 19.0687 45.3724 19.0204 45.3043 18.954L45.2297 19.0234C45.4568 19.2227 46.1217 19.2046 46.6569 18.7124C46.9878 18.4044 47.257 17.9092 47.3316 17.1634C47.3965 17.1604 47.4614 17.1574 47.5295 17.1544C47.7663 17.1483 48.2755 17.1513 49.44 17.1513C49.4108 17.6194 49.427 18.1206 49.5016 18.646C49.1351 18.3954 48.6129 18.2565 47.8376 18.5977C49.2324 18.9117 48.947 19.2227 49.8779 20.7535C50.4423 21.6805 51.8533 22.4505 52.4663 22.7071C53.1572 22.9275 53.66 22.9547 53.6632 22.9547L53.6697 22.8551L53.6567 22.849ZM55.9922 21.8647C56.0473 22.4776 53.2967 22.4958 55.0126 20.047C55.0126 20.047 54.2114 22.221 55.9922 21.8647ZM42.1645 8.99283C41.7817 10.6505 44.1172 9.9047 44.1172 9.9047C41.4865 11.502 41.506 8.9415 42.1645 8.99283ZM56.7285 18.1145C56.5566 18.3319 56.4074 18.492 56.3198 18.5735C56.3003 18.5916 56.2809 18.6067 56.2711 18.6158C56.2646 18.6218 56.2614 18.6248 56.2582 18.6248H56.2452L56.2355 18.6399C56.2355 18.6399 56.2127 18.6671 56.1965 18.6792C55.9662 18.8966 55.2591 19.123 54.4709 19.1442C53.6795 19.1683 52.8102 18.9962 52.2295 18.4557C51.9019 18.1508 51.6619 17.725 51.5743 17.1423C52.2166 17.1423 52.9594 17.1423 53.8124 17.1423C53.9973 17.1423 54.1725 17.1483 54.3412 17.1634C53.9681 17.5378 53.3162 17.6707 53.3162 17.6707C53.6308 18.0693 54.7174 17.9334 55.3532 17.3416C55.9305 17.5107 56.3684 17.7703 56.6993 18.0783C56.709 18.0874 56.7188 18.0964 56.7285 18.1085V18.1145ZM56.6831 13.6488C57.7859 14.6784 57.8086 15.7926 57.5005 16.7165C57.3253 17.2359 57.0464 17.6948 56.7934 18.03C56.7869 18.024 56.7804 18.0179 56.7771 18.0119C56.443 17.7009 56.0052 17.4382 55.4375 17.2661C55.7651 16.9189 55.9403 16.4357 55.7619 15.8288C55.0288 14.2255 53.6632 14.3282 52.648 14.9019C51.7949 15.385 51.2208 16.3119 51.3343 17.0457C50.5591 17.0457 50.053 17.0457 49.5438 17.0457C49.6249 16.01 49.9395 15.1495 50.3255 14.5546C52.4371 12.8336 55.1813 14.1983 56.5695 13.5492C56.6085 13.5824 56.6474 13.6156 56.6831 13.6488ZM56.8712 11.5624C56.8712 11.5624 57.374 12.7339 55.2721 13.4193C54.1271 13.7666 53.0956 13.22 51.0651 13.9055C51.0651 13.9055 51.6846 13.2774 53.1151 13.1868C54.6136 13.1717 56.2614 12.7339 56.5468 11.964L56.735 11.4446L56.8745 11.5654L56.8712 11.5624ZM51.5905 13.368C52.2328 12.8336 53.4394 12.0727 55.1845 12.746C54.5228 12.9543 53.6567 13.063 52.6901 13.0993C52.249 13.1627 51.889 13.2563 51.5905 13.365V13.368ZM55.3337 12.6977C53.6243 11.9851 52.356 12.598 51.6327 13.1144L52.4988 12.2991C53.0405 12.0666 55.4245 11.034 56.2192 10.575C56.8517 11.662 56.3944 12.3233 55.3337 12.7007V12.6977ZM51.6068 12.9966C52.1517 12.3172 52.7583 11.1578 52.0122 9.60577C52.4144 8.61842 53.128 8.18966 54.2957 8.78147C53.8189 9.49405 52.7647 11.5956 52.4696 12.1904L51.61 12.9996L51.6068 12.9966ZM51.2921 13.0902C51.4121 12.8124 51.5094 12.4773 51.5776 12.0666C51.6197 11.1638 51.7365 10.3606 51.9571 9.74467C52.6804 11.3691 51.863 12.4924 51.2921 13.0902ZM55.8332 10.1523C55.5381 10.4271 52.6772 12.0817 52.6772 12.0817C52.6772 12.0817 54.4547 9.41857 54.7499 9.1438C55.045 8.86903 56.5371 8.48858 56.5371 8.48858C56.5371 8.48858 56.1284 9.87752 55.8332 10.1523ZM53.2318 8.17758L53.3583 8.30742L52.8004 8.48254C51.9733 8.74523 51.503 10.2821 51.4867 11.6771C51.3894 13.0057 50.7147 13.5854 50.7147 13.5854C51.4478 11.6952 50.864 10.735 51.237 9.66918C51.9733 7.70957 53.2318 8.1806 53.2318 8.1806V8.17758ZM45.8914 12.4984C45.3076 11.9579 45.1227 11.1457 45.1519 10.412C45.1778 9.67824 45.4211 9.01698 45.6514 8.80562C45.6676 8.79355 45.6806 8.78147 45.6936 8.76939L45.7065 8.76033V8.74825C45.7065 8.74825 45.7163 8.74222 45.7228 8.73618C45.7325 8.7241 45.7487 8.709 45.7682 8.69088C45.8558 8.60936 46.0277 8.46745 46.2612 8.31044C46.605 8.62144 46.897 9.03812 47.0851 9.59068C46.4493 10.1825 46.3034 11.197 46.7315 11.4869C46.7315 11.4869 46.8743 10.88 47.2765 10.5327C47.2894 10.6898 47.2992 10.8528 47.2992 11.0249C47.2992 11.822 47.2992 12.5105 47.2992 13.1083C46.6732 13.0298 46.2158 12.8064 45.8882 12.4984H45.8914ZM46.8548 10.261C47.244 8.34365 51.0878 9.61181 49.586 11.9972C49.9687 11.0098 48.5447 8.91432 46.8548 10.261ZM47.3413 13.1174C47.3413 12.5165 47.3413 11.822 47.3413 11.0219C47.3413 10.8226 47.3316 10.6324 47.3122 10.4512C47.6365 10.2308 48.1296 10.1614 48.7653 10.6565C49.3946 11.1457 49.2875 12.5346 47.9739 13.063C47.7663 13.1536 47.5392 13.1355 47.3413 13.1144V13.1174ZM47.3413 13.3287C48.1296 13.4344 49.1254 12.9 49.6443 12.1059C50.2639 11.1638 50.3742 9.8896 48.6518 9.20721C47.9998 9.04114 47.4808 9.20721 47.1078 9.50915C46.9229 8.98075 46.6375 8.57313 46.3066 8.26213C46.3001 8.25609 46.2936 8.25005 46.2872 8.24703C46.6504 8.01151 47.1402 7.74882 47.6981 7.58879C48.6907 7.30194 49.8876 7.32308 50.9937 8.34969C51.0294 8.3829 51.0651 8.41914 51.1007 8.45537C50.4034 9.74769 51.8662 12.3021 50.0206 14.2678C49.3848 14.6301 48.4604 14.92 47.3446 14.9955C47.3446 14.5214 47.3446 14.0504 47.3446 13.3287H47.3413ZM45.6514 15.9647C45.1713 15.3578 44.8145 15.1766 43.7928 14.763C43.1051 14.4822 41.9309 13.4646 42.0801 13.2261C42.2261 13.528 44.0847 14.6603 44.4869 13.1264C44.4869 13.1264 45.4698 14.1561 43.5625 14.2617C43.5171 14.4882 45.726 14.5033 45.6482 15.9647H45.6514ZM47.3413 16.8826C47.3478 16.6592 47.3446 16.1821 47.3413 15.0951C48.5091 15.0166 49.4238 14.7237 50.1179 14.4097C50.1698 14.3825 50.2314 14.3433 50.2996 14.2919C50.2444 14.3553 50.199 14.4097 50.1731 14.461C49.8357 15.1072 49.5211 15.9587 49.4367 17.0457C48.269 17.0457 47.7565 17.0457 47.5165 17.0457C47.4516 17.0457 47.39 17.0487 47.3284 17.0547C47.3316 16.9974 47.3349 16.94 47.3381 16.8796L47.3413 16.8826ZM53.8157 16.9581C52.9561 16.9581 52.2101 16.9581 51.5646 16.9581C51.5451 16.7739 51.5224 16.5626 51.6197 16.3693C52.1874 15.1464 53.6795 15.0468 54.2049 15.6326C54.7369 16.2244 54.6623 16.6833 54.4255 16.9853C54.2309 16.9672 54.0298 16.9581 53.8124 16.9581H53.8157ZM52.7712 14.9562C55.3337 13.5582 56.6928 17.1363 54.6363 17.4986C56.0862 15.9255 53.8319 14.5999 52.7712 14.9562ZM49.8 20.352C49.3557 19.4038 49.1578 19.0687 48.5091 18.6218C50.079 18.5493 50.0952 20.6056 50.3385 20.5633C50.452 18.7909 51.5581 19.7028 51.5581 19.7028C49.9103 20.0772 51.1267 21.8073 51.4511 21.9432C51.1948 22.0821 50.1017 20.9891 49.8 20.3489V20.352Z" fill="white"/>
<path d="M10.3433 176.151C10.3433 176.151 10.5963 176.16 10.9823 176.263C11.1801 176.314 11.4137 176.39 11.6602 176.501C12.2538 177.018 13.8561 178.717 11.9391 178.847C11.9391 178.847 12.4224 180.236 13.7004 179.632C13.8367 179.608 14.0248 179.98 14.3849 180.273C14.4724 180.834 14.4919 181.366 14.4627 181.858C13.9502 181.858 13.4182 181.858 12.6365 181.858C12.5489 181.248 12.1954 180.798 11.8483 180.472C11.2353 179.901 10.3335 179.729 9.52585 179.753C9.03931 179.768 8.58519 179.856 8.24461 179.974C9.38638 179.098 11.0601 177.597 9.61019 176.486C8.15379 175.453 7.17745 177.057 7.51479 177.778C7.51479 177.778 8.64358 176.568 8.98092 177.715C9.22744 178.53 8.40679 179.557 7.84564 180.161C7.80347 180.188 7.76455 180.218 7.73211 180.245C7.71589 180.257 7.70292 180.273 7.68994 180.288C7.66724 180.303 7.64778 180.321 7.60885 180.354C7.51803 180.439 7.36882 180.596 7.20015 180.81C6.67792 180.269 6.44762 179.611 6.35031 179.074C6.24652 178.503 6 178.071 6 178.071V176.302H6.32437V176H6V176.906H6.32437V178.065C6.32437 178.065 6 179.732 7.13852 180.891C6.87903 181.236 6.58386 181.707 6.40221 182.25C6.08433 183.195 6.11028 184.364 7.24556 185.418C7.27476 185.445 7.30719 185.472 7.33639 185.499C7.32341 185.505 7.31044 185.511 7.29746 185.52C5.12746 187.356 7.26178 188.67 7.42072 188.763C7.05743 189.427 6.63576 191.284 6.63576 191.284C6.63576 191.284 8.63061 190.889 9.34421 190.554C9.44476 190.705 10.8558 192.688 12.8279 190.668C12.8344 190.656 12.8409 190.644 12.8506 190.632C12.8798 190.662 12.909 190.69 12.9382 190.717C14.0702 191.774 15.3255 191.801 16.3408 191.502C16.9246 191.333 17.4306 191.061 17.8004 190.816C19.0427 191.873 20.8365 191.701 20.8365 192L22.5848 191.698H22.8638H20.83C20.83 191.598 20.3694 191.644 19.7531 191.547C19.1757 191.457 18.4686 191.242 17.888 190.756C18.1183 190.599 18.2902 190.46 18.3778 190.376C18.4135 190.339 18.4362 190.321 18.4492 190.3C18.4654 190.288 18.4816 190.276 18.4946 190.261C18.527 190.231 18.5562 190.197 18.5854 190.155C19.2309 189.633 20.337 188.869 21.2127 189.098C22.4486 189.409 21.1446 190.46 21.1446 190.46C21.9199 190.771 23.6422 189.862 22.5329 188.51C21.3392 187.157 19.7304 188.715 18.7865 189.781C18.9162 189.461 19.0071 189.041 19.0233 188.588C19.0492 187.836 18.8643 186.997 18.2513 186.426C17.9042 186.1 17.4177 185.771 16.7624 185.692C16.7624 184.965 16.7624 184.47 16.7624 183.992C17.2912 183.962 17.862 183.98 18.4654 184.065C18.78 184.4 19.179 184.575 19.153 184.702C18.501 185.892 19.9964 186.342 19.9964 186.342C20.1326 184.557 21.962 186.049 22.5167 186.601C22.6335 186.834 22.7178 187.048 22.7729 187.232C22.88 187.592 22.893 187.827 22.893 187.827H23C23 187.827 22.9708 187.353 22.734 186.71C22.4583 186.142 21.6312 184.826 20.6354 184.3C18.9941 183.434 18.66 183.7 18.3194 182.401C17.9529 183.123 18.1053 183.609 18.3713 183.95C17.8069 183.881 17.2685 183.866 16.7657 183.893C16.7657 182.812 16.7657 182.335 16.7657 182.114C16.7657 182.051 16.7722 181.991 16.7754 181.93C17.5799 181.864 18.1118 181.61 18.4394 181.305C18.9649 180.807 18.9876 180.191 18.7735 179.977L18.6989 180.046C18.7703 180.109 18.8222 180.294 18.78 180.514C18.7411 180.737 18.6146 181 18.3648 181.233C18.0567 181.52 17.5571 181.761 16.7852 181.828C16.8565 181.109 17.1193 180.644 17.4242 180.357C17.6739 180.125 17.9561 180.01 18.1929 179.971C18.4329 179.931 18.6276 179.98 18.6957 180.046L18.7703 179.977C18.5432 179.777 17.8783 179.795 17.3431 180.288C17.0122 180.596 16.743 181.091 16.6684 181.837C16.6035 181.84 16.5386 181.843 16.4705 181.846C16.2337 181.852 15.7245 181.849 14.56 181.849C14.5892 181.381 14.573 180.879 14.4984 180.354C14.8649 180.605 15.3871 180.744 16.1624 180.402C14.7676 180.088 15.053 179.777 14.1221 178.246C13.5577 177.319 12.1467 176.55 11.5337 176.293C10.8428 176.072 10.34 176.045 10.3368 176.045L10.3303 176.145L10.3433 176.151ZM8.00782 177.135C7.95268 176.522 10.7033 176.504 8.98741 178.953C8.98741 178.953 9.78859 176.779 8.00782 177.135ZM21.8355 190.007C22.2183 188.35 19.8828 189.095 19.8828 189.095C22.5135 187.498 22.494 190.059 21.8355 190.007ZM7.27151 180.885C7.44343 180.668 7.59264 180.508 7.68021 180.426C7.69968 180.408 7.71914 180.393 7.72887 180.384C7.73536 180.378 7.7386 180.375 7.74184 180.375H7.75482L7.76455 180.36C7.76455 180.36 7.78725 180.333 7.80347 180.321C8.03377 180.103 8.74089 179.877 9.5291 179.856C10.3205 179.832 11.1898 180.004 11.7705 180.544C12.0981 180.849 12.3381 181.275 12.4257 181.858C11.7834 181.858 11.0406 181.858 10.1876 181.858C10.0027 181.858 9.82751 181.852 9.65884 181.837C10.0319 181.462 10.6838 181.329 10.6838 181.329C10.3692 180.931 9.28258 181.067 8.64682 181.658C8.06945 181.489 7.63156 181.23 7.30071 180.922C7.29097 180.913 7.28124 180.904 7.27151 180.891V180.885ZM7.31692 185.351C6.21408 184.322 6.19138 183.207 6.49952 182.283C6.67468 181.764 6.95364 181.305 7.20664 180.97C7.21313 180.976 7.21961 180.982 7.22286 180.988C7.55695 181.299 7.99485 181.562 8.56249 181.734C8.23488 182.081 8.05972 182.564 8.23812 183.171C8.97119 184.774 10.3368 184.672 11.352 184.098C12.2051 183.615 12.7792 182.688 12.6657 181.954C13.4409 181.954 13.947 181.954 14.4562 181.954C14.3751 182.99 14.0605 183.851 13.6745 184.445C11.5629 186.166 8.81874 184.802 7.43045 185.451C7.39153 185.418 7.3526 185.384 7.31692 185.351ZM7.12879 187.438C7.12879 187.438 6.62603 186.266 8.72791 185.581C9.87293 185.233 10.9044 185.78 12.9349 185.095C12.9349 185.095 12.3154 185.723 10.8849 185.813C9.38638 185.828 7.7386 186.266 7.45316 187.036L7.26503 187.555L7.12555 187.435L7.12879 187.438ZM12.4095 185.632C11.7672 186.166 10.5606 186.927 8.81549 186.254C9.4772 186.046 10.3433 185.937 11.3099 185.901C11.751 185.837 12.111 185.744 12.4095 185.635V185.632ZM8.66629 186.302C10.3757 187.015 11.644 186.402 12.3673 185.886L11.5012 186.701C10.9595 186.933 8.57546 187.966 7.78077 188.425C7.14825 187.338 7.60561 186.677 8.66629 186.299V186.302ZM12.3932 186.003C11.8483 186.683 11.2417 187.842 11.9878 189.394C11.5856 190.382 10.872 190.81 9.70425 190.219C10.1811 189.506 11.2353 187.404 11.5304 186.81L12.39 186L12.3932 186.003ZM12.7079 185.91C12.5879 186.188 12.4906 186.523 12.4224 186.933C12.3803 187.836 12.2635 188.639 12.0429 189.255C11.3196 187.631 12.137 186.508 12.7079 185.91ZM8.16676 188.848C8.46193 188.573 11.3228 186.918 11.3228 186.918C11.3228 186.918 9.54532 189.581 9.25014 189.856C8.95497 190.131 7.46289 190.511 7.46289 190.511C7.46289 190.511 7.87159 189.122 8.16676 188.848ZM10.7682 190.822L10.6417 190.693L11.1996 190.517C12.0267 190.255 12.497 188.718 12.5133 187.323C12.6106 185.994 13.2853 185.415 13.2853 185.415C12.5522 187.305 13.136 188.265 12.763 189.331C12.0267 191.29 10.7682 190.819 10.7682 190.819V190.822ZM18.1086 186.502C18.6924 187.042 18.8773 187.854 18.8481 188.588C18.8222 189.322 18.5789 189.983 18.3486 190.194C18.3324 190.206 18.3194 190.219 18.3064 190.231L18.2935 190.24V190.252C18.2935 190.252 18.2837 190.258 18.2772 190.264C18.2675 190.276 18.2513 190.291 18.2318 190.309C18.1442 190.391 17.9723 190.533 17.7388 190.69C17.395 190.379 17.103 189.962 16.9149 189.409C17.5507 188.818 17.6966 187.803 17.2685 187.513C17.2685 187.513 17.1257 188.12 16.7235 188.467C16.7106 188.31 16.7008 188.147 16.7008 187.975C16.7008 187.178 16.7008 186.49 16.7008 185.892C17.3268 185.97 17.7842 186.194 18.1118 186.502H18.1086ZM17.1452 188.739C16.756 190.656 12.9122 189.388 14.414 187.003C14.0313 187.99 15.4553 190.086 17.1452 188.739ZM16.6587 185.883C16.6587 186.483 16.6587 187.178 16.6587 187.978C16.6587 188.177 16.6684 188.368 16.6878 188.549C16.3635 188.769 15.8704 188.839 15.2347 188.343C14.6054 187.854 14.7125 186.465 16.0261 185.937C16.2337 185.846 16.4608 185.865 16.6587 185.886V185.883ZM16.6587 185.671C15.8704 185.566 14.8746 186.1 14.3557 186.894C13.7361 187.836 13.6258 189.11 15.3482 189.793C16.0002 189.959 16.5192 189.793 16.8922 189.491C17.0771 190.019 17.3625 190.427 17.6934 190.738C17.6999 190.744 17.7064 190.75 17.7128 190.753C17.3496 190.988 16.8598 191.251 16.3019 191.411C15.3093 191.698 14.1124 191.677 13.0063 190.65C12.9706 190.617 12.9349 190.581 12.8993 190.545C13.5966 189.252 12.1338 186.698 13.9794 184.732C14.6152 184.37 15.5396 184.08 16.6554 184.005C16.6554 184.479 16.6554 184.95 16.6554 185.671H16.6587ZM18.3486 183.035C18.8287 183.642 19.1855 183.823 20.2072 184.237C20.8949 184.518 22.0691 185.535 21.9199 185.774C21.7739 185.472 19.9153 184.34 19.5131 185.874C19.5131 185.874 18.5302 184.844 20.4375 184.738C20.4829 184.512 18.274 184.497 18.3518 183.035H18.3486ZM16.6587 182.117C16.6522 182.341 16.6554 182.818 16.6587 183.905C15.4909 183.983 14.5762 184.276 13.8821 184.59C13.8302 184.617 13.7686 184.657 13.7004 184.708C13.7556 184.645 13.801 184.59 13.8269 184.539C14.1643 183.893 14.4789 183.041 14.5633 181.954C15.731 181.954 16.2435 181.954 16.4835 181.954C16.5484 181.954 16.61 181.951 16.6716 181.945C16.6684 182.003 16.6651 182.06 16.6619 182.12L16.6587 182.117ZM10.1843 182.042C11.0439 182.042 11.7899 182.042 12.4354 182.042C12.4549 182.226 12.4776 182.437 12.3803 182.631C11.8126 183.854 10.3205 183.953 9.79508 183.367C9.26312 182.776 9.33772 182.317 9.57451 182.015C9.76913 182.033 9.97023 182.042 10.1876 182.042H10.1843ZM11.2288 184.044C8.66628 185.442 7.30719 181.864 9.36367 181.501C7.91376 183.075 10.1681 184.4 11.2288 184.044ZM14.2 178.648C14.6443 179.596 14.8422 179.931 15.4909 180.378C13.921 180.451 13.9048 178.394 13.6615 178.437C13.548 180.209 12.4419 179.297 12.4419 179.297C14.0897 178.923 12.8733 177.193 12.5489 177.057C12.8052 176.918 13.8983 178.011 14.2 178.651V178.648Z" fill="white"/>
<path d="M41.1604 187.912C41.1604 187.912 41.17 187.674 41.2791 187.311C41.3336 187.125 41.4139 186.905 41.5326 186.673C42.0811 186.114 43.8873 184.606 44.0253 186.41C44.0253 186.41 45.501 185.955 44.8594 184.753C44.8337 184.624 45.2283 184.447 45.5395 184.108C46.1363 184.026 46.7009 184.008 47.2238 184.035C47.2238 184.517 47.2238 185.018 47.2238 185.754C46.5758 185.836 46.0978 186.169 45.7513 186.496C45.1449 187.073 44.9621 187.921 44.9877 188.682C45.0038 189.139 45.0968 189.567 45.2219 189.887C44.2916 188.813 42.6971 187.238 41.5165 188.602C40.4193 189.973 42.1229 190.892 42.8896 190.574C42.8896 190.574 41.6031 189.512 42.8222 189.194C43.6884 188.962 44.7792 189.735 45.4208 190.263C45.4497 190.303 45.4818 190.339 45.5107 190.37C45.5235 190.385 45.5395 190.397 45.5556 190.409C45.5716 190.431 45.5909 190.449 45.6262 190.486C45.716 190.571 45.8828 190.712 46.1106 190.87C45.5363 191.362 44.837 191.579 44.2659 191.67C43.6596 191.768 43.2008 192 43.2008 192H41.3208V191.695H41V192H41.9624V191.695H43.1944C43.1944 191.695 44.9653 192 46.1972 190.928C46.5629 191.173 47.0634 191.45 47.6409 191.621C48.645 191.921 49.8866 191.896 51.0062 190.828C51.0351 190.8 51.064 190.77 51.0928 190.742C51.0993 190.754 51.1057 190.767 51.1153 190.779C53.0659 192.821 54.4614 190.812 54.5609 190.663C55.2667 191.005 57.2397 191.402 57.2397 191.402C57.2397 191.402 56.8194 189.524 56.4633 188.853C56.6237 188.758 58.7315 187.43 56.5852 185.574C56.5724 185.568 56.5595 185.562 56.5467 185.552C56.5788 185.525 56.6077 185.497 56.6365 185.47C57.7594 184.405 57.7883 183.223 57.4707 182.268C57.291 181.718 57.0023 181.242 56.7424 180.894C57.8653 179.724 57.6824 178.036 58 178.036L57.6792 176.391V176.128V178.042C57.5733 178.042 57.6214 178.476 57.5188 179.056C57.4225 179.599 57.1948 180.265 56.6782 180.811C56.5114 180.595 56.3638 180.433 56.274 180.35C56.2355 180.317 56.2163 180.295 56.1938 180.283C56.181 180.268 56.1681 180.253 56.1521 180.24C56.12 180.21 56.0847 180.182 56.0398 180.155C55.4848 179.547 54.6731 178.506 54.917 177.682C55.2474 176.519 56.3638 177.746 56.3638 177.746C56.6943 177.017 55.7286 175.396 54.2914 176.44C52.8541 177.563 54.5095 179.077 55.642 179.966C55.3019 179.844 54.856 179.758 54.3748 179.743C53.576 179.718 52.6841 179.892 52.0777 180.469C51.7313 180.796 51.3816 181.254 51.2982 181.871C50.525 181.871 49.9989 181.871 49.492 181.871C49.4599 181.373 49.4791 180.836 49.569 180.268C49.9251 179.972 50.1112 179.596 50.2459 179.621C51.5099 180.234 51.9879 178.827 51.9879 178.827C50.0919 178.699 51.6767 176.977 52.2638 176.455C52.5109 176.345 52.7386 176.266 52.9343 176.214C53.3161 176.113 53.5663 176.101 53.5663 176.101V176C53.5663 176 53.0627 176.027 52.3793 176.25C51.7762 176.51 50.3774 177.288 49.8192 178.226C48.8985 179.77 49.1808 180.085 47.8013 180.405C48.568 180.75 49.0845 180.607 49.4471 180.356C49.3733 180.888 49.3572 181.394 49.3861 181.868C48.2376 181.868 47.7307 181.868 47.4965 181.868C47.4291 181.868 47.365 181.861 47.3008 181.858C47.2302 181.101 46.9607 180.601 46.6367 180.292C46.1074 179.798 45.4529 179.776 45.2251 179.978L45.2989 180.048C45.3663 179.981 45.562 179.932 45.7962 179.972C46.0336 180.008 46.3127 180.127 46.5597 180.363C46.8645 180.653 47.1212 181.123 47.1917 181.849C46.4282 181.782 45.9341 181.535 45.6294 181.248C45.3823 181.013 45.2604 180.747 45.2187 180.524C45.177 180.298 45.2283 180.115 45.2989 180.051L45.2251 179.981C45.0134 180.195 45.0326 180.82 45.5556 181.324C45.8828 181.636 46.4089 181.889 47.2014 181.959C47.2046 182.02 47.2078 182.081 47.211 182.145C47.2174 182.368 47.2142 182.848 47.2142 183.944C46.7169 183.916 46.1844 183.931 45.6262 184.002C45.8924 183.657 46.04 183.165 45.6775 182.435C45.3438 183.748 45.0134 183.479 43.3869 184.356C42.402 184.887 41.5839 186.215 41.3112 186.792C41.077 187.442 41.0481 187.915 41.0481 187.918L41.154 187.924L41.1604 187.912ZM42.2063 190.11C41.555 190.162 41.5358 187.573 44.1376 189.188C44.1376 189.188 41.8277 188.434 42.2063 190.11ZM55.8826 177.096C54.1213 176.736 54.9138 178.934 54.9138 178.934C53.2166 176.458 55.9372 176.476 55.8826 177.096ZM46.1908 190.803C45.9598 190.641 45.7898 190.501 45.7032 190.419C45.6839 190.4 45.6679 190.382 45.6582 190.373C45.6518 190.367 45.6486 190.364 45.6486 190.361V190.348L45.6326 190.339C45.6326 190.339 45.6037 190.318 45.5909 190.303C45.3599 190.086 45.1193 189.42 45.0968 188.678C45.0711 187.934 45.254 187.115 45.8283 186.569C46.1523 186.261 46.6046 186.035 47.2238 185.952C47.2238 186.557 47.2238 187.256 47.2238 188.059C47.2238 188.233 47.2174 188.398 47.2014 188.556C46.8035 188.205 46.6624 187.592 46.6624 187.592C46.2389 187.888 46.3833 188.911 47.0121 189.509C46.8324 190.052 46.5565 190.464 46.2293 190.776C46.2197 190.785 46.21 190.794 46.1972 190.803H46.1908ZM50.9356 190.761C49.8417 191.799 48.6579 191.82 47.6762 191.53C47.1244 191.365 46.6367 191.102 46.2806 190.864C46.287 190.858 46.2935 190.852 46.2999 190.849C46.6303 190.535 46.9094 190.122 47.0923 189.588C47.4612 189.897 47.9745 190.061 48.6194 189.894C50.3229 189.204 50.2138 187.918 49.6043 186.963C49.091 186.16 48.1061 185.62 47.3265 185.726C47.3265 184.997 47.3265 184.521 47.3265 184.041C48.4269 184.118 49.3412 184.414 49.9732 184.777C51.8018 186.764 50.3518 189.347 51.0415 190.654C51.0062 190.69 50.9709 190.727 50.9356 190.761ZM53.1525 190.938C53.1525 190.938 51.9077 191.411 51.1795 189.433C50.8105 188.355 51.3912 187.384 50.663 185.473C50.663 185.473 51.3303 186.056 51.4265 187.402C51.4425 188.813 51.9077 190.364 52.7258 190.632L53.2776 190.809L53.1493 190.941L53.1525 190.938ZM51.234 185.968C51.8018 186.572 52.6103 187.708 51.8949 189.35C51.6735 188.727 51.558 187.912 51.5195 187.002C51.4522 186.587 51.3527 186.248 51.2372 185.968H51.234ZM51.9462 189.491C52.7033 187.882 52.0521 186.688 51.5035 186.007L52.3697 186.822C52.6167 187.332 53.7139 189.576 54.2015 190.324C53.0466 190.919 52.344 190.489 51.943 189.491H51.9462ZM51.6286 185.983C52.3504 186.496 53.5824 187.067 55.2314 186.364C56.2804 186.743 56.736 187.415 56.1072 188.514C55.3501 188.065 53.1172 187.073 52.4852 186.795L51.6254 185.986L51.6286 185.983ZM51.5292 185.687C51.8243 185.8 52.1804 185.891 52.6167 185.955C53.576 185.995 54.4293 186.105 55.0838 186.313C53.3578 186.993 52.1644 186.224 51.5292 185.687ZM54.6507 189.961C54.3587 189.683 52.6007 186.99 52.6007 186.99C52.6007 186.99 55.4303 188.663 55.7222 188.941C56.0142 189.219 56.4184 190.623 56.4184 190.623C56.4184 190.623 54.9426 190.239 54.6507 189.961ZM56.7488 187.512L56.6109 187.631L56.4248 187.106C56.1457 186.328 54.5127 185.885 53.0306 185.87C51.619 185.778 51.003 185.143 51.003 185.143C53.0113 185.833 54.0315 185.284 55.164 185.635C57.2461 186.328 56.7456 187.512 56.7456 187.512H56.7488ZM52.158 180.604C52.7322 180.054 53.5952 179.88 54.3748 179.908C55.1544 179.932 55.857 180.161 56.0815 180.378C56.0944 180.393 56.1072 180.405 56.12 180.417L56.1296 180.43H56.1425C56.1425 180.43 56.1489 180.439 56.1553 180.445C56.1681 180.454 56.1842 180.469 56.2034 180.488C56.2901 180.57 56.4408 180.732 56.6077 180.952C56.2772 181.275 55.8345 181.55 55.2474 181.727C54.6186 181.129 53.5407 180.991 53.2327 181.394C53.2327 181.394 53.8775 181.529 54.2465 181.907C54.0796 181.919 53.9064 181.929 53.7235 181.929C52.8766 181.929 52.1451 181.929 51.5099 181.929C51.5933 181.339 51.8307 180.909 52.158 180.601V180.604ZM54.5352 181.51C56.5724 181.877 55.2249 185.494 52.6905 184.081C53.7396 184.441 55.966 183.101 54.5352 181.51ZM51.5003 181.968C52.1387 181.968 52.8766 181.968 53.7267 181.968C53.9385 181.968 54.1406 181.959 54.3331 181.941C54.5673 182.246 54.6411 182.71 54.1149 183.309C53.5952 183.901 52.1195 183.8 51.558 182.564C51.4618 182.368 51.481 182.155 51.5035 181.968H51.5003ZM51.2757 181.968C51.1634 182.71 51.7313 183.647 52.575 184.136C53.576 184.719 54.9298 184.823 55.6548 183.202C55.8313 182.588 55.6548 182.1 55.334 181.749C55.8955 181.575 56.3286 181.306 56.659 180.994C56.6654 180.988 56.6718 180.982 56.675 180.976C56.9253 181.318 57.2044 181.779 57.3744 182.304C57.6792 183.238 57.6567 184.365 56.566 185.406C56.5307 185.439 56.4922 185.473 56.4537 185.507C55.0806 184.85 52.3665 186.227 50.278 184.49C49.893 183.892 49.585 183.022 49.5048 181.971C50.0085 181.971 50.509 181.971 51.2757 181.971V181.968ZM48.475 180.378C49.1198 179.926 49.3123 179.59 49.7518 178.629C50.0502 177.981 51.1313 176.876 51.3848 177.017C51.064 177.154 49.8609 178.903 51.4907 179.282C51.4907 179.282 50.3967 180.207 50.2844 178.412C50.0438 178.369 50.0277 180.448 48.475 180.375V180.378ZM47.4997 181.968C47.7371 181.974 48.244 181.971 49.3989 181.968C49.4824 183.067 49.7935 183.928 50.1272 184.582C50.1561 184.63 50.1978 184.688 50.2523 184.753C50.1849 184.701 50.1272 184.658 50.0727 184.633C49.3861 184.316 48.4814 184.02 47.3265 183.94C47.3265 182.841 47.3265 182.359 47.3265 182.133C47.3265 182.072 47.3233 182.014 47.3169 181.956C47.3778 181.959 47.4388 181.962 47.5029 181.965L47.4997 181.968ZM47.4195 188.062C47.4195 187.253 47.4195 186.551 47.4195 185.943C47.6152 185.925 47.8398 185.903 48.0451 185.995C49.3444 186.529 49.4503 187.934 48.8279 188.428C48.1991 188.929 47.7115 188.859 47.3906 188.636C47.4099 188.453 47.4195 188.263 47.4195 188.059V188.062ZM49.5465 187.079C51.0319 189.491 47.2302 190.77 46.8453 188.834C48.5167 190.199 49.9251 188.077 49.5465 187.079ZM43.8136 184.282C44.8209 183.864 45.177 183.678 45.6518 183.067C45.7288 184.545 43.5441 184.56 43.589 184.789C45.4722 184.896 44.5033 185.937 44.5033 185.937C44.1055 184.386 42.2672 185.531 42.1229 185.836C41.9753 185.595 43.1366 184.566 43.8168 184.282H43.8136Z" fill="white"/>
<rect x="3.35" y="3.35" width="57.3" height="191.3" stroke="white" stroke-width="0.7"/>
</svg>
