<svg width="199" height="60" viewBox="0 0 199 60" fill="none" xmlns="http://www.w3.org/2000/svg">
<rect width="199" height="60" fill="white"/>
<path d="M189.973 19.5681C189.973 19.5681 189.731 19.5594 189.362 19.4604C189.173 19.4109 188.95 19.3381 188.715 19.2304C188.148 18.7325 186.617 17.0933 188.448 16.9681C188.448 16.9681 187.986 15.6288 186.765 16.2111C186.635 16.2344 186.455 15.8762 186.111 15.5938C186.028 15.0523 186.009 14.5398 186.037 14.0652C186.527 14.0652 187.035 14.0652 187.782 14.0652C187.866 14.6534 188.203 15.0872 188.535 15.4016C189.121 15.9519 189.982 16.1179 190.754 16.0946C191.219 16.0801 191.653 15.9956 191.978 15.8821C190.887 16.7264 189.288 18.1735 190.673 19.245C192.065 20.2407 192.998 18.6947 192.675 17.9988C192.675 17.9988 191.597 19.1663 191.275 18.0599C191.039 17.2738 191.823 16.2839 192.359 15.7015C192.399 15.6753 192.437 15.6462 192.468 15.62C192.483 15.6084 192.496 15.5938 192.508 15.5793C192.53 15.5647 192.548 15.5472 192.585 15.5152C192.672 15.4337 192.815 15.2823 192.976 15.0755C193.475 15.5967 193.695 16.2315 193.788 16.7497C193.887 17.3 194.123 17.7164 194.123 17.7164L194.123 19.4226L193.813 19.4226L193.813 19.7137L194.123 19.7137L194.123 18.8402L193.813 18.8402L193.813 17.7222C193.813 17.7222 194.123 16.115 193.035 14.9969C193.283 14.665 193.565 14.2108 193.738 13.6867C194.042 12.7754 194.017 11.6486 192.933 10.6324C192.905 10.6062 192.874 10.58 192.846 10.5538C192.858 10.548 192.871 10.5422 192.883 10.5335C194.956 8.7632 192.917 7.49665 192.765 7.40639C193.112 6.76584 193.515 4.97521 193.515 4.97521C193.515 4.97521 191.609 5.35663 190.927 5.67981C190.831 5.53423 189.483 3.62131 187.599 5.56917C187.593 5.58082 187.587 5.59246 187.577 5.60411C187.549 5.57499 187.522 5.54879 187.494 5.52259C186.412 4.50353 185.213 4.47732 184.243 4.76557C183.685 4.92862 183.201 5.19066 182.848 5.4265C181.661 4.40744 179.947 4.5734 179.947 4.28516L178.277 4.57632L178.01 4.57632L179.954 4.57632C179.954 4.6724 180.394 4.62872 180.982 4.7219C181.534 4.80924 182.21 5.01597 182.764 5.48474C182.544 5.63614 182.38 5.77007 182.296 5.8516C182.262 5.88654 182.241 5.90401 182.228 5.92439C182.213 5.93603 182.197 5.94768 182.185 5.96224C182.154 5.99135 182.126 6.02338 182.098 6.06414C181.481 6.56785 180.425 7.30449 179.588 7.0832C178.407 6.78331 179.653 5.77007 179.653 5.77007C178.912 5.47018 177.267 6.34657 178.327 7.65097C179.467 8.95536 181.004 7.45298 181.906 6.42518C181.782 6.73381 181.695 7.13852 181.68 7.57526C181.655 8.30025 181.832 9.10968 182.417 9.65997C182.749 9.97442 183.214 10.2918 183.84 10.3675C183.84 11.0692 183.84 11.5467 183.84 12.0067C183.335 12.0358 182.789 12.0184 182.213 11.9368C181.912 11.6137 181.531 11.4448 181.556 11.3225C182.179 10.1753 180.75 9.7415 180.75 9.7415C180.62 11.4623 178.872 10.0239 178.342 9.4911C178.231 9.2669 178.15 9.06018 178.097 8.88257C177.995 8.53609 177.983 8.30899 177.983 8.30899L177.88 8.30899C177.88 8.30899 177.908 8.76611 178.134 9.38628C178.398 9.93366 179.188 11.2031 180.14 11.7097C181.708 12.5454 182.027 12.2891 182.352 13.5411C182.702 12.8453 182.557 12.3765 182.303 12.0475C182.842 12.1145 183.356 12.129 183.837 12.1028C183.837 13.1452 183.837 13.6052 183.837 13.8177C183.837 13.8789 183.831 13.9371 183.827 13.9953C183.059 14.0594 182.551 14.304 182.238 14.598C181.736 15.0785 181.714 15.6724 181.918 15.8791L181.99 15.8122C181.922 15.751 181.872 15.5734 181.912 15.3609C181.949 15.1454 182.07 14.8921 182.309 14.6679C182.603 14.3913 183.081 14.1584 183.818 14.0943C183.75 14.7873 183.499 15.2357 183.208 15.5123C182.969 15.7365 182.699 15.8471 182.473 15.885C182.244 15.9228 182.058 15.8762 181.993 15.8122L181.922 15.8791C182.138 16.0713 182.774 16.0538 183.285 15.5793C183.601 15.2823 183.858 14.8048 183.93 14.0856C183.992 14.0827 184.054 14.0798 184.119 14.0769C184.345 14.071 184.832 14.074 185.944 14.074C185.916 14.5253 185.932 15.0086 186.003 15.5152C185.653 15.2735 185.154 15.1396 184.413 15.4686C185.746 15.7714 185.473 16.0713 186.362 17.5475C186.902 18.4414 188.25 19.1838 188.836 19.4313C189.496 19.6439 189.976 19.6701 189.979 19.6701L189.985 19.574L189.973 19.5681ZM192.204 18.619C192.257 19.21 189.629 19.2275 191.268 16.8662C191.268 16.8662 190.503 18.9625 192.204 18.619ZM178.993 6.20681C178.627 7.80528 180.859 7.08612 180.859 7.08612C178.345 8.62635 178.364 6.15731 178.993 6.20681ZM192.908 15.0028C192.743 15.2124 192.601 15.3667 192.517 15.4453C192.499 15.4628 192.48 15.4773 192.471 15.4861C192.465 15.4919 192.461 15.4948 192.458 15.4948L192.446 15.4948L192.437 15.5094C192.437 15.5094 192.415 15.5356 192.399 15.5472C192.179 15.7569 191.504 15.9752 190.751 15.9956C189.995 16.0189 189.164 15.8529 188.609 15.3318C188.296 15.0377 188.067 14.6272 187.983 14.0652C188.597 14.0652 189.307 14.0652 190.122 14.0652C190.298 14.0652 190.466 14.071 190.627 14.0856C190.27 14.4466 189.647 14.5748 189.647 14.5748C189.948 14.9591 190.986 14.8281 191.594 14.2574C192.145 14.4204 192.564 14.6708 192.88 14.9678C192.889 14.9766 192.898 14.9853 192.908 14.9969L192.908 15.0028ZM192.864 10.6965C193.918 11.6894 193.94 12.7637 193.645 13.6547C193.478 14.1555 193.211 14.598 192.97 14.9212C192.964 14.9154 192.957 14.9096 192.954 14.9038C192.635 14.6039 192.217 14.3506 191.674 14.1846C191.987 13.8498 192.155 13.3839 191.984 12.7987C191.284 11.2526 189.979 11.3516 189.009 11.9048C188.194 12.3707 187.645 13.2645 187.754 13.9721C187.013 13.9721 186.53 13.9721 186.043 13.9721C186.121 12.9734 186.421 12.1436 186.79 11.57C188.808 9.91037 191.429 11.2264 192.756 10.6004C192.793 10.6324 192.83 10.6645 192.864 10.6965ZM193.044 8.68459C193.044 8.68459 193.524 9.81429 191.516 10.4752C190.422 10.8101 189.437 10.2831 187.497 10.944C187.497 10.944 188.089 10.3384 189.455 10.251C190.887 10.2365 192.461 9.81429 192.734 9.07183L192.914 8.57103L193.047 8.6875L193.044 8.68459ZM187.999 10.4257C188.612 9.91037 189.765 9.17665 191.433 9.82593C190.8 10.0268 189.973 10.1317 189.049 10.1666C188.628 10.2277 188.284 10.318 187.999 10.4228L187.999 10.4257ZM191.575 9.77935C189.942 9.09221 188.73 9.68326 188.039 10.1811L188.867 9.39502C189.384 9.17082 191.662 8.17505 192.421 7.73249C193.025 8.78067 192.589 9.41831 191.575 9.78226L191.575 9.77935ZM188.014 10.0676C188.535 9.41248 189.114 8.29443 188.402 6.79787C188.786 5.84577 189.468 5.43233 190.583 6.003C190.128 6.69014 189.121 8.71661 188.839 9.2902L188.017 10.0705L188.014 10.0676ZM187.714 10.1579C187.828 9.88999 187.921 9.5668 187.986 9.17082C188.027 8.30025 188.138 7.52577 188.349 6.9318C189.04 8.49824 188.259 9.58136 187.714 10.1579ZM192.052 7.32487C191.77 7.58982 189.037 9.18538 189.037 9.18538C189.037 9.18538 190.735 6.61735 191.017 6.35239C191.299 6.08744 192.725 5.72058 192.725 5.72058C192.725 5.72058 192.334 7.05991 192.052 7.32487ZM189.567 5.42068L189.688 5.54588L189.155 5.71475C188.364 5.96806 187.915 7.45007 187.9 8.79522C187.807 10.0763 187.162 10.6354 187.162 10.6354C187.862 8.8127 187.305 7.88681 187.661 6.85901C188.364 4.96938 189.567 5.42359 189.567 5.42359L189.567 5.42068ZM182.554 9.58718C181.996 9.06601 181.819 8.28278 181.847 7.57526C181.872 6.86775 182.104 6.2301 182.324 6.02629C182.34 6.01465 182.352 6.003 182.365 5.99135L182.377 5.98262L182.377 5.97097C182.377 5.97097 182.386 5.96515 182.393 5.95933C182.402 5.94768 182.417 5.93312 182.436 5.91565C182.52 5.83704 182.684 5.70019 182.907 5.54879C183.236 5.84869 183.514 6.25049 183.694 6.78331C183.087 7.35398 182.947 8.33228 183.356 8.61179C183.356 8.61179 183.493 8.02656 183.877 7.69173C183.889 7.84313 183.899 8.00036 183.899 8.16632C183.899 8.93498 183.899 9.59883 183.899 10.1753C183.301 10.0996 182.864 9.88416 182.551 9.58718L182.554 9.58718ZM183.474 7.42968C183.846 5.58082 187.518 6.80369 186.084 9.10385C186.449 8.15176 185.089 6.13111 183.474 7.42968ZM183.939 10.1841C183.939 9.60465 183.939 8.93498 183.939 8.16341C183.939 7.97124 183.93 7.78781 183.911 7.61312C184.221 7.40057 184.692 7.3336 185.299 7.8111C185.901 8.28278 185.798 9.62212 184.543 10.1316C184.345 10.219 184.128 10.2015 183.939 10.1811L183.939 10.1841ZM183.939 10.3879C184.692 10.4898 185.643 9.97442 186.139 9.20867C186.731 8.30025 186.837 7.07156 185.191 6.41354C184.568 6.2534 184.072 6.41354 183.716 6.7047C183.539 6.19517 183.267 5.8021 182.95 5.50221C182.944 5.49638 182.938 5.49056 182.932 5.48765C183.279 5.26054 183.747 5.00723 184.28 4.85292C185.228 4.57632 186.372 4.5967 187.429 5.58664C187.463 5.61867 187.497 5.65361 187.531 5.68855C186.865 6.93471 188.262 9.39793 186.499 11.2934C185.891 11.6428 185.008 11.9223 183.942 11.9951C183.942 11.538 183.942 11.0837 183.942 10.3879L183.939 10.3879ZM182.324 12.9297C181.866 12.3445 181.525 12.1698 180.549 11.7709C179.892 11.5001 178.77 10.5189 178.912 10.2889C179.052 10.58 180.828 11.6719 181.212 10.1928C181.212 10.1928 182.151 11.1856 180.329 11.2876C180.285 11.5059 182.396 11.5205 182.321 12.9297L182.324 12.9297ZM183.939 13.8148C183.945 13.5994 183.942 13.1393 183.939 12.0912C185.055 12.0155 185.929 11.733 186.592 11.4302C186.641 11.404 186.7 11.3662 186.765 11.3167C186.713 11.3778 186.669 11.4302 186.644 11.4797C186.322 12.1028 186.022 12.9239 185.941 13.9721C184.825 13.9721 184.336 13.9721 184.106 13.9721C184.044 13.9721 183.985 13.975 183.927 13.9808C183.93 13.9255 183.933 13.8701 183.936 13.8119L183.939 13.8148ZM190.125 13.8876C189.304 13.8876 188.591 13.8876 187.974 13.8876C187.955 13.71 187.934 13.5062 188.027 13.3199C188.569 12.1407 189.995 12.0446 190.497 12.6094C191.005 13.1801 190.934 13.6227 190.707 13.9138C190.521 13.8963 190.329 13.8876 190.122 13.8876L190.125 13.8876ZM189.127 11.9572C191.575 10.6092 192.874 14.0594 190.909 14.4088C192.294 12.8918 190.14 11.6137 189.127 11.9572ZM186.288 17.1603C185.864 16.246 185.674 15.9228 185.055 15.4919C186.555 15.422 186.57 17.4048 186.803 17.3641C186.911 15.655 187.968 16.5343 187.968 16.5343C186.393 16.8953 187.556 18.5636 187.866 18.6947C187.621 18.8286 186.576 17.7746 186.288 17.1573L186.288 17.1603Z" fill="#5B7594"/>
<path d="M178.034 51.7731C178.034 51.7731 178.043 51.5434 178.147 51.1931C178.199 51.0136 178.276 50.8016 178.389 50.5779C178.913 50.0392 180.639 48.5849 180.771 50.3247C180.771 50.3247 182.181 49.8861 181.568 48.7262C181.543 48.6026 181.92 48.4318 182.218 48.1051C182.788 48.0256 183.327 48.0079 183.827 48.0344C183.827 48.4995 183.827 48.9823 183.827 49.6918C183.208 49.7713 182.751 50.0921 182.42 50.4071C181.84 50.9635 181.666 51.7819 181.69 52.5149C181.706 52.9565 181.795 53.3686 181.914 53.6777C181.025 52.6415 179.502 51.1225 178.374 52.4384C177.326 53.7601 178.953 54.6462 179.686 54.3401C179.686 54.3401 178.457 53.3156 179.621 53.0095C180.449 52.7857 181.491 53.5305 182.104 54.0398C182.132 54.0781 182.162 54.1134 182.19 54.1428C182.202 54.1576 182.218 54.1693 182.233 54.1811C182.248 54.2017 182.267 54.2194 182.3 54.2547C182.386 54.3371 182.545 54.4726 182.763 54.6256C182.214 55.0996 181.546 55.3086 181.001 55.3969C180.421 55.4911 179.983 55.7148 179.983 55.7148L178.187 55.7148L178.187 55.4205L177.88 55.4205L177.88 55.7148L178.8 55.7148L178.8 55.4205L179.977 55.4205C179.977 55.4205 181.669 55.7148 182.846 54.6816C183.195 54.9171 183.673 55.185 184.225 55.3498C185.185 55.6383 186.371 55.6148 187.441 54.5844C187.468 54.5579 187.496 54.5285 187.523 54.502C187.529 54.5138 187.536 54.5255 187.545 54.5373C189.408 56.5067 190.742 54.5697 190.837 54.4254C191.511 54.7552 193.396 55.1379 193.396 55.1379C193.396 55.1379 192.995 53.3274 192.654 52.6798C192.808 52.5885 194.821 51.3079 192.771 49.5181C192.759 49.5122 192.746 49.5063 192.734 49.4975C192.765 49.471 192.792 49.4445 192.82 49.418C193.893 48.3906 193.92 47.2514 193.617 46.3299C193.445 45.8 193.169 45.3408 192.921 45.0052C193.994 43.8777 193.819 42.2498 194.123 42.2498L193.816 40.6631L193.816 40.4099L193.816 42.2557C193.715 42.2557 193.761 42.6737 193.663 43.233C193.571 43.757 193.353 44.3988 192.86 44.9257C192.7 44.7167 192.559 44.5607 192.474 44.4812C192.437 44.4488 192.418 44.4282 192.397 44.4165C192.385 44.4017 192.372 44.387 192.357 44.3752C192.326 44.3458 192.293 44.3193 192.25 44.2928C191.719 43.707 190.944 42.7031 191.177 41.9083C191.493 40.7867 192.559 41.9701 192.559 41.9701C192.875 41.2666 191.952 39.7034 190.579 40.7102C189.206 41.7935 190.788 43.2536 191.87 44.1103C191.545 43.9925 191.119 43.9101 190.659 43.8954C189.896 43.8718 189.044 44.0396 188.464 44.596C188.133 44.911 187.799 45.3526 187.719 45.9472C186.981 45.9472 186.478 45.9472 185.994 45.9472C185.963 45.4674 185.982 44.9493 186.067 44.4017C186.408 44.1162 186.585 43.7541 186.714 43.7776C187.922 44.3694 188.378 43.0123 188.378 43.0123C186.567 42.8886 188.081 41.2283 188.642 40.7249C188.878 40.6189 189.096 40.5424 189.283 40.4923C189.647 40.3952 189.887 40.3834 189.887 40.3834L189.887 40.2863C189.887 40.2863 189.405 40.3128 188.752 40.5277C188.176 40.7779 186.84 41.5286 186.306 42.4323C185.427 43.9219 185.696 44.2251 184.378 44.5342C185.111 44.8669 185.605 44.7285 185.951 44.4871C185.88 44.9993 185.865 45.488 185.893 45.9443C184.795 45.9443 184.311 45.9443 184.087 45.9443C184.023 45.9443 183.962 45.9384 183.9 45.9355C183.833 45.2054 183.575 44.7226 183.266 44.4253C182.76 43.9484 182.135 43.9278 181.917 44.1221L181.988 44.1898C182.052 44.125 182.239 44.0779 182.463 44.1162C182.69 44.1515 182.956 44.2663 183.192 44.493C183.483 44.7727 183.729 45.226 183.796 45.9266C183.067 45.8619 182.595 45.6234 182.303 45.3467C182.067 45.12 181.951 44.8639 181.911 44.649C181.871 44.4312 181.92 44.2545 181.988 44.1927L181.917 44.125C181.715 44.3311 181.733 44.9346 182.233 45.4203C182.545 45.7206 183.048 45.9649 183.805 46.0326C183.808 46.0915 183.811 46.1504 183.814 46.2122C183.821 46.4271 183.818 46.8893 183.818 47.9461C183.342 47.9196 182.834 47.9343 182.3 48.002C182.555 47.6694 182.696 47.1954 182.349 46.4918C182.031 47.7577 181.715 47.4986 180.161 48.3435C179.22 48.8557 178.438 50.1363 178.178 50.6927C177.954 51.3197 177.926 51.776 177.926 51.779L178.027 51.7848L178.034 51.7731ZM179.033 53.8926C178.411 53.9427 178.392 51.4463 180.878 53.0036C180.878 53.0036 178.671 52.2765 179.033 53.8926ZM192.1 41.3431C190.417 40.9957 191.174 43.1153 191.174 43.1153C189.552 40.7278 192.152 40.7455 192.1 41.3431ZM182.84 54.5609C182.619 54.4048 182.457 54.2694 182.374 54.1899C182.355 54.1723 182.34 54.1546 182.331 54.1458C182.325 54.1399 182.322 54.137 182.322 54.134L182.322 54.1222L182.306 54.1134C182.306 54.1134 182.279 54.0928 182.267 54.0781C182.046 53.8691 181.816 53.2273 181.795 52.512C181.77 51.7937 181.945 51.0047 182.493 50.4778C182.803 50.1805 183.235 49.9626 183.827 49.8831C183.827 50.466 183.827 51.1401 183.827 51.9144C183.827 52.0822 183.821 52.2411 183.805 52.3942C183.425 52.0557 183.29 51.464 183.29 51.464C182.886 51.7495 183.024 52.7357 183.624 53.3127C183.453 53.8367 183.189 54.2341 182.877 54.5344C182.867 54.5432 182.858 54.552 182.846 54.5609L182.84 54.5609ZM187.373 54.5197C186.328 55.5206 185.197 55.5412 184.259 55.2615C183.732 55.1025 183.266 54.8494 182.926 54.6197C182.932 54.6139 182.938 54.608 182.944 54.605C183.26 54.3018 183.526 53.9044 183.701 53.3892C184.054 53.6866 184.544 53.8455 185.16 53.6836C186.788 53.0183 186.683 51.779 186.101 50.8575C185.611 50.0833 184.67 49.5623 183.925 49.6653C183.925 48.9617 183.925 48.5025 183.925 48.0403C184.976 48.1139 185.85 48.3994 186.454 48.7498C188.201 50.6662 186.815 53.1567 187.474 54.4166C187.441 54.4519 187.407 54.4873 187.373 54.5197ZM189.491 54.6904C189.491 54.6904 188.302 55.1467 187.606 53.2391C187.254 52.1999 187.808 51.2638 187.113 49.421C187.113 49.421 187.75 49.9832 187.842 51.2814C187.857 52.6415 188.302 54.137 189.083 54.396L189.611 54.5668L189.488 54.6933L189.491 54.6904ZM187.658 49.8979C188.201 50.4807 188.973 51.5758 188.29 53.1596C188.078 52.5591 187.968 51.7731 187.931 50.8958C187.867 50.4954 187.772 50.1687 187.661 49.8979L187.658 49.8979ZM188.339 53.295C189.062 51.7436 188.44 50.5926 187.916 49.9361L188.743 50.7221C188.979 51.2137 190.028 53.3774 190.493 54.0987C189.39 54.6727 188.719 54.2577 188.336 53.295L188.339 53.295ZM188.035 49.9126C188.725 50.4071 189.902 50.9576 191.477 50.2805C192.48 50.6456 192.915 51.2932 192.314 52.353C191.591 51.9203 189.457 50.9635 188.854 50.6956L188.032 49.9155L188.035 49.9126ZM187.94 49.627C188.222 49.7359 188.562 49.8243 188.979 49.8861C189.896 49.9243 190.711 50.0303 191.336 50.2305C189.687 50.887 188.547 50.1451 187.94 49.627ZM190.923 53.7484C190.644 53.4805 188.964 50.884 188.964 50.884C188.964 50.884 191.667 52.4972 191.946 52.7651C192.225 53.033 192.611 54.3872 192.611 54.3872C192.611 54.3872 191.201 54.0163 190.923 53.7484ZM192.927 51.3874L192.795 51.5022L192.618 50.9959C192.351 50.2452 190.791 49.8184 189.375 49.8036C188.026 49.7153 187.437 49.103 187.437 49.103C189.356 49.7683 190.331 49.2384 191.413 49.577C193.402 50.2452 192.924 51.3874 192.924 51.3874L192.927 51.3874ZM188.541 44.7256C189.09 44.1957 189.914 44.0279 190.659 44.0544C191.404 44.0779 192.075 44.2987 192.29 44.5077C192.302 44.5224 192.314 44.5342 192.326 44.546L192.336 44.5578L192.348 44.5578C192.348 44.5578 192.354 44.5666 192.36 44.5725C192.372 44.5813 192.388 44.596 192.406 44.6137C192.489 44.6932 192.633 44.8492 192.792 45.0612C192.477 45.3732 192.054 45.6381 191.493 45.8089C190.892 45.2319 189.862 45.0994 189.568 45.488C189.568 45.488 190.184 45.6175 190.536 45.9826C190.377 45.9943 190.211 46.0032 190.037 46.0032C189.228 46.0032 188.529 46.0032 187.922 46.0032C188.001 45.435 188.228 45.0199 188.541 44.7226L188.541 44.7256ZM190.812 45.5999C192.759 45.9531 191.471 49.4416 189.05 48.0786C190.052 48.4259 192.179 47.1336 190.812 45.5999ZM187.913 46.0414C188.523 46.0414 189.228 46.0414 190.04 46.0414C190.242 46.0414 190.435 46.0326 190.619 46.0149C190.843 46.3093 190.913 46.7568 190.411 47.3338C189.914 47.9049 188.504 47.8077 187.968 46.6155C187.876 46.4271 187.894 46.221 187.916 46.0414L187.913 46.0414ZM187.698 46.0414C187.591 46.7568 188.133 47.6605 188.939 48.1316C189.896 48.6938 191.189 48.7939 191.882 47.2307C192.051 46.639 191.882 46.168 191.575 45.8295C192.112 45.6617 192.526 45.4026 192.841 45.1024C192.847 45.0965 192.854 45.0906 192.857 45.0847C193.096 45.4144 193.362 45.8589 193.525 46.3653C193.816 47.2661 193.795 48.3523 192.752 49.3562C192.719 49.3886 192.682 49.421 192.645 49.4533C191.333 48.8204 188.74 50.1481 186.745 48.473C186.377 47.8961 186.083 47.0571 186.006 46.0444C186.487 46.0444 186.965 46.0444 187.698 46.0444L187.698 46.0414ZM185.022 44.5077C185.638 44.072 185.822 43.7482 186.242 42.8209C186.527 42.1968 187.56 41.1311 187.802 41.2666C187.496 41.399 186.346 43.0858 187.903 43.4509C187.903 43.4509 186.858 44.3429 186.751 42.6119C186.521 42.5707 186.506 44.5754 185.022 44.5048L185.022 44.5077ZM184.09 46.0414C184.317 46.0473 184.801 46.0444 185.905 46.0414C185.985 47.1012 186.282 47.9314 186.601 48.5614C186.628 48.6085 186.668 48.6644 186.72 48.7262C186.656 48.6762 186.601 48.635 186.549 48.6114C185.893 48.3052 185.028 48.0197 183.925 47.9432C183.925 46.8834 183.925 46.4183 183.925 46.2004C183.925 46.1415 183.922 46.0856 183.916 46.0297C183.974 46.0326 184.032 46.0356 184.093 46.0385L184.09 46.0414ZM184.014 51.9173C184.014 51.1372 184.014 50.4601 184.014 49.8743C184.201 49.8566 184.415 49.836 184.611 49.9243C185.853 50.4395 185.954 51.7937 185.359 52.2706C184.759 52.7534 184.293 52.6856 183.986 52.4708C184.004 52.2941 184.014 52.1116 184.014 51.9144L184.014 51.9173ZM186.046 50.9694C187.465 53.295 183.833 54.5285 183.465 52.6621C185.062 53.978 186.408 51.932 186.046 50.9694ZM180.568 48.2729C181.531 47.8696 181.871 47.69 182.325 47.1012C182.398 48.526 180.311 48.5407 180.354 48.7615C182.153 48.8646 181.227 49.8684 181.227 49.8684C180.847 48.373 179.091 49.4769 178.953 49.7713C178.812 49.5387 179.922 48.5466 180.572 48.2729L180.568 48.2729Z" fill="#5B7594"/>
<path d="M21.4275 8.22694C21.4275 8.22694 21.4183 8.45655 21.3141 8.80687C21.262 8.98644 21.1853 9.1984 21.0719 9.42213C20.5478 9.96085 18.8221 11.4151 18.6903 9.6753C18.6903 9.6753 17.2803 10.1139 17.8934 11.2738C17.9179 11.3974 17.5409 11.5682 17.2436 11.8949C16.6734 11.9744 16.134 11.9921 15.6343 11.9656C15.6343 11.5005 15.6343 11.0177 15.6343 10.3082C16.2535 10.2287 16.7102 9.90786 17.0413 9.59287C17.6206 9.03649 17.7953 8.2181 17.7708 7.48509C17.7554 7.04352 17.6665 6.63138 17.547 6.32228C18.4359 7.35851 19.9593 8.87752 21.0873 7.56163C22.1355 6.23986 20.5079 5.35376 19.7754 5.65992C19.7754 5.65992 21.0045 6.68437 19.8397 6.99053C19.0121 7.21426 17.97 6.46947 17.357 5.96019C17.3294 5.92192 17.2987 5.8866 17.2711 5.85716C17.2589 5.84244 17.2436 5.83066 17.2282 5.81889C17.2129 5.79828 17.1945 5.78062 17.1608 5.74529C17.075 5.66287 16.9156 5.52745 16.698 5.37437C17.2466 4.90042 17.9148 4.6914 18.4604 4.60309C19.0397 4.50889 19.478 4.28516 19.478 4.28516L21.2742 4.28516L21.2742 4.57954L21.5807 4.57954L21.5807 4.28516L20.6612 4.28516L20.6612 4.57954L19.4842 4.57954C19.4842 4.57954 17.7922 4.28516 16.6152 5.31844C16.2658 5.08293 15.7876 4.81504 15.2359 4.65019C14.2765 4.3617 13.0903 4.38525 12.0205 5.41558C11.9929 5.44208 11.9654 5.47152 11.9378 5.49801C11.9316 5.48624 11.9255 5.47446 11.9163 5.46269C10.0527 3.49327 8.71936 5.4303 8.62434 5.57455C7.95001 5.24484 6.06494 4.86215 6.06494 4.86215C6.06494 4.86215 6.46648 6.6726 6.80671 7.32024C6.65345 7.4115 4.63965 8.69206 6.69023 10.4819C6.70249 10.4878 6.71475 10.4937 6.72701 10.5025C6.69636 10.529 6.66878 10.5555 6.64119 10.582C5.56839 11.6094 5.5408 12.7486 5.84425 13.6701C6.0159 14.2 6.29176 14.6592 6.54004 14.9948C5.46724 16.1223 5.64195 17.7502 5.3385 17.7502L5.64502 19.3369L5.64502 19.5901L5.64502 17.7443C5.74617 17.7443 5.70019 17.3263 5.79827 16.767C5.89023 16.243 6.10785 15.6012 6.60134 15.0743C6.76073 15.2833 6.90173 15.4393 6.98755 15.5188C7.02433 15.5512 7.04273 15.5718 7.06418 15.5835C7.07644 15.5983 7.0887 15.613 7.10403 15.6248C7.13468 15.6542 7.1684 15.6807 7.21131 15.7072C7.74158 16.293 8.51706 17.2969 8.28411 18.0917C7.9684 19.2133 6.90173 18.0299 6.90173 18.0299C6.58602 18.7334 7.50863 20.2966 8.88182 19.2898C10.255 18.2065 8.67339 16.7464 7.59139 15.8897C7.91629 16.0075 8.34235 16.0899 8.80212 16.1046C9.56535 16.1282 10.4175 15.9604 10.9968 15.404C11.3278 15.089 11.6619 14.6474 11.7416 14.0528C12.4803 14.0528 12.983 14.0528 13.4673 14.0528C13.4979 14.5326 13.4795 15.0507 13.3937 15.5983C13.0535 15.8838 12.8757 16.2459 12.747 16.2224C11.5393 15.6306 11.0826 16.9877 11.0826 16.9877C12.8941 17.1114 11.3799 18.7717 10.819 19.2751C10.583 19.3811 10.3654 19.4576 10.1784 19.5077C9.81362 19.6048 9.57454 19.6166 9.57454 19.6166L9.57454 19.7137C9.57454 19.7137 10.0558 19.6872 10.7086 19.4723C11.2849 19.2221 12.6213 18.4714 13.1546 17.5677C14.0343 16.0781 13.7646 15.7749 15.0826 15.4658C14.35 15.1331 13.8566 15.2715 13.5102 15.5129C13.5807 15.0007 13.596 14.512 13.5684 14.0557C14.6658 14.0557 15.1501 14.0557 15.3738 14.0557C15.4382 14.0557 15.4995 14.0616 15.5608 14.0645C15.6282 14.7946 15.8857 15.2774 16.1953 15.5747C16.701 16.0516 17.3263 16.0722 17.5439 15.8779L17.4734 15.8102C17.4091 15.875 17.2221 15.9221 16.9983 15.8838C16.7715 15.8485 16.5049 15.7337 16.2688 15.507C15.9776 15.2273 15.7324 14.774 15.665 14.0734C16.3945 14.1381 16.8665 14.3766 17.1577 14.6533C17.3937 14.88 17.5102 15.1361 17.5501 15.351C17.5899 15.5688 17.5409 15.7455 17.4734 15.8073L17.5439 15.875C17.7462 15.6689 17.7278 15.0654 17.2282 14.5797C16.9156 14.2794 16.4129 14.0351 15.6558 13.9674C15.6527 13.9085 15.6497 13.8496 15.6466 13.7878C15.6405 13.5729 15.6435 13.1107 15.6435 12.0539C16.1186 12.0804 16.6275 12.0657 17.1608 11.998C16.9064 12.3306 16.7654 12.8046 17.1118 13.5082C17.4305 12.2423 17.7462 12.5014 19.3003 11.6565C20.2413 11.1443 21.0229 9.8637 21.2834 9.30732C21.5072 8.68028 21.5348 8.22399 21.5348 8.22105L21.4336 8.21516L21.4275 8.22694ZM20.4282 6.10738C21.0505 6.05734 21.0689 8.5537 18.583 6.99642C18.583 6.99642 20.7899 7.72354 20.4282 6.10738ZM7.3615 18.6569C9.04427 19.0043 8.28718 16.8847 8.28718 16.8847C9.90864 19.2722 7.30939 19.2545 7.3615 18.6569ZM16.6213 5.43913C16.842 5.59516 17.0045 5.73057 17.0872 5.81006C17.1056 5.82772 17.1209 5.84538 17.1301 5.85421C17.1363 5.8601 17.1393 5.86305 17.1393 5.86599L17.1393 5.87776L17.1547 5.8866C17.1547 5.8866 17.1822 5.9072 17.1945 5.92192C17.4152 6.13093 17.6451 6.77269 17.6665 7.48804C17.6911 8.20633 17.5164 8.99527 16.9677 9.52222C16.6581 9.81954 16.2259 10.0374 15.6343 10.1169C15.6343 9.53399 15.6343 8.85986 15.6343 8.08563C15.6343 7.91783 15.6405 7.75887 15.6558 7.60579C16.0359 7.94433 16.1707 8.53604 16.1707 8.53604C16.5753 8.25049 16.4374 7.26431 15.8366 6.68732C16.0083 6.16332 16.2719 5.7659 16.5845 5.46563C16.5937 5.4568 16.6029 5.44797 16.6152 5.43913L16.6213 5.43913ZM12.088 5.48035C13.1332 4.47945 14.2642 4.45884 15.2022 4.73851C15.7294 4.89747 16.1953 5.15064 16.5355 5.38026C16.5294 5.38615 16.5232 5.39203 16.5171 5.39498C16.2014 5.69819 15.9347 6.09561 15.76 6.61078C15.4075 6.31345 14.9171 6.15448 14.301 6.31639C12.6734 6.9817 12.7776 8.22105 13.36 9.14246C13.8504 9.91669 14.7914 10.4377 15.5363 10.3347C15.5363 11.0383 15.5363 11.4975 15.5363 11.9597C14.4849 11.8861 13.6113 11.6006 13.0075 11.2502C11.2604 9.33381 12.6458 6.84334 11.9868 5.58338C12.0205 5.54806 12.0543 5.51273 12.088 5.48035ZM9.96995 5.30961C9.96995 5.30961 11.1592 4.85331 11.855 6.76091C12.2075 7.80008 11.6527 8.73622 12.3485 10.579C12.3485 10.579 11.711 10.0168 11.619 8.71855C11.6037 7.35851 11.1592 5.86305 10.3776 5.60399L9.85041 5.43325L9.97301 5.30666L9.96995 5.30961ZM11.8029 10.1021C11.2604 9.51927 10.488 8.42417 11.1715 6.84039C11.383 7.44093 11.4933 8.22693 11.5301 9.10419C11.5945 9.50455 11.6895 9.83132 11.7998 10.1021L11.8029 10.1021ZM11.1224 6.70498C10.3991 8.25637 11.0213 9.40741 11.5454 10.0639L10.7178 9.27788C10.4818 8.78626 9.43354 6.62255 8.96764 5.90131C10.0711 5.32727 10.7424 5.74235 11.1255 6.70498L11.1224 6.70498ZM11.4259 10.0874C10.7362 9.59287 9.55922 9.04237 7.98373 9.71945C6.98142 9.35442 6.54617 8.70678 7.14694 7.647C7.87032 8.07974 10.0037 9.03649 10.6075 9.30437L11.429 10.0845L11.4259 10.0874ZM11.5209 10.373C11.2389 10.2641 10.8987 10.1757 10.4818 10.1139C9.56535 10.0757 8.75002 9.96968 8.12472 9.7695C9.77378 9.11303 10.914 9.85487 11.5209 10.373ZM8.53852 6.25163C8.81745 6.51952 10.4972 9.11597 10.4972 9.11597C10.4972 9.11597 7.79369 7.50275 7.51476 7.23487C7.23583 6.96698 6.84962 5.61282 6.84962 5.61282C6.84962 5.61282 8.25959 5.98374 8.53852 6.25163ZM6.53391 8.61258L6.66571 8.49777L6.84349 9.0041C7.11016 9.75478 8.67032 10.1816 10.0864 10.1964C11.4351 10.2847 12.0236 10.897 12.0236 10.897C10.1048 10.2317 9.13009 10.7616 8.0481 10.423C6.05881 9.75478 6.53698 8.61258 6.53698 8.61258L6.53391 8.61258ZM10.9201 15.2744C10.3715 15.8043 9.54695 15.9721 8.80212 15.9456C8.05729 15.9221 7.38602 15.7013 7.17146 15.4923C7.1592 15.4776 7.14694 15.4658 7.13468 15.454L7.12548 15.4422L7.11322 15.4422C7.11322 15.4422 7.10709 15.4334 7.10096 15.4275C7.0887 15.4187 7.07338 15.404 7.05499 15.3863C6.97223 15.3068 6.82816 15.1508 6.66878 14.9388C6.98449 14.6268 7.40748 14.3619 7.9684 14.1911C8.56917 14.7681 9.59906 14.9006 9.89332 14.512C9.89332 14.512 9.27722 14.3825 8.92473 14.0174C9.08412 14.0057 9.24963 13.9968 9.42435 13.9968C10.2335 13.9968 10.9324 13.9968 11.5393 13.9968C11.4596 14.565 11.2328 14.9801 10.9201 15.2774L10.9201 15.2744ZM8.64886 14.4001C6.70249 14.0469 7.98986 10.5584 10.4113 11.9214C9.40902 11.5741 7.28181 12.8664 8.64886 14.4001ZM11.5485 13.9586C10.9385 13.9586 10.2335 13.9586 9.42128 13.9586C9.21898 13.9586 9.02588 13.9674 8.84197 13.9851C8.61821 13.6907 8.54772 13.2432 9.0504 12.6662C9.54696 12.0951 10.9569 12.1923 11.4933 13.3845C11.5853 13.5729 11.5669 13.779 11.5454 13.9586L11.5485 13.9586ZM11.7631 13.9586C11.8703 13.2432 11.3278 12.3395 10.5217 11.8684C9.56535 11.3062 8.27185 11.2061 7.57913 12.7693C7.41054 13.361 7.57913 13.832 7.88564 14.1705C7.34924 14.3383 6.93545 14.5974 6.61973 14.8976C6.6136 14.9035 6.60747 14.9094 6.60441 14.9153C6.36533 14.5856 6.09866 14.1411 5.93621 13.6347C5.64502 12.7339 5.66647 11.6477 6.70862 10.6438C6.74234 10.6114 6.77912 10.579 6.8159 10.5467C8.12779 11.1796 10.7209 9.85193 12.7163 11.527C13.0841 12.1039 13.3784 12.9429 13.455 13.9556C12.9738 13.9556 12.4956 13.9556 11.7631 13.9556L11.7631 13.9586ZM14.4389 15.4923C13.8228 15.928 13.6389 16.2518 13.219 17.1791C12.9339 17.8032 11.901 18.8689 11.6588 18.7334C11.9654 18.601 13.1148 16.9142 11.5577 16.5491C11.5577 16.5491 12.6029 15.6571 12.7102 17.3881C12.9401 17.4293 12.9554 15.4246 14.4389 15.4952L14.4389 15.4923ZM15.3707 13.9586C15.1439 13.9527 14.6596 13.9556 13.5562 13.9586C13.4765 12.8988 13.1792 12.0686 12.8604 11.4386C12.8328 11.3915 12.793 11.3356 12.7408 11.2738C12.8052 11.3238 12.8604 11.365 12.9125 11.3886C13.5684 11.6948 14.4328 11.9803 15.5363 12.0568C15.5363 13.1166 15.5363 13.5817 15.5363 13.7996C15.5363 13.8585 15.5393 13.9144 15.5455 13.9703C15.4872 13.9674 15.429 13.9644 15.3677 13.9615L15.3707 13.9586ZM15.4474 8.08269C15.4474 8.8628 15.4474 9.53988 15.4474 10.1257C15.2604 10.1434 15.0458 10.164 14.8497 10.0757C13.6083 9.56049 13.5071 8.20633 14.1018 7.72943C14.7025 7.24664 15.1684 7.31435 15.475 7.52925C15.4566 7.70588 15.4474 7.8884 15.4474 8.08563L15.4474 8.08269ZM13.4152 9.0306C11.996 6.70498 15.6282 5.47152 15.996 7.3379C14.3991 6.02201 13.0535 8.06797 13.4152 9.0306ZM18.8926 11.7271C17.9301 12.1304 17.5899 12.31 17.1363 12.8988C17.0627 11.474 19.1501 11.4593 19.1072 11.2385C17.3079 11.1354 18.2336 10.1316 18.2336 10.1316C18.6137 11.627 20.37 10.5231 20.5079 10.2287C20.6489 10.4613 19.5394 11.4534 18.8895 11.7271L18.8926 11.7271Z" fill="#5B7594"/>
<path d="M9.48816 40.4319C9.48816 40.4319 9.72989 40.4406 10.0987 40.5396C10.2877 40.5891 10.5109 40.6619 10.7464 40.7696C11.3135 41.2675 12.8445 42.9067 11.0129 43.0319C11.0129 43.0319 11.4747 44.3712 12.6957 43.7889C12.8259 43.7656 13.0056 44.1238 13.3496 44.4062C13.4333 44.9477 13.4519 45.4602 13.424 45.9348C12.9343 45.9348 12.4261 45.9348 11.6792 45.9348C11.5955 45.3466 11.2577 44.9128 10.9261 44.5984C10.3404 44.0481 9.47886 43.8821 8.70719 43.9054C8.24233 43.9199 7.80846 44.0044 7.48306 44.1179C8.57393 43.2736 10.1731 41.8265 8.78777 40.755C7.39629 39.7593 6.46346 41.3053 6.78577 42.0012C6.78577 42.0012 7.86425 40.8337 8.18655 41.9401C8.42208 42.7262 7.63801 43.7161 7.10187 44.2985C7.06159 44.3247 7.0244 44.3538 6.99341 44.38C6.97791 44.3916 6.96551 44.4062 6.95312 44.4207C6.93142 44.4353 6.91283 44.4528 6.87564 44.4848C6.78887 44.5663 6.64631 44.7177 6.48516 44.9245C5.98621 44.4033 5.76617 43.7685 5.6732 43.2503C5.57403 42.7 5.3385 42.2836 5.3385 42.2836L5.3385 40.5774L5.64841 40.5774L5.64841 40.2863L5.3385 40.2863L5.3385 41.1598L5.64841 41.1598L5.64841 42.2778C5.64841 42.2778 5.3385 43.885 6.42628 45.0031C6.17835 45.335 5.89633 45.7892 5.72279 46.3133C5.41908 47.2246 5.44387 48.3514 6.52855 49.3676C6.55644 49.3938 6.58743 49.42 6.61532 49.4462C6.60292 49.452 6.59053 49.4578 6.57813 49.4665C4.50485 51.2368 6.54404 52.5033 6.6959 52.5936C6.3488 53.2342 5.94592 55.0248 5.94592 55.0248C5.94592 55.0248 7.85185 54.6434 8.53365 54.3202C8.62972 54.4658 9.97781 56.3787 11.862 54.4308C11.8682 54.4192 11.8744 54.4075 11.8837 54.3959C11.9116 54.425 11.9395 54.4512 11.9674 54.4774C13.049 55.4965 14.2483 55.5227 15.2183 55.2344C15.7762 55.0714 16.2596 54.8093 16.6129 54.5735C17.7999 55.5926 19.5137 55.4266 19.5137 55.7148L21.1841 55.4237L21.4506 55.4237L19.5075 55.4237C19.5075 55.3276 19.0674 55.3713 18.4786 55.2781C17.9269 55.1908 17.2513 54.984 16.6966 54.5153C16.9166 54.3639 17.0809 54.2299 17.1646 54.1484C17.1987 54.1135 17.2203 54.096 17.2327 54.0756C17.2482 54.064 17.2637 54.0523 17.2761 54.0378C17.3071 54.0086 17.335 53.9766 17.3629 53.9359C17.9796 53.4321 19.0364 52.6955 19.8732 52.9168C21.0539 53.2167 19.8081 54.2299 19.8081 54.2299C20.5488 54.5298 22.1944 53.6534 21.1345 52.349C19.994 51.0446 18.4569 52.547 17.555 53.5748C17.679 53.2662 17.7658 52.8615 17.7813 52.4247C17.8061 51.6997 17.6294 50.8903 17.0437 50.34C16.7121 50.0256 16.2472 49.7082 15.6212 49.6325C15.6212 48.9308 15.6212 48.4533 15.6212 47.9933C16.1264 47.9642 16.6718 47.9816 17.2482 48.0632C17.5488 48.3863 17.93 48.5552 17.9052 48.6775C17.2823 49.8247 18.711 50.2585 18.711 50.2585C18.8412 48.5377 20.589 49.9761 21.119 50.5089C21.2305 50.7331 21.3111 50.9398 21.3638 51.1174C21.4661 51.4639 21.4785 51.691 21.4785 51.691L21.5807 51.691C21.5807 51.691 21.5529 51.2339 21.3266 50.6137C21.0632 50.0663 20.2729 48.7969 19.3215 48.2903C17.7534 47.4546 17.4342 47.7109 17.1088 46.4589C16.7586 47.1547 16.9042 47.6235 17.1584 47.9525C16.6191 47.8855 16.1047 47.871 15.6243 47.8972C15.6243 46.8548 15.6243 46.3948 15.6243 46.1823C15.6243 46.1211 15.6305 46.0629 15.6336 46.0047C16.4022 45.9406 16.9104 45.696 17.2234 45.402C17.7255 44.9215 17.7472 44.3276 17.5427 44.1209L17.4714 44.1878C17.5396 44.249 17.5891 44.4266 17.5488 44.6391C17.5117 44.8546 17.3908 45.1079 17.1522 45.3321C16.8578 45.6087 16.3805 45.8416 15.6429 45.9057C15.7111 45.2127 15.9621 44.7643 16.2534 44.4877C16.4921 44.2635 16.7617 44.1529 16.9879 44.115C17.2172 44.0772 17.4032 44.1238 17.4683 44.1878L17.5396 44.1209C17.3226 43.9287 16.6873 43.9462 16.176 44.4207C15.8599 44.7177 15.6026 45.1952 15.5314 45.9144C15.4694 45.9173 15.4074 45.9202 15.3423 45.9231C15.1161 45.929 14.6295 45.926 13.517 45.926C13.5448 45.4747 13.5294 44.9914 13.4581 44.4848C13.8083 44.7265 14.3072 44.8604 15.0479 44.5314C13.7153 44.2286 13.988 43.9287 13.0986 42.4525C12.5593 41.5586 11.2112 40.8162 10.6255 40.5687C9.96542 40.3561 9.48506 40.3299 9.48196 40.3299L9.47576 40.426L9.48816 40.4319ZM7.25683 41.381C7.20414 40.79 9.83216 40.7725 8.19275 43.1338C8.19275 43.1338 8.95822 41.0375 7.25683 41.381ZM20.4682 53.7932C20.8339 52.1947 18.6025 52.9139 18.6025 52.9139C21.1159 51.3736 21.0973 53.8427 20.4682 53.7932ZM6.55334 44.9972C6.71759 44.7876 6.86015 44.6333 6.94382 44.5547C6.96242 44.5372 6.98101 44.5227 6.99031 44.5139C6.99651 44.5081 6.9996 44.5052 7.0027 44.5052L7.0151 44.5052L7.0244 44.4906C7.0244 44.4906 7.04609 44.4644 7.06159 44.4528C7.28162 44.2431 7.95722 44.0248 8.71029 44.0044C9.46647 43.9811 10.297 44.1471 10.8518 44.6682C11.1648 44.9623 11.3941 45.3728 11.4778 45.9348C10.8641 45.9348 10.1545 45.9348 9.33941 45.9348C9.16276 45.9348 8.99541 45.929 8.83426 45.9144C9.19065 45.5534 9.81356 45.4252 9.81356 45.4252C9.51295 45.0409 8.47476 45.1719 7.86735 45.7426C7.31571 45.5796 6.89733 45.3292 6.58123 45.0322C6.57193 45.0234 6.56263 45.0147 6.55334 45.0031L6.55334 44.9972ZM6.59673 49.3035C5.54304 48.3106 5.52135 47.2363 5.81576 46.3453C5.98311 45.8445 6.24963 45.402 6.49136 45.0788C6.49756 45.0846 6.50375 45.0904 6.50685 45.0962C6.82606 45.3961 7.24443 45.6494 7.78677 45.8154C7.47376 46.1502 7.30641 46.6161 7.47686 47.2013C8.17725 48.7474 9.48196 48.6484 10.452 48.0952C11.267 47.6293 11.8156 46.7355 11.7071 46.0279C12.4478 46.0279 12.9312 46.0279 13.4178 46.0279C13.3403 47.0266 13.0397 47.8564 12.6709 48.43C10.6534 50.0896 8.0316 48.7736 6.70519 49.3996C6.668 49.3676 6.63082 49.3355 6.59673 49.3035ZM6.41698 51.3154C6.41698 51.3154 5.93662 50.1857 7.94482 49.5248C9.03879 49.1899 10.0243 49.7169 11.9643 49.056C11.9643 49.056 11.3724 49.6616 10.0057 49.749C8.57393 49.7635 6.9996 50.1857 6.72689 50.9282L6.54714 51.429L6.41388 51.3125L6.41698 51.3154ZM11.4623 49.5743C10.8487 50.0896 9.6958 50.8234 8.0285 50.1741C8.66071 49.9732 9.48816 49.8683 10.4117 49.8334C10.8332 49.7723 11.1772 49.682 11.4623 49.5772L11.4623 49.5743ZM7.88594 50.2207C9.51915 50.9078 10.7309 50.3167 11.422 49.8189L10.5945 50.605C10.077 50.8292 7.79916 51.8249 7.03989 52.2675C6.43557 51.2193 6.87254 50.5817 7.88594 50.2177L7.88594 50.2207ZM11.4468 49.9324C10.9261 50.5875 10.3466 51.7056 11.0594 53.2021C10.6751 54.1542 9.99331 54.5677 8.87764 53.997C9.33321 53.3099 10.3404 51.2834 10.6224 50.7098L11.4437 49.9295L11.4468 49.9324ZM11.7474 49.8421C11.6327 50.11 11.5397 50.4332 11.4747 50.8292C11.4344 51.6997 11.3228 52.4742 11.1121 53.0682C10.421 51.5018 11.2019 50.4186 11.7474 49.8421ZM7.40868 52.6751C7.6907 52.4102 10.4241 50.8146 10.4241 50.8146C10.4241 50.8146 8.72579 53.3827 8.44377 53.6476C8.16176 53.9126 6.73618 54.2794 6.73618 54.2794C6.73618 54.2794 7.12667 52.9401 7.40868 52.6751ZM9.89414 54.5793L9.77327 54.4541L10.3063 54.2852C11.0966 54.0319 11.5459 52.5499 11.5614 51.2048C11.6544 49.9237 12.299 49.3646 12.299 49.3646C11.5986 51.1873 12.1565 52.1132 11.8001 53.141C11.0966 55.0306 9.89414 54.5764 9.89414 54.5764L9.89414 54.5793ZM16.9073 50.4128C17.4652 50.934 17.6418 51.7172 17.6139 52.4247C17.5891 53.1323 17.3567 53.7699 17.1367 53.9737C17.1212 53.9854 17.1088 53.997 17.0964 54.0086L17.084 54.0174L17.084 54.029C17.084 54.029 17.0747 54.0349 17.0685 54.0407C17.0592 54.0523 17.0437 54.0669 17.0251 54.0843C16.9414 54.163 16.7772 54.2998 16.554 54.4512C16.2255 54.1513 15.9466 53.7495 15.7669 53.2167C16.3743 52.646 16.5138 51.6677 16.1047 51.3882C16.1047 51.3882 15.9683 51.9734 15.584 52.3083C15.5716 52.1569 15.5623 51.9996 15.5623 51.8337C15.5623 51.065 15.5623 50.4012 15.5623 49.8247C16.1605 49.9004 16.5974 50.1158 16.9104 50.4128L16.9073 50.4128ZM15.9869 52.5703C15.615 54.4192 11.9426 53.1963 13.3775 50.8961C13.0118 51.8482 14.3723 53.8689 15.9869 52.5703ZM15.5221 49.8159C15.5221 50.3953 15.5221 51.065 15.5221 51.8366C15.5221 52.0288 15.5314 52.2122 15.5499 52.3869C15.24 52.5994 14.769 52.6664 14.1616 52.1889C13.5603 51.7172 13.6626 50.3779 14.9177 49.8684C15.1161 49.781 15.333 49.7985 15.5221 49.8189L15.5221 49.8159ZM15.5221 49.6121C14.769 49.5102 13.8176 50.0256 13.3217 50.7913C12.7298 51.6997 12.6244 52.9284 14.27 53.5865C14.8929 53.7466 15.3888 53.5865 15.7452 53.2953C15.9218 53.8048 16.1946 54.1979 16.5107 54.4978C16.5169 54.5036 16.5231 54.5094 16.5293 54.5124C16.1822 54.7395 15.7142 54.9928 15.1812 55.1471C14.2328 55.4237 13.0893 55.4033 12.0325 54.4134C11.9984 54.3813 11.9643 54.3464 11.9302 54.3115C12.5965 53.0653 11.1988 50.6021 12.9622 48.7066C13.5696 48.3572 14.4529 48.0777 15.519 48.0049C15.519 48.462 15.519 48.9163 15.519 49.6121L15.5221 49.6121ZM17.1367 47.0703C17.5953 47.6555 17.9362 47.8302 18.9124 48.2291C19.5694 48.4999 20.6913 49.4811 20.5488 49.7111C20.4093 49.42 18.6335 48.3281 18.2492 49.8072C18.2492 49.8072 17.3102 48.8144 19.1325 48.7124C19.1759 48.4941 17.0654 48.4795 17.1398 47.0703L17.1367 47.0703ZM15.5221 46.1852C15.5159 46.4006 15.519 46.8607 15.5221 47.9088C14.4064 47.9845 13.5325 48.267 12.8692 48.5698C12.8197 48.596 12.7608 48.6338 12.6957 48.6833C12.7484 48.6222 12.7918 48.5698 12.8166 48.5203C13.1389 47.8972 13.4395 47.0761 13.5201 46.0279C14.6357 46.0279 15.1254 46.0279 15.3547 46.0279C15.4167 46.0279 15.4756 46.025 15.5345 46.0192C15.5314 46.0745 15.5283 46.1299 15.5252 46.1881L15.5221 46.1852ZM9.33631 46.1124C10.1576 46.1124 10.8703 46.1124 11.4871 46.1124C11.5057 46.29 11.5274 46.4938 11.4344 46.6801C10.892 47.8593 9.46647 47.9554 8.96442 47.3906C8.45617 46.8199 8.52745 46.3773 8.75368 46.0862C8.93962 46.1037 9.13177 46.1124 9.33941 46.1124L9.33631 46.1124ZM10.3342 48.0428C7.88594 49.3908 6.58743 45.9406 8.55224 45.5912C7.16695 47.1082 9.32081 48.3863 10.3342 48.0428ZM13.173 42.8397C13.5975 43.754 13.7866 44.0772 14.4064 44.5081C12.9064 44.578 12.8909 42.5952 12.6585 42.6359C12.55 44.345 11.4933 43.4657 11.4933 43.4657C13.0676 43.1047 11.9054 41.4364 11.5955 41.3053C11.8404 41.1714 12.8847 42.2254 13.173 42.8427L13.173 42.8397Z" fill="#5B7594"/>
<rect x="195.723" y="2.92031" width="54.1571" height="192.447" transform="rotate(90 195.723 2.92031)" stroke="#5B7594" stroke-width="0.7"/>
<path d="M43.02 27.8432C42.96 27.8432 42.93 27.8192 42.93 27.7712C42.93 27.7112 42.966 27.6452 43.038 27.5732C43.086 27.5252 43.35 27.2912 43.83 26.8712C44.382 26.4152 44.658 26.1512 44.658 26.0792C44.658 25.9952 44.388 25.8932 43.848 25.7732C43.38 25.6652 42.954 25.4732 42.57 25.1972C42.186 24.9092 41.892 24.6332 41.688 24.3692C41.544 24.1892 41.472 24.0332 41.472 23.9012C41.472 23.8412 41.484 23.8112 41.508 23.8112L41.598 23.8472C41.718 23.9192 41.874 24.0032 42.066 24.0992C42.342 24.2312 42.696 24.3452 43.128 24.4412C43.572 24.5252 43.998 24.5672 44.406 24.5672C44.706 24.5672 45.066 24.5372 45.486 24.4772C45.918 24.4292 46.224 24.4052 46.404 24.4052C46.596 24.4052 46.746 24.4292 46.854 24.4772C47.082 24.5492 47.292 24.6932 47.484 24.9092C47.676 25.1252 47.772 25.3472 47.772 25.5752C47.772 25.7672 47.694 25.9052 47.538 25.9892C47.394 26.0612 47.106 26.1272 46.674 26.1872C45.546 26.3312 44.418 26.8412 43.29 27.7172C43.17 27.8012 43.08 27.8432 43.02 27.8432ZM51.714 26.9432C51.438 26.9432 51.216 26.8352 51.048 26.6192C50.76 26.3072 50.508 26.0732 50.292 25.9172C50.088 25.7492 49.824 25.6112 49.5 25.5032C49.416 25.4792 49.32 25.4552 49.212 25.4312C49.104 25.3952 49.026 25.3652 48.978 25.3412C48.93 25.3172 48.906 25.2812 48.906 25.2332C48.906 25.1612 49.05 25.1072 49.338 25.0712C49.626 25.0232 49.848 24.9992 50.004 24.9992C50.616 24.9992 51.156 25.1252 51.624 25.3772C52.092 25.6292 52.326 25.9532 52.326 26.3492C52.326 26.5412 52.26 26.6912 52.128 26.7992C52.008 26.8952 51.87 26.9432 51.714 26.9432ZM49.95 28.6712C49.662 28.6712 49.434 28.5452 49.266 28.2932C49.038 27.9692 48.804 27.7052 48.564 27.5012C48.336 27.2852 48.042 27.1112 47.682 26.9792C47.622 26.9552 47.544 26.9312 47.448 26.9072C47.364 26.8712 47.304 26.8412 47.268 26.8172C47.232 26.7812 47.214 26.7452 47.214 26.7092C47.214 26.6372 47.298 26.5892 47.466 26.5652C47.634 26.5292 47.802 26.5112 47.97 26.5112C48.678 26.5112 49.302 26.6492 49.842 26.9252C50.382 27.1892 50.652 27.5612 50.652 28.0412C50.652 28.2452 50.58 28.4012 50.436 28.5092C50.292 28.6172 50.13 28.6712 49.95 28.6712ZM44.982 36.1952C44.082 36.1952 43.248 36.1172 42.48 35.9612C41.724 35.8052 41.136 35.5412 40.716 35.1692C40.2 34.7492 39.942 34.1732 39.942 33.4412C39.942 33.1172 39.978 32.8292 40.05 32.5772C40.182 32.2292 40.296 32.0552 40.392 32.0552C40.476 32.0552 40.518 32.1452 40.518 32.3252C40.518 32.3972 40.512 32.4692 40.5 32.5412C40.488 32.6132 40.482 32.6852 40.482 32.7572C40.482 33.4652 40.926 33.9752 41.814 34.2872C42.414 34.4912 43.14 34.5932 43.992 34.5932C44.844 34.5932 45.846 34.4852 46.998 34.2692C47.646 34.1732 48.024 34.1252 48.132 34.1252C48.48 34.1252 48.756 34.2032 48.96 34.3592C49.176 34.5032 49.284 34.6952 49.284 34.9352C49.284 35.3192 48.96 35.6132 48.312 35.8172C47.952 35.9252 47.472 36.0152 46.872 36.0872C46.272 36.1592 45.642 36.1952 44.982 36.1952ZM67.158 22.0652C67.218 22.0052 67.308 21.9152 67.428 21.7952C67.548 21.6752 67.644 21.6152 67.716 21.6152C67.788 21.6152 67.944 21.7232 68.184 21.9392C68.424 22.1552 68.646 22.3892 68.85 22.6412C69.066 22.8812 69.174 23.0432 69.174 23.1272C69.09 23.1872 68.994 23.2292 68.886 23.2532C68.778 23.2772 68.616 23.2952 68.4 23.3072C67.872 23.6792 67.158 24.0812 66.258 24.5132C65.37 24.9452 64.488 25.3292 63.612 25.6652C64.044 25.9532 64.362 26.2592 64.566 26.5832C64.782 26.8952 64.89 27.1892 64.89 27.4652C64.89 27.7412 64.806 27.9452 64.638 28.0772H68.634L69.048 27.6092C69.096 27.5612 69.18 27.4712 69.3 27.3392C69.432 27.2072 69.534 27.1412 69.606 27.1412C69.678 27.1412 69.834 27.2552 70.074 27.4832C70.314 27.6992 70.542 27.9332 70.758 28.1852C70.974 28.4372 71.082 28.6052 71.082 28.6892C70.974 28.8212 70.734 28.8932 70.362 28.9052C69.894 29.4572 69.258 30.0812 68.454 30.7772C67.65 31.4612 66.894 32.0372 66.186 32.5052L65.988 32.3612C66.42 31.8572 66.882 31.2452 67.374 30.5252C67.866 29.8052 68.268 29.1572 68.58 28.5812H63.702V35.7092C63.702 36.1292 63.642 36.4712 63.522 36.7352C63.414 37.0112 63.186 37.2332 62.838 37.4012C62.502 37.5812 62.004 37.7012 61.344 37.7612C61.308 37.2812 61.14 36.9272 60.84 36.6992C60.48 36.4472 59.832 36.2552 58.896 36.1232V35.8712C60.54 35.9792 61.512 36.0332 61.812 36.0332C61.98 36.0332 62.1 36.0032 62.172 35.9432C62.244 35.8832 62.28 35.7872 62.28 35.6552V28.5812H58.05C57.198 28.5932 56.298 28.6772 55.35 28.8332L54.864 27.9332C55.524 28.0052 56.322 28.0532 57.258 28.0772H63.774C63.462 27.5492 62.934 26.9612 62.19 26.3132C61.458 25.6652 60.606 25.1012 59.634 24.6212L59.742 24.3692C61.158 24.5972 62.328 24.9572 63.252 25.4492C64.512 24.6092 65.562 23.8052 66.402 23.0372H60.048C59.196 23.0492 58.296 23.1332 57.348 23.2892L56.88 22.3712C57.54 22.4432 58.338 22.4912 59.274 22.5152H66.726L67.158 22.0652ZM74.772 24.5312C75 23.9792 75.204 23.3732 75.384 22.7132C75.564 22.0532 75.678 21.4712 75.726 20.9672C77.034 21.4592 77.688 21.7832 77.688 21.9392C77.688 21.9752 77.634 22.0172 77.526 22.0652L77.202 22.1732C76.566 23.2052 75.9 24.0872 75.204 24.8192C75.48 25.0352 75.684 25.2632 75.816 25.5032C75.96 25.7312 76.032 25.9532 76.032 26.1692C76.032 26.3732 75.978 26.5412 75.87 26.6732C75.762 26.8052 75.624 26.8712 75.456 26.8712C75.288 26.8712 75.126 26.8172 74.97 26.7092C74.862 26.3012 74.64 25.8572 74.304 25.3772C73.968 24.8972 73.614 24.4952 73.242 24.1712L73.404 24.0092C73.956 24.1532 74.412 24.3332 74.772 24.5492V24.5312ZM87.012 24.5492C87.06 24.4892 87.132 24.3992 87.228 24.2792C87.336 24.1592 87.426 24.0992 87.498 24.0992C87.57 24.0992 87.726 24.1952 87.966 24.3872C88.206 24.5672 88.428 24.7652 88.632 24.9812C88.848 25.1852 88.956 25.3292 88.956 25.4132C88.8 25.5812 88.548 25.6832 88.2 25.7192C88.128 28.8992 87.978 31.4192 87.75 33.2792C87.534 35.1272 87.21 36.3032 86.778 36.8072C86.502 37.1072 86.178 37.3292 85.806 37.4732C85.434 37.6172 84.996 37.6892 84.492 37.6892C84.492 37.1732 84.372 36.8192 84.132 36.6272C83.844 36.3872 83.16 36.1652 82.08 35.9612V35.6732C83.7 35.8292 84.66 35.9072 84.96 35.9072C85.14 35.9072 85.278 35.8892 85.374 35.8532C85.47 35.8052 85.566 35.7332 85.662 35.6372C86.274 35.0852 86.664 31.7072 86.832 25.5032H81.828C81.216 26.6912 80.562 27.6572 79.866 28.4012L79.614 28.2392C80.094 27.2912 80.52 26.2052 80.892 24.9812C81.072 24.4052 81.228 23.7392 81.36 22.9832C81.504 22.2152 81.576 21.5852 81.576 21.0932C82.344 21.3212 82.878 21.5012 83.178 21.6332C83.49 21.7652 83.646 21.8672 83.646 21.9392C83.646 21.9872 83.592 22.0352 83.484 22.0832L83.16 22.2272C82.836 23.2352 82.476 24.1532 82.08 24.9812H86.652L87.012 24.5492ZM78.426 28.5452C78.198 28.0652 77.922 27.5852 77.598 27.1052L77.796 26.9972C78.624 27.4052 79.23 27.8552 79.614 28.3472C80.01 28.8392 80.208 29.2952 80.208 29.7152C80.208 29.9552 80.148 30.1532 80.028 30.3092C79.92 30.4532 79.776 30.5252 79.596 30.5252C79.416 30.5252 79.23 30.4472 79.038 30.2912C78.978 29.9432 78.84 29.4872 78.624 28.9232L77.328 29.2472V32.9732C77.352 34.4612 77.4 35.8712 77.472 37.2032C77.376 37.3352 77.22 37.4552 77.004 37.5632C76.788 37.6712 76.536 37.7252 76.248 37.7252C76.14 37.7252 76.044 37.6892 75.96 37.6172C75.876 37.5452 75.834 37.4612 75.834 37.3652C75.882 36.6572 75.924 35.9732 75.96 35.3132C75.996 34.6412 76.02 33.7652 76.032 32.6852V29.5712L73.908 30.0392C73.824 30.2672 73.674 30.3932 73.458 30.4172L73.026 28.8872C73.41 28.8872 74.064 28.8572 74.988 28.7972C75.42 28.1012 75.858 27.3332 76.302 26.4932C76.59 25.9532 76.854 25.3712 77.094 24.7472C77.346 24.1232 77.526 23.5712 77.634 23.0912C78.882 23.6192 79.506 23.9612 79.506 24.1172C79.506 24.1652 79.452 24.2072 79.344 24.2432L79.002 24.3332C78.57 25.0172 78.042 25.7612 77.418 26.5652C76.806 27.3692 76.182 28.1012 75.546 28.7612L78.426 28.5452ZM81.828 27.8792C82.788 28.3472 83.49 28.8752 83.934 29.4632C84.39 30.0512 84.618 30.6032 84.618 31.1192C84.618 31.4072 84.552 31.6412 84.42 31.8212C84.288 32.0012 84.12 32.0912 83.916 32.0912C83.724 32.0912 83.52 32.0012 83.304 31.8212C83.268 31.2332 83.088 30.5912 82.764 29.8952C82.44 29.1992 82.068 28.5692 81.648 28.0052L81.828 27.8792ZM75.024 31.2992C75.528 31.3832 75.78 31.4792 75.78 31.5872C75.78 31.6472 75.714 31.7072 75.582 31.7672L75.276 31.9112C75.036 32.7512 74.736 33.5492 74.376 34.3052C74.016 35.0612 73.62 35.6912 73.188 36.1952L72.918 36.0512C73.038 35.7632 73.188 35.3312 73.368 34.7552C73.548 34.1792 73.692 33.5252 73.8 32.7932C73.908 32.0492 73.956 31.4312 73.944 30.9392L75.024 31.2992ZM78.03 30.9572C78.774 31.4132 79.314 31.8992 79.65 32.4152C79.998 32.9192 80.172 33.3932 80.172 33.8372C80.172 34.1132 80.106 34.3412 79.974 34.5212C79.854 34.6892 79.698 34.7732 79.506 34.7732C79.302 34.7732 79.11 34.6832 78.93 34.5032C78.882 33.9992 78.75 33.4292 78.534 32.7932C78.318 32.1452 78.078 31.5692 77.814 31.0652L78.03 30.9572ZM105.228 34.2872C105.636 34.6472 105.84 35.0012 105.84 35.3492C105.84 35.5172 105.786 35.6672 105.678 35.7992C105.582 35.9312 105.45 35.9972 105.282 35.9972C105.102 35.9972 104.922 35.9312 104.742 35.7992C104.562 35.6672 104.382 35.5232 104.202 35.3672C104.034 35.1992 103.914 35.0792 103.842 35.0072C103.59 34.7912 103.362 34.6232 103.158 34.5032C103.074 34.4432 102.948 34.3652 102.78 34.2692C102.66 35.7692 101.796 36.5192 100.188 36.5192C99.396 36.5192 98.73 36.3392 98.19 35.9792C97.65 35.6192 97.38 35.1332 97.38 34.5212C97.38 34.0532 97.56 33.6812 97.92 33.4052C98.292 33.1172 98.724 32.9192 99.216 32.8112C99.708 32.6912 100.164 32.6312 100.584 32.6312C100.884 32.6312 101.184 32.6492 101.484 32.6852L101.376 28.1312C101.28 28.1552 101.112 28.1792 100.872 28.2032C100.644 28.2032 100.476 28.1972 100.368 28.1852C99.828 28.1372 99.378 27.9932 99.018 27.7532C98.67 27.5012 98.352 27.1232 98.064 26.6192C98.016 26.5232 97.992 26.4452 97.992 26.3852C97.992 26.3012 98.022 26.2592 98.082 26.2592C98.118 26.2592 98.172 26.2892 98.244 26.3492C98.328 26.3972 98.382 26.4332 98.406 26.4572C98.574 26.6132 98.79 26.7572 99.054 26.8892C99.33 27.0092 99.636 27.0692 99.972 27.0692C100.308 27.0692 100.77 27.0032 101.358 26.8712C101.346 26.4152 101.34 25.8212 101.34 25.0892C101.328 24.7532 101.244 24.3932 101.088 24.0092C101.076 23.7572 101.016 23.5772 100.908 23.4692C100.8 23.3492 100.656 23.2352 100.476 23.1272C100.452 23.1032 100.44 23.0852 100.44 23.0732C100.44 23.0372 100.458 23.0012 100.494 22.9652C100.542 22.9292 100.59 22.9052 100.638 22.8932C100.71 22.8692 100.788 22.8572 100.872 22.8572C101.1 22.8572 101.424 22.9172 101.844 23.0372C102.108 23.0732 102.324 23.1812 102.492 23.3612C102.672 23.5412 102.762 23.7332 102.762 23.9372C102.762 24.0332 102.732 24.2012 102.672 24.4412C102.66 24.5372 102.63 24.6932 102.582 24.9092C103.026 25.2692 103.428 25.4972 103.788 25.5932C103.896 25.6172 104.046 25.6412 104.238 25.6652C104.466 25.7132 104.622 25.7552 104.706 25.7912C104.79 25.8272 104.85 25.9112 104.886 26.0432C104.91 26.1032 104.922 26.1812 104.922 26.2772C104.922 26.6012 104.658 26.9012 104.13 27.1772C104.082 27.2012 103.878 27.2972 103.518 27.4652C103.17 27.6212 102.774 27.7652 102.33 27.8972V28.1492C102.33 29.2292 102.432 30.5072 102.636 31.9832L102.744 32.9552C103.752 33.2552 104.58 33.6992 105.228 34.2872ZM96.12 27.5192C96.156 27.5192 96.174 27.5492 96.174 27.6092C96.174 27.6332 96.156 27.7112 96.12 27.8432C95.724 28.9592 95.358 30.0932 95.022 31.2452C94.698 32.3972 94.536 33.2072 94.536 33.6752C94.536 33.9392 94.596 34.3472 94.716 34.8992C94.812 35.3792 94.86 35.6792 94.86 35.7992C94.86 35.9792 94.812 36.1352 94.716 36.2672C94.632 36.3992 94.506 36.4652 94.338 36.4652C94.11 36.4652 93.912 36.3872 93.744 36.2312C93.588 36.0632 93.42 35.8412 93.24 35.5652C92.76 34.8092 92.52 33.7292 92.52 32.3252C92.52 31.6532 92.58 30.8732 92.7 29.9852C92.82 29.0972 92.976 28.2092 93.168 27.3212L93.33 26.6372C93.426 26.2292 93.498 25.8932 93.546 25.6292C93.594 25.3532 93.618 25.0832 93.618 24.8192C93.618 24.5072 93.588 24.2552 93.528 24.0632C93.468 23.8592 93.354 23.6132 93.186 23.3252C93.138 23.2292 93.114 23.1692 93.114 23.1452C93.114 23.1092 93.126 23.0732 93.15 23.0372C93.186 23.0012 93.228 22.9832 93.276 22.9832C93.348 22.9832 93.462 23.0372 93.618 23.1452C94.566 23.9492 95.04 24.7052 95.04 25.4132C95.04 25.6412 94.992 25.8872 94.896 26.1512C94.812 26.4152 94.68 26.7332 94.5 27.1052C94.464 27.1892 94.416 27.2972 94.356 27.4292C94.296 27.5492 94.236 27.6932 94.176 27.8612C93.72 29.0132 93.492 30.1772 93.492 31.3532C93.492 31.5932 93.51 31.8272 93.546 32.0552C93.582 32.2712 93.648 32.3792 93.744 32.3792C93.84 32.3792 93.966 32.2172 94.122 31.8932C94.29 31.5572 94.518 31.0292 94.806 30.3092C95.31 29.0972 95.688 28.2272 95.94 27.6992C95.988 27.5792 96.048 27.5192 96.12 27.5192ZM102.528 25.2332C102.468 25.5212 102.42 25.9772 102.384 26.6012C103.032 26.3972 103.356 26.2112 103.356 26.0432C103.356 25.9592 103.23 25.8152 102.978 25.6112C102.726 25.4072 102.576 25.2812 102.528 25.2332ZM99.882 35.5472C100.362 35.5472 100.746 35.4212 101.034 35.1692C101.334 34.9172 101.49 34.4372 101.502 33.7292C100.986 33.5852 100.476 33.5132 99.972 33.5132C99.48 33.5132 99.036 33.5792 98.64 33.7112C98.256 33.8432 98.064 34.0832 98.064 34.4312C98.064 34.8032 98.262 35.0852 98.658 35.2772C99.066 35.4572 99.474 35.5472 99.882 35.5472ZM115.398 27.8432C115.338 27.8432 115.308 27.8192 115.308 27.7712C115.308 27.7112 115.344 27.6452 115.416 27.5732C115.464 27.5252 115.728 27.2912 116.208 26.8712C116.76 26.4152 117.036 26.1512 117.036 26.0792C117.036 25.9952 116.766 25.8932 116.226 25.7732C115.758 25.6652 115.332 25.4732 114.948 25.1972C114.564 24.9092 114.27 24.6332 114.066 24.3692C113.922 24.1892 113.85 24.0332 113.85 23.9012C113.85 23.8412 113.862 23.8112 113.886 23.8112L113.976 23.8472C114.096 23.9192 114.252 24.0032 114.444 24.0992C114.708 24.2312 115.062 24.3452 115.506 24.4412C115.95 24.5252 116.376 24.5672 116.784 24.5672C117.084 24.5672 117.444 24.5372 117.864 24.4772C118.296 24.4292 118.602 24.4052 118.782 24.4052C118.974 24.4052 119.124 24.4292 119.232 24.4772C119.46 24.5492 119.67 24.6932 119.862 24.9092C120.054 25.1252 120.15 25.3472 120.15 25.5752C120.15 25.7672 120.072 25.9052 119.916 25.9892C119.772 26.0612 119.484 26.1272 119.052 26.1872C117.924 26.3312 116.796 26.8412 115.668 27.7172C115.548 27.8012 115.458 27.8432 115.398 27.8432ZM117.36 36.1952C116.46 36.1952 115.626 36.1172 114.858 35.9612C114.102 35.8052 113.514 35.5412 113.094 35.1692C112.578 34.7492 112.32 34.1732 112.32 33.4412C112.32 33.1172 112.356 32.8292 112.428 32.5772C112.56 32.2292 112.674 32.0552 112.77 32.0552C112.854 32.0552 112.896 32.1452 112.896 32.3252C112.896 32.3972 112.89 32.4692 112.878 32.5412C112.866 32.6132 112.86 32.6852 112.86 32.7572C112.86 33.4652 113.304 33.9752 114.192 34.2872C114.792 34.4912 115.518 34.5932 116.37 34.5932C117.222 34.5932 118.224 34.4852 119.376 34.2692C120.024 34.1732 120.402 34.1252 120.51 34.1252C120.858 34.1252 121.134 34.2032 121.338 34.3592C121.554 34.5032 121.662 34.6952 121.662 34.9352C121.662 35.3192 121.338 35.6132 120.69 35.8172C120.33 35.9252 119.85 36.0152 119.25 36.0872C118.65 36.1592 118.02 36.1952 117.36 36.1952ZM136.8 29.5532C137.724 29.5532 138.474 29.8412 139.05 30.4172C139.626 30.9812 139.914 31.7492 139.914 32.7212C139.914 34.0172 139.35 35.0732 138.222 35.8892C137.106 36.6932 135.372 37.1672 133.02 37.3112H132.912C132.756 37.3112 132.678 37.2752 132.678 37.2032C132.678 37.1312 132.774 37.0832 132.966 37.0592C134.646 36.8552 135.984 36.3572 136.98 35.5652C137.976 34.7732 138.474 33.7412 138.474 32.4692C138.474 31.7972 138.312 31.2572 137.988 30.8492C137.676 30.4292 137.22 30.2192 136.62 30.2192C136.116 30.2192 135.636 30.3692 135.18 30.6692C134.724 30.9572 134.334 31.3112 134.01 31.7312C133.686 32.1512 133.446 32.5412 133.29 32.9012C133.098 33.3212 132.858 33.5312 132.57 33.5312C132.366 33.5312 132.18 33.4292 132.012 33.2252C131.64 32.7812 131.454 32.1212 131.454 31.2452C131.454 30.5372 131.658 29.0432 132.066 26.7632L132.156 26.2952C131.448 26.2712 130.848 26.1272 130.356 25.8632C129.864 25.5872 129.48 25.1672 129.204 24.6032C129.156 24.4832 129.132 24.4112 129.132 24.3872C129.132 24.3392 129.144 24.3032 129.168 24.2792C129.192 24.2432 129.222 24.2252 129.258 24.2252C129.318 24.2252 129.432 24.2912 129.6 24.4232C130.26 24.9392 130.986 25.1972 131.778 25.1972C132.018 25.1972 132.204 25.1912 132.336 25.1792C132.504 24.0632 132.588 23.3792 132.588 23.1272C132.588 22.9112 132.54 22.7312 132.444 22.5872C132.36 22.4432 132.222 22.3112 132.03 22.1912C131.994 22.1672 131.934 22.1312 131.85 22.0832C131.766 22.0232 131.724 21.9632 131.724 21.9032C131.724 21.8192 131.844 21.7472 132.084 21.6872C132.324 21.6272 132.558 21.5972 132.786 21.5972C133.17 21.5972 133.494 21.6632 133.758 21.7952C134.034 21.9272 134.172 22.1372 134.172 22.4252C134.172 22.5572 134.076 22.8812 133.884 23.3972C134.532 23.7572 135.048 23.9552 135.432 23.9912C135.492 23.9912 135.612 23.9972 135.792 24.0092C135.972 24.0212 136.11 24.0392 136.206 24.0632C136.302 24.0872 136.374 24.1232 136.422 24.1712C136.566 24.2312 136.638 24.3392 136.638 24.4952C136.638 24.6992 136.518 24.9332 136.278 25.1972C136.038 25.4612 135.726 25.6712 135.342 25.8272C135.09 25.9232 134.76 26.0132 134.352 26.0972C133.944 26.1812 133.512 26.2412 133.056 26.2772C132.78 27.7412 132.642 28.9472 132.642 29.8952C132.642 30.7592 132.744 31.1912 132.948 31.1912C133.032 31.1912 133.188 31.1072 133.416 30.9392C133.848 30.5672 134.376 30.2432 135 29.9672C135.636 29.6912 136.236 29.5532 136.8 29.5532ZM133.776 23.7032C133.536 24.3272 133.38 24.7832 133.308 25.0712C133.848 24.9992 134.28 24.8852 134.604 24.7292C134.676 24.6932 134.736 24.6572 134.784 24.6212C134.832 24.5852 134.856 24.5492 134.856 24.5132C134.856 24.4892 134.826 24.4352 134.766 24.3512C134.658 24.2552 134.508 24.1472 134.316 24.0272C134.124 23.8952 133.944 23.7872 133.776 23.7032ZM150.39 36.9692C150.234 36.9692 150.156 36.9332 150.156 36.8612C150.156 36.8012 150.18 36.7592 150.228 36.7352C150.288 36.7112 150.348 36.6932 150.408 36.6812C150.48 36.6692 150.528 36.6632 150.552 36.6632C152.448 36.3512 153.876 35.8292 154.836 35.0972C155.808 34.3532 156.294 33.4172 156.294 32.2892C156.294 31.6412 156.144 31.1252 155.844 30.7412C155.556 30.3452 155.142 30.1472 154.602 30.1472C154.038 30.1472 153.54 30.3692 153.108 30.8132C152.676 31.2452 152.196 31.9052 151.668 32.7932C151.56 32.9972 151.398 33.1712 151.182 33.3152C150.966 33.4592 150.78 33.5312 150.624 33.5312C150.048 33.5312 149.604 33.3572 149.292 33.0092C148.992 32.6612 148.842 32.1632 148.842 31.5152C148.842 31.1312 148.866 30.5612 148.914 29.8052C148.974 29.0492 149.016 28.5152 149.04 28.2032C149.112 27.5312 149.148 27.0632 149.148 26.7992C149.148 26.6192 149.13 26.4452 149.094 26.2772C149.07 26.1092 149.058 25.9832 149.058 25.8992C149.058 25.6472 149.13 25.4372 149.274 25.2692C149.418 25.0892 149.646 24.8852 149.958 24.6572C150.21 24.4652 150.66 24.2192 151.308 23.9192C151.644 23.7752 151.878 23.6672 152.01 23.5952C152.154 23.5112 152.226 23.4212 152.226 23.3252C152.226 23.1932 152.118 23.0312 151.902 22.8392C151.686 22.6472 151.44 22.4732 151.164 22.3172C151.128 22.2932 151.074 22.2692 151.002 22.2452C150.942 22.2092 150.912 22.1732 150.912 22.1372C150.912 22.1012 150.984 22.0772 151.128 22.0652C151.272 22.0412 151.392 22.0292 151.488 22.0292C152.004 22.0292 152.46 22.1312 152.856 22.3352C153.252 22.5272 153.594 22.8692 153.882 23.3612C154.002 23.5652 154.062 23.7752 154.062 23.9912C154.062 24.2312 153.99 24.4352 153.846 24.6032C153.702 24.7712 153.54 24.8552 153.36 24.8552C153.264 24.8552 153.174 24.8372 153.09 24.8012C153.006 24.7532 152.922 24.6992 152.838 24.6392C152.67 24.5312 152.52 24.4472 152.388 24.3872C152.256 24.3272 152.088 24.2972 151.884 24.2972C151.404 24.2972 150.9 24.4712 150.372 24.8192C150.24 24.8912 150.138 24.9992 150.066 25.1432C149.994 25.2752 149.958 25.4012 149.958 25.5212C149.958 25.6172 149.976 25.7132 150.012 25.8092C150.06 25.8932 150.09 25.9472 150.102 25.9712C150.246 26.2352 150.318 26.4812 150.318 26.7092C150.318 26.8652 150.276 27.2612 150.192 27.8972C150.024 28.9772 149.94 29.7872 149.94 30.3272C149.94 30.6512 149.982 30.9632 150.066 31.2632C150.162 31.5512 150.288 31.6952 150.444 31.6952C150.612 31.6952 150.966 31.4972 151.506 31.1012C152.118 30.6572 152.682 30.3032 153.198 30.0392C153.726 29.7752 154.284 29.6432 154.872 29.6432C155.4 29.6432 155.892 29.7872 156.348 30.0752C156.804 30.3512 157.164 30.7292 157.428 31.2092C157.692 31.6772 157.824 32.1812 157.824 32.7212C157.824 33.2732 157.686 33.8072 157.41 34.3232C157.134 34.8272 156.474 35.3252 155.43 35.8172C154.398 36.3092 152.85 36.6812 150.786 36.9332C150.63 36.9572 150.498 36.9692 150.39 36.9692Z" fill="#5B7594"/>
</svg>
