<svg width="41" height="73" viewBox="0 0 41 73" fill="none" xmlns="http://www.w3.org/2000/svg">
<path d="M15.8655 13.7773C15.8031 13.7592 15.7466 13.7169 15.705 13.6596L15.6723 13.6114C15.5059 13.364 15.3335 13.1106 15.2591 12.818C15.0659 12.0458 15.387 11.2917 15.7615 10.423C16.2222 9.34917 16.7454 8.13054 16.5165 6.46247C16.4987 6.3207 16.5789 6.18496 16.7097 6.1367C16.8405 6.08844 16.9891 6.13972 17.0635 6.26037C17.5599 7.06877 18.6983 8.54379 20.7226 9.34917C22.5151 10.0641 24.15 9.90117 25.0477 9.71114C25.2825 9.23756 26.2099 7.97369 29.8156 6.22719C31.4267 5.44896 31.4297 5.09302 31.4297 5.09001C31.388 4.89394 30.419 4.64961 29.2835 4.63453C29.12 4.63453 28.9892 4.49578 28.9892 4.32987C28.9892 4.16397 29.126 4.03125 29.2894 4.03125C30.0474 4.0403 31.8339 4.14587 32.0093 4.95729C32.1282 5.50627 31.5307 6.06431 30.0712 6.77015C25.984 8.74891 25.553 10.0369 25.547 10.049C25.5173 10.1515 25.4311 10.239 25.3271 10.2631C24.4026 10.4803 22.5478 10.7186 20.5027 9.90721C18.9183 9.27678 17.8393 8.26628 17.1586 7.42772C17.1229 8.74589 16.677 9.78655 16.3025 10.6583C15.9607 11.4576 15.6872 12.0911 15.8328 12.6642C15.8804 12.8512 16.0171 13.0533 16.1598 13.2645L16.1925 13.3127C16.2847 13.4515 16.252 13.6385 16.1152 13.732C16.0379 13.7863 15.9458 13.7984 15.8626 13.7712L15.8655 13.7773Z" fill="#18212B"/>
<path d="M23.7292 21.3693C23.5984 21.3301 23.5093 21.2004 23.5182 21.0586C23.5301 20.9017 23.6549 20.7811 23.8095 20.7781C26.571 20.7238 29.7129 15.5054 31.2259 12.9958C32.0701 11.5961 32.192 11.4182 32.4328 11.388C32.5249 11.379 32.6349 11.4182 32.7003 11.4845C33.2116 12.0124 32.3347 15.8553 30.5304 18.8657C28.5685 22.1355 23.9641 21.4115 23.7679 21.3783C23.756 21.3783 23.7411 21.3723 23.7292 21.3693ZM32.2336 12.486C32.082 12.7273 31.9066 13.0229 31.7313 13.3125C30.3669 15.5778 28.0483 19.4267 25.5781 20.8414C27.0109 20.7539 28.9787 20.2924 30.0221 18.555C31.4459 16.1781 32.0909 13.6533 32.2366 12.489L32.2336 12.486Z" fill="#18212B"/>
<path d="M30.8416 14.3499C30.7614 14.3257 30.693 14.2684 30.6544 14.184C28.9808 10.3561 31.1448 5.5872 31.24 5.3851C31.3083 5.23428 31.4837 5.16792 31.6353 5.24031C31.7839 5.30969 31.8493 5.49067 31.778 5.64149C31.7572 5.68976 29.6378 10.3652 31.1983 13.9396C31.2637 14.0904 31.1983 14.2714 31.0467 14.3378C30.9784 14.368 30.907 14.371 30.8416 14.3499Z" fill="#18212B"/>
<path d="M19.391 21.4267C18.6687 21.2065 18.0445 20.8084 17.7026 20.1357C17.6283 19.9879 17.6848 19.8069 17.8304 19.7285C17.9761 19.6531 18.1544 19.7104 18.2317 19.8582C19.2364 21.8339 23.6982 20.7993 23.7458 20.7872C23.9063 20.748 24.0668 20.8506 24.1025 21.0105C24.1411 21.1733 24.04 21.3362 23.8795 21.3724C23.7339 21.4056 21.2369 21.9848 19.391 21.4207V21.4267Z" fill="#18212B"/>
<path d="M22.7925 23.7634C22.0315 23.5311 21.2497 22.7951 20.4144 21.5313C20.3223 21.3925 20.358 21.2055 20.4947 21.112C20.6314 21.0185 20.8157 21.0547 20.9079 21.1934C21.8115 22.5598 22.626 23.2446 23.3305 23.2385C24.1925 23.2265 24.8554 22.1677 25.3904 21.3171C25.4588 21.2085 25.5242 21.1029 25.5896 21.0034C25.6788 20.8646 25.8631 20.8254 25.9998 20.9159C26.1365 21.0064 26.1752 21.1934 26.086 21.3322C26.0236 21.4287 25.9582 21.5343 25.8898 21.6398C25.3102 22.5629 24.5195 23.8267 23.3364 23.8418C23.1551 23.8418 22.9738 23.8177 22.7895 23.7604L22.7925 23.7634Z" fill="#18212B"/>
<path d="M21.2027 6.13978C19.764 5.69939 18.2183 4.84575 17.2908 3.19577C17.2106 3.05099 17.2581 2.86698 17.4008 2.78554C17.5435 2.7041 17.7248 2.75236 17.8051 2.89715C19.3092 5.5727 22.677 5.94975 24.0563 5.98896C26.1995 6.04929 27.7511 5.50332 28.0038 5.10516C28.093 4.9664 28.2743 4.92417 28.414 5.01466C28.5507 5.10516 28.5924 5.29217 28.5032 5.43093C28.0454 6.15185 26.1252 6.64956 24.0385 6.59224C23.3904 6.57415 22.3263 6.48365 21.1997 6.13978H21.2027Z" fill="#18212B"/>
<path d="M25.0538 10.2272C23.0889 9.62698 19.6675 7.28022 19.3584 7.06907C19.1057 6.93936 16.8496 5.76296 16.5345 4.32716C16.4988 4.16427 16.5999 4.0044 16.7604 3.9682C16.9209 3.93201 17.0785 4.03456 17.1141 4.19745C17.3371 5.20191 19.0136 6.23051 19.6408 6.5412C19.6527 6.54723 19.6675 6.55628 19.6765 6.56231C19.7151 6.58946 23.4575 9.16849 25.3391 9.68731C25.4937 9.72652 25.5918 9.89544 25.5502 10.0583C25.5085 10.2182 25.3451 10.3147 25.1845 10.2695C25.1429 10.2574 25.0983 10.2453 25.0538 10.2303V10.2272Z" fill="#18212B"/>
<path d="M18.5808 4.72371C18.4797 4.69355 18.3994 4.60909 18.3757 4.5005C18.3222 4.25315 18.0814 2.99531 18.5867 2.48554C18.7026 2.3679 18.8929 2.37092 19.0058 2.48554C19.1218 2.60318 19.1188 2.79623 19.0058 2.91085C18.8097 3.10692 18.8513 3.88214 18.9583 4.36476C18.994 4.52765 18.8929 4.68752 18.7324 4.72371C18.6818 4.73578 18.6313 4.73276 18.5837 4.71768L18.5808 4.72371Z" fill="#18212B"/>
<path d="M17.8817 20.2873C17.8817 20.2873 17.8668 20.2813 17.8579 20.2783C17.7985 20.2541 16.3865 19.6689 15.3343 17.0567C14.9211 16.0312 15.04 15.3193 15.147 14.6919C15.2599 14.0222 15.358 13.4491 14.7457 12.5532C13.9639 11.6725 13.3843 11.0752 13.3694 11.0601C13.2565 10.9455 13.2535 10.7585 13.3664 10.6408C13.4764 10.5232 13.6607 10.5142 13.7796 10.6227C14.4157 11.1989 14.8616 11.6936 15.1737 12.1279C16.0596 13.1233 17.2069 14.4807 18.0987 15.7868C17.9679 15.262 17.8133 14.7432 17.6736 14.2696C17.1951 12.6528 16.88 11.585 17.5934 11.3226C18.4524 11.0088 19.4601 12.8096 21.3179 16.2906C22.2275 17.9979 23.1669 19.7594 23.9219 20.7368C25.8005 20.1305 27.0787 18.6223 27.4443 16.5741C27.8783 14.1429 26.9301 11.588 25.0901 10.2216C20.8513 7.07546 20.6313 7.08149 19.7039 7.10864C19.1539 7.12372 18.4019 7.14483 16.7432 6.7165C15.0935 6.29119 14.3979 5.86889 14.4128 5.30483C14.4336 4.51151 16.0714 4.1043 16.773 3.96554H16.7759C16.8175 3.88108 16.874 3.76344 16.9246 3.65485C17.4626 2.49052 18.7259 -0.239325 22.1532 0.113595C22.2156 0.119627 22.2751 0.12566 22.3375 0.134709C22.9944 -0.00706163 26.609 -0.242341 28.4223 0.689728C29.4775 1.23268 29.745 2.75898 29.6559 3.9022C29.6261 4.28227 29.4775 5.54011 28.8057 5.7603C28.6512 5.81158 28.345 5.83873 28.0329 5.4647C27.7891 5.17211 27.5662 4.79204 27.3284 4.39086C26.5169 3.02141 25.5062 1.31714 22.7566 0.810384C22.6377 0.789269 22.5129 0.768154 22.3881 0.750056C20.6848 1.4016 19.7336 3.9203 19.8674 5.06351C19.8882 5.22942 19.7693 5.38024 19.6058 5.39834C19.4423 5.41643 19.2937 5.29879 19.2758 5.13289C19.1331 3.90823 19.9268 1.78468 21.3061 0.692744C18.8864 0.831499 17.9412 2.87662 17.4626 3.90823C17.2456 4.37577 17.1475 4.58692 16.8978 4.59899C16.8681 4.59899 16.8235 4.59899 16.767 4.57787C15.8069 4.78299 15.043 5.13591 15.0103 5.31689C15.0103 5.31689 15.0965 5.66076 16.8919 6.12529C18.4732 6.5325 19.1777 6.51139 19.692 6.49932C20.8305 6.46614 21.1812 6.56267 25.4468 9.72989C27.4681 11.229 28.5085 14.0222 28.0358 16.6767C27.6167 19.0295 26.1097 20.7398 23.904 21.3702C23.7911 21.4034 23.6722 21.3642 23.5949 21.2737C22.7834 20.2903 21.7757 18.4021 20.8037 16.5741C19.8079 14.707 18.3098 11.8866 17.7985 11.8896C17.6588 12.0797 18.0184 13.2923 18.2533 14.0946C18.5386 15.0569 18.8716 16.185 18.9905 17.2438C18.9994 17.2769 19.0024 17.3101 18.9994 17.3433C19.1153 18.5106 18.9578 19.5815 18.1641 20.233C18.0868 20.2964 17.9857 20.3145 17.8906 20.2873H17.8817ZM15.8277 13.8111C15.8426 14.155 15.7891 14.4717 15.7355 14.7944C15.6345 15.3947 15.5364 15.9648 15.8871 16.8275C16.6422 18.7007 17.5607 19.4125 17.9233 19.6327C18.3989 19.126 18.494 18.3176 18.4049 17.4127C17.8015 16.2876 16.7908 14.9603 15.8307 13.8081L15.8277 13.8111ZM24.2518 0.611301C26.2553 1.41366 27.1471 2.92187 27.8337 4.08017C28.0685 4.47833 28.2707 4.81919 28.4847 5.07558C28.5709 5.18115 28.6185 5.18719 28.6214 5.18719C28.6928 5.17512 28.9127 4.87951 29.0197 4.21289C29.2011 3.0757 28.9603 1.64593 28.1518 1.22966C27.1679 0.722908 25.527 0.605268 24.2548 0.614318L24.2518 0.611301Z" fill="#18212B"/>
<path d="M24.5818 6.57797C24.5075 6.55384 24.4392 6.50256 24.4035 6.42413C24.4035 6.42413 24.1419 5.92643 23.1164 4.8194C22.9648 4.6535 22.2484 4.48157 21.8412 4.61127C21.6628 4.66858 21.4755 4.66858 21.3121 4.6716C21.1991 4.6716 21.0475 4.6716 20.9999 4.70177C20.8602 4.78924 20.6759 4.74399 20.5897 4.60222C20.5035 4.46045 20.5451 4.27344 20.6849 4.18596C20.8721 4.06832 21.0921 4.0653 21.3031 4.0653C21.431 4.0653 21.5647 4.0653 21.6598 4.03212C22.2395 3.84812 23.2056 4.03816 23.5444 4.40314C24.6472 5.5916 24.9177 6.12551 24.9296 6.14964C25.0039 6.29744 24.9445 6.47843 24.7988 6.55384C24.7275 6.59003 24.6502 6.59607 24.5789 6.57495L24.5818 6.57797Z" fill="#18212B"/>
<path d="M20.5864 5.93248C20.4645 5.89628 20.3754 5.78165 20.3754 5.64592C20.3516 3.78178 21.4693 2.67174 22.5186 2.43043C23.7195 2.15292 26.3085 2.86178 27.1468 5.8269C27.1795 5.93851 27.1438 6.05916 27.0576 6.13759C26.9714 6.213 26.8466 6.23412 26.7425 6.18585L25.6932 5.72133C25.5565 5.661 25.4406 5.57654 25.3395 5.50113C25.1938 5.39254 25.1047 5.33221 25.0185 5.34428C24.7182 5.38349 24.2486 5.62782 24.091 5.72133C23.9483 5.80579 23.767 5.75451 23.6868 5.60972C23.6065 5.46493 23.6541 5.28093 23.7967 5.19949C23.8651 5.16028 24.4745 4.81339 24.9412 4.75004C25.2681 4.7048 25.503 4.87673 25.6902 5.01549C25.7735 5.07582 25.8537 5.13614 25.931 5.16932L26.3531 5.35634C25.4108 3.15738 23.3598 2.85574 22.6523 3.02165C22.0608 3.15738 20.9491 3.88132 20.9699 5.6429C20.9699 5.8088 20.8391 5.94756 20.6756 5.94756C20.6429 5.94756 20.6132 5.94454 20.5864 5.93549V5.93248Z" fill="#18212B"/>
<path d="M24.3732 72.9888C24.2454 72.9496 24.1562 72.8289 24.1621 72.6871C24.3227 68.4461 24.4832 65.7283 24.6378 64.6092C25.1282 61.0408 24.0462 50.9992 23.4071 46.185C23.0266 43.3164 23.2199 24.3493 23.2288 23.5409C23.2288 23.375 23.3655 23.2392 23.529 23.2422C23.6925 23.2422 23.8263 23.381 23.8233 23.5469C23.8233 23.743 23.6211 43.2772 23.9987 46.1036C24.0165 46.2423 25.8535 60.151 25.2293 64.6907C25.0777 65.7886 24.9201 68.4883 24.7596 72.7082C24.7537 72.8741 24.614 73.0039 24.4505 72.9978C24.4237 72.9978 24.4 72.9918 24.3762 72.9858L24.3732 72.9888Z" fill="#18212B"/>
<path d="M23.5741 44.4823C23.5592 44.4762 23.5444 44.4702 23.5266 44.4642C23.3809 44.3918 23.3185 44.2108 23.3928 44.06C24.9147 40.9229 25.8362 39.469 26.9509 39.7043C28.027 39.9275 30.405 43.2304 30.7587 44.3284C30.8092 44.4883 30.723 44.6572 30.5685 44.7085C30.4139 44.7598 30.2445 44.6753 30.1939 44.5154C29.8402 43.4205 27.5603 40.4493 26.832 40.2955C26.0383 40.1296 24.9147 42.2893 23.9249 44.3284C23.8595 44.4611 23.7108 44.5245 23.5741 44.4853V44.4823Z" fill="#18212B"/>
<path d="M27.4538 46.1452C26.9871 46.0034 26.6007 45.738 26.3005 45.3519C25.4147 44.2086 25.5336 42.3143 25.7327 41.1138C25.6673 41.1802 25.6228 41.2194 25.6138 41.2254C25.492 41.337 25.3047 41.328 25.1947 41.2013C25.0847 41.0776 25.0966 40.8876 25.2185 40.776C25.2304 40.7669 26.3748 39.7112 26.8237 38.4745C27.8076 36.1398 28.9906 35.9799 29.814 36.2574C31.8859 36.9512 33.6099 41.2435 33.2146 42.9418C33.2057 42.984 33.1878 43.0202 33.1611 43.0534C33.1076 43.1258 33.0481 43.2012 32.9916 43.2736C32.4863 43.9281 32.0077 44.5435 32.2931 45.7259C32.3198 45.8315 32.2871 45.9431 32.2069 46.0185C32.1296 46.0909 32.0196 46.118 31.9186 46.0879H31.9156C30.9267 45.7721 30.2817 45.6776 29.9805 45.8043C29.7219 45.9129 29.3295 46.0758 28.5864 46.2568C28.5685 46.2598 28.5507 46.2628 28.5299 46.2658C28.1316 46.2839 27.7719 46.2447 27.4509 46.1452H27.4538ZM26.5413 40.1878C26.2767 41.1198 25.813 43.7441 26.7701 44.9778C27.1506 45.4695 27.7095 45.6927 28.4793 45.6625C29.1571 45.4966 29.5019 45.3519 29.7546 45.2463C30.3342 45.002 30.5007 45.011 31.6302 45.3639C31.5202 44.2056 32.0702 43.4907 32.525 42.9025C32.5666 42.8482 32.6082 42.794 32.6498 42.7427C32.9322 41.2526 31.3597 37.4097 29.6297 36.8305C29.6178 36.8275 29.6059 36.8215 29.594 36.8185C28.7588 36.5621 28.0127 37.1955 27.3765 38.6977C27.1744 39.2527 26.8534 39.7685 26.5383 40.1878H26.5413Z" fill="#18212B"/>
<path d="M28.3181 37.0162C28.1635 36.9679 28.0743 36.8051 28.1189 36.6452C28.1219 36.6331 28.437 35.4959 28.3448 34.8203C27.7771 30.6094 34.168 26.0576 37.842 25.1949C38.0025 25.1587 38.1631 25.2583 38.1987 25.4212C38.2344 25.584 38.1363 25.7439 37.9758 25.7831C34.1442 26.685 28.4518 31.1493 28.9334 34.7388C29.0404 35.5412 28.7045 36.7568 28.6896 36.8081C28.645 36.9679 28.4816 37.0615 28.324 37.0162H28.3181Z" fill="#18212B"/>
<path d="M28.554 35.0733C28.4797 35.0521 28.4173 35.0009 28.3816 34.9315C27.7395 33.7762 26.8834 31.2273 28.2359 29.8579C28.8215 29.2667 28.8423 28.5669 28.8631 27.9485C28.878 27.4599 28.8929 27.0014 29.202 26.6937C29.315 26.5821 29.416 26.4705 29.5141 26.3649C29.8887 25.9607 30.2454 25.5746 30.7953 25.5414C30.8131 25.4992 30.8339 25.4208 30.8488 25.3604C30.9677 24.914 31.1847 24.0966 32.7334 24.0634C33.8124 23.0257 36.2261 23.3787 38.176 23.6622C38.9311 23.7708 39.8674 23.9096 40.0695 23.816C40.3549 23.5295 40.6522 23.2369 40.9019 23.4963C41.0921 23.6924 41.0802 23.8703 40.1974 25.1161C39.8109 25.6621 39.2759 26.3709 39.0173 26.6304C38.8597 26.7902 38.5922 26.9652 38.2533 27.1854C37.3408 27.7826 35.9615 28.6815 35.8307 29.9122C35.697 31.1912 33.6251 32.3736 30.932 33.7822C30.0016 34.2709 29.1217 34.7294 28.8512 35.0009C28.7858 35.0672 28.6937 35.0974 28.6016 35.0853C28.5867 35.0853 28.5718 35.0793 28.557 35.0763L28.554 35.0733ZM39.9358 24.4435C39.5464 24.4646 38.9638 24.3861 38.0869 24.2595C36.4163 24.0151 33.8897 23.6471 33.0752 24.5641C33.0187 24.6275 32.9385 24.6637 32.8523 24.6637C31.6454 24.6546 31.5235 25.1131 31.4165 25.5143C31.3511 25.7586 31.256 26.1236 30.8458 26.1387C30.5367 26.1507 30.3226 26.3649 29.9422 26.7751C29.8411 26.8837 29.7341 27.0014 29.6152 27.119C29.4755 27.2578 29.4666 27.5866 29.4547 27.9666C29.4339 28.6242 29.4041 29.5231 28.6551 30.2832C27.7276 31.2213 28.1705 33.1307 28.7353 34.3192C29.1604 34.0236 29.8411 33.6676 30.6556 33.2423C32.4361 32.3102 35.1262 30.9046 35.2362 29.8458C35.3938 28.3286 36.9187 27.3362 37.9264 26.6756C38.2236 26.4825 38.4792 26.3136 38.5952 26.199C38.8627 25.9305 39.4929 25.089 39.9358 24.4435Z" fill="#18212B"/>
<path d="M11.6695 61.3107C11.5417 61.2715 11.4287 61.1569 11.4138 60.9669C11.396 60.7497 11.5149 60.4571 11.8062 60.255C11.9132 59.7512 12.0232 58.786 11.9727 56.9882C11.8805 53.646 13.2301 52.2313 14.3804 51.6311C15.7121 50.9373 17.3024 51.1032 17.8553 51.5315C18.0604 51.6914 18.316 51.7759 18.5836 51.8694C19.2494 52.0956 20.0758 52.3761 20.4087 53.9175C20.8159 54.2131 22.3171 55.3684 22.8789 56.7198C23.0959 57.2446 22.8997 57.8781 22.326 58.5025C21.1162 59.8206 18.5033 60.8583 16.7049 60.2308C15.1652 59.6969 14.6063 59.9352 13.8959 60.2308C13.5184 60.3877 13.0933 60.5657 12.4929 60.6381C12.4245 60.6471 12.3621 60.6592 12.3115 60.6773C12.1926 61.0664 12.0262 61.3168 11.7943 61.3288C11.7557 61.3288 11.7141 61.3288 11.6754 61.3137L11.6695 61.3107ZM17.1954 51.8754C16.6722 51.7155 15.6467 51.6462 14.6479 52.168C13.6492 52.6868 12.478 53.9447 12.5642 56.9731C12.588 57.869 12.588 59.1087 12.4453 60.0348C12.9506 59.9714 13.3133 59.8176 13.667 59.6728C14.428 59.3561 15.1562 59.0605 16.8922 59.6607C18.4439 60.2007 20.804 59.2716 21.889 58.0922C22.1238 57.8358 22.4924 57.3502 22.3289 56.955C21.7612 55.5856 19.9896 54.3579 19.9717 54.3458C19.9063 54.3006 19.8618 54.2312 19.8469 54.1528C19.6002 52.8527 19.0413 52.6627 18.3933 52.4425C18.0901 52.3399 17.778 52.2344 17.4927 52.0142C17.4332 51.9689 17.3321 51.9207 17.1954 51.8784V51.8754Z" fill="#18212B"/>
<path d="M13.6177 59.1616C13.5999 59.1556 13.585 59.1496 13.5672 59.1405C13.4215 59.0651 13.3621 58.8841 13.4364 58.7363C14.5154 56.5796 19.7827 53.9312 20.0056 53.8196C20.1513 53.7472 20.3296 53.8075 20.404 53.9584C20.4753 54.1092 20.4158 54.2902 20.2672 54.3625C20.2137 54.3897 14.9553 57.0351 13.9655 59.0108C13.9001 59.1436 13.7515 59.2039 13.6147 59.1616H13.6177Z" fill="#18212B"/>
<path d="M0.22596 54.6798C0.22596 54.6798 0.205152 54.6738 0.20218 54.6708C0.0654436 54.6225 -0.0177871 54.4807 0.00599312 54.3359C0.0297733 54.1911 0.154619 54.0856 0.300273 54.0856C0.318108 54.0856 0.94531 54.0403 1.47145 52.8307C1.55468 52.511 2.32753 49.8686 5.94807 46.8673C5.97185 46.8462 6.00157 46.8311 6.02832 46.8191C11.3164 44.7588 14.2771 46.3726 15.3085 47.1599C16.4322 48.0196 17.0445 49.202 16.9464 50.3211C16.9375 50.4387 16.9523 50.5503 16.988 50.6559C17.101 50.7132 17.1634 50.8339 17.1485 50.9606C17.4844 51.4161 18.1146 51.6875 18.1235 51.6905C18.2751 51.7539 18.3465 51.9319 18.284 52.0857C18.2216 52.2395 18.0492 52.3149 17.8946 52.2486C17.8441 52.2275 16.9969 51.8625 16.5778 51.1778C16.3697 51.1566 16.0011 51.1687 15.5523 51.3889C14.3484 52.1732 11.5691 52.0646 9.28026 51.8806C8.78088 51.8414 8.28447 51.9198 7.84156 52.1068C7.36001 52.3119 6.55446 52.5864 5.44868 52.7463C5.02361 52.8066 4.62529 52.9906 4.29237 53.2772C2.09865 55.1594 0.451872 54.7492 0.22596 54.6798ZM6.28693 47.365C2.71099 50.3422 2.04812 52.9725 2.04217 52.9997C2.0392 53.0178 2.03325 53.0328 2.02434 53.0509C1.81031 53.5456 1.57549 53.8925 1.3466 54.1338C1.96786 54.0403 2.85664 53.7236 3.90892 52.8187C4.32804 52.4597 4.8304 52.2305 5.36545 52.1521C6.40881 52.0012 7.16383 51.7418 7.61268 51.5518C8.14179 51.3286 8.73332 51.2351 9.32485 51.2833C11.3581 51.4462 14.1849 51.582 15.2402 50.8761C15.2491 50.8701 15.261 50.864 15.2729 50.858C15.692 50.6469 16.0695 50.5805 16.3578 50.5745C16.3459 50.4779 16.343 50.3754 16.3519 50.2728C16.4322 49.3619 15.909 48.3816 14.9489 47.6455C14.0006 46.9186 11.2659 45.4436 6.28396 47.368L6.28693 47.365Z" fill="#18212B"/>
<path d="M24.8705 59.2324C24.7932 59.2083 24.7278 59.154 24.6892 59.0756C23.7469 57.1179 22.8165 56.5901 22.2012 56.2432C21.9723 56.1135 21.7731 56.0019 21.6275 55.845C21.5145 55.7244 21.5175 55.5343 21.6364 55.4197C21.7553 55.3051 21.9426 55.3081 22.0555 55.4287C22.1417 55.5192 22.2963 55.6067 22.4925 55.7183C23.1316 56.0803 24.2017 56.6836 25.2272 58.8132C25.2985 58.964 25.2391 59.145 25.0905 59.2174C25.0191 59.2536 24.9448 59.2566 24.8735 59.2355L24.8705 59.2324Z" fill="#18212B"/>
<path d="M2.07758 53.6425C2.05677 53.6365 2.03299 53.6274 2.01515 53.6154C1.87247 53.5309 1.82491 53.3469 1.90814 53.2021C2.57101 52.0438 7.66295 48.8977 11.9434 48.6564C14.2501 48.5237 15.983 49.2295 17.0918 50.7498C17.1899 50.8825 17.1631 51.0725 17.0294 51.1721C16.8956 51.2716 16.7113 51.2445 16.6132 51.1087C15.6293 49.7604 14.0687 49.139 11.9761 49.2597C7.74915 49.501 2.93366 52.6109 2.42239 53.5068C2.35105 53.6304 2.20837 53.6847 2.08055 53.6455L2.07758 53.6425Z" fill="#18212B"/>
</svg>
