<svg width="41" height="73" viewBox="0 0 41 73" fill="none" xmlns="http://www.w3.org/2000/svg">
<g clip-path="url(#clip0_605_111)">
<path d="M21.5954 4.68483C21.5746 4.6788 21.5567 4.66975 21.5389 4.6607C21.3932 4.58227 21.3427 4.39827 21.42 4.25047C21.5032 4.09663 21.9669 3.3184 22.9181 3.23394C23.8991 3.14646 24.9781 3.83722 26.1255 5.28811C26.2295 5.41782 26.2087 5.60785 26.0809 5.71342C25.9531 5.819 25.7658 5.79788 25.6618 5.66818C24.66 4.40129 23.7296 3.76784 22.9716 3.83722C22.3058 3.89755 21.9758 4.4767 21.9402 4.54004C21.8718 4.66673 21.7262 4.72404 21.5954 4.68483Z" fill="#18212A"/>
<path d="M15.8673 13.7792C15.8049 13.7611 15.7484 13.7189 15.7068 13.6616L15.6741 13.6133C15.5076 13.366 15.3352 13.1126 15.2609 12.82C15.0677 12.0478 15.3887 11.2937 15.7633 10.425C16.224 9.35112 16.7472 8.1325 16.5183 6.46443C16.5005 6.32265 16.5807 6.18692 16.7115 6.13865C16.8423 6.09039 16.9909 6.14167 17.0652 6.26233C17.5616 7.07072 18.7001 8.54574 20.7244 9.35112C22.5168 10.066 24.1517 9.90313 25.0494 9.71309C25.2843 9.23952 26.2117 7.97564 29.8174 6.22915C31.4285 5.45091 31.4314 5.09498 31.4314 5.09196C31.3898 4.89589 30.4208 4.65157 29.2853 4.63648C29.1218 4.63648 28.991 4.49773 28.991 4.33183C28.991 4.16592 29.1277 4.0332 29.2912 4.0332C30.0492 4.04225 31.8357 4.14783 32.0111 4.95924C32.13 5.50822 31.5325 6.06626 30.073 6.7721C25.9858 8.75086 25.5548 10.0389 25.5488 10.0509C25.5191 10.1535 25.4329 10.241 25.3288 10.2651C24.4044 10.4823 22.5495 10.7206 20.5044 9.90916C18.9201 9.27873 17.8411 8.26823 17.1604 7.42967C17.1247 8.74784 16.6788 9.7885 16.3043 10.6602C15.9624 11.4596 15.689 12.093 15.8346 12.6662C15.8822 12.8532 16.0189 13.0553 16.1616 13.2664L16.1943 13.3147C16.2864 13.4534 16.2537 13.6405 16.117 13.734C16.0397 13.7883 15.9476 13.8003 15.8643 13.7732L15.8673 13.7792Z" fill="#F3F5FB"/>
<path d="M23.7297 21.3712C23.5989 21.332 23.5097 21.2023 23.5186 21.0606C23.5305 20.9037 23.6554 20.783 23.8099 20.78C26.5714 20.7257 29.7134 15.5074 31.2264 12.9977C32.0706 11.5981 32.1924 11.4201 32.4332 11.39C32.5254 11.3809 32.6353 11.4201 32.7007 11.4865C33.212 12.0144 32.3351 15.8573 30.5308 18.8676C28.5689 22.1374 23.9645 21.4135 23.7683 21.3803C23.7564 21.3803 23.7416 21.3743 23.7297 21.3712ZM32.2341 12.4879C32.0825 12.7292 31.9071 13.0249 31.7317 13.3144C30.3673 15.5797 28.0487 19.4287 25.5786 20.8434C27.0113 20.7559 28.9791 20.2944 30.0225 18.5569C31.4463 16.18 32.0914 13.6553 32.237 12.491L32.2341 12.4879Z" fill="#F3F5FB"/>
<path d="M30.8429 14.3499C30.7626 14.3257 30.6942 14.2684 30.6556 14.184C28.9821 10.3561 31.1461 5.5872 31.2412 5.3851C31.3095 5.23428 31.4849 5.16792 31.6365 5.24031C31.7852 5.30969 31.8506 5.49067 31.7792 5.64149C31.7584 5.68976 29.639 10.3652 31.1996 13.9396C31.265 14.0904 31.1996 14.2714 31.048 14.3378C30.9796 14.368 30.9083 14.371 30.8429 14.3499Z" fill="#F3F5FB"/>
<path d="M19.3927 21.4267C18.6704 21.2065 18.0462 20.8084 17.7043 20.1357C17.63 19.9879 17.6865 19.8069 17.8321 19.7285C17.9778 19.6531 18.1561 19.7104 18.2334 19.8582C19.2381 21.8339 23.6999 20.7993 23.7475 20.7872C23.908 20.748 24.0685 20.8506 24.1042 21.0105C24.1428 21.1733 24.0417 21.3362 23.8812 21.3724C23.7356 21.4056 21.2387 21.9848 19.3927 21.4207V21.4267Z" fill="#F3F5FB"/>
<path d="M22.7933 23.7634C22.0323 23.5311 21.2506 22.7951 20.4153 21.5313C20.3231 21.3925 20.3588 21.2055 20.4955 21.112C20.6323 21.0185 20.8166 21.0547 20.9087 21.1934C21.8124 22.5598 22.6268 23.2446 23.3313 23.2385C24.1934 23.2265 24.8562 22.1677 25.3913 21.3171C25.4597 21.2085 25.5251 21.1029 25.5905 21.0034C25.6796 20.8646 25.8639 20.8254 26.0007 20.9159C26.1374 21.0064 26.176 21.1934 26.0869 21.3322C26.0244 21.4287 25.959 21.5343 25.8907 21.6398C25.311 22.5629 24.5203 23.8267 23.3373 23.8418C23.156 23.8418 22.9746 23.8177 22.7903 23.7604L22.7933 23.7634Z" fill="#F3F5FB"/>
<path d="M21.203 6.14174C19.7643 5.70134 18.2186 4.8477 17.2911 3.19773C17.2109 3.05294 17.2584 2.86894 17.4011 2.78749C17.5438 2.70605 17.7251 2.75431 17.8054 2.8991C19.3095 5.57465 22.6773 5.9517 24.0566 5.99092C26.1998 6.05124 27.7514 5.50528 28.0041 5.10711C28.0933 4.96836 28.2746 4.92613 28.4143 5.01662C28.551 5.10711 28.5927 5.29413 28.5035 5.43288C28.0457 6.1538 26.1255 6.65151 24.0388 6.5942C23.3907 6.5761 22.3266 6.48561 21.2 6.14174H21.203Z" fill="#F3F5FB"/>
<path d="M25.0554 10.2292C23.0906 9.62893 19.6692 7.28217 19.36 7.07102C19.1074 6.94132 16.8512 5.76492 16.5362 4.32911C16.5005 4.16622 16.6015 4.00635 16.7621 3.97016C16.9226 3.93396 17.0801 4.03652 17.1158 4.1994C17.3387 5.20387 19.0152 6.23246 19.6424 6.54315C19.6543 6.54918 19.6692 6.55823 19.6781 6.56427C19.7168 6.59141 23.4592 9.17044 25.3408 9.68926C25.4953 9.72847 25.5934 9.89739 25.5518 10.0603C25.5102 10.2201 25.3467 10.3167 25.1862 10.2714C25.1446 10.2594 25.1 10.2473 25.0554 10.2322V10.2292Z" fill="#F3F5FB"/>
<path d="M18.5812 4.72371C18.4801 4.69355 18.3999 4.60909 18.3761 4.5005C18.3226 4.25315 18.0818 2.99531 18.5871 2.48554C18.7031 2.3679 18.8933 2.37092 19.0063 2.48554C19.1222 2.60318 19.1192 2.79623 19.0063 2.91085C18.8101 3.10692 18.8517 3.88214 18.9587 4.36476C18.9944 4.52765 18.8933 4.68752 18.7328 4.72371C18.6823 4.73578 18.6317 4.73276 18.5842 4.71768L18.5812 4.72371Z" fill="#F3F5FB"/>
<path d="M17.8827 20.2893C17.8827 20.2893 17.8678 20.2832 17.8589 20.2802C17.7995 20.2561 16.3875 19.6709 15.3352 17.0587C14.9221 16.0331 15.041 15.3212 15.148 14.6938C15.2609 14.0242 15.359 13.4511 14.7467 12.5552C13.9649 11.6744 13.3853 11.0772 13.3704 11.0621C13.2574 10.9475 13.2545 10.7604 13.3674 10.6428C13.4774 10.5252 13.6617 10.5161 13.7806 10.6247C14.4167 11.2008 14.8626 11.6955 15.1747 12.1299C16.0605 13.1253 17.2079 14.4827 18.0997 15.7888C17.9689 15.2639 17.8143 14.7451 17.6746 14.2715C17.196 12.6547 16.8809 11.5869 17.5944 11.3245C18.4534 11.0108 19.4611 12.8116 21.3189 16.2925C22.2285 17.9998 23.1678 19.7614 23.9229 20.7387C25.8015 20.1324 27.0797 18.6242 27.4453 16.5761C27.8793 14.1448 26.931 11.59 25.0911 10.2235C20.8522 7.07741 20.6323 7.08344 19.7048 7.11059C19.1549 7.12567 18.4029 7.14679 16.7442 6.71846C15.0945 6.29314 14.3989 5.87085 14.4138 5.30678C14.4346 4.51347 16.0724 4.10625 16.7739 3.9675H16.7769C16.8185 3.88304 16.875 3.7654 16.9255 3.65681C17.4636 2.49247 18.7269 -0.237372 22.1542 0.115548C22.2166 0.12158 22.2761 0.127613 22.3385 0.136663C22.9954 -0.0051085 26.61 -0.240388 28.4233 0.691681C29.4785 1.23463 29.746 2.76093 29.6568 3.90415C29.6271 4.28422 29.4785 5.54206 28.8067 5.76226C28.6521 5.81354 28.346 5.84068 28.0339 5.46665C27.7901 5.17406 27.5672 4.79399 27.3294 4.39281C26.5179 3.02336 25.5072 1.31909 22.7576 0.812337C22.6387 0.791222 22.5139 0.770107 22.389 0.752009C20.6858 1.40355 19.7346 3.92225 19.8683 5.06547C19.8891 5.23137 19.7702 5.38219 19.6067 5.40029C19.4433 5.41839 19.2946 5.30075 19.2768 5.13485C19.1341 3.91018 19.9278 1.78664 21.307 0.694697C18.8874 0.833452 17.9421 2.87857 17.4636 3.91018C17.2466 4.37773 17.1485 4.58888 16.8988 4.60094C16.8691 4.60094 16.8245 4.60094 16.768 4.57983C15.8079 4.78494 15.0439 5.13786 15.0112 5.31885C15.0112 5.31885 15.0974 5.66272 16.8928 6.12724C18.4742 6.53446 19.1787 6.51334 19.693 6.50128C20.8314 6.4681 21.1822 6.56462 25.4478 9.73184C27.4691 11.231 28.5095 14.0242 28.0368 16.6786C27.6177 19.0314 26.1106 20.7417 23.905 21.3722C23.7921 21.4053 23.6732 21.3661 23.5959 21.2756C22.7844 20.2923 21.7767 18.404 20.8047 16.5761C19.8089 14.7089 18.3107 11.8886 17.7995 11.8916C17.6597 12.0816 18.0194 13.2942 18.2543 14.0966C18.5396 15.0588 18.8725 16.187 18.9914 17.2457C19.0004 17.2789 19.0033 17.3121 19.0004 17.3453C19.1163 18.5126 18.9587 19.5834 18.1651 20.235C18.0878 20.2983 17.9867 20.3164 17.8916 20.2893H17.8827ZM15.8287 13.813C15.8435 14.1569 15.79 14.4736 15.7365 14.7964C15.6355 15.3967 15.5374 15.9668 15.8881 16.8294C16.6431 18.7026 17.5617 19.4145 17.9243 19.6347C18.3999 19.1279 18.495 18.3195 18.4059 17.4146C17.8024 16.2895 16.7918 14.9623 15.8316 13.81L15.8287 13.813ZM24.2528 0.613254C26.2563 1.41562 27.148 2.92382 27.8347 4.08212C28.0695 4.48029 28.2717 4.82114 28.4857 5.07753C28.5719 5.18311 28.6194 5.18914 28.6224 5.18914C28.6938 5.17707 28.9137 4.88147 29.0207 4.21484C29.2021 3.07766 28.9613 1.64788 28.1528 1.23162C27.1688 0.724861 25.528 0.607222 24.2558 0.616271L24.2528 0.613254Z" fill="#F3F5FB"/>
<path d="M24.5828 6.58187C24.5084 6.55774 24.4401 6.50646 24.4044 6.42804C24.4044 6.42804 24.1428 5.93033 23.1173 4.82331C22.9657 4.65741 22.2493 4.48547 21.8421 4.61518C21.6637 4.67249 21.4765 4.67249 21.313 4.67551C21.2 4.67551 21.0484 4.67551 21.0009 4.70567C20.8612 4.79315 20.6769 4.7479 20.5907 4.60613C20.5044 4.46436 20.5461 4.27734 20.6858 4.18987C20.873 4.07223 21.093 4.06921 21.3041 4.06921C21.4319 4.06921 21.5656 4.06921 21.6608 4.03603C22.2404 3.85203 23.2065 4.04206 23.5453 4.40705C24.6481 5.59551 24.9186 6.12941 24.9305 6.15355C25.0049 6.30135 24.9454 6.48233 24.7997 6.55774C24.7284 6.59394 24.6511 6.59997 24.5798 6.57886L24.5828 6.58187Z" fill="#F3F5FB"/>
<path d="M20.5877 5.93443C20.4658 5.89823 20.3767 5.78361 20.3767 5.64787C20.3529 3.78373 21.4705 2.6737 22.5198 2.43238C23.7207 2.15487 26.3098 2.86373 27.1481 5.82885C27.1808 5.94046 27.1451 6.06112 27.0589 6.13954C26.9727 6.21495 26.8478 6.23607 26.7438 6.18781L25.6945 5.72328C25.5578 5.66295 25.4418 5.57849 25.3408 5.50308C25.1951 5.39449 25.1059 5.33416 25.0197 5.34623C24.7195 5.38544 24.2499 5.62977 24.0923 5.72328C23.9496 5.80774 23.7683 5.75646 23.688 5.61167C23.6078 5.46689 23.6553 5.28288 23.798 5.20144C23.8664 5.16223 24.4758 4.81534 24.9424 4.752C25.2694 4.70675 25.5043 4.87869 25.6915 5.01744C25.7748 5.07777 25.855 5.1381 25.9323 5.17128L26.3544 5.35829C25.4121 3.15934 23.3611 2.8577 22.6536 3.0236C22.0621 3.15934 20.9504 3.88327 20.9712 5.64485C20.9712 5.81076 20.8404 5.94951 20.6769 5.94951C20.6442 5.94951 20.6145 5.94649 20.5877 5.93744V5.93443Z" fill="#F3F5FB"/>
<path d="M24.3747 72.9888C24.2468 72.9496 24.1577 72.8289 24.1636 72.6871C24.3241 68.4461 24.4846 65.7283 24.6392 64.6092C25.1297 61.0408 24.0477 50.9992 23.4086 46.185C23.0281 43.3164 23.2213 24.3493 23.2302 23.5409C23.2302 23.375 23.367 23.2392 23.5305 23.2422C23.694 23.2422 23.8277 23.381 23.8247 23.5469C23.8247 23.743 23.6226 43.2772 24.0001 46.1036C24.018 46.2423 25.855 60.151 25.2307 64.6907C25.0791 65.7886 24.9216 68.4883 24.7611 72.7082C24.7551 72.8741 24.6154 73.0039 24.4519 72.9978C24.4252 72.9978 24.4014 72.9918 24.3776 72.9858L24.3747 72.9888Z" fill="#F3F5FB"/>
<path d="M23.5751 44.4842C23.5602 44.4782 23.5454 44.4721 23.5275 44.4661C23.3819 44.3937 23.3195 44.2127 23.3938 44.0619C24.9157 40.9248 25.8372 39.4709 26.9519 39.7062C28.0279 39.9294 30.4059 43.2324 30.7597 44.3304C30.8102 44.4902 30.724 44.6592 30.5694 44.7104C30.4149 44.7617 30.2454 44.6773 30.1949 44.5174C29.8412 43.4224 27.5612 40.4513 26.833 40.2974C26.0393 40.1315 24.9157 42.2913 23.9258 44.3304C23.8605 44.4631 23.7118 44.5264 23.5751 44.4872V44.4842Z" fill="#F3F5FB"/>
<path d="M27.4543 46.1491C26.9876 46.0073 26.6011 45.7419 26.3009 45.3558C25.4151 44.2125 25.534 42.3182 25.7332 41.1177C25.6678 41.1841 25.6232 41.2233 25.6143 41.2293C25.4924 41.3409 25.3051 41.3319 25.1951 41.2052C25.0852 41.0815 25.097 40.8915 25.2189 40.7799C25.2308 40.7708 26.3752 39.7151 26.8241 38.4784C27.808 36.1437 28.9911 35.9838 29.8144 36.2613C31.8863 36.9551 33.6103 41.2474 33.215 42.9457C33.2061 42.9879 33.1882 43.0241 33.1615 43.0573C33.108 43.1297 33.0485 43.2051 32.9921 43.2775C32.4867 43.932 32.0082 44.5474 32.2935 45.7298C32.3203 45.8354 32.2876 45.947 32.2073 46.0224C32.13 46.0948 32.02 46.1219 31.919 46.0918H31.916C30.9272 45.7761 30.2821 45.6815 29.9809 45.8082C29.7223 45.9168 29.3299 46.0797 28.5868 46.2607C28.569 46.2637 28.5511 46.2667 28.5303 46.2697C28.132 46.2878 27.7723 46.2486 27.4513 46.1491H27.4543ZM26.5417 40.1917C26.2771 41.1238 25.8134 43.748 26.7706 44.9817C27.1511 45.4734 27.7099 45.6966 28.4798 45.6665C29.1575 45.5006 29.5023 45.3558 29.755 45.2502C30.3346 45.0059 30.5011 45.0149 31.6307 45.3678C31.5207 44.2095 32.0706 43.4946 32.5254 42.9064C32.567 42.8522 32.6086 42.7979 32.6502 42.7466C32.9326 41.2565 31.3601 37.4136 29.6301 36.8344C29.6183 36.8314 29.6064 36.8254 29.5945 36.8224C28.7592 36.566 28.0131 37.1994 27.377 38.7016C27.1748 39.2566 26.8538 39.7724 26.5387 40.1917H26.5417Z" fill="#F3F5FB"/>
<path d="M28.3192 37.0201C28.1647 36.9719 28.0755 36.809 28.1201 36.6491C28.123 36.637 28.4381 35.4998 28.346 34.8242C27.7782 30.6133 34.1691 26.0615 37.8432 25.1988C38.0037 25.1626 38.1642 25.2622 38.1999 25.4251C38.2356 25.5879 38.1375 25.7478 37.977 25.787C34.1454 26.6889 28.453 31.1532 28.9345 34.7427C29.0415 35.5451 28.7057 36.7607 28.6908 36.812C28.6462 36.9719 28.4827 37.0654 28.3252 37.0201H28.3192Z" fill="#F3F5FB"/>
<path d="M28.5541 35.0752C28.4797 35.0541 28.4173 35.0028 28.3816 34.9334C27.7396 33.7782 26.8835 31.2293 28.236 29.8599C28.8216 29.2686 28.8424 28.5688 28.8632 27.9505C28.8781 27.4618 28.8929 27.0033 29.2021 26.6956C29.315 26.584 29.4161 26.4724 29.5142 26.3669C29.8887 25.9627 30.2454 25.5766 30.7953 25.5434C30.8132 25.5012 30.834 25.4227 30.8488 25.3624C30.9677 24.916 31.1847 24.0985 32.7334 24.0653C33.8124 23.0277 36.2261 23.3806 38.1761 23.6642C38.9311 23.7728 39.8675 23.9115 40.0696 23.818C40.355 23.5314 40.6522 23.2388 40.9019 23.4983C41.0922 23.6943 41.0803 23.8723 40.1974 25.1181C39.811 25.664 39.2759 26.3729 39.0173 26.6323C38.8598 26.7922 38.5923 26.9671 38.2534 27.1873C37.3408 27.7846 35.9616 28.6835 35.8308 29.9142C35.697 31.1931 33.6252 32.3755 30.9321 33.7842C30.0017 34.2729 29.1218 34.7313 28.8513 35.0028C28.7859 35.0692 28.6938 35.0994 28.6016 35.0873C28.5868 35.0873 28.5719 35.0813 28.557 35.0782L28.5541 35.0752ZM39.9358 24.4454C39.5464 24.4665 38.9638 24.3881 38.0869 24.2614C36.4164 24.0171 33.8897 23.6491 33.0753 24.5661C33.0188 24.6294 32.9385 24.6656 32.8523 24.6656C31.6455 24.6566 31.5236 25.1151 31.4166 25.5162C31.3512 25.7606 31.2561 26.1255 30.8459 26.1406C30.5367 26.1527 30.3227 26.3669 29.9422 26.7771C29.8412 26.8857 29.7341 27.0033 29.6152 27.121C29.4755 27.2597 29.4666 27.5885 29.4547 27.9686C29.4339 28.6261 29.4042 29.525 28.6551 30.2852C27.7277 31.2233 28.1706 33.1327 28.7354 34.3211C29.1604 34.0255 29.8412 33.6696 30.6556 33.2443C32.4362 32.3122 35.1263 30.9065 35.2363 29.8478C35.3938 28.3305 36.9187 27.3381 37.9264 26.6776C38.2237 26.4845 38.4793 26.3156 38.5952 26.201C38.8628 25.9325 39.4929 25.0909 39.9358 24.4454Z" fill="#F3F5FB"/>
<path d="M11.6701 61.3127C11.5423 61.2735 11.4293 61.1588 11.4145 60.9688C11.3966 60.7516 11.5155 60.459 11.8068 60.2569C11.9138 59.7532 12.0238 58.7879 11.9733 56.9902C11.8811 53.648 13.2307 52.2333 14.381 51.633C15.7127 50.9393 17.303 51.1052 17.8559 51.5335C18.061 51.6934 18.3167 51.7778 18.5842 51.8713C19.25 52.0976 20.0764 52.3781 20.4093 53.9195C20.8165 54.2151 22.3177 55.3704 22.8795 56.7217C23.0965 57.2466 22.9003 57.88 22.3266 58.5044C21.1168 59.8226 18.5039 60.8602 16.7055 60.2328C15.1658 59.6989 14.6069 59.9372 13.8965 60.2328C13.519 60.3897 13.0939 60.5676 12.4935 60.64C12.4251 60.6491 12.3627 60.6611 12.3122 60.6792C12.1933 61.0683 12.0268 61.3187 11.7949 61.3308C11.7563 61.3308 11.7147 61.3308 11.676 61.3157L11.6701 61.3127ZM17.196 51.8774C16.6728 51.7175 15.6473 51.6481 14.6486 52.17C13.6498 52.6888 12.4786 53.9466 12.5648 56.9751C12.5886 57.871 12.5886 59.1107 12.4459 60.0367C12.9512 59.9734 13.3139 59.8196 13.6676 59.6748C14.4286 59.358 15.1569 59.0624 16.8928 59.6627C18.4445 60.2026 20.8047 59.2736 21.8896 58.0942C22.1245 57.8378 22.493 57.3521 22.3296 56.957C21.7618 55.5875 19.9902 54.3599 19.9723 54.3478C19.907 54.3026 19.8624 54.2332 19.8475 54.1547C19.6008 52.8547 19.0419 52.6646 18.3939 52.4444C18.0907 52.3419 17.7786 52.2363 17.4933 52.0161C17.4338 51.9709 17.3327 51.9226 17.196 51.8804V51.8774Z" fill="#F3F5FB"/>
<path d="M13.6171 59.1656C13.5993 59.1595 13.5844 59.1535 13.5666 59.1444C13.421 59.069 13.3615 58.888 13.4358 58.7402C14.5148 56.5835 19.7822 53.9351 20.0051 53.8235C20.1507 53.7511 20.3291 53.8114 20.4034 53.9623C20.4747 54.1131 20.4153 54.2941 20.2667 54.3665C20.2132 54.3936 14.9548 57.039 13.9649 59.0147C13.8995 59.1475 13.7509 59.2078 13.6142 59.1656H13.6171Z" fill="#F3F5FB"/>
<path d="M0.225899 54.6818C0.225899 54.6818 0.205091 54.6757 0.202119 54.6727C0.0653825 54.6244 -0.0178481 54.4827 0.00593209 54.3379C0.0297123 54.1931 0.154558 54.0875 0.300212 54.0875C0.318047 54.0875 0.945249 54.0423 1.47139 52.8327C1.55462 52.513 2.32747 49.8706 5.94801 46.8693C5.97179 46.8482 6.00151 46.8331 6.02826 46.821C11.3164 44.7608 14.277 46.3746 15.3085 47.1619C16.4321 48.0215 17.0444 49.204 16.9463 50.3231C16.9374 50.4407 16.9523 50.5523 16.988 50.6579C17.1009 50.7152 17.1633 50.8358 17.1485 50.9625C17.4844 51.418 18.1145 51.6895 18.1235 51.6925C18.2751 51.7558 18.3464 51.9338 18.284 52.0876C18.2215 52.2415 18.0491 52.3169 17.8946 52.2505C17.844 52.2294 16.9969 51.8644 16.5777 51.1797C16.3697 51.1586 16.0011 51.1707 15.5522 51.3909C14.3484 52.1751 11.569 52.0665 9.2802 51.8825C8.78082 51.8433 8.28441 51.9217 7.8415 52.1088C7.35995 52.3139 6.5544 52.5884 5.44862 52.7482C5.02355 52.8086 4.62523 52.9926 4.29231 53.2791C2.09859 55.1614 0.45181 54.7511 0.225899 54.6818ZM6.28687 47.367C2.71093 50.3442 2.04806 52.9745 2.04211 53.0016C2.03914 53.0197 2.03319 53.0348 2.02428 53.0529C1.81025 53.5476 1.57542 53.8945 1.34654 54.1358C1.9678 54.0423 2.85658 53.7256 3.90885 52.8206C4.32798 52.4617 4.83034 52.2324 5.36539 52.154C6.40875 52.0032 7.16377 51.7438 7.61262 51.5537C8.14173 51.3305 8.73326 51.237 9.32479 51.2853C11.358 51.4482 14.1849 51.5839 15.2401 50.8781C15.249 50.872 15.2609 50.866 15.2728 50.86C15.6919 50.6488 16.0694 50.5825 16.3578 50.5764C16.3459 50.4799 16.3429 50.3773 16.3518 50.2748C16.4321 49.3638 15.9089 48.3835 14.9488 47.6475C14.0006 46.9205 11.2658 45.4455 6.2839 47.37L6.28687 47.367Z" fill="#F3F5FB"/>
<path d="M24.8711 59.2344C24.7938 59.2103 24.7284 59.156 24.6898 59.0775C23.7475 57.1199 22.8171 56.592 22.2018 56.2451C21.9729 56.1154 21.7737 56.0038 21.6281 55.847C21.5151 55.7263 21.5181 55.5363 21.637 55.4217C21.7559 55.307 21.9432 55.31 22.0561 55.4307C22.1423 55.5212 22.2969 55.6087 22.4931 55.7203C23.1322 56.0822 24.2023 56.6855 25.2278 58.8151C25.2991 58.9659 25.2397 59.1469 25.0911 59.2193C25.0197 59.2555 24.9454 59.2585 24.8741 59.2374L24.8711 59.2344Z" fill="#F3F5FB"/>
<path d="M2.07776 53.6425C2.05695 53.6365 2.03317 53.6274 2.01534 53.6154C1.87266 53.5309 1.82509 53.3469 1.90833 53.2021C2.5712 52.0438 7.66313 48.8977 11.9436 48.6564C14.2502 48.5237 15.9832 49.2295 17.092 50.7498C17.1901 50.8825 17.1633 51.0725 17.0295 51.1721C16.8958 51.2716 16.7115 51.2445 16.6134 51.1087C15.6295 49.7604 14.0689 49.139 11.9763 49.2597C7.74933 49.501 2.93385 52.6109 2.42257 53.5068C2.35123 53.6304 2.20855 53.6847 2.08073 53.6455L2.07776 53.6425Z" fill="#F3F5FB"/>
</g>
<defs>
<clipPath id="clip0_605_111">
<rect width="41" height="73" fill="white"/>
</clipPath>
</defs>
</svg>
