<svg width="56" height="36" viewBox="0 0 56 36" fill="none" xmlns="http://www.w3.org/2000/svg">
<path d="M5.8877 35.1221C4.11361 35.1221 2.74642 34.4466 1.78613 33.0957C0.842122 31.7285 0.370117 29.9626 0.370117 27.7979C0.370117 25.6169 0.695638 23.4928 1.34668 21.4258C2.014 19.3424 2.90918 17.3079 4.03223 15.3223C5.15527 13.3366 6.45736 11.4567 7.93848 9.68262C9.43587 7.90853 11.0228 6.35417 12.6992 5.01953C16.3288 2.08984 19.7142 0.625 22.8555 0.625C24.7435 0.625 26.1758 1.35742 27.1523 2.82227C28.0638 4.17318 28.5195 6.07747 28.5195 8.53516C28.5195 12.8158 27.0547 17.3079 24.125 22.0117C21.2604 26.6667 17.8424 30.1986 13.8711 32.6074C11.0879 34.2839 8.42676 35.1221 5.8877 35.1221ZM3.03125 29.5068C3.03125 32.8109 4.18685 34.4629 6.49805 34.4629C9.06966 34.4629 12.2272 32.7946 15.9707 29.458C19.8281 26.0075 22.7985 21.9629 24.8818 17.3242C26.4118 13.9388 27.1768 10.6429 27.1768 7.43652C27.1768 4.14876 26.3223 2.17122 24.6133 1.50391C24.0924 1.30859 23.4495 1.21094 22.6846 1.21094C21.9359 1.21094 21.0407 1.49577 19.999 2.06543C18.9736 2.61882 17.9157 3.38379 16.8252 4.36035C15.7347 5.32064 14.6361 6.45182 13.5293 7.75391C12.4225 9.03971 11.3564 10.4313 10.3311 11.9287C9.30566 13.4098 8.34538 14.9479 7.4502 16.543C6.57129 18.1217 5.79818 19.6842 5.13086 21.2305C3.73112 24.502 3.03125 27.2607 3.03125 29.5068ZM53.9346 1.47949C54.2601 0.958659 54.4961 0.625 54.6426 0.478516C54.7891 0.315755 54.96 0.234375 55.1553 0.234375C55.3506 0.234375 55.4482 0.356445 55.4482 0.600586C55.4482 0.844727 55.1715 1.32487 54.6182 2.04102C54.0811 2.74089 53.43 3.70117 52.665 4.92188L50.0527 9.21875L46.8789 14.7363L43.3877 21.0352L39.7988 27.7734L36.3076 34.5605C36.1611 34.5605 35.974 34.5524 35.7461 34.5361L34.2324 34.4385C33.9883 34.4222 33.7035 34.4141 33.3779 34.4141C32.5316 34.4141 31.8398 34.5036 31.3027 34.6826L39.1396 23.1836L46.9521 11.2695C43.404 14.9154 40.9707 17.2835 39.6523 18.374C38.3503 19.4482 37.4225 20.1807 36.8691 20.5713C35.6484 21.4502 34.8509 21.8896 34.4766 21.8896C34.1022 21.8896 33.915 21.7269 33.915 21.4014C33.915 21.0758 34.1917 20.8236 34.7451 20.6445L35.2578 20.4004C36.7389 19.7005 38.9688 17.9264 41.9473 15.0781L45.585 11.4648L49.0762 7.68066C51.4525 4.99512 53.0719 2.92806 53.9346 1.47949Z" fill="#18212B" fill-opacity="0.75"/>
</svg>
