<svg width="61" height="37" viewBox="0 0 61 37" fill="none" xmlns="http://www.w3.org/2000/svg">
<path d="M5.8877 35.1221C4.11361 35.1221 2.74642 34.4466 1.78613 33.0957C0.842122 31.7285 0.370117 29.9626 0.370117 27.7979C0.370117 25.6169 0.695638 23.4928 1.34668 21.4258C2.014 19.3424 2.90918 17.3079 4.03223 15.3223C5.15527 13.3366 6.45736 11.4567 7.93848 9.68262C9.43587 7.90853 11.0228 6.35417 12.6992 5.01953C16.3288 2.08984 19.7142 0.625 22.8555 0.625C24.7435 0.625 26.1758 1.35742 27.1523 2.82227C28.0638 4.17318 28.5195 6.07747 28.5195 8.53516C28.5195 12.8158 27.0547 17.3079 24.125 22.0117C21.2604 26.6667 17.8424 30.1986 13.8711 32.6074C11.0879 34.2839 8.42676 35.1221 5.8877 35.1221ZM3.03125 29.5068C3.03125 32.8109 4.18685 34.4629 6.49805 34.4629C9.06966 34.4629 12.2272 32.7946 15.9707 29.458C19.8281 26.0075 22.7985 21.9629 24.8818 17.3242C26.4118 13.9388 27.1768 10.6429 27.1768 7.43652C27.1768 4.14876 26.3223 2.17122 24.6133 1.50391C24.0924 1.30859 23.4495 1.21094 22.6846 1.21094C21.9359 1.21094 21.0407 1.49577 19.999 2.06543C18.9736 2.61882 17.9157 3.38379 16.8252 4.36035C15.7347 5.32064 14.6361 6.45182 13.5293 7.75391C12.4225 9.03971 11.3564 10.4313 10.3311 11.9287C9.30566 13.4098 8.34538 14.9479 7.4502 16.543C6.57129 18.1217 5.79818 19.6842 5.13086 21.2305C3.73112 24.502 3.03125 27.2607 3.03125 29.5068ZM56.2783 26.7969C56.5225 26.7969 56.6445 26.984 56.6445 27.3584C56.6445 27.7165 56.5632 28.1071 56.4004 28.5303C56.2539 28.9372 56.0505 29.3685 55.79 29.8242C53.7555 33.3073 51.0863 35.0488 47.7822 35.0488C46.2197 35.0488 44.6979 34.4466 43.2168 33.2422C41.2799 31.6634 39.2617 30.874 37.1621 30.874C35.5671 30.874 33.8743 31.3623 32.084 32.3389C30.2936 33.3154 29.0729 34.3896 28.4219 35.5615C28.3893 35.6266 28.3649 35.708 28.3486 35.8057C28.3324 35.9033 28.2998 36.0091 28.251 36.123C28.1696 36.3184 27.9661 36.416 27.6406 36.416C27.4616 36.416 27.3721 36.2207 27.3721 35.8301C27.3721 35.4395 27.5837 34.8861 28.0068 34.1699C28.4463 33.4375 29.1543 32.6318 30.1309 31.7529C32.4421 29.6533 36.0309 27.4072 40.8975 25.0146C46.1709 22.3942 50.2643 19.2936 53.1777 15.7129C55.847 12.4251 57.1816 9.20247 57.1816 6.04492C57.1816 3.4082 56.4655 1.87826 55.0332 1.45508C54.5775 1.30859 53.9102 1.23535 53.0312 1.23535C52.1523 1.23535 51.1351 1.50391 49.9795 2.04102C48.8239 2.56185 47.709 3.25358 46.6348 4.11621C45.5605 4.97884 44.5514 5.94727 43.6074 7.02148C42.6634 8.0957 41.8415 9.17806 41.1416 10.2686C39.6279 12.6286 38.8711 14.5329 38.8711 15.9814C38.8711 16.665 39.0664 17.2347 39.457 17.6904C39.8477 18.1299 40.3929 18.3496 41.0928 18.3496C41.7926 18.3496 42.4844 18.2194 43.168 17.959C43.8516 17.6823 44.5352 17.2998 45.2188 16.8115C46.6836 15.7861 47.9938 14.4352 49.1494 12.7588C49.3285 12.4658 49.4993 12.3193 49.6621 12.3193C49.8411 12.3193 49.9307 12.3926 49.9307 12.5391C49.9307 12.6693 49.8411 12.889 49.6621 13.1982C49.4831 13.4912 49.2227 13.8411 48.8809 14.248C48.1484 15.1595 47.2939 16.0059 46.3174 16.7871C44.4945 18.2682 42.7936 19.0088 41.2148 19.0088C39.6361 19.0088 38.5049 18.5612 37.8213 17.666C37.3493 17.0638 37.1133 16.2581 37.1133 15.249C37.1133 14.2399 37.3249 13.1738 37.748 12.0508C38.1875 10.9277 38.7816 9.8291 39.5303 8.75488C40.279 7.66439 41.1742 6.63086 42.2158 5.6543C43.2575 4.66146 44.3887 3.78255 45.6094 3.01758C48.2461 1.38997 50.9072 0.576172 53.5928 0.576172C55.7738 0.576172 57.4746 1.22721 58.6953 2.5293C59.8184 3.70117 60.3799 5.19043 60.3799 6.99707C60.3799 8.78743 59.9974 10.4964 59.2324 12.124C58.4674 13.7516 57.3444 15.3385 55.8633 16.8848C52.8522 20.026 48.5798 22.8174 43.0459 25.2588C38.0817 27.4723 35.1439 28.8721 34.2324 29.458C32.8652 30.3532 31.7666 31.1995 30.9365 31.9971C33.6546 30.4834 36.1204 29.6126 38.334 29.3848C39.0827 29.3197 39.9453 29.2871 40.9219 29.2871C42.9401 29.2871 44.8037 29.8486 46.5127 30.9717C47.9287 31.8994 49.0355 32.3633 49.833 32.3633C50.6468 32.3633 51.3385 32.2656 51.9082 32.0703C52.4941 31.875 53.0394 31.582 53.5439 31.1914C54.6507 30.3613 55.4482 29.2383 55.9365 27.8223C56.0342 27.5944 56.083 27.3665 56.083 27.1387C56.083 26.9108 56.1481 26.7969 56.2783 26.7969Z" fill="#18212B" fill-opacity="0.75"/>
</svg>
