<svg width="60" height="41" viewBox="0 0 60 41" fill="none" xmlns="http://www.w3.org/2000/svg">
<path d="M5.8877 35.1221C4.11361 35.1221 2.74642 34.4466 1.78613 33.0957C0.842122 31.7285 0.370117 29.9626 0.370117 27.7979C0.370117 25.6169 0.695638 23.4928 1.34668 21.4258C2.014 19.3424 2.90918 17.3079 4.03223 15.3223C5.15527 13.3366 6.45736 11.4567 7.93848 9.68262C9.43587 7.90853 11.0228 6.35417 12.6992 5.01953C16.3288 2.08984 19.7142 0.625 22.8555 0.625C24.7435 0.625 26.1758 1.35742 27.1523 2.82227C28.0638 4.17318 28.5195 6.07747 28.5195 8.53516C28.5195 12.8158 27.0547 17.3079 24.125 22.0117C21.2604 26.6667 17.8424 30.1986 13.8711 32.6074C11.0879 34.2839 8.42676 35.1221 5.8877 35.1221ZM3.03125 29.5068C3.03125 32.8109 4.18685 34.4629 6.49805 34.4629C9.06966 34.4629 12.2272 32.7946 15.9707 29.458C19.8281 26.0075 22.7985 21.9629 24.8818 17.3242C26.4118 13.9388 27.1768 10.6429 27.1768 7.43652C27.1768 4.14876 26.3223 2.17122 24.6133 1.50391C24.0924 1.30859 23.4495 1.21094 22.6846 1.21094C21.9359 1.21094 21.0407 1.49577 19.999 2.06543C18.9736 2.61882 17.9157 3.38379 16.8252 4.36035C15.7347 5.32064 14.6361 6.45182 13.5293 7.75391C12.4225 9.03971 11.3564 10.4313 10.3311 11.9287C9.30566 13.4098 8.34538 14.9479 7.4502 16.543C6.57129 18.1217 5.79818 19.6842 5.13086 21.2305C3.73112 24.502 3.03125 27.2607 3.03125 29.5068ZM52.3721 0.576172C57.1572 0.576172 59.5498 2.61882 59.5498 6.7041C59.5498 8.6735 58.5326 10.7975 56.498 13.0762C54.2031 15.6803 51.1758 17.7555 47.416 19.3018C49.3854 18.9111 51.013 19.1715 52.2988 20.083C53.6172 21.027 54.2764 22.4593 54.2764 24.3799C54.2764 26.4795 53.2998 28.7988 51.3467 31.3379C49.3122 34.0072 46.7894 36.1963 43.7783 37.9053C40.3766 39.8421 36.918 40.8105 33.4023 40.8105C31.1562 40.8105 29.0973 40.2897 27.2256 39.248C25.4352 38.2715 24.54 37.2542 24.54 36.1963C24.54 35.7243 24.6865 35.3337 24.9795 35.0244C25.2562 34.7152 25.6224 34.5605 26.0781 34.5605C26.5176 34.5605 26.8757 34.7152 27.1523 35.0244C27.429 35.3337 27.5674 35.7324 27.5674 36.2207C27.5674 36.709 27.5267 37.1973 27.4453 37.6855C28.1615 38.8411 29.5449 39.6387 31.5957 40.0781C32.1816 40.1921 32.971 40.249 33.9639 40.249C34.9567 40.249 36.1611 40.013 37.5771 39.541C39.0094 39.0853 40.3685 38.4505 41.6543 37.6367C42.9401 36.8229 44.1283 35.8545 45.2188 34.7314C46.3255 33.6084 47.2777 32.3877 48.0752 31.0693C49.7842 28.2373 50.6387 25.3564 50.6387 22.4268C50.6387 20.8643 49.8411 20.083 48.2461 20.083C46.8626 20.083 45.6338 20.3516 44.5596 20.8887C42.6878 21.849 41.3939 22.8662 40.6777 23.9404C40.5638 24.1195 40.4824 24.2741 40.4336 24.4043C40.401 24.5345 40.3359 24.7298 40.2383 24.9902C40.1569 25.2507 39.9697 25.3809 39.6768 25.3809C39.4001 25.3809 39.2617 25.21 39.2617 24.8682C39.2617 24.4124 39.4733 23.9648 39.8965 23.5254C40.3359 23.0697 40.7591 22.6709 41.166 22.3291C41.5729 21.971 42.0449 21.6211 42.582 21.2793C43.5098 20.6608 44.9095 19.8796 46.7812 18.9355C48.653 17.9753 50.1829 16.958 51.3711 15.8838C52.5755 14.7933 53.5439 13.6702 54.2764 12.5146C55.6273 10.3825 56.3027 8.08757 56.3027 5.62988C56.3027 3.26986 55.5215 1.87826 53.959 1.45508C53.4707 1.30859 52.8359 1.23535 52.0547 1.23535C51.2897 1.23535 50.3945 1.47949 49.3691 1.96777C48.36 2.43978 47.359 3.06641 46.3662 3.84766C45.3896 4.62891 44.4538 5.52409 43.5586 6.5332C42.6797 7.54232 41.8984 8.57585 41.2148 9.63379C39.75 11.945 39.0176 13.8656 39.0176 15.3955C39.0176 16.9092 39.6117 17.666 40.7998 17.666C41.9229 17.666 43.2331 17.0638 44.7305 15.8594C46.9115 14.1016 48.5391 11.888 49.6133 9.21875C49.9551 8.40495 50.1585 7.72949 50.2236 7.19238C50.305 6.65527 50.4189 6.38672 50.5654 6.38672C50.7119 6.38672 50.7852 6.7041 50.7852 7.33887C50.7852 7.97363 50.6143 8.74674 50.2725 9.6582C49.9469 10.5697 49.4993 11.4486 48.9297 12.2949C48.3763 13.125 47.7415 13.9144 47.0254 14.6631C46.3255 15.3955 45.5931 16.0384 44.8281 16.5918C43.2168 17.7474 41.8008 18.3252 40.5801 18.3252C38.9199 18.3252 37.8213 17.6172 37.2842 16.2012C37.1051 15.7454 37.0156 15.1351 37.0156 14.3701C37.0156 13.5889 37.2272 12.6693 37.6504 11.6113C38.0898 10.5534 38.6839 9.50358 39.4326 8.46191C40.1976 7.42025 41.0765 6.42741 42.0693 5.4834C43.0785 4.52311 44.1527 3.6849 45.292 2.96875C47.7822 1.3737 50.1423 0.576172 52.3721 0.576172Z" fill="#18212B" fill-opacity="0.75"/>
</svg>
