<svg width="112" height="47" viewBox="0 0 112 47" fill="none" xmlns="http://www.w3.org/2000/svg">
<path d="M9.47809 45.4307C8.93834 45.4985 8.3926 45.5187 7.84087 45.4913C6.28494 45.4288 5.25064 44.8976 4.73797 43.8977C4.56708 43.5644 4.4537 43.1755 4.39785 42.731C4.24623 41.5245 4.57477 40.1609 5.38347 38.6402C6.21994 37.0838 7.51487 35.5826 9.26827 34.1367C11.0494 32.6551 13.2515 31.443 15.8745 30.5006C17.3863 29.9559 18.9419 29.5024 20.5412 29.1401C22.1723 28.7739 23.7816 28.491 25.3691 28.2916C26.7026 28.124 27.9945 28.01 29.2447 27.9497C31.0729 25.5591 32.8138 23.1149 34.4672 20.6173C36.1525 18.1156 37.6334 15.7848 38.9101 13.6247C38.9061 13.593 38.8862 13.5632 38.8505 13.5355C38.8425 13.472 38.8365 13.4244 38.8325 13.3926C38.7012 12.8608 38.2703 12.5118 37.5399 12.3456C36.8055 12.1476 35.9898 12.0728 35.0928 12.121C34.1918 12.1374 33.3762 12.1916 32.6459 12.2833C31.9157 12.3751 31.5029 12.427 31.4077 12.4389C29.7726 12.7734 28.1793 13.1833 26.6277 13.6685C25.1038 14.118 23.9511 14.5693 23.1695 15.0223C22.4156 15.4395 21.8245 15.8686 21.3961 16.3094C20.9638 16.7185 20.7735 17.1295 20.8254 17.5422C20.8932 18.082 21.4214 18.5639 22.41 18.9879C22.4775 19.0117 22.5172 19.0712 22.5292 19.1664C22.5412 19.2617 22.5194 19.3451 22.4639 19.4165C22.4083 19.488 22.3468 19.5119 22.2793 19.4881C20.9533 18.9452 20.2324 18.2134 20.1167 17.2926C19.9651 16.0861 20.6908 15.0596 22.2937 14.2131C22.7461 13.9628 23.5318 13.6705 24.6508 13.3364C25.7659 12.9705 27.0299 12.6343 28.4427 12.3278C29.8872 12.0172 31.308 11.7742 32.705 11.5986C34.356 11.3911 35.8166 11.3366 37.0868 11.435C38.353 11.5016 39.1054 11.8425 39.3439 12.4575C39.3876 12.5488 39.4016 12.6599 39.3858 12.7909C39.5999 12.4415 39.8001 12.11 39.9865 11.7963C40.1688 11.4508 40.3512 11.1054 40.5335 10.76C40.5573 10.6925 40.6327 10.6508 40.7597 10.6348C40.8549 10.6228 40.9403 10.6605 41.0158 10.7477C41.0912 10.835 41.0873 10.9323 41.004 11.0395C40.2429 12.4252 39.2914 14.0929 38.1496 16.0424C37.0037 17.9603 35.7707 19.9536 34.4503 22.0223C33.126 24.0594 31.7916 26.017 30.4473 27.8953C33.309 27.8259 35.6132 27.9395 37.3598 28.2361C37.4111 27.8748 37.4645 27.5295 37.5198 27.2C37.5752 26.8706 37.6464 26.5391 37.7335 26.2056C38.1253 24.447 38.5826 22.6964 39.1054 20.9536C39.6242 19.1791 40.141 17.5176 40.656 15.9694C41.2027 14.4171 41.6821 13.099 42.0942 12.0152C42.5341 10.8956 42.859 10.1452 43.0691 9.76405C43.2 9.52185 43.4181 9.33317 43.7237 9.19802C44.057 9.02713 44.3506 8.92572 44.6046 8.89381C45.1126 8.82997 45.3032 8.93502 45.1764 9.20898C44.8354 9.83235 44.3658 10.8428 43.7673 12.2403C43.1967 13.6021 42.5766 15.212 41.907 17.07C41.2652 18.8922 40.6671 20.8057 40.1128 22.8105C39.5584 24.8152 39.1568 26.7524 38.908 28.622C39.3129 28.7647 39.575 28.9252 39.6942 29.1038C39.7299 29.1315 39.7538 29.193 39.7657 29.2883C39.7817 29.4153 39.7322 29.5344 39.6171 29.6456C39.5021 29.7568 39.4049 29.7529 39.3254 29.6339C39.2857 29.5744 39.2162 29.5347 39.1169 29.515C39.0455 29.4594 38.9581 29.4059 38.8549 29.3544C38.7839 30.0728 38.7288 30.7893 38.6896 31.5038C38.6781 32.1825 38.7123 32.8394 38.7921 33.4744C38.9517 34.7444 39.3255 35.794 39.9134 36.6231C40.5292 37.4165 41.4245 37.8684 42.5994 37.9788C42.7622 37.9906 42.907 37.9885 43.034 37.9726C43.1968 37.9844 43.3575 37.9803 43.5163 37.9603C43.9925 37.9005 44.4707 37.7275 44.9508 37.4414C45.4348 37.1871 45.8672 36.778 46.2479 36.2141C46.3034 36.1426 46.3946 36.0989 46.5216 36.083C46.6804 36.063 46.8134 36.0947 46.9206 36.178C47.0278 36.2612 47.0398 36.3565 46.9565 36.4637C46.5203 37.099 46.0166 37.5816 45.4452 37.9114C44.8739 38.2412 44.2707 38.4461 43.6357 38.5258C43.2547 38.5737 42.8677 38.574 42.4748 38.5266C40.8116 38.3808 39.5728 37.7625 38.7584 36.6715C37.9441 35.5805 37.4391 34.2572 37.2436 32.7014C37.1718 32.1299 37.1456 31.5365 37.1651 30.9213C37.1805 30.2743 37.2118 29.6254 37.259 28.9744C36.4016 28.8241 35.3259 28.7335 34.032 28.7026C32.7658 28.636 31.3786 28.6329 29.8703 28.6935L29.0435 29.8133C27.9966 31.2349 26.7414 32.7956 25.2779 34.4953C23.8462 36.1911 22.2775 37.8234 20.5718 39.3923C18.8661 40.9613 17.067 42.3 15.1744 43.4086C13.3136 44.5133 11.4149 45.1873 9.47809 45.4307ZM10.4179 44.0548C12.1641 43.8353 13.8744 43.2011 15.5487 42.1522C17.2547 41.0992 18.8852 39.83 20.4401 38.3446C22.0228 36.8234 23.4982 35.2189 24.8665 33.5311C26.2665 31.8394 27.5336 30.2449 28.6677 28.7478C27.3858 28.8122 26.0939 28.9261 24.7921 29.0897C23.4269 29.2613 22.0855 29.4944 20.7679 29.7889C19.4821 30.0795 18.2063 30.4495 16.9404 30.8988C15.0913 31.5827 13.4863 32.4133 12.1255 33.3906C10.7925 34.3322 9.70763 35.3232 8.87083 36.3636C8.17283 37.2254 7.59992 38.1843 7.15211 39.2404C6.73205 40.2607 6.57389 41.1836 6.67763 42.0091C6.76541 42.7076 7.09322 43.2631 7.66107 43.6755C8.26068 44.084 9.17961 44.2104 10.4179 44.0548ZM52.1224 36.9272C50.8841 37.0828 49.9731 36.8909 49.3893 36.3515C48.8372 35.8081 48.5093 35.1236 48.4056 34.2981C48.3297 33.6949 48.3452 33.0479 48.4519 32.3572C48.5904 31.6625 48.7686 31.0273 48.9865 30.4517C49.351 29.5028 49.8148 28.5737 50.3778 27.6645C50.9726 26.7512 51.6191 25.9926 52.3172 25.3889C53.0114 24.7534 53.7078 24.3917 54.4063 24.3039C54.9143 24.2401 55.3966 24.3569 55.8532 24.6543C56.3099 24.9516 56.5721 25.3702 56.6399 25.91C56.6679 26.1322 56.6502 26.3763 56.5868 26.6423C56.5195 26.8765 56.4204 27.1147 56.2896 27.3569C56.1866 27.5634 56.0835 27.7699 55.9804 27.9763C55.9369 28.1431 55.8516 28.2344 55.7246 28.2504C55.5976 28.2663 55.5201 28.1632 55.4922 27.9409C55.4723 27.7822 55.5019 27.6333 55.5812 27.4943C55.6605 27.3554 55.7338 27.1688 55.8011 26.9346C55.8685 26.7003 55.8882 26.4721 55.8602 26.2498C55.8084 25.8371 55.6633 25.5812 55.4251 25.4821C55.2186 25.379 54.9884 25.3435 54.7344 25.3754C54.1312 25.4512 53.5142 25.8029 52.8835 26.4304C52.2806 27.0222 51.7453 27.7668 51.2775 28.6641C50.8097 29.5614 50.4432 30.4944 50.1779 31.463C49.9404 32.3959 49.8695 33.2434 49.9652 34.0054C50.045 34.6404 50.2736 35.1761 50.6509 35.6124C51.0243 36.017 51.6079 36.1695 52.4016 36.0697C52.9414 36.0019 53.483 35.8209 54.0266 35.5269C54.598 35.197 55.1177 34.8415 55.5858 34.4601C56.3435 33.8166 56.9761 33.076 57.4835 32.2382C58.0188 31.3646 58.5322 30.4454 59.0237 29.4806C59.103 29.3416 59.1744 29.2682 59.2379 29.2602C59.3014 29.2522 59.357 29.3097 59.4047 29.4327C59.4525 29.5557 59.4387 29.7026 59.3634 29.8733C58.9036 30.8342 58.3505 31.8228 57.7042 32.8393C57.0579 33.8559 56.3837 34.6501 55.6815 35.2221C55.1579 35.675 54.5926 36.0524 53.9855 36.3544C53.3784 36.6565 52.7574 36.8474 52.1224 36.9272ZM64.2129 35.4079C62.9746 35.5635 62.0636 35.3716 61.4798 34.8321C60.9277 34.2887 60.5998 33.6043 60.4961 32.7788C60.4203 32.1755 60.4357 31.5285 60.5424 30.8378C60.6809 30.1432 60.8591 29.508 61.077 28.9323C61.4416 27.9835 61.9053 27.0544 62.4684 26.1451C63.0631 25.2318 63.7096 24.4733 64.4078 23.8695C65.1019 23.234 65.7983 22.8724 66.4968 22.7846C67.0048 22.7207 67.4871 22.8375 67.9438 23.1349C68.4004 23.4323 68.6626 23.8509 68.7305 24.3906C68.7584 24.6129 68.7407 24.857 68.6774 25.1229C68.61 25.3572 68.511 25.5954 68.3802 25.8376C68.2771 26.044 68.174 26.2505 68.071 26.457C68.0274 26.6237 67.9421 26.715 67.8151 26.731C67.6881 26.747 67.6107 26.6438 67.5827 26.4216C67.5628 26.2628 67.5925 26.1139 67.6718 25.975C67.751 25.836 67.8244 25.6494 67.8917 25.4152C67.959 25.181 67.9787 24.9527 67.9508 24.7305C67.8989 24.3177 67.7539 24.0618 67.5156 23.9627C67.3092 23.8597 67.0789 23.8241 66.8249 23.856C66.2217 23.9318 65.6047 24.2835 64.974 24.911C64.3711 25.5028 63.8358 26.2474 63.368 27.1447C62.9003 28.042 62.5337 28.975 62.2684 29.9437C62.0309 30.8766 61.96 31.724 62.0558 32.486C62.1356 33.121 62.3641 33.6567 62.7415 34.0931C63.1148 34.4977 63.6984 34.6501 64.4922 34.5503C65.0319 34.4825 65.5736 34.3016 66.1172 34.0075C66.6885 33.6777 67.2082 33.3221 67.6763 32.9408C68.434 32.2973 69.0666 31.5566 69.5741 30.7188C70.1093 29.8453 70.6227 28.9261 71.1143 27.9612C71.1936 27.8223 71.265 27.7488 71.3285 27.7408C71.392 27.7328 71.4476 27.7904 71.4953 27.9134C71.543 28.0364 71.5292 28.1832 71.4539 28.354C70.9941 29.3148 70.4411 30.3035 69.7948 31.32C69.1485 32.3365 68.4742 33.1308 67.7721 33.7028C67.2485 34.1556 66.6831 34.533 66.076 34.8351C65.4689 35.1371 64.8479 35.3281 64.2129 35.4079ZM76.9283 33.4713C75.6265 33.6349 74.6381 33.4689 73.963 32.9732C73.284 32.4457 72.8826 31.6899 72.7589 30.7056C72.727 30.4516 72.711 30.1956 72.7108 29.9376C72.7384 29.6439 72.766 29.3501 72.7936 29.0564C72.8805 28.465 73.0507 27.7663 73.3042 26.9604C73.5894 26.1505 73.9561 25.3465 74.404 24.5484C74.852 23.7503 75.3636 23.0733 75.9388 22.5172C76.5139 21.9612 77.1508 21.6393 77.8493 21.5515C78.4208 21.4797 78.8753 21.6322 79.2129 22.009C79.5823 22.3819 79.8029 22.8541 79.8747 23.4256C79.9505 24.0288 79.8378 24.6719 79.5366 25.3548C79.2632 26.0019 78.8488 26.5539 78.2934 27.0107C77.6547 27.5747 76.8909 27.9126 76.0019 28.0243C75.4304 28.0961 74.8926 28.0509 74.3884 27.8884C74.0318 28.9008 73.9114 29.8674 74.0271 30.7881C74.1109 31.4549 74.3732 32.0024 74.8141 32.4308C75.2549 32.8592 75.9198 33.0175 76.8089 32.9058C77.8884 32.7701 78.809 32.3964 79.5706 31.7847C80.3283 31.1412 81.0025 30.347 81.5933 29.4019C82.2158 28.4529 82.7986 27.4444 83.3417 26.3763C83.425 26.2691 83.4825 26.2135 83.5142 26.2095C83.6095 26.1975 83.6671 26.2709 83.6871 26.4297C83.707 26.5884 83.6793 26.7532 83.604 26.9239C83.1442 27.8847 82.6031 28.8396 81.9805 29.7886C81.3898 30.7337 80.6858 31.5478 79.8686 32.231C79.0514 32.9143 78.0713 33.3277 76.9283 33.4713ZM75.4419 27.4174C76.2674 27.3137 77.0093 26.9302 77.6678 26.2669C77.9851 25.969 78.2488 25.6295 78.459 25.2483C78.6691 24.8671 78.7998 24.4959 78.8512 24.1347C78.9025 23.7735 78.9123 23.4659 78.8803 23.2119C78.7886 22.4816 78.4728 22.1504 77.933 22.2182C77.5838 22.2621 77.2128 22.5184 76.8202 22.987C76.4831 23.3841 76.1421 23.8785 75.7972 24.4701C75.484 25.0578 75.2164 25.6235 74.9945 26.1674C74.7686 26.6796 74.622 27.0528 74.5547 27.287C74.7969 27.4178 75.0926 27.4613 75.4419 27.4174ZM89.1608 32.3211C88.4941 32.4049 87.8848 32.4331 87.3331 32.4057C86.8131 32.3743 86.4202 32.3269 86.1542 32.2636C85.789 32.1805 85.4992 32.0556 85.2847 31.8891C85.098 31.6868 84.9947 31.5062 84.9748 31.3475C84.9468 31.1252 85.044 31.0001 85.2663 30.9722C85.425 30.9523 85.6275 31.0236 85.8737 31.1861C86.3661 31.5113 86.8226 31.6797 87.2433 31.6913C87.5926 31.6474 88.047 31.5419 88.6065 31.3749C89.1621 31.176 89.537 30.9515 89.7313 30.7014C90.0645 30.2725 90.2071 29.8675 90.1592 29.4865C90.1273 29.2325 90.018 29.0044 89.8313 28.8021C89.6724 28.564 89.452 28.3499 89.17 28.1595C88.7134 27.8621 88.2567 27.5648 87.8001 27.2674C87.3395 26.9382 86.9383 26.5694 86.5967 26.1608C86.0644 25.5181 85.7564 24.8634 85.6726 24.1967C85.5449 23.1807 85.7586 22.1863 86.3137 21.2135C86.9005 20.2367 87.5548 19.4127 88.2768 18.7414C89.0582 18.0304 89.8934 17.6191 90.7824 17.5073C91.2587 17.4475 91.7172 17.5028 92.1578 17.6732C92.5945 17.8118 92.9519 18.0894 93.2301 18.506C93.2698 18.5655 93.2956 18.6429 93.3076 18.7381C93.3315 18.9286 93.284 19.0636 93.165 19.143C93.046 19.2225 92.9427 19.171 92.8553 18.9885C92.6009 18.5044 92.0451 18.3162 91.1879 18.4239C90.6799 18.4878 90.1362 18.6529 89.5569 18.9192C89.0093 19.1815 88.5769 19.4616 88.2596 19.7595C87.2838 20.7207 86.8777 21.8521 87.0413 23.1539C87.157 24.0746 87.5624 24.8622 88.2574 25.5167C88.734 25.9728 89.2224 26.3952 89.7228 26.7839C90.2509 27.1368 90.6997 27.4996 91.0691 27.8725C91.4344 28.2136 91.5934 28.5806 91.5461 28.9736C91.4751 29.6921 91.0865 30.3214 90.3804 30.8617C89.702 31.3662 89.0493 31.6901 88.4223 31.8334C88.6168 31.8412 88.968 31.8132 89.476 31.7494C91.2858 31.522 92.7499 30.7252 93.8683 29.3591C95.0184 27.989 96.0295 26.4106 96.9015 24.6239C96.9531 24.5207 97.0106 24.4651 97.0741 24.4571C97.1376 24.4491 97.1793 24.5245 97.1992 24.6833C97.2232 24.8738 97.1717 25.106 97.0449 25.3799C96.0698 27.3731 94.9972 28.9753 93.8271 30.1867C92.6848 31.3623 91.1294 32.0738 89.1608 32.3211ZM102.693 30.6206C102.026 30.7044 101.417 30.7326 100.865 30.7051C100.345 30.6737 99.9525 30.6264 99.6865 30.563C99.3213 30.4799 99.0315 30.3551 98.817 30.1885C98.6304 29.9862 98.527 29.8057 98.5071 29.6469C98.4792 29.4247 98.5763 29.2996 98.7986 29.2717C98.9573 29.2517 99.1598 29.323 99.406 29.4856C99.8984 29.8107 100.355 29.9791 100.776 29.9908C101.125 29.9469 101.579 29.8414 102.139 29.6743C102.694 29.4755 103.069 29.251 103.264 29.0008C103.597 28.5719 103.739 28.167 103.692 27.786C103.66 27.532 103.55 27.3038 103.364 27.1015C103.205 26.8635 102.984 26.6493 102.702 26.459C102.246 26.1616 101.789 25.8642 101.332 25.5668C100.872 25.2377 100.471 24.8688 100.129 24.4602C99.5968 23.8176 99.2887 23.1629 99.2049 22.4961C99.0773 21.4801 99.2909 20.4857 99.846 19.5129C100.433 18.5361 101.087 17.7121 101.809 17.0409C102.591 16.3299 103.426 15.9185 104.315 15.8068C104.791 15.747 105.249 15.8022 105.69 15.9726C106.127 16.1112 106.484 16.3888 106.762 16.8054C106.802 16.8649 106.828 16.9423 106.84 17.0376C106.864 17.2281 106.816 17.363 106.697 17.4425C106.578 17.522 106.475 17.4704 106.388 17.2879C106.133 16.8038 105.577 16.6157 104.72 16.7234C104.212 16.7872 103.669 16.9523 103.089 17.2186C102.542 17.4809 102.109 17.7611 101.792 18.0589C100.816 19.0201 100.41 20.1516 100.574 21.4533C100.689 22.3741 101.095 23.1617 101.79 23.8161C102.266 24.2723 102.755 24.6947 103.255 25.0833C103.783 25.4362 104.232 25.7991 104.601 26.172C104.967 26.5131 105.126 26.8801 105.078 27.2731C105.007 27.9915 104.619 28.6209 103.913 29.1611C103.234 29.6657 102.582 29.9896 101.955 30.1329C102.149 30.1407 102.5 30.1127 103.008 30.0488C104.818 29.8214 106.282 29.0246 107.401 27.6585C108.551 26.2884 109.562 24.7101 110.434 22.9234C110.485 22.8202 110.543 22.7645 110.606 22.7566C110.67 22.7486 110.712 22.824 110.732 22.9827C110.755 23.1732 110.704 23.4055 110.577 23.6794C109.602 25.6725 108.53 27.2748 107.359 28.4861C106.217 29.6617 104.662 30.3732 102.693 30.6206Z" fill="#D9B855"/>
</svg>
