<svg width="254" height="73" viewBox="0 0 254 73" fill="none" xmlns="http://www.w3.org/2000/svg">
<path d="M15.0551 59.7174C12.8961 59.9888 10.8956 59.8531 9.05355 59.3106C7.21552 58.7998 5.7919 57.737 4.78269 56.1222C4.49261 55.6104 4.23029 55.0628 3.99573 54.4795C3.78893 53.8605 3.64363 53.2176 3.55984 52.5508C3.35237 50.8998 3.51193 49.0898 4.03853 47.1207C4.56514 45.1517 5.46086 43.1686 6.72569 41.1713C7.98654 39.1422 9.63247 37.226 11.6635 35.4227C13.7262 33.6154 16.1741 32.05 19.0072 30.7264C19.6421 30.3886 20.5984 30.0427 21.8762 29.6886C23.15 29.3028 24.4855 29.0221 25.8825 28.8465C26.8032 28.7308 27.7002 28.6826 28.5734 28.7019C29.4784 28.7172 30.3021 28.8555 31.0445 29.117C31.9536 29.422 32.6346 29.8364 33.0874 30.36C33.5402 30.8836 33.8105 31.4947 33.8983 32.1932C33.9861 32.8917 33.8913 33.6776 33.6141 34.551C33.4715 34.956 33.2316 35.357 32.8945 35.7541C32.5851 36.1155 32.3134 36.3916 32.0794 36.5822C31.7303 36.8841 31.4287 37.051 31.1747 37.0829C31.0477 37.0989 30.9782 37.0593 30.9663 36.964C30.9383 36.7418 31.1128 36.4618 31.4896 36.1242C31.926 35.7468 32.2234 35.2902 32.3818 34.7543C32.572 34.2143 32.6311 33.6586 32.5593 33.0871C32.4795 32.4521 32.245 31.8688 31.8556 31.3372C31.4941 30.7699 30.9758 30.3673 30.3009 30.1296C29.626 29.8919 28.8678 29.7614 28.0264 29.7382C27.1849 29.7149 26.3197 29.7591 25.4307 29.8709C24.1924 30.0265 23.0137 30.2713 21.8947 30.6055C20.7756 30.9396 19.9423 31.2378 19.3947 31.5002C16.8077 32.7283 14.6038 34.1825 12.7831 35.8626C10.9583 37.511 9.48496 39.2603 8.36291 41.1107C7.26863 42.9253 6.49783 44.7476 6.05052 46.5776C5.63097 48.372 5.51695 50.0311 5.70847 51.5551C5.80422 52.3171 5.97537 53.0374 6.2219 53.716C6.46843 54.3945 6.78635 54.9996 7.17567 55.5312C8.06952 56.7412 9.33422 57.566 10.9698 58.0055C12.6014 58.4132 14.3855 58.4954 16.3223 58.252C18.2908 58.0046 20.2869 57.4635 22.3106 56.6287C24.3343 55.7938 26.1892 54.7706 27.8753 53.5589C28.3196 53.245 28.8294 52.8101 29.4045 52.254C30.0114 51.694 30.5826 51.1062 31.118 50.4906C31.6852 49.8711 32.1175 49.333 32.4149 48.8763C32.6092 48.6262 32.8016 48.4891 32.9921 48.4652C33.1191 48.4492 33.1906 48.5047 33.2065 48.6317C33.2225 48.7587 33.0977 49.0486 32.832 49.5012C32.3721 50.204 31.7316 51.0102 30.9106 51.9197C30.1213 52.8251 29.2685 53.6096 28.352 54.273C26.4557 55.6079 24.329 56.7782 21.972 57.7839C19.615 58.7896 17.3094 59.4342 15.0551 59.7174ZM39.6607 54.8354C38.8034 54.9431 38.0313 54.8305 37.3445 54.4976C36.6536 54.1329 36.2383 53.3949 36.0987 52.2836C36.0109 51.5851 36.0898 50.8012 36.3353 49.9318C36.5768 49.0306 36.9176 48.1492 37.3576 47.2877C37.8254 46.3903 38.3587 45.6299 38.9576 45.0064C39.1004 44.8594 39.2988 44.77 39.5528 44.7381C39.886 44.3092 40.2787 43.9696 40.731 43.7192C41.2151 43.4649 41.6793 43.3098 42.1238 43.2539C42.9176 43.1542 43.6798 43.3164 44.4104 43.7406C45.1727 44.1608 45.6237 44.9266 45.7634 46.0378C45.8432 46.6728 45.7643 47.4568 45.5268 48.3897C45.313 49.2551 44.9286 50.1742 44.3735 51.147C43.8145 52.088 43.1284 52.9161 42.3152 53.631C41.5298 54.3103 40.6449 54.7117 39.6607 54.8354ZM39.5412 54.2699C40.2397 54.1821 40.9202 53.8225 41.5826 53.1909C42.2768 52.5554 42.8895 51.785 43.4208 50.8797C43.9481 49.9426 44.3007 49.0275 44.4787 48.1344C44.6885 47.2372 44.7515 46.4553 44.6677 45.7885C44.564 44.963 44.2679 44.4035 43.7795 44.1101C43.2871 43.785 42.7711 43.6563 42.2313 43.7242C41.3741 43.8319 40.6638 44.2114 40.1007 44.8627C40.4421 45.0133 40.4978 45.1998 40.2677 45.4223C39.8711 45.8591 39.4289 46.4468 38.9412 47.1854C38.4852 47.92 38.1344 48.593 37.8887 49.2044C37.7144 49.6133 37.5698 50.1314 37.4551 50.7586C37.3722 51.3818 37.3646 51.9633 37.4325 52.503C37.5003 53.0428 37.6871 53.5031 37.993 53.8839C38.3266 54.229 38.8427 54.3577 39.5412 54.2699ZM52.7744 53.1875C51.9171 53.2952 51.1451 53.1826 50.4582 52.8496C49.7673 52.4849 49.3521 51.7469 49.2124 50.6357C49.1247 49.9372 49.2035 49.1532 49.449 48.2838C49.6906 47.3827 50.0313 46.5013 50.4713 45.6397C50.9391 44.7424 51.4725 43.982 52.0714 43.3584C52.2142 43.2115 52.4126 43.122 52.6666 43.0901C52.9997 42.6612 53.3924 42.3216 53.8447 42.0713C54.3288 41.8169 54.7931 41.6618 55.2376 41.606C56.0313 41.5062 56.7935 41.6684 57.5241 42.0927C58.2865 42.5129 58.7375 43.2786 58.8771 44.3899C58.9569 45.0249 58.878 45.8089 58.6405 46.7417C58.4267 47.6072 58.0423 48.5263 57.4873 49.4991C56.9283 50.4401 56.2421 51.2681 55.4289 51.9831C54.6435 52.6623 53.7587 53.0638 52.7744 53.1875ZM52.655 52.6219C53.3535 52.5342 54.0339 52.1745 54.6964 51.543C55.3905 50.9075 56.0033 50.1371 56.5345 49.2318C57.0618 48.2947 57.4145 47.3796 57.5925 46.4864C57.8023 45.5893 57.8652 44.8073 57.7815 44.1406C57.6777 43.3151 57.3817 42.7556 56.8933 42.4622C56.4009 42.1371 55.8848 42.0084 55.3451 42.0762C54.4878 42.184 53.7776 42.5635 53.2144 43.2148C53.5558 43.3654 53.6115 43.5519 53.3815 43.7743C52.9848 44.2112 52.5427 44.7989 52.0549 45.5375C51.599 46.2721 51.2482 46.945 51.0025 47.5565C50.8281 47.9654 50.6836 48.4834 50.5689 49.1106C50.4859 49.7338 50.4784 50.3153 50.5462 50.8551C50.614 51.3948 50.8009 51.8551 51.1067 52.236C51.4404 52.5811 51.9564 52.7097 52.655 52.6219ZM63.4238 52.333C63.1698 52.3649 62.9455 52.2479 62.7508 51.9821C62.5244 51.7203 62.3753 51.3037 62.3035 50.7322C62.2317 50.1607 62.2194 49.5494 62.2666 48.8985C62.3098 48.2157 62.361 47.5965 62.4201 47.0408C62.5111 46.4811 62.5763 46.102 62.6159 45.9035C62.9128 44.6729 63.3167 43.2676 63.8277 41.6875C64.3347 40.0758 64.9746 38.4956 65.7476 36.9472C66.5483 35.363 67.4702 33.9732 68.5133 32.7778C69.5524 31.5507 70.7347 30.6926 72.06 30.2035C72.2148 30.1518 72.3557 30.118 72.4827 30.102C72.6374 30.0503 72.7783 30.0165 72.9053 30.0005C73.4133 29.9367 73.84 29.9959 74.1855 30.1783C74.5269 30.3289 74.7652 30.5569 74.9003 30.8625C74.9043 30.8942 74.9083 30.926 74.9123 30.9577C74.9481 30.9855 74.9699 31.0311 74.9779 31.0946C74.9978 31.2534 74.9602 31.3387 74.8649 31.3507C74.7062 31.3707 74.597 31.2715 74.5373 31.0532C74.4856 30.8985 74.3288 30.8053 74.0668 30.7737C73.8008 30.7104 73.5091 30.6987 73.1916 30.7386C72.3026 30.8503 71.4416 31.3133 70.6086 32.1275C69.7756 32.9417 68.9844 33.9603 68.2351 35.1833C67.4857 36.4062 66.7939 37.7026 66.1598 39.0724C65.5574 40.4381 65.0284 41.7463 64.5727 42.9969C64.1488 44.2434 63.8142 45.3014 63.5686 46.1708C63.3944 46.8378 63.2836 47.3677 63.2363 47.7607C63.1889 48.1536 63.1713 48.5268 63.1834 48.88C63.4964 48.0344 63.9423 47.0914 64.5211 46.0511C65.096 44.9791 65.7879 43.9407 66.5969 42.936C67.4377 41.9273 68.3441 41.0555 69.316 40.3206C69.8199 39.967 70.2147 39.7722 70.5004 39.7363C70.8497 39.6924 71.1018 39.7736 71.2567 39.9799C71.4434 40.1822 71.5567 40.4421 71.5966 40.7596C71.6804 41.4264 71.4824 42.1608 71.0027 42.9629C70.5547 43.761 70.0173 44.4897 69.3907 45.1489C68.7917 45.7725 68.284 46.2233 67.8674 46.5014C67.7484 46.5809 67.5976 46.6643 67.4151 46.7518C67.5424 47.2518 67.6777 47.6863 67.8208 48.0554C67.9599 48.3926 68.0534 48.6228 68.1011 48.7458C68.6732 49.7059 69.3245 50.1401 70.0547 50.0484C70.7532 49.9606 71.4158 49.5871 72.0425 48.9278C72.6652 48.2367 73.2283 47.4564 73.7318 46.5869C74.2671 45.7133 74.7151 44.9152 75.0758 44.1926C75.1313 44.1211 75.1709 44.0517 75.1947 43.9842C75.2502 43.9127 75.2939 43.875 75.3256 43.871C75.4209 43.859 75.4785 43.9324 75.4984 44.0911C75.5144 44.2181 75.4847 44.367 75.4094 44.5377C75.0012 45.3953 74.5036 46.3125 73.9168 47.2893C73.3261 48.2343 72.6717 49.0583 71.9538 49.7614C71.2636 50.4286 70.5057 50.8141 69.6802 50.9179C68.95 51.0096 68.3326 50.8453 67.8283 50.4249C67.32 49.9728 66.9128 49.4273 66.6067 48.7885C66.3284 48.1139 66.1554 47.5067 66.0876 46.967C66.0397 46.586 66.0494 46.2784 66.1167 46.0441C66.1325 45.9131 66.2436 45.7702 66.4498 45.6153C66.6522 45.4286 66.8327 45.3253 66.9914 45.3053C67.1502 45.2854 67.2415 45.3706 67.2655 45.5611C67.2497 45.6921 67.2498 45.8211 67.2657 45.9481C67.2817 46.0751 67.2976 46.2021 67.3136 46.3291L67.4445 46.2159C67.6468 46.0292 67.9919 45.6956 68.4798 45.215C68.9954 44.6987 69.4118 44.1626 69.729 43.6067C70.1057 43.0111 70.2641 42.4752 70.2042 41.9989C70.1484 41.5544 69.9141 41.3581 69.5013 41.41C69.0568 41.4658 68.4935 41.8591 67.8113 42.5899C66.8395 43.5828 65.9254 44.7781 65.069 46.1758C64.2126 47.5735 63.6875 48.9134 63.4939 50.1956C63.4305 50.4615 63.4188 50.7533 63.4587 51.0708C63.5264 51.3525 63.5702 51.5728 63.5901 51.7315L63.6141 51.922C63.646 52.176 63.5826 52.313 63.4238 52.333ZM81.2269 35.4857C80.7824 35.5416 80.4786 35.3056 80.3155 34.7778C80.2519 34.5278 80.3787 34.2539 80.696 33.956C81.0134 33.6581 81.2772 33.4476 81.4875 33.3244C81.6382 33.2409 81.7592 33.1773 81.8505 33.1336C81.9418 33.0899 82.0192 33.0641 82.0827 33.0561C82.3049 33.0281 82.43 33.1253 82.4579 33.3476C82.4898 33.6016 82.4325 33.9152 82.2859 34.2883C82.171 34.6575 82.1136 34.8422 82.1136 34.8422C82.0978 34.9731 82.0026 35.1141 81.8281 35.265C81.6496 35.3842 81.4492 35.4578 81.2269 35.4857ZM78.2299 50.1337C77.6584 50.2055 77.2217 50.0669 76.9198 49.7178C76.6179 49.3687 76.4311 48.9084 76.3593 48.3369C76.3034 47.8924 76.2972 47.4578 76.3406 47.0331C76.3801 46.8346 76.479 46.3384 76.6373 45.5445C76.8273 44.7466 77.0867 43.8593 77.4155 42.8827C77.776 41.9021 78.1843 41.0445 78.6402 40.3099C79.0922 39.5436 79.6039 39.1245 80.1755 39.0527C80.4295 39.0207 80.5644 39.0683 80.5804 39.1953C80.5964 39.3223 80.5488 39.4573 80.4378 39.6002C79.8985 40.442 79.409 41.4227 78.9691 42.5423C78.5571 43.6261 78.2184 44.6524 77.9531 45.621C77.7195 46.5857 77.6009 47.3101 77.5973 47.7943C77.6297 48.8223 77.9952 49.2924 78.6937 49.2046C78.7889 49.1927 78.8842 49.1807 78.9794 49.1687C79.0707 49.125 79.1778 49.0793 79.3008 49.0316C79.9397 48.7255 80.5387 48.231 81.0979 47.5479C81.6571 46.8649 82.1607 46.1243 82.6087 45.3262C83.0566 44.5282 83.4214 43.8373 83.7028 43.2536C83.8138 43.1107 83.8852 43.0372 83.917 43.0332C84.0122 43.0212 84.0698 43.0946 84.0898 43.2534C84.1097 43.4121 84.082 43.5769 84.0067 43.7476C83.4439 44.9149 82.752 46.0823 81.9312 47.2497C81.1421 48.4132 80.3091 49.2274 79.4323 49.6924C78.9799 49.9427 78.5792 50.0898 78.2299 50.1337ZM85.8629 49.0294C85.7677 49.0413 85.6644 48.9898 85.5532 48.8748C85.2633 48.621 85.0784 48.1765 84.9986 47.5415C84.9149 46.8748 84.9322 46.1147 85.0507 45.2612C85.197 44.3721 85.385 43.5583 85.6147 42.8199C85.8484 42.1132 86.0604 41.4899 86.2506 40.95C86.4725 40.4061 86.6231 40.0646 86.7024 39.9257C86.9958 39.4373 87.315 39.0263 87.6601 38.6926C88.0052 38.359 88.3682 38.1682 88.7492 38.1204C88.9397 38.0964 89.0886 38.1261 89.1958 38.2094C89.3348 38.2887 89.3606 38.3661 89.2734 38.4415C89.0353 38.6004 88.7458 38.9916 88.4049 39.615C88.06 40.2066 87.7111 40.8955 87.3584 41.6816C87.1365 42.2255 86.8572 42.954 86.5204 43.8671C86.1836 44.7802 86.0214 45.5424 86.0337 46.1536C86.0656 46.4076 86.1431 46.5108 86.2661 46.4631L87.2113 44.3608C87.7384 43.1658 88.4739 41.9607 89.4178 40.7455C90.3616 39.5303 91.4088 38.4957 92.5593 37.6416C92.6783 37.5621 92.7993 37.4985 92.9223 37.4508C93.0771 37.3991 93.218 37.3653 93.345 37.3493C93.6307 37.3134 93.7856 37.3907 93.8095 37.5812C93.8175 37.6447 93.7581 37.8135 93.6312 38.0874C93.0762 39.0602 92.67 40.0627 92.4127 41.0948C92.1514 42.0952 92.0449 43.1729 92.0933 44.3279C92.1493 45.0303 92.2946 45.6733 92.5292 46.2566C92.7915 46.8041 93.2243 47.04 93.8276 46.9642C94.5261 46.8764 95.1569 46.5069 95.7201 45.8556C96.2833 45.2043 96.7869 44.4637 97.2309 43.6339C97.7026 42.7683 98.107 42.0079 98.4439 41.3528C98.4955 41.2496 98.5371 41.196 98.5689 41.192C98.6641 41.18 98.7237 41.2693 98.7476 41.4598C98.7676 41.6185 98.728 41.817 98.629 42.0552C98.2405 42.8136 97.8104 43.6255 97.3386 44.4911C96.8668 45.3567 96.3156 46.1032 95.685 46.7308C95.086 47.3543 94.3579 47.72 93.5007 47.8277C92.7069 47.9274 92.0975 47.6976 91.6724 47.1383C91.2474 46.5789 90.981 45.8706 90.8733 45.0133C90.7576 44.0926 90.7767 43.0904 90.9308 42.0067C91.1167 40.919 91.3721 40 91.697 39.2496C90.9473 39.9566 90.1858 40.8264 89.4125 41.8588C88.6353 42.8596 87.9929 43.9078 87.4856 45.0036C87.3152 45.4443 87.0794 46.0061 86.7782 46.689C86.477 47.3719 86.2869 47.9118 86.2077 48.3088C86.192 48.4398 86.1742 48.5549 86.1544 48.6541C86.1306 48.7216 86.1068 48.7891 86.0831 48.8566C86.0633 48.9558 85.9899 49.0134 85.8629 49.0294ZM100.942 60.6318C100.053 60.7435 99.3799 60.5217 98.9231 59.9663C98.6887 59.641 98.5476 59.2878 98.4997 58.9068C98.4478 58.4941 98.4734 58.0555 98.5762 57.591C98.6831 57.1583 98.8356 56.7038 99.0338 56.2273C99.3865 55.4412 99.8206 54.661 100.336 53.8867C100.852 53.1124 101.359 52.4036 101.859 51.7602C102.39 51.1129 102.827 50.6066 103.168 50.2412C103.767 49.6177 104.465 48.8849 105.262 48.0429C106.091 47.197 106.95 46.4601 107.838 45.8324C107.898 45.7927 107.959 45.7688 108.023 45.7609C108.118 45.7489 108.172 45.7905 108.184 45.8858C108.208 46.0763 108.144 46.2133 107.994 46.2967C107.609 46.5708 107.127 46.97 106.548 47.4943C105.972 48.0504 105.413 48.6045 104.87 49.1565C104.33 49.7403 103.862 50.2507 103.466 50.6875C103.184 51.0132 102.809 51.4957 102.341 52.135C101.873 52.7743 101.413 53.4772 100.961 54.2435C100.482 55.0456 100.097 55.8357 99.808 56.6138C99.7129 56.8838 99.6119 57.2351 99.5051 57.6678C99.4022 58.1323 99.3747 58.555 99.4225 58.936C99.4624 59.2535 99.5896 59.4955 99.8041 59.6621C99.9907 59.8644 100.29 59.9396 100.703 59.8878C101.37 59.804 102.007 59.4821 102.614 58.922C103.256 58.3897 103.837 57.7523 104.357 57.0097C104.908 56.2632 105.394 55.5087 105.814 54.7464C106.238 54.0158 106.561 53.3785 106.783 52.8346C107.691 50.8177 108.319 48.6264 108.666 46.2605C109.05 43.9225 109.038 41.7792 108.632 39.8306C108.573 39.6123 108.515 39.41 108.459 39.2234C108.4 39.0052 108.324 38.7889 108.233 38.5746C108.181 38.6779 108.129 38.7811 108.078 38.8843C108.026 38.9876 107.961 39.1087 107.882 39.2476C107.719 39.7518 107.486 40.3295 107.18 40.9806C106.871 41.6 106.572 42.1698 106.282 42.6899C106.025 43.2061 105.842 43.5515 105.735 43.7262C105.089 44.7427 104.458 45.4992 103.844 45.9958C103.26 46.4883 102.731 46.7645 102.255 46.8244C101.62 46.9042 101.093 46.6962 100.676 46.2003C100.255 45.6727 99.9949 45.012 99.8951 44.2182C99.7116 42.7577 100.064 41.0686 100.952 39.151C101.388 38.2576 102.038 37.4019 102.903 36.5837C103.763 35.7337 104.654 35.2509 105.575 35.1352C106.337 35.0394 107.028 35.2751 107.647 35.8423C107.759 35.9573 107.794 36.1141 107.755 36.3126C107.743 36.4753 107.666 36.5012 107.523 36.3901C107.372 36.2156 107.149 36.1145 106.856 36.0869C106.594 36.0553 106.336 36.0555 106.082 36.0874C105.288 36.1872 104.594 36.5647 103.999 37.22C103.4 37.8435 102.894 38.5682 102.482 39.3941C102.097 40.1842 101.786 40.9167 101.549 41.5916C101.026 43.0764 100.816 44.2315 100.92 45.057C101.027 45.9143 101.399 46.303 102.034 46.2232C102.447 46.1713 102.915 45.919 103.438 45.4662C103.99 44.9776 104.559 44.2449 105.146 43.2682C105.28 43.0577 105.506 42.6745 105.824 42.1187C106.137 41.531 106.47 40.8441 106.822 40.058C107.175 39.2719 107.466 38.5097 107.696 37.7712C107.692 37.7395 107.69 37.7236 107.69 37.7236C107.722 37.7196 107.736 37.7018 107.732 37.67C107.696 37.6423 107.639 37.5689 107.559 37.4498L107.553 37.4022C107.537 37.2752 107.672 37.1938 107.958 37.1578C108.212 37.1259 108.41 37.1655 108.553 37.2765C108.974 37.5462 109.306 38.0044 109.548 38.6512C109.819 39.2622 110.006 39.9805 110.109 40.806C110.245 41.8855 110.266 43.0763 110.171 44.3782C110.073 45.6484 109.891 46.8968 109.626 48.1234C109.393 49.3461 109.08 50.4497 108.687 51.4343C108.26 52.6491 107.715 53.8303 107.053 54.9778C106.426 56.153 105.718 57.1934 104.929 58.0989C104.172 59.0004 103.384 59.6637 102.567 60.089C102.023 60.383 101.482 60.564 100.942 60.6318ZM129.435 57.0996C128.736 57.1874 128.075 56.9318 127.452 56.3329C126.832 55.7657 126.373 54.8074 126.075 53.4581C126.011 53.2081 125.961 52.9403 125.925 52.6545C125.893 52.4005 125.861 52.1465 125.83 51.8925C125.682 50.7177 125.622 49.4675 125.648 48.1418C125.679 46.8478 125.806 45.5419 126.027 44.224C126.284 42.6759 126.646 41.0662 127.113 39.3949C127.608 37.6879 128.07 36.2269 128.498 35.0121C127.982 35.0124 127.422 35.1795 126.819 35.5133C126.216 35.8471 125.762 36.2106 125.456 36.6037C125.373 36.7109 125.3 36.7685 125.236 36.7765C125.141 36.7885 125.083 36.7151 125.063 36.5563C125.019 36.2071 125.126 35.9034 125.384 35.6452C125.801 35.1091 126.267 34.7119 126.783 34.4536C127.294 34.1635 128.046 33.8594 129.038 33.5412C129.209 33.1005 129.429 32.5407 129.698 31.8618C129.999 31.1789 130.235 30.6171 130.406 30.1765C131.246 28.3938 132.265 26.7499 133.463 25.2448C134.66 23.7397 135.985 22.7347 137.438 22.2297C137.592 22.178 137.733 22.1441 137.86 22.1282C137.983 22.0805 138.108 22.0486 138.235 22.0327C138.775 21.9648 139.218 22.0221 139.563 22.2045C139.904 22.3551 140.127 22.5851 140.23 22.8946C140.27 22.9542 140.296 23.0315 140.308 23.1268C140.328 23.2855 140.29 23.3709 140.195 23.3829C140.068 23.3988 139.975 23.2977 139.915 23.0794C139.863 22.9247 139.706 22.8315 139.444 22.7999C139.178 22.7366 138.887 22.7249 138.569 22.7648C137.775 22.8645 136.972 23.2719 136.159 23.9868C135.373 24.6661 134.63 25.5497 133.928 26.6377C133.222 27.6939 132.576 28.8394 131.989 30.0742C131.755 30.5229 131.527 31.0192 131.305 31.5631C131.08 32.0752 130.866 32.5537 130.663 32.9983C131.477 32.7993 132.292 32.6162 133.11 32.449C133.928 32.2818 134.686 32.1542 135.384 32.0665C135.638 32.0346 135.876 32.0046 136.098 31.9767C136.321 31.9488 136.529 31.9387 136.724 31.9465C137.081 31.9661 137.269 32.0553 137.289 32.2141C137.313 32.4046 137.182 32.5178 136.897 32.5537C135.627 32.7133 134.474 32.9065 133.438 33.1335C132.402 33.3604 131.345 33.6707 130.265 34.0643C130.249 34.1953 130.218 34.3283 130.17 34.4633C130.119 34.5665 130.067 34.6697 130.016 34.773C130.897 34.8557 131.657 35.2601 132.297 35.986C132.968 36.7079 133.504 37.6403 133.906 38.7832C134.339 39.922 134.638 41.1423 134.801 42.4441C134.897 43.2061 134.949 44.0058 134.958 44.8433C134.971 46.7445 134.79 48.5089 134.414 50.1365C134.069 51.7601 133.606 53.0761 133.023 54.0847C131.933 55.931 130.737 56.936 129.435 57.0996ZM129.482 55.9326C130.022 55.8648 130.573 55.5052 131.136 54.8539C131.735 54.2304 132.266 53.3251 132.73 52.138C133.019 51.3599 133.326 50.3376 133.651 49.0713C133.979 47.8367 134.159 46.4434 134.19 44.8915C134.193 44.4072 134.181 43.925 134.153 43.4447C134.157 42.9605 134.131 42.4961 134.075 42.0516C133.855 40.3054 133.376 38.8014 132.637 37.5397C131.926 36.2423 130.995 35.5046 129.843 35.3268C129.201 36.891 128.645 38.6219 128.174 40.5195C127.703 42.417 127.347 44.3323 127.106 46.2654C126.897 48.1946 126.83 49.9767 126.907 51.612C127.003 53.1479 127.29 54.273 127.766 54.9871C128.275 55.6973 128.847 56.0124 129.482 55.9326ZM142.664 41.8915C141.806 41.9992 141.034 41.8866 140.347 41.5536C139.657 41.1889 139.241 40.451 139.102 39.3397C139.014 38.6412 139.093 37.8572 139.338 36.9878C139.58 36.0867 139.921 35.2053 140.361 34.3437C140.828 33.4464 141.362 32.686 141.961 32.0624C142.103 31.9155 142.302 31.8261 142.556 31.7941C142.889 31.3653 143.282 31.0256 143.734 30.7753C144.218 30.5209 144.682 30.3658 145.127 30.31C145.921 30.2102 146.683 30.3725 147.413 30.7967C148.176 31.2169 148.627 31.9827 148.766 33.0939C148.846 33.7289 148.767 34.5129 148.53 35.4458C148.316 36.3112 147.932 37.2303 147.377 38.2031C146.818 39.1441 146.131 39.9721 145.318 40.6871C144.533 41.3663 143.648 41.7678 142.664 41.8915ZM142.544 41.326C143.243 41.2382 143.923 40.8785 144.586 40.247C145.28 39.6115 145.893 38.8411 146.424 37.9358C146.951 36.9987 147.304 36.0836 147.482 35.1905C147.692 34.2933 147.755 33.5113 147.671 32.8446C147.567 32.0191 147.271 31.4596 146.783 31.1662C146.29 30.8411 145.774 30.7124 145.234 30.7803C144.377 30.888 143.667 31.2675 143.104 31.9188C143.445 32.0694 143.501 32.2559 143.271 32.4783C142.874 32.9152 142.432 33.5029 141.944 34.2415C141.488 34.9761 141.137 35.6491 140.892 36.2605C140.717 36.6694 140.573 37.1875 140.458 37.8147C140.375 38.4379 140.368 39.0194 140.435 39.5591C140.503 40.0989 140.69 40.5592 140.996 40.94C141.33 41.2851 141.846 41.4137 142.544 41.326ZM157.218 40.1592C156.678 40.2271 156.228 40.1063 155.866 39.797C155.533 39.4519 155.334 39.0253 155.27 38.5173C155.21 38.0411 155.264 37.5667 155.43 37.0943C155.688 36.3201 156.042 35.5499 156.494 34.7836C156.974 33.9815 157.418 33.2806 157.826 32.681C158.092 32.2284 158.207 31.8592 158.171 31.5734C158.123 31.1924 157.837 30.8414 157.313 30.5202C156.9 30.3141 156.509 30.0246 156.14 29.6517C155.877 29.3622 155.679 29.0646 155.544 28.7591C155.167 29.8707 154.67 31.1748 154.052 32.6716C153.461 34.1326 152.821 35.4548 152.131 36.638C152.028 36.8445 151.913 36.9557 151.786 36.9716C151.691 36.9836 151.635 36.9261 151.619 36.7991C151.611 36.7356 151.619 36.6701 151.643 36.6026C151.667 36.5351 151.744 36.3803 151.875 36.1381C152.557 34.8913 153.09 33.7439 153.474 32.6958C153.859 31.6477 154.187 30.6711 154.461 29.766L155.215 27.3006C155.239 27.2331 155.261 27.1498 155.281 27.0505C155.328 26.9156 155.366 26.8302 155.394 26.7945C155.449 26.723 155.509 26.6832 155.572 26.6753C155.699 26.6593 155.802 26.7108 155.882 26.8299C155.961 26.9489 155.981 27.1076 155.942 27.3061C155.922 27.6633 156.013 28.0066 156.216 28.3359C156.419 28.6652 156.665 28.9568 156.955 29.2106C157.241 29.4327 157.636 29.625 158.14 29.7874C158.644 29.9498 159.105 30.1499 159.522 30.3878C159.939 30.6256 160.127 30.9728 160.088 31.4293C160.037 32.0485 159.777 32.6778 159.309 33.3171C158.841 33.9564 158.377 34.6275 157.917 35.3304C157.588 35.791 157.291 36.2476 157.025 36.7003C156.791 37.149 156.623 37.6055 156.52 38.07C156.5 38.1692 156.481 38.2685 156.461 38.3677C156.473 38.4629 156.485 38.5582 156.497 38.6534C156.569 39.2249 156.906 39.4728 157.509 39.397C157.7 39.373 157.932 39.2955 158.206 39.1643C158.964 38.7788 159.634 38.2108 160.217 37.4603C160.832 36.7057 161.335 35.9652 161.728 35.2386C162.152 34.508 162.428 34.0057 162.554 33.7317C162.76 33.3188 162.895 33.1084 162.959 33.1004C163.054 33.0884 163.112 33.1618 163.132 33.3206C163.152 33.4793 163.124 33.6441 163.049 33.8148C162.49 35.0138 161.828 36.1613 161.062 37.2573C160.297 38.3533 159.432 39.1715 158.468 39.7119C158.016 39.9623 157.599 40.1114 157.218 40.1592ZM178.738 37.7452C178.167 37.817 177.708 37.7617 177.363 37.5794C177.049 37.393 176.793 37.1511 176.594 36.8535C176.428 36.552 176.292 36.2464 176.189 35.9369C176.082 35.5957 176.006 35.2504 175.962 34.9011C175.85 34.0121 175.877 33.0734 176.044 32.085C176.206 31.0648 176.421 30.0863 176.691 29.1494C176.992 28.2085 177.261 27.4006 177.499 26.7257C178.057 25.2687 178.729 23.8136 179.514 22.3604C180.299 20.9072 181.203 19.6325 182.226 18.5364C183.278 17.4045 184.404 16.6178 185.607 16.1765C185.761 16.1248 185.902 16.091 186.029 16.075C186.152 16.0273 186.277 15.9955 186.404 15.9795C186.944 15.9117 187.387 15.9689 187.732 16.1513C188.074 16.3019 188.312 16.5299 188.447 16.8355C188.451 16.8672 188.455 16.899 188.459 16.9307C188.495 16.9585 188.515 16.9882 188.519 17.02C188.546 17.2423 188.497 17.3614 188.37 17.3773C188.275 17.3893 188.179 17.2723 188.084 17.0262C188.032 16.8715 187.875 16.7783 187.613 16.7467C187.347 16.6834 187.056 16.6717 186.738 16.7116C185.69 16.8432 184.683 17.4214 183.715 18.4461C182.779 19.4667 181.904 20.7216 181.092 22.2105C180.275 23.6677 179.56 25.1606 178.945 26.6891C178.874 26.8915 178.718 27.3144 178.476 27.9575C178.266 28.5967 178.034 29.3192 177.781 30.1251C177.559 30.927 177.379 31.6753 177.24 32.37C177.149 32.6717 177.167 32.8146 177.294 32.7986C177.358 32.7906 177.423 32.6695 177.491 32.4353C177.894 31.03 178.424 29.8508 179.078 28.8978C179.764 27.9408 180.484 27.1247 181.237 26.4494C181.999 25.8377 182.793 25.4799 183.618 25.3762C184.221 25.3004 184.751 25.4112 185.208 25.7086C185.661 25.9742 185.935 26.488 186.031 27.25C186.102 27.8215 186.069 28.4546 185.931 29.1493C185.788 29.8123 185.515 30.5884 185.111 31.4777C184.706 32.3671 184.189 33.2545 183.558 34.14C182.956 34.9898 182.291 35.7345 181.565 36.374C180.839 37.0135 180.101 37.4287 179.351 37.6197C179.228 37.6675 179.119 37.6973 179.024 37.7093C178.929 37.7212 178.834 37.7332 178.738 37.7452ZM178.958 37.1854C179.688 37.0936 180.48 36.591 181.333 35.6775C182.154 34.7681 182.862 33.7277 183.456 32.5564C184.079 31.3494 184.411 30.2756 184.454 29.3348C184.49 28.8466 184.485 28.4279 184.442 28.0786C184.35 27.3484 184.147 26.8901 183.833 26.7037C183.52 26.5174 183.172 26.4482 182.791 26.496C182.093 26.5838 181.43 26.9573 180.804 27.6166C180.177 28.2759 179.616 29.0721 179.12 30.0052C178.652 30.9025 178.282 31.8037 178.009 32.7088C177.735 33.614 177.587 34.3583 177.564 34.9418C177.552 35.1045 177.54 35.2672 177.528 35.43C177.544 35.557 177.56 35.684 177.576 35.811C177.704 36.827 178.164 37.2851 178.958 37.1854ZM193.718 35.6693C192.416 35.8329 191.427 35.6668 190.752 35.1711C190.073 34.6437 189.672 33.8878 189.548 32.9036C189.516 32.6496 189.5 32.3936 189.5 32.1356C189.528 31.8418 189.555 31.5481 189.583 31.2544C189.67 30.6629 189.84 29.9643 190.093 29.1584C190.379 28.3485 190.745 27.5445 191.193 26.7464C191.641 25.9483 192.153 25.2712 192.728 24.7152C193.303 24.1591 193.94 23.8372 194.638 23.7494C195.21 23.6776 195.665 23.8301 196.002 24.207C196.372 24.5798 196.592 25.052 196.664 25.6235C196.74 26.2268 196.627 26.8699 196.326 27.5527C196.052 28.1999 195.638 28.7519 195.083 29.2087C194.444 29.7727 193.68 30.1106 192.791 30.2223C192.22 30.2941 191.682 30.2488 191.178 30.0864C190.821 31.0988 190.701 32.0653 190.816 32.9861C190.9 33.6528 191.162 34.2004 191.603 34.6288C192.044 35.0572 192.709 35.2155 193.598 35.1038C194.678 34.9681 195.598 34.5944 196.36 33.9827C197.118 33.3392 197.792 32.5449 198.383 31.5999C199.005 30.6509 199.588 29.6423 200.131 28.5743C200.214 28.4671 200.272 28.4114 200.303 28.4075C200.399 28.3955 200.456 28.4689 200.476 28.6276C200.496 28.7864 200.469 28.9511 200.393 29.1218C199.933 30.0827 199.392 31.0376 198.77 31.9866C198.179 32.9317 197.475 33.7458 196.658 34.429C195.841 35.1122 194.861 35.5257 193.718 35.6693ZM192.231 29.6154C193.057 29.5116 193.799 29.1281 194.457 28.4649C194.774 28.167 195.038 27.8274 195.248 27.4463C195.458 27.0651 195.589 26.6939 195.64 26.3327C195.692 25.9715 195.701 25.6638 195.67 25.4098C195.578 24.6796 195.262 24.3484 194.722 24.4162C194.373 24.4601 194.002 24.7163 193.609 25.185C193.272 25.5821 192.931 26.0765 192.586 26.6681C192.273 27.2557 192.006 27.8215 191.784 28.3654C191.558 28.8776 191.411 29.2508 191.344 29.485C191.586 29.6158 191.882 29.6593 192.231 29.6154ZM210.373 33.5279C209.801 33.5997 209.349 33.4631 209.015 33.118C208.713 32.7689 208.525 32.2927 208.449 31.6895C208.397 31.2767 208.393 30.858 208.436 30.4333C208.46 30.3658 208.489 30.2169 208.525 29.9867C208.557 29.7247 208.616 29.427 208.703 29.0935C208.346 29.8479 207.873 30.6976 207.282 31.6426C206.719 32.5519 206.05 33.2648 205.277 33.7813C204.828 34.0634 204.366 34.2344 203.89 34.2942C203.255 34.374 202.717 34.1997 202.276 33.7714C201.831 33.3112 201.553 32.6367 201.441 31.7477C201.35 31.0174 201.411 30.2196 201.624 29.3542C201.834 28.457 202.185 27.526 202.676 26.5612C202.985 25.9418 203.408 25.3243 203.943 24.7088C204.479 24.0932 205.074 23.5669 205.728 23.1299C206.383 22.6929 207.028 22.4344 207.663 22.3546C208.298 22.2748 208.859 22.3816 209.348 22.675C209.836 22.9684 210.14 23.4624 210.26 24.1569C210.272 24.2522 210.234 24.3375 210.147 24.413C210.087 24.4527 210.018 24.4131 209.938 24.294C209.45 23.4847 208.777 23.1338 207.919 23.2416C207.348 23.3134 206.778 23.6591 206.211 24.2786C205.64 24.8664 205.103 25.5951 204.599 26.4647C204.096 27.3342 203.672 28.1938 203.327 29.0434C203.034 29.7898 202.828 30.4607 202.709 31.0562C202.622 31.6476 202.605 32.1498 202.656 32.5625C202.764 33.4198 203.151 33.8065 203.818 33.7227C204.167 33.6788 204.534 33.5198 204.919 33.2457C205.272 32.9756 205.683 32.5208 206.151 31.8815C206.65 31.2382 207.126 30.5333 207.578 29.767C208.062 28.9967 208.484 28.2502 208.845 27.5276C209.237 26.801 209.521 26.2332 209.695 25.8243C210.072 24.9707 210.476 24.2103 210.908 23.5432C211.34 22.8762 211.811 22.5107 212.319 22.4468C212.573 22.4149 212.708 22.4625 212.723 22.5895C212.739 22.7165 212.692 22.8515 212.581 22.9944C212.042 23.8362 211.552 24.8169 211.112 25.9365C210.7 27.0203 210.361 28.0466 210.096 29.0152C209.863 29.9798 209.744 30.7043 209.74 31.1885C209.773 32.2165 210.138 32.6866 210.837 32.5988C210.932 32.5869 211.027 32.5749 211.123 32.5629C211.214 32.5192 211.321 32.4735 211.444 32.4258C212.083 32.1197 212.682 31.6252 213.241 30.9421C213.8 30.2591 214.306 29.5344 214.758 28.768C215.206 27.97 215.57 27.2791 215.852 26.6955C215.931 26.5565 216.003 26.483 216.066 26.475C216.161 26.4631 216.219 26.5364 216.239 26.6952C216.251 26.7904 216.219 26.9234 216.144 27.0942C215.961 27.4396 215.795 27.783 215.644 28.1245C215.49 28.4342 215.333 28.728 215.175 29.0059C215.127 29.1409 215.062 29.262 214.978 29.3692C214.895 29.4764 214.814 29.5995 214.735 29.7385C214.386 30.2984 213.916 30.9218 213.325 31.6089C212.762 32.2602 212.178 32.7527 211.575 33.0865C211.123 33.3369 210.722 33.484 210.373 33.5279ZM218.946 32.4505C218.375 32.5223 217.938 32.3837 217.636 32.0346C217.334 31.6855 217.147 31.2253 217.076 30.6537C217.02 30.2092 217.014 29.7746 217.057 29.3499C217.097 29.1514 217.195 28.6552 217.354 27.8613C217.544 27.0634 217.803 26.1761 218.132 25.1995C218.492 24.2189 218.901 23.3613 219.357 22.6267C219.809 21.8604 220.32 21.4413 220.892 21.3695C221.146 21.3376 221.281 21.3851 221.297 21.5121C221.313 21.6391 221.265 21.7741 221.154 21.917C220.615 22.7588 220.125 23.7395 219.686 24.8591C219.273 25.943 218.935 26.9692 218.669 27.9378C218.436 28.9025 218.317 29.6269 218.314 30.1112C218.346 31.1391 218.712 31.6092 219.41 31.5215C220.013 31.4456 220.614 31.096 221.213 30.4724C221.84 29.8131 222.417 29.015 222.944 28.0779C223.499 27.1051 223.955 26.1125 224.312 25.1002C224.696 24.0521 225.136 23.0615 225.631 22.1284C226.123 21.1636 226.686 20.6413 227.321 20.5615C227.575 20.5296 227.71 20.5771 227.726 20.7041C227.742 20.8311 227.695 20.9661 227.584 21.1091C227.044 21.9509 226.555 22.9316 226.115 24.0512C225.703 25.135 225.364 26.1612 225.099 27.1299C224.865 28.0945 224.747 28.819 224.743 29.3032C224.776 30.3312 225.141 30.8013 225.84 30.7135C226.538 30.6257 227.212 30.2184 227.863 29.4917C228.513 28.7649 229.104 27.9489 229.636 27.0435C230.167 26.1382 230.587 25.3759 230.896 24.7565C231.007 24.6136 231.079 24.5401 231.11 24.5361C231.206 24.5241 231.263 24.5975 231.283 24.7563C231.299 24.8833 231.269 25.0321 231.194 25.2028C230.79 26.0922 230.279 27.0273 229.66 28.008C229.069 28.9531 228.415 29.7771 227.697 30.4801C226.975 31.1513 226.201 31.5388 225.376 31.6426C224.804 31.7144 224.368 31.5758 224.066 31.2267C223.764 30.8776 223.577 30.4173 223.505 29.8458C223.449 29.4013 223.443 28.9667 223.486 28.5419L223.528 28.1013C223.024 28.9709 222.479 29.7651 221.892 30.4839C221.337 31.1987 220.756 31.7071 220.149 32.0092C219.696 32.2595 219.296 32.4066 218.946 32.4505ZM233.824 30.5809C233.253 30.6527 232.816 30.5141 232.514 30.165C232.212 29.8159 232.025 29.3556 231.953 28.7841C231.898 28.3396 231.891 27.905 231.935 27.4803C231.974 27.0238 232.184 26.2557 232.564 25.1758C232.941 24.0642 233.359 22.899 233.818 21.6802C233.517 21.8471 233.185 22.0338 232.824 22.2405C232.491 22.4114 232.255 22.5862 232.116 22.7649C231.997 22.8443 231.922 22.8861 231.89 22.89C231.795 22.902 231.739 22.8445 231.723 22.7175C231.687 22.4317 231.828 22.1399 232.145 21.842C232.463 21.5441 232.774 21.3276 233.08 21.1925C233.417 21.0533 233.8 20.8923 234.228 20.7095C234.498 20.0306 234.781 19.3338 235.078 18.6192C235.403 17.8688 235.693 17.2197 235.946 16.6718C236.129 16.3263 236.396 15.8895 236.749 15.3614C237.098 14.8015 237.507 14.3309 237.975 13.9496C238.237 13.7232 238.606 13.5801 239.082 13.5202C239.431 13.4763 239.63 13.5159 239.677 13.6389C239.217 13.8257 238.765 14.2051 238.321 14.7769C237.908 15.3448 237.522 15.99 237.161 16.7126C236.8 17.4352 236.499 18.1181 236.257 18.7613C236.012 19.3727 235.829 19.8471 235.71 20.1846C236.365 20.0055 236.915 19.8881 237.359 19.8322C237.613 19.8003 237.838 19.7883 238.032 19.7961C238.223 19.7721 238.383 19.768 238.514 19.7838C238.772 19.7837 238.909 19.8471 238.925 19.9741C238.941 20.1011 238.791 20.1845 238.473 20.2244C238.219 20.2564 237.917 20.2943 237.568 20.3381C237.251 20.378 236.905 20.4537 236.532 20.5651C236.251 20.6327 235.961 20.7659 235.663 20.9645C235.398 21.1592 235.229 21.3578 235.158 21.5602C234.619 22.918 234.153 24.2182 233.761 25.4608C233.369 26.7034 233.179 27.6303 233.191 28.2415C233.224 29.2695 233.589 29.7396 234.288 29.6518C234.986 29.5641 235.647 29.1747 236.27 28.4836C236.92 27.7568 237.511 26.9408 238.042 26.0355C238.573 25.1302 238.994 24.3678 239.303 23.7485C239.414 23.6055 239.485 23.532 239.517 23.528C239.612 23.5161 239.67 23.5895 239.69 23.7482C239.706 23.8752 239.676 24.0241 239.601 24.1948C239.165 25.0881 238.651 26.0073 238.061 26.9524C237.47 27.8974 236.816 28.7214 236.098 29.4244C235.407 30.0917 234.65 30.4772 233.824 30.5809ZM241.076 42.9734C240.124 43.0931 239.437 42.8891 239.016 42.3615C238.782 42.0362 238.64 41.683 238.592 41.302C238.545 40.921 238.588 40.4963 238.723 40.0278C238.826 39.5634 238.976 39.093 239.174 38.6165C239.527 37.8304 239.961 37.0502 240.477 36.2759C240.992 35.5016 241.5 34.7928 241.999 34.1494C242.531 33.5021 242.967 32.9958 243.308 32.6304C243.875 32.0108 244.573 31.2781 245.402 30.4321C246.231 29.5861 247.09 28.8493 247.979 28.2216C248.038 28.1819 248.1 28.158 248.163 28.15C248.259 28.1381 248.312 28.1797 248.324 28.275C248.348 28.4655 248.285 28.6024 248.134 28.6859C247.749 28.96 247.267 29.3592 246.688 29.8835C246.113 30.4396 245.538 30.9956 244.962 31.5517C244.423 32.1355 243.971 32.6438 243.606 33.0767C243.324 33.4024 242.934 33.8869 242.434 34.5302C241.966 35.1695 241.506 35.8723 241.054 36.6387C240.575 37.4408 240.19 38.2309 239.901 39.009C239.806 39.279 239.705 39.6303 239.598 40.063C239.495 40.5275 239.467 40.9502 239.515 41.3312C239.555 41.6487 239.682 41.8907 239.897 42.0573C240.084 42.2596 240.399 42.3328 240.844 42.2769C241.51 42.1932 242.163 41.8692 242.802 41.3052C243.44 40.7412 244.047 40.0521 244.622 39.2381C245.201 38.4558 245.699 37.6676 246.115 36.8735C246.567 36.1072 246.904 35.4521 247.126 34.9081C247.728 33.5424 248.237 32.0755 248.653 30.5074C249.105 28.9671 249.407 27.3971 249.561 25.7974C249.715 24.1978 249.64 22.7074 249.338 21.3264C249.226 20.6954 249.005 20.0942 248.676 19.5228C248.676 20.5548 248.431 21.6822 247.94 22.905C247.48 24.1238 246.981 25.1541 246.441 25.9959C246.009 26.663 245.539 27.2865 245.032 27.8663C244.552 28.4104 244.054 28.8116 243.538 29.0699C243.086 29.3203 242.685 29.4674 242.336 29.5113C241.764 29.5831 241.327 29.4445 241.026 29.0954C240.724 28.7463 240.537 28.286 240.465 27.7145C240.409 27.27 240.403 26.8354 240.446 26.4107C240.486 26.2122 240.585 25.716 240.743 24.9221C240.933 24.1242 241.192 23.2369 241.521 22.2603C241.882 21.2797 242.29 20.4221 242.746 19.6875C243.198 18.9211 243.71 18.5021 244.281 18.4303C244.535 18.3983 244.67 18.4459 244.686 18.5729C244.702 18.6999 244.654 18.8349 244.543 18.9778C244.004 19.8196 243.515 20.8003 243.075 21.9199C242.663 23.0037 242.324 24.03 242.059 24.9986C241.825 25.9633 241.707 26.6877 241.703 27.1719C241.735 28.1999 242.101 28.67 242.799 28.5822C243.371 28.5104 243.93 28.2143 244.478 27.694C245.021 27.142 245.533 26.4649 246.012 25.6628C246.599 24.686 247.055 23.6935 247.38 22.6851C247.705 21.6767 247.918 20.8113 248.021 20.0889C248.061 19.8904 248.098 19.676 248.134 19.4458C248.201 19.2116 248.221 18.9833 248.193 18.7611L248.187 18.7135C248.159 18.4912 248.32 18.3581 248.669 18.3143C248.891 18.2863 249.115 18.4033 249.342 18.6651C250.069 19.5735 250.532 20.8215 250.732 22.409C250.903 23.7743 250.88 25.2607 250.663 26.8684C250.478 28.472 250.131 30.0797 249.624 31.6915C249.153 33.3311 248.557 34.8735 247.835 36.3187C247.118 37.7957 246.311 39.0743 245.415 40.1544C244.55 41.2306 243.648 42.0052 242.707 42.4782C242.128 42.7445 241.584 42.9095 241.076 42.9734Z" fill="#D9B855"/>
</svg>
