<svg width="315" height="108" viewBox="0 0 315 108" fill="none" xmlns="http://www.w3.org/2000/svg">
<g filter="url(#filter0_d_605_407)">
<path d="M60.3125 86.5625C54.3958 86.5625 48.8958 85.7708 43.8125 84.1875C37.9792 89.0208 33.6042 92.375 30.6875 94.25C25.2708 97.625 19.75 99.3125 14.125 99.3125C7.70833 99.3125 3.5625 97.4583 1.6875 93.75C1.14583 92.625 0.875 91.5208 0.875 90.4375C0.875 89.3542 1.0625 88.4792 1.4375 87.8125C1.8125 87.1458 2.27083 86.625 2.8125 86.25C3.9375 85.4583 5.25 85.0625 6.75 85.0625C8.83333 85.0625 9.875 86 9.875 87.875C9.875 88.7083 9.54167 89.4375 8.875 90.0625C8.16667 90.6458 7.22917 90.9375 6.0625 90.9375C4.85417 90.9375 3.95833 90.7292 3.375 90.3125V90.75C3.375 95.3333 7.125 97.625 14.625 97.625C19.8333 97.625 25.7292 95.3333 32.3125 90.75L41.625 83.4375C35.7083 81.2292 30.9792 78.1042 27.4375 74.0625C24.0208 70.2292 22.1875 66 21.9375 61.375C21.6875 56.8333 23.1875 52.9583 26.4375 49.75C29.8542 46.375 34.4792 44.6875 40.3125 44.6875C48.4375 44.6875 55.2708 48.1667 60.8125 55.125C62.4792 57.25 63.8958 59.5208 65.0625 61.9375C78.4375 49.1042 87.1875 40.8542 91.3125 37.1875L101.562 28.3125C115.396 16.9375 125.583 11.25 132.125 11.25C132.875 11.25 133.25 11.375 133.25 11.625C133.25 11.9167 132.896 12.1875 132.188 12.4375C131.521 12.6875 130.771 13.2292 129.938 14.0625C129.104 14.8958 127.896 16.2917 126.312 18.25L120.188 26.0625L77.875 82.3125C89.5 78.8542 98.5625 72.6667 105.062 63.75C107.146 60.9167 108.542 58.5417 109.25 56.625C110.208 54.0833 110.792 52.8125 111 52.8125C111.125 52.8125 111.312 53 111.562 53.375C111.854 53.7083 111.958 54.4583 111.875 55.625C111.833 56.75 111.542 58.1042 111 59.6875C110.458 61.2292 109.771 62.7083 108.938 64.125C107.562 66.5 105.292 69.1875 102.125 72.1875C95.75 78.3958 87 82.6458 75.875 84.9375L65.1875 99.0625L61.1875 98.8125C59.8542 98.7292 58.7917 98.6875 58 98.6875C57.25 98.6875 56.6042 98.7292 56.0625 98.8125L54.3125 99.0625L63.5625 87.625C63.6875 87.4167 63.8125 87.2292 63.9375 87.0625C64.0625 86.8542 64.1667 86.6458 64.25 86.4375C62.9167 86.5208 61.6042 86.5625 60.3125 86.5625ZM65.9375 63.875C67.6458 68.25 68.5 72 68.5 75.125C68.5 78.25 68.25 80.7083 67.75 82.5L90.9375 54.4375C106.229 36.6458 115.708 25.8125 119.375 21.9375C123.042 18.0208 125.75 15.25 127.5 13.625L123.312 15.375C117.688 17.8333 109.646 23.5833 99.1875 32.625L86.0625 44.5L65.9375 63.875ZM43.125 82.1875C51.25 74.9375 58.0833 68.625 63.625 63.25C60.1667 55.375 54.8958 50.2083 47.8125 47.75C45.4375 46.9583 43.1042 46.5625 40.8125 46.5625C38.5625 46.5625 36.5417 46.9792 34.75 47.8125C33 48.6042 31.4583 49.6667 30.125 51C27.25 53.875 25.8125 57.2917 25.8125 61.25C25.8125 68.2083 29.0625 73.9375 35.5625 78.4375C37.7292 79.9375 40.25 81.1875 43.125 82.1875ZM45.3125 82.875C49.8958 84.1667 55.0208 84.8125 60.6875 84.8125C62.1458 84.8125 63.6042 84.75 65.0625 84.625C66.0208 82.1667 66.5 79.7917 66.5 77.5C66.5 73.25 65.8125 69.1875 64.4375 65.3125C55.0625 74.1458 48.6875 80 45.3125 82.875ZM137.75 83C136.667 84.4167 135.333 85.8958 133.75 87.4375C128.25 93.6458 122.083 97.5 115.25 99C113.375 99.4167 111.708 99.625 110.25 99.625C108.833 99.625 107.625 99.4167 106.625 99C105.625 98.5417 104.792 97.9583 104.125 97.25C102.833 95.8333 102.188 94.0417 102.188 91.875C102.188 89.6667 102.542 87.4583 103.25 85.25C103.958 83 104.979 80.5833 106.312 78C107.646 75.375 109.271 72.5625 111.188 69.5625L117.5 59.75L123.312 51.5C125.562 48.5 128.021 45.375 130.688 42.125L139 32.3125C152.833 16.4792 164.229 6.39583 173.188 2.0625C175.562 0.895833 177.688 0.3125 179.562 0.3125C182.604 0.3125 184.125 1.45833 184.125 3.75C184.125 6 183.542 8.47917 182.375 11.1875C181.25 13.8958 179.604 16.75 177.438 19.75C175.312 22.7083 172.688 25.75 169.562 28.875C166.438 31.9583 162.896 34.9792 158.938 37.9375C150.521 44.2292 141.062 49.4375 130.562 53.5625C121.271 64.9375 115.188 72.9583 112.312 77.625C109.438 82.25 107.604 85.5833 106.812 87.625C106.021 89.6667 105.625 91.375 105.625 92.75C105.625 96.2917 107.188 98.0625 110.312 98.0625C117.062 98.0625 123.312 95.0417 129.062 89C131.021 87 132.771 84.625 134.312 81.875C136.438 79.25 137.812 75.3542 138.438 70.1875C138.562 69.1458 138.625 68.5 138.625 68.25L137.875 62.8125C138.125 59.6458 139.417 58.0625 141.75 58.0625C144.625 58.0625 145.771 60.5417 145.188 65.5C144.938 67.7083 144.229 70.3125 143.062 73.3125C141.896 76.3125 140.708 78.75 139.5 80.625C139.417 80.9167 139.375 81.2292 139.375 81.5625C139.417 81.8542 139.438 82.1667 139.438 82.5C139.438 84.5833 140.604 85.6875 142.938 85.8125C145.229 85.8125 148.229 84.125 151.938 80.75C154.396 78.5 156.562 76.125 158.438 73.625L159.75 74.6875C159.042 75.4375 158.062 76.5208 156.812 77.9375C155.604 79.3542 154.229 80.75 152.688 82.125C148.938 85.625 145.583 87.375 142.625 87.375C139.667 87.375 138.042 85.9167 137.75 83ZM182 4C182 2.41667 181.188 1.625 179.562 1.625C176.104 1.625 170.396 6.125 162.438 15.125L154.938 24L132.625 51.0625C140.792 47.8958 148.979 43.0417 157.188 36.5C164.312 30.75 170.271 24.6667 175.062 18.25C179.688 12.0417 182 7.29167 182 4ZM186.188 88.9375C184.646 88.9375 183.521 88.3125 182.812 87.0625C177.854 92.6875 172.5 96.4167 166.75 98.25C164.833 98.8333 162.958 99.125 161.125 99.125C159.333 99.125 157.792 98.9167 156.5 98.5C155.208 98.0833 154.146 97.5 153.312 96.75C149.938 93.8333 149.604 88.8125 152.312 81.6875C153.354 78.8958 154.708 76.2917 156.375 73.875C158 71.4583 159.833 69.2292 161.875 67.1875C163.958 65.1042 166.188 63.25 168.562 61.625C173.938 58 179.188 56.1875 184.312 56.1875C186.521 56.1875 188.417 56.7708 190 57.9375C191.625 59.0625 192.5 60.7083 192.625 62.875C192.75 65 192.625 67 192.25 68.875C191.875 70.75 191.312 72.625 190.562 74.5C189.062 78.3333 186.938 81.9583 184.188 85.375C184.479 86.5833 185.271 87.1875 186.562 87.1875C187.896 87.1875 189.146 86.8958 190.312 86.3125C191.521 85.6875 192.708 84.9375 193.875 84.0625C195.083 83.1458 196.25 82.1458 197.375 81.0625C198.542 79.9375 199.604 78.875 200.562 77.875L202.938 75.25C203.604 74.4583 204.083 73.9167 204.375 73.625L205.75 74.6875C205.208 75.1875 204.521 75.8958 203.688 76.8125C202.854 77.7292 201.917 78.7083 200.875 79.75C200.875 79.75 199.771 80.8333 197.562 83C193.271 86.9583 189.479 88.9375 186.188 88.9375ZM160.25 96.75C160.917 97.0833 161.854 97.25 163.062 97.25C165.771 97.25 169.25 95.7292 173.5 92.6875C176.75 90.3542 179.646 87.6667 182.188 84.625V84.375C182.188 80.8333 183.521 78.1667 186.188 76.375C186.896 75.875 187.562 75.5208 188.188 75.3125C190.188 71.0625 191.125 67.5833 191 64.875C190.75 60.5833 189.167 58.4375 186.25 58.4375C181.333 58.4375 174.438 63.9792 165.562 75.0625C159.854 82.2292 157.167 87.8125 157.5 91.8125C157.5 94.1042 158.417 95.75 160.25 96.75ZM198.875 95.3125C198.875 96.8125 199.875 97.5625 201.875 97.5625C204.667 97.5625 207.667 96.5 210.875 94.375C217.792 89.75 225 82.8333 232.5 73.625C232.5 73.625 237.229 67.9375 246.688 56.5625C248.688 56.8125 250.5 56.9375 252.125 56.9375C253.75 56.9375 255.104 56.875 256.188 56.75L250.062 63.8125L227.938 90.75C226.479 92.5417 225.75 94 225.75 95.125C225.75 96.625 226.75 97.375 228.75 97.375C230.75 97.375 232.812 96.8542 234.938 95.8125C237.104 94.7292 239.25 93.375 241.375 91.75C243.542 90.125 245.646 88.3542 247.688 86.4375C249.729 84.4792 251.583 82.625 253.25 80.875L259.812 73.625L261.062 74.6875L258.625 77.4375C257.417 78.8125 255.938 80.3958 254.188 82.1875L248.375 87.875C240.417 95.375 233.812 99.125 228.562 99.125C226.854 99.125 225.438 98.6667 224.312 97.75C223.229 96.7917 222.646 95.5208 222.562 93.9375C222.479 90.8958 223.542 87.4583 225.75 83.625C216.167 93.9583 208.042 99.125 201.375 99.125C197.625 99.125 195.229 97.7917 194.188 95.125C193.896 94.375 193.729 93.4167 193.688 92.25C193.646 91.0833 193.938 89.6875 194.562 88.0625C195.146 86.4375 196.042 84.6875 197.25 82.8125C198.458 80.8958 199.938 78.8333 201.688 76.625L212.938 63C214.688 60.8333 216.542 58.6875 218.5 56.5625C220.125 56.8125 221.438 56.9375 222.438 56.9375H224.562C226.354 56.9375 227.5 56.875 228 56.75C223.125 62.0833 219.708 65.9375 217.75 68.3125L205.312 83.25C200.938 88.3333 198.792 92.3542 198.875 95.3125ZM253.188 95.375C253.188 96.625 254.188 97.2708 256.188 97.3125C258.188 97.3542 260.188 96.9167 262.188 96C264.229 95.0833 266.25 93.9167 268.25 92.5C270.25 91.0833 272.188 89.5 274.062 87.75C275.938 85.9583 277.688 84.1875 279.312 82.4375C280.938 80.6875 282.396 79.0417 283.688 77.5L286.938 73.625L288.312 74.6875L285.062 78.4375C273.438 92.2292 263.667 99.125 255.75 99.125C253.458 99.125 251.75 98.6667 250.625 97.75C249.458 96.8333 248.875 95.8333 248.875 94.75C248.875 93.6667 248.938 92.7708 249.062 92.0625C249.146 91.3542 249.354 90.5833 249.688 89.75C250.021 88.875 250.521 87.8542 251.188 86.6875C251.812 85.5208 252.667 84.1042 253.75 82.4375L263.5 68.375L279.625 45.6875H274.688C273.438 45.6875 272.812 45.3958 272.812 44.8125C272.812 44.1875 273.604 43.875 275.188 43.875H280.875L292.438 27.625C295.354 28.0833 298.25 28.0833 301.125 27.625L289.062 43.875H305.188C306.354 43.875 306.938 44.1875 306.938 44.8125C306.938 45.3958 306.417 45.6875 305.375 45.6875H287.688L261.812 80.875C257.354 87.1667 254.812 91.0417 254.188 92.5C253.521 93.9583 253.188 94.9167 253.188 95.375Z" fill="white"/>
</g>
<defs>
<filter id="filter0_d_605_407" x="0.875" y="0.3125" width="314.062" height="107.312" filterUnits="userSpaceOnUse" color-interpolation-filters="sRGB">
<feFlood flood-opacity="0" result="BackgroundImageFix"/>
<feColorMatrix in="SourceAlpha" type="matrix" values="0 0 0 0 0 0 0 0 0 0 0 0 0 0 0 0 0 0 127 0" result="hardAlpha"/>
<feOffset dx="4" dy="4"/>
<feGaussianBlur stdDeviation="2"/>
<feComposite in2="hardAlpha" operator="out"/>
<feColorMatrix type="matrix" values="0 0 0 0 0 0 0 0 0 0 0 0 0 0 0 0 0 0 0.25 0"/>
<feBlend mode="normal" in2="BackgroundImageFix" result="effect1_dropShadow_605_407"/>
<feBlend mode="normal" in="SourceGraphic" in2="effect1_dropShadow_605_407" result="shape"/>
</filter>
</defs>
</svg>
