<svg width="253" height="38" viewBox="0 0 253 38" fill="none" xmlns="http://www.w3.org/2000/svg">
<path d="M19.1875 14.4062C19.4271 14.3125 19.6979 14.2396 20 14.1875C20.3125 14.125 20.7292 14.0938 21.25 14.0938C21.7708 14.0938 22.3125 14.2344 22.875 14.5156C25.2396 13.3594 26.8542 11.6771 27.7188 9.46875C28.0312 8.6875 28.1875 7.89583 28.1875 7.09375C28.1875 6.29167 27.9688 5.60938 27.5312 5.04688C27.2917 5.18229 27.0521 5.33333 26.8125 5.5L26.0625 6.03125C24.7083 7.05208 23.5625 8.0625 22.625 9.0625C21.0417 10.7396 19.3594 12.776 17.5781 15.1719C15.8073 17.5573 14 19.5365 12.1562 21.1094C10.3229 22.6823 8.57292 23.8125 6.90625 24.5C6 24.8542 4.85417 25.0312 3.46875 25.0312C2.5625 25.0312 1.78125 24.8125 1.125 24.375C0.479167 23.9375 0.15625 23.4062 0.15625 22.7812C0.15625 22.125 0.479167 21.7083 1.125 21.5312C1.29167 21.4896 1.45833 21.4688 1.625 21.4688C1.79167 21.4688 1.96354 21.526 2.14062 21.6406C2.30729 21.7448 2.39062 21.9167 2.39062 22.1562C2.39062 22.3854 2.30729 22.5781 2.14062 22.7344C1.96354 22.8802 1.72917 22.9531 1.4375 22.9531C1.13542 22.9531 0.911458 22.901 0.765625 22.7969V22.8906C0.765625 23.401 1.02083 23.8177 1.53125 24.1406C2.03125 24.4635 2.60938 24.625 3.26562 24.625C3.92188 24.625 4.45312 24.5781 4.85938 24.4844C5.27604 24.3802 5.72917 24.1875 6.21875 23.9062C6.70833 23.625 7.25521 23.2292 7.85938 22.7188C8.47396 22.2083 9.19792 21.5417 10.0312 20.7188L12.9219 17.6875L16.7812 13.4688C20.4375 9.32292 23.9062 6.38021 27.1875 4.64062C25.9896 3.44271 24.0104 2.84375 21.25 2.84375C18.0312 2.84375 14.8542 4.02604 11.7188 6.39062C10.2083 7.53646 8.95833 8.75 7.96875 10.0312C6.96875 11.3542 6.46875 12.5 6.46875 13.4688C6.46875 14.3542 6.90625 14.9219 7.78125 15.1719C8.03125 15.2448 8.38021 15.2812 8.82812 15.2812C9.27604 15.2812 9.84375 15.1615 10.5312 14.9219C11.2292 14.6823 11.9271 14.3438 12.625 13.9062C13.3333 13.4688 14.0208 12.9479 14.6875 12.3438C15.3542 11.7292 15.9583 11.0521 16.5 10.3125C17.6979 8.71875 18.4167 7.05208 18.6562 5.3125C18.7188 4.97917 18.7969 4.8125 18.8906 4.8125C18.9948 4.8125 19.0469 4.92708 19.0469 5.15625C19.0469 7.07292 18.4948 8.875 17.3906 10.5625C16.3906 12.0833 15.0521 13.3125 13.375 14.25C11.7396 15.1667 10.099 15.625 8.45312 15.625C7.36979 15.625 6.625 15.2188 6.21875 14.4062C6.07292 14.1354 6 13.6927 6 13.0781C6 12.4635 6.20312 11.724 6.60938 10.8594C7.01562 9.98438 7.57292 9.14583 8.28125 8.34375C9 7.53125 9.84896 6.77083 10.8281 6.0625C11.8073 5.35417 12.8646 4.73438 14 4.20312C16.4479 3.06771 19 2.5 21.6562 2.5C24.3125 2.5 26.4062 3.08333 27.9375 4.25C29.5 3.5 30.8021 3.125 31.8438 3.125C32.1875 3.125 32.3594 3.17708 32.3594 3.28125C32.3594 3.33333 32.2656 3.375 32.0781 3.40625C31.8906 3.42708 31.6198 3.47917 31.2656 3.5625C30.2344 3.78125 29.2604 4.13021 28.3438 4.60938C29.3229 5.54688 29.8125 6.70312 29.8125 8.07812C29.8125 9.41146 29.1875 10.75 27.9375 12.0938C26.7812 13.3333 25.3438 14.3021 23.625 15C24.4583 15.7396 24.875 16.7865 24.875 18.1406C24.875 19.2969 24.4427 20.4167 23.5781 21.5C22.2865 23.125 20.5104 24.2135 18.25 24.7656C17.5208 24.9427 16.8438 25.0312 16.2188 25.0312C15.5938 25.0312 15.1146 24.9792 14.7812 24.875C14.4479 24.7604 14.1823 24.6198 13.9844 24.4531C13.6198 24.151 13.4375 23.7969 13.4375 23.3906C13.4375 22.974 13.5469 22.5573 13.7656 22.1406C13.9844 21.7135 14.2812 21.2917 14.6562 20.875C15.0417 20.4583 15.4948 20.0573 16.0156 19.6719C16.5365 19.2865 17.0938 18.9479 17.6875 18.6562C19.0104 18 20.2917 17.6719 21.5312 17.6719C21.75 17.6719 21.8594 17.7396 21.8594 17.875C21.8594 18.0104 21.6406 18.0781 21.2031 18.0781C20.776 18.0781 20.2708 18.1562 19.6875 18.3125C19.1146 18.4688 18.5521 18.6823 18 18.9531C17.4479 19.224 16.9271 19.5365 16.4375 19.8906C15.9479 20.2448 15.5208 20.6146 15.1562 21C14.3542 21.8333 13.9531 22.6042 13.9531 23.3125C13.9531 24.1667 14.6667 24.5938 16.0938 24.5938C17.0938 24.5938 18.1458 24.2188 19.25 23.4688C21.0208 22.2812 22.2292 20.625 22.875 18.5C23.0833 17.7917 23.1875 17.1406 23.1875 16.5469C23.1875 15.9427 23.1094 15.5156 22.9531 15.2656C21.8802 15.6302 20.974 15.8125 20.2344 15.8125C19.5052 15.8125 19.0156 15.7344 18.7656 15.5781C18.526 15.4219 18.4062 15.2708 18.4062 15.125C18.4062 14.9792 18.474 14.849 18.6094 14.7344C18.7552 14.6094 18.9479 14.5 19.1875 14.4062ZM22.3906 14.7344C22.0677 14.5469 21.6875 14.4531 21.25 14.4531C20.8229 14.4531 20.5 14.4688 20.2812 14.5C20.0729 14.5312 19.8854 14.5729 19.7188 14.625C19.375 14.7188 19.2031 14.8229 19.2031 14.9375C19.2031 15.1875 19.5052 15.3125 20.1094 15.3125C20.7135 15.3125 21.474 15.1198 22.3906 14.7344ZM34.0312 23.6562C33.375 24.0729 32.6615 24.4167 31.8906 24.6875C31.1302 24.9583 30.4062 25.0938 29.7188 25.0938C29.0312 25.0938 28.5052 25.026 28.1406 24.8906C27.7865 24.7448 27.4948 24.5469 27.2656 24.2969C26.2865 23.2344 26.2917 21.6667 27.2812 19.5938C27.7083 18.6771 28.3542 17.8438 29.2188 17.0938C30.0833 16.3333 30.8438 15.7656 31.5 15.3906C32.7708 14.6615 33.9635 14.2969 35.0781 14.2969C36.1823 14.2969 36.7604 14.6406 36.8125 15.3281C36.8854 16.4427 35.5312 17.6562 32.75 18.9688C31.7292 19.4479 30.4427 19.9427 28.8906 20.4531C28.276 21.4531 27.9688 22.2708 27.9688 22.9062C27.9688 23.5312 28.1302 23.9792 28.4531 24.25C28.7865 24.5104 29.2656 24.6406 29.8906 24.6406C30.526 24.6406 31.2083 24.5052 31.9375 24.2344C32.6771 23.9635 33.3646 23.6198 34 23.2031C34.6458 22.7865 35.2292 22.3333 35.75 21.8438C36.2708 21.3542 36.7292 20.8854 37.125 20.4375C37.5312 19.9896 37.8594 19.6042 38.1094 19.2812C38.3698 18.9479 38.5469 18.7396 38.6406 18.6562L38.9688 18.9219C38.8333 19.0365 38.625 19.2708 38.3438 19.625C38.0729 19.9792 37.724 20.3854 37.2969 20.8438C36.8802 21.2917 36.3958 21.7656 35.8438 22.2656C35.3021 22.7656 34.6979 23.2292 34.0312 23.6562ZM29.25 19.9062C32.3958 18.8021 34.4219 17.7031 35.3281 16.6094C35.6302 16.2448 35.7812 15.8906 35.7812 15.5469C35.7812 14.9635 35.5104 14.6719 34.9688 14.6719C34.0104 14.6719 32.8125 15.5104 31.375 17.1875C30.375 18.3542 29.6667 19.2604 29.25 19.9062ZM44.7656 25.0312C43.724 25.0312 43.2031 24.7083 43.2031 24.0625C43.2031 23.5312 43.5052 22.8646 44.1094 22.0625L45.0938 20.8125L44.9375 20.75C43.1875 22.9062 41.5365 24.2604 39.9844 24.8125C39.5573 24.9583 39.1875 25.0312 38.875 25.0312C37.5938 25.0312 36.9531 24.349 36.9531 22.9844C36.9531 21.3802 37.5938 19.849 38.875 18.3906C40.7708 16.1823 42.6771 14.875 44.5938 14.4688C45.1667 14.3542 45.6562 14.2969 46.0625 14.2969C46.4688 14.2969 46.7865 14.3281 47.0156 14.3906C47.2552 14.4427 47.4635 14.5208 47.6406 14.625C48.0156 14.8646 48.2031 15.1615 48.2031 15.5156C48.2031 15.8594 48.1406 16.1875 48.0156 16.5L49.5469 14.6094C49.8281 14.6927 50.0885 14.7344 50.3281 14.7344C50.9427 14.7344 51.3854 14.7135 51.6562 14.6719L46.3906 21.0156C45.1406 22.474 44.5156 23.5 44.5156 24.0938C44.5156 24.4271 44.7135 24.5938 45.1094 24.5938C45.5052 24.5938 45.9583 24.474 46.4688 24.2344C46.9896 23.9948 47.5052 23.6875 48.0156 23.3125C48.526 22.9375 49.0208 22.5208 49.5 22.0625C49.9896 21.6042 50.4375 21.1562 50.8438 20.7188C51.2604 20.2812 51.625 19.875 51.9375 19.5L52.6875 18.6562L53.0156 18.9219L52.2188 19.8281C49.2188 23.2969 46.7344 25.0312 44.7656 25.0312ZM40.4375 19.4062C38.9688 21.1875 38.2344 22.6458 38.2344 23.7812C38.2344 24.3021 38.4688 24.5625 38.9375 24.5625C40.4583 24.5625 42.651 22.8802 45.5156 19.5156L46.8281 17.9375C47.4531 16.9896 47.7656 16.3021 47.7656 15.875C47.7656 15.1458 47.401 14.7812 46.6719 14.7812C45.6823 14.7812 44.2604 15.625 42.4062 17.3125C41.7708 17.8958 41.1146 18.5938 40.4375 19.4062ZM51.3281 24.0781C51.3281 24.4531 51.5781 24.6406 52.0781 24.6406C52.776 24.6406 53.526 24.375 54.3281 23.8438C56.0573 22.6875 57.8594 20.9583 59.7344 18.6562C59.7344 18.6562 60.9167 17.2344 63.2812 14.3906C63.7812 14.4531 64.2344 14.4844 64.6406 14.4844C65.0469 14.4844 65.3854 14.4688 65.6562 14.4375L64.125 16.2031L58.5938 22.9375C58.2292 23.3854 58.0469 23.75 58.0469 24.0312C58.0469 24.4062 58.2969 24.5938 58.7969 24.5938C59.2969 24.5938 59.8125 24.4635 60.3438 24.2031C60.8854 23.9323 61.4219 23.5938 61.9531 23.1875C62.4948 22.7812 63.0208 22.3385 63.5312 21.8594C64.0417 21.3698 64.5052 20.9062 64.9219 20.4688L66.5625 18.6562L66.875 18.9219L66.2656 19.6094C65.9635 19.9531 65.5938 20.349 65.1562 20.7969L63.7031 22.2188C61.7135 24.0938 60.0625 25.0312 58.75 25.0312C58.3229 25.0312 57.9688 24.9167 57.6875 24.6875C57.4167 24.4479 57.2708 24.1302 57.25 23.7344C57.2292 22.974 57.4948 22.1146 58.0469 21.1562C55.651 23.7396 53.6198 25.0312 51.9531 25.0312C51.0156 25.0312 50.4167 24.6979 50.1562 24.0312C50.0833 23.8438 50.0417 23.6042 50.0312 23.3125C50.0208 23.0208 50.0938 22.6719 50.25 22.2656C50.3958 21.8594 50.6198 21.4219 50.9219 20.9531C51.224 20.474 51.5938 19.9583 52.0312 19.4062L54.8438 16C55.2812 15.4583 55.7448 14.9219 56.2344 14.3906C56.6406 14.4531 56.9688 14.4844 57.2188 14.4844H57.75C58.1979 14.4844 58.4844 14.4688 58.6094 14.4375C57.3906 15.7708 56.5365 16.7344 56.0469 17.3281L52.9375 21.0625C51.8438 22.3333 51.3073 23.3385 51.3281 24.0781ZM64.9062 24.0938C64.9062 24.4062 65.1562 24.5677 65.6562 24.5781C66.1562 24.5885 66.6562 24.4792 67.1562 24.25C67.6667 24.0208 68.1719 23.7292 68.6719 23.375C69.1719 23.0208 69.6562 22.625 70.125 22.1875C70.5938 21.7396 71.0312 21.2969 71.4375 20.8594C71.8438 20.4219 72.2083 20.0104 72.5312 19.625L73.3438 18.6562L73.6875 18.9219L72.875 19.8594C69.9688 23.3073 67.526 25.0312 65.5469 25.0312C64.974 25.0312 64.5469 24.9167 64.2656 24.6875C63.974 24.4583 63.8281 24.2083 63.8281 23.9375C63.8281 23.6667 63.8438 23.4427 63.875 23.2656C63.8958 23.0885 63.9479 22.8958 64.0312 22.6875C64.1146 22.4688 64.2396 22.2135 64.4062 21.9219C64.5625 21.6302 64.776 21.276 65.0469 20.8594L67.4844 17.3438L71.5156 11.6719H70.2812C69.9688 11.6719 69.8125 11.599 69.8125 11.4531C69.8125 11.2969 70.0104 11.2188 70.4062 11.2188H71.8281L74.7188 7.15625C75.4479 7.27083 76.1719 7.27083 76.8906 7.15625L73.875 11.2188H77.9062C78.1979 11.2188 78.3438 11.2969 78.3438 11.4531C78.3438 11.599 78.2135 11.6719 77.9531 11.6719H73.5312L67.0625 20.4688C65.9479 22.0417 65.3125 23.0104 65.1562 23.375C64.9896 23.7396 64.9062 23.9792 64.9062 24.0938ZM71.8281 23.9062C71.8281 24.3854 72.1354 24.625 72.75 24.625C73.3646 24.625 74.0417 24.4688 74.7812 24.1562C75.5312 23.8333 76.2656 23.4167 76.9844 22.9062C78.3698 21.9375 79.6458 20.7292 80.8125 19.2812C82.6458 17.1875 83.7448 15.9219 84.1094 15.4844C84.1094 15.4844 84.3906 15.1354 84.9531 14.4375C85.3594 14.5104 85.6562 14.5469 85.8438 14.5469C86.375 14.5469 86.776 14.526 87.0469 14.4844L81.6094 21.1875L78.8438 24.8906L76.4688 27.9844C79.1562 26.6927 81.2188 25.4062 82.6562 24.125C83.5938 23.2917 84.474 22.375 85.2969 21.375L87.5469 18.6562L87.875 18.9219L85.9062 21.25C84.7396 22.625 83.7656 23.651 82.9844 24.3281C82.2031 25.0052 81.4896 25.5625 80.8438 26C79.6146 26.8125 77.974 27.7031 75.9219 28.6719C73.9844 31.099 72.526 32.7865 71.5469 33.7344C70.5573 34.6823 69.776 35.3542 69.2031 35.75C68.6302 36.1562 68.0729 36.474 67.5312 36.7031C66.6146 37.099 65.526 37.2969 64.2656 37.2969C63.6302 37.2969 63.2083 37.0729 63 36.625C62.9375 36.5 62.9062 36.3021 62.9062 36.0312C62.9062 35.7604 63.0833 35.3802 63.4375 34.8906C63.7812 34.4115 64.375 33.875 65.2188 33.2812C66.9062 32.0938 69.8229 30.625 73.9688 28.875L80.3281 20.8125L80.1562 20.75C79.1667 21.8125 78.1562 22.6562 77.125 23.2812C75.1979 24.4479 73.6562 25.0312 72.5 25.0312C71.9167 25.0312 71.4792 24.9167 71.1875 24.6875C70.8958 24.4479 70.75 24.1615 70.75 23.8281C70.75 23.4844 70.7812 23.1771 70.8438 22.9062C70.9062 22.625 71.0312 22.2917 71.2188 21.9062C71.6042 21.1667 72.3385 20.0365 73.4219 18.5156C73.901 17.9219 74.4792 17.2812 75.1562 16.5938L77.3281 14.3906L78.0625 14.4688C78.2292 14.4792 78.4844 14.4844 78.8281 14.4844C79.1823 14.4844 79.5 14.4688 79.7812 14.4375C78.8542 15.2708 78.1615 15.9479 77.7031 16.4688L76.5938 17.7188C74.2917 20.2708 72.9948 21.7604 72.7031 22.1875C72.1198 23.0208 71.8281 23.5938 71.8281 23.9062ZM73.4219 29.5469C68.1823 31.7865 65.0312 33.5677 63.9688 34.8906C63.5938 35.3594 63.4062 35.8125 63.4062 36.25C63.4062 36.3646 63.4792 36.4948 63.625 36.6406C63.7604 36.7969 64.0573 36.875 64.5156 36.875C64.974 36.875 65.4844 36.7708 66.0469 36.5625C66.599 36.3646 67.2188 36 67.9062 35.4688C69.1667 34.4688 71.0052 32.4948 73.4219 29.5469ZM106.531 15.6094C106.51 15.0052 106.13 14.7031 105.391 14.7031C103.88 14.7031 101.927 16.276 99.5312 19.4219C98.5417 20.7344 98.0469 21.9219 98.0469 22.9844C98.0469 23.4427 98.1719 23.7917 98.4219 24.0312C98.8594 24.4375 99.4167 24.6406 100.094 24.6406C100.781 24.6406 101.505 24.5 102.266 24.2188C103.036 23.9375 103.75 23.5833 104.406 23.1562C105.062 22.7292 105.661 22.2656 106.203 21.7656C106.745 21.2552 107.214 20.7812 107.609 20.3438C108.005 19.8958 108.318 19.5156 108.547 19.2031C108.776 18.8906 108.911 18.7083 108.953 18.6562L109.297 18.9219L108.875 19.4844C106.917 22.0573 104.729 23.7812 102.312 24.6562C101.5 24.9479 100.734 25.0938 100.016 25.0938C99.2969 25.0938 98.7344 25.0208 98.3281 24.875C97.9219 24.7292 97.5833 24.5312 97.3125 24.2812C96.7917 23.7708 96.5312 23.1354 96.5312 22.375C96.5312 20.8854 97.1771 19.3698 98.4688 17.8281C99.4792 16.6198 100.677 15.6927 102.062 15.0469C103.188 14.526 104.281 14.276 105.344 14.2969C106.281 14.3281 106.875 14.6458 107.125 15.25C107.375 15.8646 107.24 16.4271 106.719 16.9375C106.375 17.2917 106.042 17.4688 105.719 17.4688C104.969 17.4688 104.583 17.1615 104.562 16.5469C104.552 16.2552 104.661 16.0156 104.891 15.8281C105.13 15.6302 105.365 15.5208 105.594 15.5C105.927 15.4792 106.24 15.5365 106.531 15.6719V15.6094ZM115.906 22.4844C115.521 22.4844 115.24 22.3281 115.062 22.0156C113.823 23.4219 112.484 24.3542 111.047 24.8125C110.568 24.9583 110.099 25.0312 109.641 25.0312C109.193 25.0312 108.807 24.9792 108.484 24.875C108.161 24.7708 107.896 24.625 107.688 24.4375C106.844 23.7083 106.76 22.4531 107.438 20.6719C107.698 19.974 108.036 19.3229 108.453 18.7188C108.859 18.1146 109.318 17.5573 109.828 17.0469C110.349 16.526 110.906 16.0625 111.5 15.6562C112.844 14.75 114.156 14.2969 115.438 14.2969C115.99 14.2969 116.464 14.4427 116.859 14.7344C117.266 15.0156 117.484 15.4271 117.516 15.9688C117.547 16.5 117.516 17 117.422 17.4688C117.328 17.9375 117.188 18.4062 117 18.875C116.625 19.8333 116.094 20.7396 115.406 21.5938C115.479 21.8958 115.677 22.0469 116 22.0469C116.333 22.0469 116.646 21.974 116.938 21.8281C117.24 21.6719 117.536 21.4844 117.828 21.2656C118.13 21.0365 118.422 20.7865 118.703 20.5156C118.995 20.2344 119.26 19.9688 119.5 19.7188L120.094 19.0625C120.26 18.8646 120.38 18.7292 120.453 18.6562L120.797 18.9219C120.661 19.0469 120.49 19.224 120.281 19.4531C120.073 19.6823 119.839 19.9271 119.578 20.1875C119.578 20.1875 119.302 20.4583 118.75 21C117.677 21.9896 116.729 22.4844 115.906 22.4844ZM109.422 24.4375C109.589 24.5208 109.823 24.5625 110.125 24.5625C110.802 24.5625 111.672 24.1823 112.734 23.4219C113.547 22.8385 114.271 22.1667 114.906 21.4062V21.3438C114.906 20.4583 115.24 19.7917 115.906 19.3438C116.083 19.2188 116.25 19.1302 116.406 19.0781C116.906 18.0156 117.141 17.1458 117.109 16.4688C117.047 15.3958 116.651 14.8594 115.922 14.8594C114.693 14.8594 112.969 16.2448 110.75 19.0156C109.323 20.8073 108.651 22.2031 108.734 23.2031C108.734 23.776 108.964 24.1875 109.422 24.4375ZM127.375 22.4844C126.99 22.4844 126.708 22.3281 126.531 22.0156C125.292 23.4219 123.953 24.3542 122.516 24.8125C122.036 24.9583 121.568 25.0312 121.109 25.0312C120.661 25.0312 120.276 24.9792 119.953 24.875C119.63 24.7708 119.365 24.625 119.156 24.4375C118.312 23.7083 118.229 22.4531 118.906 20.6719C119.167 19.974 119.505 19.3229 119.922 18.7188C120.328 18.1146 120.786 17.5573 121.297 17.0469C121.818 16.526 122.375 16.0625 122.969 15.6562C124.312 14.75 125.625 14.2969 126.906 14.2969C127.458 14.2969 127.932 14.4427 128.328 14.7344C128.734 15.0156 128.953 15.4271 128.984 15.9688C129.016 16.5 128.984 17 128.891 17.4688C128.797 17.9375 128.656 18.4062 128.469 18.875C128.094 19.8333 127.562 20.7396 126.875 21.5938C126.948 21.8958 127.146 22.0469 127.469 22.0469C127.802 22.0469 128.115 21.974 128.406 21.8281C128.708 21.6719 129.005 21.4844 129.297 21.2656C129.599 21.0365 129.891 20.7865 130.172 20.5156C130.464 20.2344 130.729 19.9688 130.969 19.7188L131.562 19.0625C131.729 18.8646 131.849 18.7292 131.922 18.6562L132.266 18.9219C132.13 19.0469 131.958 19.224 131.75 19.4531C131.542 19.6823 131.307 19.9271 131.047 20.1875C131.047 20.1875 130.771 20.4583 130.219 21C129.146 21.9896 128.198 22.4844 127.375 22.4844ZM120.891 24.4375C121.057 24.5208 121.292 24.5625 121.594 24.5625C122.271 24.5625 123.141 24.1823 124.203 23.4219C125.016 22.8385 125.74 22.1667 126.375 21.4062V21.3438C126.375 20.4583 126.708 19.7917 127.375 19.3438C127.552 19.2188 127.719 19.1302 127.875 19.0781C128.375 18.0156 128.609 17.1458 128.578 16.4688C128.516 15.3958 128.12 14.8594 127.391 14.8594C126.161 14.8594 124.438 16.2448 122.219 19.0156C120.792 20.8073 120.12 22.2031 120.203 23.2031C120.203 23.776 120.432 24.1875 120.891 24.4375ZM144.922 0.078125C145.609 0.192708 146.328 0.192708 147.078 0.078125L134.219 17.9688C131.781 21.5104 130.255 23.7552 129.641 24.7031C129.359 24.651 129.125 24.625 128.938 24.625C128.74 24.625 128.589 24.6302 128.484 24.6406C128.38 24.651 128.276 24.6667 128.172 24.6875C128.057 24.6979 127.953 24.7135 127.859 24.7344C127.766 24.7552 127.688 24.7708 127.625 24.7812L144.922 0.078125ZM136.859 24.1094C136.859 24.4323 137.115 24.5938 137.625 24.5938C138.135 24.5938 138.682 24.4531 139.266 24.1719C139.849 23.8802 140.422 23.5208 140.984 23.0938C141.557 22.6667 142.099 22.2031 142.609 21.7031C143.13 21.1927 143.594 20.7188 144 20.2812C144.615 19.6146 145.078 19.0677 145.391 18.6406L145.703 18.9219C145.661 18.9635 145.505 19.1406 145.234 19.4531C144.974 19.7656 144.63 20.151 144.203 20.6094C143.786 21.0573 143.302 21.5417 142.75 22.0625C142.208 22.5729 141.635 23.0521 141.031 23.5C139.646 24.5208 138.443 25.0312 137.422 25.0312C136.38 25.0312 135.859 24.474 135.859 23.3594C135.859 22.4323 136.495 21.349 137.766 20.1094C138.276 19.5781 138.531 19.2188 138.531 19.0312C138.531 18.6146 138.224 18.3021 137.609 18.0938C136.995 18.4375 136.453 18.6094 135.984 18.6094C135.203 18.6094 134.812 18.4479 134.812 18.125C134.812 17.9375 134.958 17.7708 135.25 17.625C135.552 17.4792 135.917 17.4062 136.344 17.4062C136.781 17.4062 137.198 17.4635 137.594 17.5781C137.927 17.4115 138.188 17.2292 138.375 17.0312C138.833 16.5521 139.255 16.0781 139.641 15.6094C140.026 15.1406 140.396 14.75 140.75 14.4375C141.552 13.7292 142.359 13.375 143.172 13.375C143.672 13.375 144.073 13.5052 144.375 13.7656C144.688 14.026 144.839 14.3385 144.828 14.7031C144.818 15.0677 144.703 15.3333 144.484 15.5C144.266 15.6667 144.026 15.75 143.766 15.75C143.505 15.75 143.276 15.6615 143.078 15.4844C142.891 15.3073 142.802 15.1042 142.812 14.875C142.844 14.4375 143.057 14.1562 143.453 14.0312C143.297 13.9062 143.094 13.8438 142.844 13.8438C142.604 13.8438 142.365 13.8906 142.125 13.9844C141.896 14.0677 141.646 14.2188 141.375 14.4375C140.823 14.8646 140.135 15.6042 139.312 16.6562C138.927 17.0938 138.526 17.4688 138.109 17.7812C139.099 18.2396 139.594 18.9167 139.594 19.8125C139.594 20.5417 139.26 21.3021 138.594 22.0938C138.312 22.4271 138.01 22.7448 137.688 23.0469C137.135 23.5469 136.859 23.901 136.859 24.1094ZM153.547 10.875C153.401 11.0104 153.234 11.1198 153.047 11.2031C152.859 11.276 152.646 11.3125 152.406 11.3125C152.167 11.3125 151.958 11.224 151.781 11.0469C151.615 10.8594 151.531 10.651 151.531 10.4219C151.531 10.1927 151.573 9.98958 151.656 9.8125C151.74 9.63542 151.854 9.47917 152 9.34375C152.302 9.03125 152.63 8.875 152.984 8.875C153.349 8.875 153.615 8.97396 153.781 9.17188C153.958 9.35938 154.047 9.56771 154.047 9.79688C154.047 10.026 154 10.2292 153.906 10.4062C153.823 10.5833 153.703 10.7396 153.547 10.875ZM143.625 24.1094C143.625 24.4323 143.932 24.5938 144.547 24.5938C145.161 24.5938 145.74 24.4531 146.281 24.1719C146.833 23.8906 147.385 23.5417 147.938 23.125C148.5 22.6979 149.042 22.2344 149.562 21.7344L150.969 20.3281C151.385 19.8906 151.729 19.5156 152 19.2031C152.271 18.8802 152.432 18.6927 152.484 18.6406L152.797 18.9219C152.693 19.026 152.495 19.25 152.203 19.5938C151.922 19.9271 151.568 20.3229 151.141 20.7812C150.714 21.2292 150.234 21.7031 149.703 22.2031C149.172 22.7031 148.615 23.1615 148.031 23.5781C146.688 24.5469 145.51 25.0312 144.5 25.0312C143.854 25.0312 143.339 24.9167 142.953 24.6875C142.568 24.4479 142.375 24.1771 142.375 23.875C142.375 23.5729 142.406 23.3021 142.469 23.0625C142.531 22.8229 142.646 22.5365 142.812 22.2031C142.979 21.8698 143.214 21.4792 143.516 21.0312C143.807 20.5833 144.193 20.0469 144.672 19.4219C145.141 18.7969 145.714 18.0729 146.391 17.25L148.797 14.4062C148.922 14.4375 149.177 14.4531 149.562 14.4531H150.297C150.568 14.4531 150.786 14.4427 150.953 14.4219C147.505 18.5365 145.568 20.8802 145.141 21.4531C144.703 22.0156 144.38 22.4583 144.172 22.7812C143.807 23.3333 143.625 23.776 143.625 24.1094ZM152.938 24.7031C152.656 24.651 152.344 24.625 152 24.625C151.448 24.625 150.964 24.6771 150.547 24.7812L155.969 17.0312C156.646 16.0833 156.995 15.5208 157.016 15.3438C157.057 15 156.948 14.8281 156.688 14.8281C156.302 14.8281 155.344 15.7812 153.812 17.6875L152.812 18.9219C152.729 18.9635 152.641 18.9427 152.547 18.8594C152.464 18.7656 152.443 18.6979 152.484 18.6562C152.786 18.3333 153.125 17.9271 153.5 17.4375C153.885 16.9375 154.286 16.4583 154.703 16C155.724 14.8646 156.573 14.2969 157.25 14.2969C158.396 14.2969 158.76 14.8854 158.344 16.0625C158.26 16.3125 158.078 16.6354 157.797 17.0312L154.516 21.5938L154.594 21.7656C157.219 18.8906 159.083 16.9896 160.188 16.0625C161.24 15.1875 162.021 14.6771 162.531 14.5312C163.052 14.375 163.474 14.2969 163.797 14.2969C164.13 14.2969 164.411 14.3438 164.641 14.4375C164.88 14.5312 165.073 14.651 165.219 14.7969C165.49 15.0677 165.62 15.3958 165.609 15.7812C165.609 16.1562 165.536 16.5417 165.391 16.9375C165.255 17.3333 165.021 17.8021 164.688 18.3438C163.99 19.4583 162.812 20.9115 161.156 22.7031C160.469 23.4219 160.109 23.8438 160.078 23.9688C160.047 24.0833 160.031 24.1719 160.031 24.2344C160.031 24.474 160.349 24.5938 160.984 24.5938C161.63 24.5938 162.229 24.4635 162.781 24.2031C163.344 23.9323 163.891 23.5938 164.422 23.1875C164.964 22.7812 165.474 22.3385 165.953 21.8594C166.443 21.3698 166.88 20.9062 167.266 20.4688C167.651 20.0208 167.974 19.6354 168.234 19.3125C168.495 18.9792 168.672 18.7604 168.766 18.6562L169.094 18.9219C168.99 19.0365 168.802 19.2656 168.531 19.6094C168.26 19.9531 167.922 20.349 167.516 20.7969C167.12 21.2448 166.667 21.7188 166.156 22.2188C165.656 22.7188 165.125 23.1771 164.562 23.5938C163.25 24.5521 162.062 25.0312 161 25.0312C160.062 25.0312 159.411 24.7969 159.047 24.3281C158.932 24.1823 158.875 24.0104 158.875 23.8125C158.875 23.6146 158.901 23.3906 158.953 23.1406C159.016 22.8802 159.156 22.5521 159.375 22.1562C159.865 21.3125 160.557 20.3854 161.453 19.375C162.359 18.3646 162.953 17.6823 163.234 17.3281C163.516 16.974 163.74 16.6667 163.906 16.4062C164.219 15.9062 164.375 15.5208 164.375 15.25C164.375 14.875 164.125 14.6875 163.625 14.6875C162.594 14.6875 160.891 15.8542 158.516 18.1875C157.318 19.3542 155.943 20.8906 154.391 22.7969L152.938 24.7031ZM171.859 27.625C176.234 25.4167 179.99 22.4271 183.125 18.6562L183.438 18.9219C180.115 22.9427 176.057 26.0833 171.266 28.3438L168.484 31.6719C166.141 34.3385 164.234 36.0104 162.766 36.6875C161.859 37.0938 160.812 37.2969 159.625 37.2969C158.969 37.2969 158.495 37.0729 158.203 36.625C158.005 36.3229 158 35.9531 158.188 35.5156C158.375 35.0885 158.635 34.6979 158.969 34.3438C159.292 33.9896 159.729 33.6094 160.281 33.2031C160.833 32.7969 161.521 32.3594 162.344 31.8906C164.031 30.9323 166.302 29.849 169.156 28.6406L175.453 20.8125L175.328 20.75C173.422 22.9167 171.714 24.2656 170.203 24.7969C169.755 24.9531 169.37 25.0312 169.047 25.0312C167.786 25.0312 167.135 24.349 167.094 22.9844C167.094 21.3698 167.714 19.8385 168.953 18.3906C171.193 15.6615 173.63 14.2969 176.266 14.2969C176.953 14.2969 177.495 14.4115 177.891 14.6406C178.536 15.0052 178.682 15.625 178.328 16.5L179.797 14.6094C180.099 14.6927 180.375 14.7344 180.625 14.7344C181.229 14.7344 181.667 14.7135 181.938 14.6719L171.859 27.625ZM178.078 15.7188C178.057 15.0938 177.589 14.7812 176.672 14.7812C175.693 14.7812 174.297 15.6354 172.484 17.3438C171.87 17.9375 171.208 18.6771 170.5 19.5625C169.073 21.3333 168.37 22.7292 168.391 23.75C168.411 24.0521 168.479 24.2656 168.594 24.3906C168.708 24.5052 168.901 24.5625 169.172 24.5625C169.453 24.5625 169.812 24.4792 170.25 24.3125C170.688 24.1354 171.188 23.8438 171.75 23.4375C173.052 22.5104 174.427 21.2031 175.875 19.5156L177.094 18.0312C177.75 17.0729 178.078 16.3021 178.078 15.7188ZM168.609 29.3125C163.286 31.6458 160.125 33.4896 159.125 34.8438C158.771 35.3333 158.594 35.8021 158.594 36.25C158.594 36.3646 158.693 36.4948 158.891 36.6406C159.078 36.7969 159.344 36.875 159.688 36.875C160.031 36.875 160.375 36.8281 160.719 36.7344C161.062 36.651 161.422 36.5 161.797 36.2812C162.172 36.0729 162.578 35.7812 163.016 35.4062C163.453 35.0417 163.948 34.5781 164.5 34.0156C165.042 33.4635 165.651 32.8021 166.328 32.0312L168.609 29.3125ZM198.812 22.125C198.938 22.1458 199.094 22.1562 199.281 22.1562C199.479 22.1562 199.714 22.0833 199.984 21.9375C200.255 21.7917 200.531 21.6042 200.812 21.375C201.104 21.1458 201.391 20.8958 201.672 20.625C201.953 20.3438 202.208 20.0781 202.438 19.8281C202.677 19.5677 202.885 19.3333 203.062 19.125L203.422 18.6562L203.766 18.9219C203.641 19.0469 203.479 19.2188 203.281 19.4375L202.625 20.1875C201.177 21.75 200.031 22.5312 199.188 22.5312H198.922C198.839 22.5312 198.755 22.5208 198.672 22.5C197.797 24.4062 195.938 25.3594 193.094 25.3594C191.854 25.3594 190.953 25.0625 190.391 24.4688C190.151 24.2083 190.031 23.875 190.031 23.4688C190.031 23.0625 190.13 22.7188 190.328 22.4375C190.516 22.1458 190.74 21.9062 191 21.7188C191.531 21.3333 192.01 21.1406 192.438 21.1406C192.854 21.1406 193.062 21.3385 193.062 21.7344C193.031 22.0052 192.802 22.2083 192.375 22.3438C192.24 22.3854 192.109 22.4062 191.984 22.4062C191.849 22.4062 191.724 22.3646 191.609 22.2812C191.484 22.1875 191.385 22.1198 191.312 22.0781C191.25 22.1406 191.172 22.2135 191.078 22.2969C190.974 22.3802 190.875 22.4792 190.781 22.5938C190.552 22.875 190.438 23.1667 190.438 23.4688C190.438 23.7604 190.536 23.9948 190.734 24.1719C190.932 24.349 191.167 24.4844 191.438 24.5781C191.844 24.724 192.271 24.7969 192.719 24.7969C193.156 24.7969 193.609 24.7031 194.078 24.5156C194.557 24.3281 195.026 24.0156 195.484 23.5781C196.745 22.3802 197.427 20.6042 197.531 18.25C197.594 16.6667 197.786 15.4271 198.109 14.5312C198.12 14.5 198.125 14.4531 198.125 14.3906L194.438 18.9219C194.229 19.1719 194.078 19.3333 193.984 19.4062C193.88 19.4792 193.828 19.5156 193.828 19.5156C193.703 19.526 193.62 19.4948 193.578 19.4219C193.557 19.3698 193.604 19.2708 193.719 19.125C196.406 15.9167 197.917 14.0938 198.25 13.6562C198.417 12.8438 198.688 12.4375 199.062 12.4375C199.24 12.4375 199.385 12.4844 199.5 12.5781C199.625 12.6719 199.688 12.7917 199.688 12.9375C199.677 13.1354 199.516 13.4167 199.203 13.7812C198.901 14.1354 198.714 14.3646 198.641 14.4688C198.578 14.5625 198.536 14.6458 198.516 14.7188C198.495 14.7812 198.484 14.8438 198.484 14.9062V15.0938C198.474 15.375 198.5 15.7083 198.562 16.0938L198.953 18.6875C199.182 20.1042 199.135 21.25 198.812 22.125ZM209.547 25.0312C208.505 25.0312 207.984 24.7083 207.984 24.0625C207.984 23.5312 208.286 22.8646 208.891 22.0625L209.875 20.8125L209.719 20.75C207.969 22.9062 206.318 24.2604 204.766 24.8125C204.339 24.9583 203.969 25.0312 203.656 25.0312C202.375 25.0312 201.734 24.349 201.734 22.9844C201.734 21.3802 202.375 19.849 203.656 18.3906C205.552 16.1823 207.458 14.875 209.375 14.4688C209.948 14.3542 210.438 14.2969 210.844 14.2969C211.25 14.2969 211.568 14.3281 211.797 14.3906C212.036 14.4427 212.245 14.5208 212.422 14.625C212.797 14.8646 212.984 15.1615 212.984 15.5156C212.984 15.8594 212.922 16.1875 212.797 16.5L214.328 14.6094C214.609 14.6927 214.87 14.7344 215.109 14.7344C215.724 14.7344 216.167 14.7135 216.438 14.6719L211.172 21.0156C209.922 22.474 209.297 23.5 209.297 24.0938C209.297 24.4271 209.495 24.5938 209.891 24.5938C210.286 24.5938 210.74 24.474 211.25 24.2344C211.771 23.9948 212.286 23.6875 212.797 23.3125C213.307 22.9375 213.802 22.5208 214.281 22.0625C214.771 21.6042 215.219 21.1562 215.625 20.7188C216.042 20.2812 216.406 19.875 216.719 19.5L217.469 18.6562L217.797 18.9219L217 19.8281C214 23.2969 211.516 25.0312 209.547 25.0312ZM205.219 19.4062C203.75 21.1875 203.016 22.6458 203.016 23.7812C203.016 24.3021 203.25 24.5625 203.719 24.5625C205.24 24.5625 207.432 22.8802 210.297 19.5156L211.609 17.9375C212.234 16.9896 212.547 16.3021 212.547 15.875C212.547 15.1458 212.182 14.7812 211.453 14.7812C210.464 14.7812 209.042 15.625 207.188 17.3125C206.552 17.8958 205.896 18.5938 205.219 19.4062ZM215.859 24.0781C215.859 24.4219 216.109 24.5938 216.609 24.5938C217.109 24.5938 217.641 24.4635 218.203 24.2031C218.776 23.9323 219.339 23.5938 219.891 23.1875C220.453 22.7812 220.995 22.3385 221.516 21.8594C222.036 21.3698 222.51 20.9062 222.938 20.4688L224.016 19.3125C224.307 18.9792 224.505 18.7604 224.609 18.6562L224.922 18.9219C224.807 19.0365 224.594 19.2656 224.281 19.6094C223.979 19.9531 223.604 20.349 223.156 20.7969C222.719 21.2448 222.224 21.7188 221.672 22.2188C221.13 22.7188 220.562 23.1771 219.969 23.5938C218.583 24.5521 217.37 25.0312 216.328 25.0312C215.891 25.0312 215.531 24.9115 215.25 24.6719C214.958 24.4323 214.812 24.1771 214.812 23.9062C214.812 23.625 214.828 23.401 214.859 23.2344C214.88 23.0677 214.932 22.8802 215.016 22.6719C215.099 22.4531 215.219 22.2031 215.375 21.9219C215.531 21.6302 215.74 21.2812 216 20.875L218.391 17.3438L230.469 0.078125C231.219 0.182292 231.943 0.182292 232.641 0.078125C222.703 13.8906 217.557 21.0625 217.203 21.5938C216.849 22.1146 216.589 22.5104 216.422 22.7812C216.255 23.0417 216.13 23.2552 216.047 23.4219C215.922 23.6719 215.859 23.8906 215.859 24.0781ZM231.531 22.4844C231.146 22.4844 230.865 22.3281 230.688 22.0156C229.448 23.4219 228.109 24.3542 226.672 24.8125C226.193 24.9583 225.724 25.0312 225.266 25.0312C224.818 25.0312 224.432 24.9792 224.109 24.875C223.786 24.7708 223.521 24.625 223.312 24.4375C222.469 23.7083 222.385 22.4531 223.062 20.6719C223.323 19.974 223.661 19.3229 224.078 18.7188C224.484 18.1146 224.943 17.5573 225.453 17.0469C225.974 16.526 226.531 16.0625 227.125 15.6562C228.469 14.75 229.781 14.2969 231.062 14.2969C231.615 14.2969 232.089 14.4427 232.484 14.7344C232.891 15.0156 233.109 15.4271 233.141 15.9688C233.172 16.5 233.141 17 233.047 17.4688C232.953 17.9375 232.812 18.4062 232.625 18.875C232.25 19.8333 231.719 20.7396 231.031 21.5938C231.104 21.8958 231.302 22.0469 231.625 22.0469C231.958 22.0469 232.271 21.974 232.562 21.8281C232.865 21.6719 233.161 21.4844 233.453 21.2656C233.755 21.0365 234.047 20.7865 234.328 20.5156C234.62 20.2344 234.885 19.9688 235.125 19.7188L235.719 19.0625C235.885 18.8646 236.005 18.7292 236.078 18.6562L236.422 18.9219C236.286 19.0469 236.115 19.224 235.906 19.4531C235.698 19.6823 235.464 19.9271 235.203 20.1875C235.203 20.1875 234.927 20.4583 234.375 21C233.302 21.9896 232.354 22.4844 231.531 22.4844ZM225.047 24.4375C225.214 24.5208 225.448 24.5625 225.75 24.5625C226.427 24.5625 227.297 24.1823 228.359 23.4219C229.172 22.8385 229.896 22.1667 230.531 21.4062V21.3438C230.531 20.4583 230.865 19.7917 231.531 19.3438C231.708 19.2188 231.875 19.1302 232.031 19.0781C232.531 18.0156 232.766 17.1458 232.734 16.4688C232.672 15.3958 232.276 14.8594 231.547 14.8594C230.318 14.8594 228.594 16.2448 226.375 19.0156C224.948 20.8073 224.276 22.2031 224.359 23.2031C224.359 23.776 224.589 24.1875 225.047 24.4375ZM236.531 24.7031C236.25 24.651 235.938 24.625 235.594 24.625C235.042 24.625 234.557 24.6771 234.141 24.7812L239.562 17.0312C240.24 16.0833 240.589 15.5208 240.609 15.3438C240.651 15 240.542 14.8281 240.281 14.8281C239.896 14.8281 238.938 15.7812 237.406 17.6875L236.406 18.9219C236.323 18.9635 236.234 18.9427 236.141 18.8594C236.057 18.7656 236.036 18.6979 236.078 18.6562C236.38 18.3333 236.719 17.9271 237.094 17.4375C237.479 16.9375 237.88 16.4583 238.297 16C239.318 14.8646 240.167 14.2969 240.844 14.2969C241.99 14.2969 242.354 14.8854 241.938 16.0625C241.854 16.3125 241.672 16.6354 241.391 17.0312L238.109 21.5938L238.188 21.7656C240.812 18.8906 242.677 16.9896 243.781 16.0625C244.833 15.1875 245.615 14.6771 246.125 14.5312C246.646 14.375 247.068 14.2969 247.391 14.2969C247.724 14.2969 248.005 14.3438 248.234 14.4375C248.474 14.5312 248.667 14.651 248.812 14.7969C249.083 15.0677 249.214 15.3958 249.203 15.7812C249.203 16.1562 249.13 16.5417 248.984 16.9375C248.849 17.3333 248.615 17.8021 248.281 18.3438C247.583 19.4583 246.406 20.9115 244.75 22.7031C244.062 23.4219 243.703 23.8438 243.672 23.9688C243.641 24.0833 243.625 24.1719 243.625 24.2344C243.625 24.474 243.943 24.5938 244.578 24.5938C245.224 24.5938 245.823 24.4635 246.375 24.2031C246.938 23.9323 247.484 23.5938 248.016 23.1875C248.557 22.7812 249.068 22.3385 249.547 21.8594C250.036 21.3698 250.474 20.9062 250.859 20.4688C251.245 20.0208 251.568 19.6354 251.828 19.3125C252.089 18.9792 252.266 18.7604 252.359 18.6562L252.688 18.9219C252.583 19.0365 252.396 19.2656 252.125 19.6094C251.854 19.9531 251.516 20.349 251.109 20.7969C250.714 21.2448 250.26 21.7188 249.75 22.2188C249.25 22.7188 248.719 23.1771 248.156 23.5938C246.844 24.5521 245.656 25.0312 244.594 25.0312C243.656 25.0312 243.005 24.7969 242.641 24.3281C242.526 24.1823 242.469 24.0104 242.469 23.8125C242.469 23.6146 242.495 23.3906 242.547 23.1406C242.609 22.8802 242.75 22.5521 242.969 22.1562C243.458 21.3125 244.151 20.3854 245.047 19.375C245.953 18.3646 246.547 17.6823 246.828 17.3281C247.109 16.974 247.333 16.6667 247.5 16.4062C247.812 15.9062 247.969 15.5208 247.969 15.25C247.969 14.875 247.719 14.6875 247.219 14.6875C246.188 14.6875 244.484 15.8542 242.109 18.1875C240.911 19.3542 239.536 20.8906 237.984 22.7969L236.531 24.7031Z" fill="#D9B855"/>
</svg>
