<svg width="124" height="134" viewBox="0 0 124 134" fill="none" xmlns="http://www.w3.org/2000/svg">
<g clip-path="url(#clip0_853_409)">
<path d="M57.5948 0.447518L57.3746 0.560784C57.2235 0.62371 57.0788 0.711806 56.9529 0.818779C56.8522 0.881705 56.7704 0.963508 56.7075 1.07048C56.6571 1.15858 56.6697 1.2278 56.7327 1.28443C56.783 1.37252 56.8648 1.41657 56.9781 1.42286L57.2613 1.46062C57.513 1.46691 57.7647 1.44803 58.0102 1.40399L58.4444 1.3096C58.7213 1.23409 58.9856 1.1397 59.2436 1.02014L59.4639 0.906875C59.6149 0.843949 59.7597 0.755854 59.8855 0.64888C59.9862 0.585954 60.068 0.504151 60.131 0.397178C60.1813 0.309082 60.1687 0.239864 60.1058 0.183231C60.0554 0.095135 59.9736 0.0510871 59.8604 0.0447946L59.5772 0.00703923C59.3254 0.000746672 59.0737 0.0196243 58.8283 0.0636722L58.394 0.158061C58.1172 0.233571 57.8528 0.32796 57.5948 0.447518Z" fill="#DC4F54"/>
<path d="M59.6401 4.03983C59.4576 3.63711 59.6086 3.07707 60.5274 2.57996C61.5091 2.15206 62.2643 2.40377 62.3776 2.51703C62.6419 2.66176 62.9377 3.12741 63.1705 3.90769C63.4034 4.68796 63.5041 5.48712 63.4537 6.29257C63.4034 7.09801 63.1894 7.97268 62.9188 8.60823C62.6482 9.24378 62.151 10.1373 61.893 10.5778C61.635 11.0183 61.3896 11.5217 60.9428 12.1572C60.4959 12.7928 59.8226 13.422 59.2247 13.8059C58.6269 14.1897 57.9976 14.7435 57.6011 15.0329C57.2046 15.3224 56.3047 16.1908 55.9271 16.518C55.5495 16.8452 54.2532 18.1855 53.5735 19.4818C52.8938 20.7717 52.5414 21.1933 53.0952 22.0617C53.649 22.9301 55.0587 24.1697 55.8139 24.0565C56.569 23.9432 59.8666 22.8735 60.5589 22.4581C61.2511 22.0428 62.3965 21.0297 63.5355 21.1556C64.6872 21.2311 64.5424 21.7597 64.404 22.2757C64.297 22.6721 64.0579 23.144 63.9886 23.5405C63.9194 23.9369 63.9194 25.6107 63.9194 26.2966C63.9194 26.9825 63.7935 28.4675 63.2209 29.3737C62.6482 30.2798 61.7357 31.3432 60.1687 32.2053C58.5954 33.0674 57.6766 33.7407 56.4872 33.9106C55.2978 34.0805 53.8 33.8728 52.6484 33.533C51.4968 33.1932 48.2432 31.9662 47.5258 31.1859C46.8084 30.4056 45.8015 29.6694 45.4176 27.5048C45.0337 25.3401 45.0652 23.0748 46.0595 21.3569C47.0601 19.6391 48.3691 17.5751 50.88 15.8195C53.391 14.0639 55.0272 13.1326 55.6691 12.5851C56.311 12.0377 58.4633 10.4708 58.8408 9.9863C59.2184 9.50177 60.3638 7.73986 60.1939 5.95906C60.1058 5.06552 59.8037 4.39851 59.6401 4.03354V4.03983Z" fill="#DC4F54"/>
<path d="M4.3989 73.0057C6.3246 54.5308 18.0487 38.9693 34.285 31.6133" stroke="white" stroke-width="0.93" stroke-miterlimit="10"/>
<path d="M73.4598 30.3242C84.026 34.2885 92.9371 41.6319 98.8715 51.0393" stroke="white" stroke-width="0.93" stroke-miterlimit="10"/>
<path d="M6.66443 82.4639C7.34409 82.3632 8.01746 82.2499 8.67195 82.1241C9.32643 81.9982 9.98721 81.8724 10.6417 81.7402C10.6606 82.0108 10.6858 82.2877 10.7109 82.5709C10.7361 82.854 10.7676 83.1246 10.8116 83.3952C10.8494 83.6658 10.906 83.9363 10.9752 84.2132C11.0445 84.4901 11.0948 84.7607 11.1389 85.0312C11.2018 85.478 11.2333 85.8996 11.227 86.3023C11.2207 86.7051 11.1514 87.07 11.0256 87.3972C10.8997 87.7245 10.7046 87.995 10.4403 88.2153C10.176 88.4355 9.82988 88.574 9.39566 88.6432C8.62789 88.7564 7.99858 88.6054 7.48884 88.1901C6.98538 87.7748 6.58262 87.1896 6.29314 86.4471H6.26167C6.35607 87.3784 6.24279 88.1335 5.92184 88.7313C5.60089 89.3228 4.99046 89.6877 4.10313 89.8199C3.52416 89.908 3.02071 89.8576 2.59277 89.6814C2.16484 89.5053 1.79984 89.241 1.49777 88.8949C1.1957 88.5488 0.96285 88.1524 0.799229 87.7056C0.635607 87.2588 0.516037 86.812 0.446813 86.359C0.409054 86.1136 0.377588 85.8619 0.352416 85.6039C0.327243 85.3522 0.295778 85.1005 0.258019 84.8488C0.22026 84.6033 0.182501 84.3516 0.144742 84.0937C0.106983 83.842 0.0566383 83.5902 0 83.3448C0.667073 83.2756 1.32785 83.2064 1.98863 83.1372C2.64941 83.0617 3.31648 82.9799 4.00244 82.8729L6.67073 82.4765L6.66443 82.4639ZM3.93951 84.1692C3.41088 84.251 2.89484 84.3391 2.37881 84.4334C1.86277 84.5341 1.34673 84.6285 0.824401 84.7292C0.830694 84.9306 0.849574 85.1634 0.874746 85.434C0.899919 85.7046 0.931385 85.9814 0.975436 86.2583C1.02578 86.5918 1.13276 86.9001 1.29009 87.1833C1.44742 87.4665 1.6551 87.7119 1.91311 87.9069C2.17113 88.102 2.4732 88.2404 2.81303 88.3285C3.15916 88.4103 3.53674 88.4229 3.95209 88.3663C4.3989 88.3034 4.75132 88.1649 5.00934 87.9636C5.26736 87.7622 5.45615 87.4979 5.56943 87.177C5.6827 86.8561 5.73934 86.4785 5.73934 86.0506C5.73934 85.6227 5.70158 85.1508 5.61977 84.6348L5.51279 83.9363L3.93321 84.1755L3.93951 84.1692ZM6.21762 84.6852C6.27426 85.0501 6.36236 85.4025 6.48823 85.7486C6.61409 86.0947 6.784 86.3904 6.99168 86.6484C7.20564 86.9001 7.46366 87.0952 7.77203 87.2211C8.08039 87.3469 8.45169 87.3784 8.88591 87.3154C9.30755 87.2525 9.6348 87.1267 9.86764 86.9316C10.0942 86.7365 10.2641 86.51 10.3711 86.2583C10.4781 86.0003 10.5284 85.7171 10.5284 85.4088C10.5284 85.1005 10.5095 84.7984 10.4655 84.5027C10.4277 84.2321 10.3837 84.0056 10.3396 83.8231C10.2956 83.6406 10.2515 83.477 10.2138 83.3323C9.71661 83.3889 9.21945 83.4392 8.72858 83.4896C8.23772 83.5399 7.74685 83.6028 7.2497 83.6783L6.08547 83.8545L6.21133 84.6914L6.21762 84.6852Z" fill="white"/>
<path d="M5.00305 91.8401C6.22392 91.4311 7.27487 91.3997 8.1622 91.7458C9.04954 92.0918 9.67885 92.8155 10.0564 93.9293C10.2326 94.4516 10.3019 94.9361 10.2704 95.3703C10.2389 95.8044 10.1257 96.2009 9.93687 96.547C9.75437 96.8931 9.49635 97.1951 9.16911 97.4405C8.84186 97.6859 8.47686 97.881 8.06151 98.0194C7.96082 98.0509 7.86643 98.0824 7.77203 98.1075C7.67763 98.1327 7.57694 98.1579 7.47625 98.183C7.30634 97.6482 7.13642 97.1133 6.9728 96.5847C6.80918 96.0562 6.63297 95.5276 6.45047 94.9927C6.33719 94.6655 6.22392 94.3446 6.11064 94.0237C5.99107 93.7027 5.8715 93.3818 5.75193 93.0609C5.70159 93.0672 5.62607 93.0861 5.52538 93.1238L5.33029 93.1867C4.94641 93.3189 4.60029 93.4951 4.30451 93.7216C4.00873 93.9481 3.76959 94.2124 3.60597 94.5145C3.43606 94.8165 3.33537 95.1437 3.29761 95.5087C3.25985 95.8737 3.31019 96.2638 3.45494 96.6791C3.52416 96.8742 3.61856 97.0693 3.74442 97.258C3.87028 97.4468 4.00873 97.623 4.17235 97.7929C4.33598 97.9628 4.50589 98.1075 4.69468 98.2397C4.88348 98.3718 5.07227 98.4725 5.26107 98.5543L5.24219 98.6424L4.48701 98.7997C4.14718 98.5858 3.81994 98.2837 3.50528 97.8999C3.19062 97.516 2.95149 97.0881 2.78786 96.6099C2.60536 96.075 2.52355 95.559 2.53614 95.0619C2.54872 94.5648 2.662 94.1055 2.86338 93.6776C3.06476 93.2497 3.35425 92.8784 3.71925 92.5638C4.08425 92.2492 4.51848 92.0037 5.00934 91.8401H5.00305ZM9.59075 94.1117C9.46488 93.7468 9.27609 93.4636 9.02436 93.2685C8.77264 93.0735 8.48945 92.935 8.18108 92.8595C7.87272 92.784 7.55177 92.7526 7.22453 92.7714C6.89099 92.7903 6.58892 92.8344 6.31831 92.9036C6.41271 93.2119 6.50711 93.5391 6.61409 93.8726C6.71478 94.2061 6.82177 94.5333 6.92875 94.848C7.04203 95.1752 7.1553 95.5024 7.28116 95.8359C7.40703 96.1694 7.5266 96.4903 7.63987 96.805C7.90419 96.7169 8.18108 96.5973 8.46427 96.4526C8.74747 96.3079 8.9929 96.1254 9.20687 95.9051C9.42083 95.6849 9.57187 95.4269 9.65368 95.1311C9.74178 94.8354 9.7229 94.4956 9.59075 94.1117Z" fill="white"/>
<path d="M10.9501 98.793C11.485 99.0447 11.9003 99.3153 12.1898 99.611C12.4856 99.9068 12.731 100.234 12.9261 100.605C13.1023 100.939 13.2093 101.266 13.2596 101.599C13.31 101.927 13.2911 102.235 13.2156 102.524C13.1338 102.814 13.0016 103.078 12.8065 103.324C12.6115 103.569 12.3597 103.77 12.0514 103.934C11.5227 104.211 10.9941 104.475 10.4592 104.733C9.92428 104.991 9.37049 105.268 8.78522 105.576C8.67195 105.633 8.55867 105.696 8.43281 105.771C8.31324 105.841 8.21255 105.922 8.13074 106.011C8.04893 106.099 7.99858 106.193 7.97341 106.3C7.94824 106.401 7.97341 106.527 8.04263 106.665C8.06781 106.709 8.09298 106.759 8.12444 106.803C8.15591 106.854 8.19996 106.891 8.25031 106.923L7.94824 107.087C7.84755 107.011 7.74686 106.904 7.63358 106.766C7.5266 106.627 7.42591 106.464 7.32522 106.281C7.16789 105.985 7.13013 105.721 7.19935 105.482C7.26858 105.243 7.41961 105.048 7.64617 104.897C7.13642 104.739 6.72107 104.538 6.39383 104.299C6.06659 104.06 5.7771 103.701 5.53167 103.229C5.4121 102.996 5.324 102.757 5.27365 102.499C5.22331 102.241 5.22331 101.99 5.28624 101.744C5.34288 101.492 5.44986 101.266 5.6009 101.046C5.75193 100.825 5.9659 100.649 6.23021 100.511C6.78401 100.221 7.30634 100.165 7.7972 100.354C8.28177 100.542 8.74117 100.914 9.16281 101.467C9.50894 101.92 9.78583 102.279 9.99351 102.524C10.2012 102.776 10.3711 102.952 10.5095 103.053C10.6417 103.154 10.7613 103.191 10.8683 103.173C10.9752 103.154 11.0885 103.11 11.227 103.034C11.4598 102.915 11.6675 102.77 11.85 102.6C12.0325 102.43 12.1709 102.248 12.2653 102.046C12.3597 101.845 12.4038 101.618 12.3975 101.373C12.3975 101.128 12.3157 100.863 12.1709 100.586C11.9758 100.215 11.7115 99.913 11.378 99.6865C11.0445 99.4537 10.6858 99.3404 10.3082 99.3341L10.2264 99.1831L10.9501 98.8056V98.793ZM10.283 103.519C10.1445 103.393 9.9998 103.229 9.85506 103.04C9.71032 102.852 9.55928 102.663 9.40824 102.474C9.25721 102.285 9.09359 102.103 8.91738 101.927C8.74117 101.75 8.55867 101.612 8.36358 101.511C8.1685 101.404 7.96082 101.354 7.74056 101.341C7.5203 101.329 7.28746 101.398 7.02314 101.53C6.58892 101.757 6.32461 102.053 6.2365 102.424C6.1484 102.789 6.17986 103.129 6.34349 103.431C6.52599 103.783 6.79659 104.054 7.14271 104.242C7.48884 104.431 7.83496 104.538 8.17479 104.557L10.283 103.519Z" fill="white"/>
<path d="M11.164 108.037C11.6045 107.703 11.9884 107.42 12.3094 107.2C12.6303 106.973 12.945 106.747 13.2534 106.514C13.5428 106.294 13.8575 106.048 14.1973 105.784C14.5372 105.52 14.877 105.249 15.2168 104.979C15.3301 105.218 15.4434 105.406 15.5503 105.551C15.651 105.683 15.8021 105.841 16.0035 106.017C15.4748 106.357 14.9022 106.74 14.2917 107.168C13.6813 107.603 13.0646 108.056 12.4415 108.528C12.0073 108.855 11.7052 109.144 11.5353 109.396C11.3654 109.648 11.2584 109.868 11.227 110.063C11.1829 110.283 11.1829 110.51 11.2333 110.755C11.2836 111 11.3969 111.246 11.5794 111.485C11.8437 111.837 12.1395 112.064 12.473 112.183C12.8065 112.297 13.1212 112.328 13.4296 112.265C13.6121 112.215 13.7694 112.171 13.8953 112.127C14.0211 112.083 14.1721 112.007 14.3547 111.907C14.5372 111.8 14.77 111.642 15.0595 111.428C15.3427 111.214 15.7328 110.925 16.2237 110.554L17.2747 109.755C17.4572 109.616 17.6271 109.478 17.7907 109.352C17.9543 109.22 18.1054 109.094 18.2501 108.974C18.3067 109.081 18.3571 109.176 18.4074 109.27C18.4578 109.364 18.5207 109.453 18.5899 109.547C18.6592 109.641 18.7347 109.723 18.8102 109.792C18.8857 109.868 18.9612 109.937 19.043 110.006C18.3634 110.459 17.7152 110.906 17.111 111.359C16.5006 111.806 15.8587 112.29 15.1853 112.8C14.814 113.083 14.449 113.366 14.0966 113.65C13.7442 113.927 13.4107 114.203 13.0897 114.474C12.9765 114.291 12.8632 114.128 12.7436 113.971C12.624 113.813 12.4919 113.656 12.3471 113.505C12.429 113.455 12.5108 113.404 12.5989 113.341C12.687 113.285 12.7751 113.215 12.8632 113.146L13.3981 112.737L13.3792 112.712C12.8128 112.8 12.3094 112.744 11.8626 112.542C11.4158 112.347 11.0382 112.045 10.7361 111.649C10.2452 111 10.025 110.359 10.0942 109.729C10.1571 109.1 10.5158 108.534 11.164 108.043V108.037Z" fill="white"/>
<path d="M23.0455 111.057C22.7434 111.315 22.4476 111.573 22.1644 111.825C21.8812 112.083 21.5981 112.341 21.3086 112.599C21.3904 112.681 21.5414 112.832 21.768 113.052C21.9945 113.272 22.24 113.505 22.5106 113.751C22.4791 113.763 22.435 113.801 22.3784 113.864L22.2651 113.977L22.1456 114.097C22.0952 114.147 22.0637 114.191 22.0449 114.216C21.9568 114.109 21.8624 114.009 21.7617 113.902C21.661 113.795 21.554 113.681 21.4344 113.562L20.8932 113.014C20.8555 113.04 20.7296 113.147 20.5093 113.342C20.2891 113.537 20.0311 113.77 19.7416 114.046C19.4458 114.323 19.1437 114.613 18.8291 114.915C18.5144 115.223 18.2312 115.494 17.9921 115.733C17.7844 115.94 17.583 116.148 17.3942 116.356C17.2054 116.563 17.0607 116.777 16.96 116.998C16.8593 117.218 16.8216 117.432 16.8404 117.646C16.8593 117.86 16.9789 118.08 17.2054 118.3C17.2621 118.357 17.3502 118.432 17.4635 118.52C17.5767 118.608 17.6837 118.678 17.7781 118.728L17.5138 118.992C17.3691 118.885 17.1991 118.778 17.0166 118.659C16.8341 118.539 16.6705 118.407 16.5321 118.269C16.0664 117.803 15.8398 117.344 15.8524 116.891C15.865 116.444 16.0916 115.997 16.5384 115.557C16.7398 115.355 16.96 115.148 17.1991 114.921C17.4383 114.695 17.7026 114.455 17.9921 114.191C18.2816 113.927 18.5962 113.631 18.9423 113.304C19.2885 112.977 19.6661 112.605 20.0814 112.196L19.729 111.838C19.6724 111.781 19.6031 111.718 19.5339 111.655C19.4647 111.592 19.3892 111.529 19.3074 111.46C19.3577 111.422 19.408 111.385 19.4521 111.347C19.4961 111.309 19.5402 111.271 19.5842 111.227C19.622 111.19 19.6598 111.152 19.6912 111.114C19.7227 111.076 19.7542 111.032 19.7856 110.988C20.094 111.347 20.3268 111.599 20.4779 111.756C20.6163 111.599 20.7988 111.41 21.0191 111.19C21.2393 110.963 21.4596 110.73 21.6799 110.479L22.9825 111.02L23.0392 111.076L23.0455 111.057Z" fill="white"/>
<path d="M20.6415 121.711C20.7233 121.422 20.8366 121.038 20.975 120.572C21.1072 120.106 21.2519 119.616 21.3967 119.093C21.5414 118.577 21.6862 118.042 21.8372 117.501C21.9882 116.96 22.1267 116.45 22.2588 115.972C22.391 115.494 22.5043 115.079 22.605 114.714C22.7056 114.355 22.7749 114.084 22.8252 113.908C22.9196 114.009 23.0077 114.103 23.0832 114.185C23.165 114.267 23.2469 114.349 23.3413 114.418C23.4356 114.487 23.5238 114.556 23.6244 114.613C23.7251 114.67 23.8321 114.733 23.9517 114.802C23.5867 115.79 23.2531 116.79 22.9511 117.81C22.6553 118.823 22.3532 119.88 22.0512 120.968C22.9637 120.522 23.9013 120.012 24.8705 119.439C25.8333 118.867 26.7521 118.288 27.6143 117.696C27.7465 117.866 27.866 117.992 27.973 118.08C28.08 118.162 28.231 118.25 28.4261 118.338C28.2751 118.407 28.0296 118.527 27.6898 118.703C27.3437 118.879 26.9346 119.087 26.4564 119.326C25.9781 119.565 25.4495 119.836 24.8768 120.138C24.3041 120.434 23.7125 120.742 23.1084 121.057C22.5043 121.371 21.9064 121.686 21.3149 121.994C20.7233 122.302 20.1695 122.605 19.6472 122.888C19.1248 123.177 18.6592 123.441 18.2501 123.681C17.841 123.92 17.5201 124.121 17.2935 124.272C17.1614 124.102 17.0418 123.97 16.9223 123.882C16.8027 123.794 16.6516 123.699 16.4566 123.611C17.9543 123.051 19.3514 122.409 20.6541 121.692L20.6415 121.711Z" fill="white"/>
<path d="M30.786 124.126C31.0692 123.509 31.4216 123.025 31.837 122.679C32.2523 122.333 32.6929 122.087 33.1648 121.955C33.6368 121.823 34.1214 121.785 34.6186 121.848C35.1157 121.911 35.594 122.049 36.0534 122.257C36.5757 122.496 37.01 122.779 37.3687 123.094C37.7211 123.415 37.9539 123.692 38.0609 123.937C37.9288 124.05 37.8029 124.17 37.677 124.302C37.5512 124.434 37.4316 124.579 37.3183 124.73L37.205 124.68C37.1925 124.529 37.161 124.359 37.1106 124.176C37.0603 123.994 36.9722 123.818 36.8715 123.635C36.7645 123.453 36.6324 123.283 36.475 123.125C36.3177 122.968 36.1289 122.836 35.8961 122.729C35.4681 122.534 35.0654 122.44 34.6878 122.452C34.3102 122.465 33.9578 122.565 33.6368 122.754C33.3159 122.943 33.0201 123.201 32.7621 123.534C32.4978 123.868 32.2649 124.252 32.0635 124.686C31.6104 125.661 31.4783 126.498 31.6671 127.184C31.8559 127.876 32.353 128.405 33.1586 128.776C33.3473 128.864 33.555 128.927 33.7753 128.965C33.9955 129.003 34.2221 129.022 34.4549 129.022C34.6878 129.022 34.9143 128.996 35.1346 128.946C35.3549 128.896 35.5625 128.833 35.7513 128.751L35.8017 128.826C35.6506 129.034 35.5122 129.254 35.3926 129.487C35.0024 129.582 34.5619 129.613 34.0648 129.582C33.5676 129.55 33.0956 129.424 32.6362 129.217C32.2272 129.028 31.8433 128.782 31.4909 128.474C31.1322 128.166 30.849 127.795 30.6476 127.36C30.4462 126.926 30.3455 126.442 30.3455 125.9C30.3455 125.359 30.4966 124.768 30.7923 124.126H30.786Z" fill="white"/>
<path d="M37.7274 127.285C37.9225 126.599 38.1931 126.052 38.5392 125.63C38.8853 125.208 39.2818 124.906 39.716 124.705C40.1502 124.51 40.6096 124.403 41.0816 124.39C41.5536 124.378 42.013 124.434 42.4409 124.554C42.8815 124.68 43.3031 124.869 43.6996 125.127C44.0897 125.385 44.4233 125.712 44.6939 126.108C44.9645 126.505 45.1407 126.97 45.2225 127.512C45.3043 128.053 45.2477 128.663 45.0589 129.343C44.8638 130.029 44.5932 130.576 44.2471 130.998C43.8946 131.413 43.5045 131.721 43.0702 131.923C42.636 132.118 42.1829 132.218 41.7172 132.218C41.2515 132.218 40.7984 132.155 40.3516 132.03C39.9174 131.91 39.502 131.728 39.0993 131.482C38.6965 131.237 38.3567 130.922 38.0924 130.526C37.8218 130.129 37.6456 129.664 37.5637 129.122C37.4819 128.588 37.5386 127.971 37.7274 127.291V127.285ZM39.0552 127.656C38.9357 128.078 38.8601 128.493 38.8287 128.908C38.7909 129.324 38.8287 129.708 38.9168 130.066C39.0049 130.425 39.1874 130.733 39.4328 131.004C39.6782 131.274 40.0307 131.463 40.4712 131.589C40.9117 131.715 41.3082 131.728 41.6606 131.633C42.013 131.539 42.3214 131.363 42.592 131.105C42.8563 130.847 43.0828 130.538 43.2716 130.167C43.4604 129.796 43.6115 129.399 43.7247 128.978C43.838 128.556 43.9198 128.141 43.9576 127.725C43.989 127.31 43.9576 126.926 43.8695 126.568C43.7751 126.209 43.5989 125.901 43.3534 125.63C43.108 125.359 42.7556 125.171 42.3151 125.045C41.8745 124.919 41.4781 124.906 41.1194 125.001C40.7607 125.095 40.4586 125.271 40.188 125.529C39.9237 125.787 39.6971 126.096 39.5083 126.467C39.3258 126.838 39.1748 127.235 39.0552 127.656Z" fill="white"/>
<path d="M46.0406 129.532C46.1161 128.827 46.2923 128.236 46.5692 127.77C46.8461 127.298 47.1797 126.933 47.5761 126.662C47.9726 126.392 48.4068 126.216 48.8725 126.121C49.3382 126.027 49.7976 126.008 50.2444 126.058C50.7038 126.109 51.1443 126.228 51.5786 126.417C52.0128 126.606 52.3904 126.87 52.7239 127.216C53.0575 127.562 53.3029 127.99 53.4728 128.513C53.6427 129.028 53.6931 129.639 53.6112 130.35C53.5357 131.055 53.3595 131.646 53.0826 132.112C52.8057 132.584 52.4659 132.949 52.0757 133.219C51.6793 133.49 51.2513 133.66 50.7919 133.735C50.3325 133.811 49.8731 133.823 49.4137 133.779C48.9669 133.729 48.5264 133.622 48.0859 133.446C47.6454 133.276 47.2615 133.012 46.9342 132.666C46.6007 132.32 46.3553 131.892 46.1853 131.369C46.0154 130.847 45.9651 130.243 46.0469 129.532H46.0406ZM47.4125 129.677C47.3685 130.111 47.3559 130.539 47.3936 130.948C47.4251 131.363 47.5195 131.734 47.6705 132.074C47.8216 132.414 48.0481 132.691 48.3376 132.911C48.6271 133.131 49.0047 133.263 49.4578 133.314C49.9172 133.364 50.3074 133.314 50.6409 133.156C50.9744 133.005 51.2513 132.779 51.4716 132.483C51.6918 132.187 51.8618 131.841 51.9876 131.445C52.1072 131.048 52.1953 130.633 52.2393 130.199C52.2897 129.765 52.296 129.337 52.2582 128.922C52.2268 128.506 52.1324 128.135 51.975 127.795C51.824 127.455 51.5974 127.178 51.308 126.958C51.0185 126.738 50.6409 126.606 50.1878 126.556C49.7284 126.505 49.3382 126.556 49.0047 126.713C48.6711 126.864 48.3942 127.09 48.174 127.386C47.9537 127.682 47.7838 128.028 47.6579 128.424C47.5384 128.821 47.4503 129.236 47.4062 129.677H47.4125Z" fill="white"/>
<path d="M55.1153 125.543C55.0901 125.128 55.065 124.713 55.0335 124.31C55.002 123.901 54.9706 123.517 54.9391 123.146C54.9076 122.775 54.8699 122.46 54.8384 122.202C55.1342 122.24 55.367 122.252 55.5432 122.246C55.7195 122.24 55.9523 122.202 56.2418 122.133C56.2355 122.397 56.2292 122.712 56.2355 123.083C56.2355 123.454 56.2418 123.844 56.2544 124.253C56.2607 124.662 56.2732 125.071 56.2921 125.493C56.3047 125.908 56.3236 126.298 56.3362 126.651L56.4746 129.501C56.4809 129.696 56.5501 129.797 56.676 129.791C56.7578 129.791 56.8459 129.747 56.9466 129.665C57.041 129.589 57.148 129.501 57.2739 129.401C57.362 129.325 57.5193 129.174 57.7333 128.954C57.9472 128.734 58.1864 128.482 58.4507 128.193C58.715 127.903 58.9856 127.595 59.2625 127.268C59.5394 126.94 59.7911 126.632 60.0177 126.336C60.2316 126.38 60.4267 126.393 60.6155 126.387C60.7288 126.387 60.8421 126.368 60.9553 126.349C61.0686 126.33 61.2134 126.305 61.3896 126.273C60.7603 126.84 60.1561 127.393 59.5771 127.935C59.0045 128.482 58.457 129.029 57.9409 129.589C58.5702 130.282 59.2184 130.974 59.8855 131.66C60.5526 132.352 61.2322 133.032 61.9182 133.699C61.742 133.686 61.5784 133.686 61.4399 133.692C61.3015 133.699 61.163 133.705 61.0246 133.711C60.9113 133.711 60.7854 133.724 60.647 133.73C60.5085 133.73 60.3701 133.755 60.2253 133.78C59.9799 133.529 59.7093 133.239 59.4009 132.899C59.0926 132.566 58.7842 132.232 58.4821 131.899C58.1801 131.565 57.8906 131.257 57.6137 130.968C57.3368 130.678 57.1039 130.439 56.9026 130.25C56.8711 130.212 56.8333 130.175 56.7893 130.143C56.7452 130.112 56.7012 130.099 56.6634 130.105C56.5564 130.105 56.5124 130.175 56.5187 130.301L56.5627 131.238C56.5816 131.71 56.6131 132.163 56.6508 132.61C56.6886 133.057 56.7452 133.497 56.8145 133.944C56.5753 133.931 56.3362 133.938 56.1096 133.944C55.8768 133.957 55.6439 133.975 55.4048 134.007C55.4111 133.768 55.4174 133.466 55.4174 133.094C55.4174 132.729 55.4111 132.339 55.3985 131.937C55.3922 131.528 55.3796 131.119 55.3607 130.697C55.3482 130.282 55.3293 129.892 55.3167 129.539L55.1845 126.708C55.1657 126.355 55.1468 125.965 55.1216 125.55L55.1153 125.543Z" fill="white"/>
<path d="M61.9308 123.315C61.8993 123.101 61.9434 122.899 62.0755 122.723C62.2077 122.541 62.3776 122.434 62.5978 122.402C62.8118 122.371 63.0132 122.415 63.1894 122.547C63.3719 122.679 63.4789 122.849 63.5103 123.069C63.5418 123.283 63.4978 123.485 63.3656 123.661C63.2335 123.843 63.0635 123.95 62.8496 123.982C62.6293 124.013 62.4342 123.969 62.2517 123.837C62.0755 123.705 61.9685 123.535 61.9308 123.315ZM63.0447 128.865C62.9691 128.399 62.881 127.915 62.7866 127.405C62.6922 126.895 62.579 126.423 62.4531 125.989C62.7489 125.989 62.988 125.989 63.1642 125.958C63.3404 125.932 63.567 125.869 63.8502 125.769C63.8691 126.222 63.9131 126.7 63.976 127.216C64.0453 127.732 64.1145 128.217 64.19 128.682L64.448 130.293C64.5235 130.759 64.6116 131.243 64.706 131.753C64.8004 132.263 64.9137 132.716 65.027 133.119C64.7879 133.137 64.555 133.163 64.3285 133.2C64.1019 133.238 63.8691 133.282 63.6362 133.345C63.6236 132.923 63.5796 132.458 63.5166 131.942C63.4537 131.426 63.3782 130.941 63.3027 130.476L63.0447 128.865Z" fill="white"/>
<path d="M70.609 125.404C70.2063 125.102 69.7469 125.027 69.2371 125.171C68.5323 125.373 68.0855 125.738 67.8778 126.266C67.6764 126.795 67.689 127.443 67.9156 128.23L68.2869 129.507C68.419 129.96 68.5637 130.432 68.7211 130.923C68.8784 131.414 69.042 131.854 69.2056 132.244C68.9665 132.288 68.74 132.345 68.5197 132.408C68.2994 132.471 68.0729 132.546 67.8526 132.634C67.7897 132.219 67.689 131.76 67.5631 131.256C67.4373 130.753 67.3051 130.281 67.173 129.828L66.7199 128.261C66.5877 127.808 66.443 127.336 66.2856 126.845C66.1283 126.354 65.9584 125.895 65.7822 125.48C66.078 125.448 66.3108 125.411 66.4807 125.36C66.5625 125.335 66.6443 125.304 66.7387 125.26C66.8331 125.216 66.9401 125.165 67.0597 125.109C67.1478 125.518 67.2485 125.927 67.3618 126.323H67.3932C67.5506 125.801 67.7897 125.373 68.1106 125.02C68.4316 124.668 68.8658 124.416 69.407 124.259C69.6902 124.177 69.986 124.139 70.2944 124.133C70.6027 124.127 70.8985 124.196 71.188 124.322C71.4775 124.448 71.7418 124.662 71.9809 124.958C72.2264 125.253 72.4214 125.662 72.5725 126.185C72.6983 126.619 72.8179 127.066 72.9249 127.525C73.0382 127.984 73.164 128.475 73.3151 128.985L73.5983 129.96C73.6486 130.124 73.6927 130.281 73.743 130.432C73.7933 130.589 73.8437 130.734 73.894 130.873C73.6864 130.91 73.4724 130.961 73.2521 131.024C73.0445 131.086 72.8368 131.156 72.6417 131.231C72.5095 130.703 72.3774 130.161 72.2452 129.601C72.1131 129.041 71.962 128.475 71.7921 127.89L71.5278 126.971C71.3076 126.216 70.9992 125.694 70.5964 125.392L70.609 125.404Z" fill="white"/>
<path d="M74.0702 125.449C73.8814 125.053 73.7933 124.675 73.7996 124.323C73.8059 123.97 73.8877 123.637 74.0514 123.329C74.215 123.02 74.4352 122.743 74.7184 122.498C75.0016 122.253 75.3226 122.039 75.6939 121.869C75.8701 121.787 76.0463 121.705 76.2162 121.642C76.3861 121.579 76.6064 121.491 76.8644 121.39C77.0909 121.309 77.2923 121.233 77.4685 121.158C77.6447 121.082 77.7832 121.026 77.8839 120.981C78.4125 120.73 78.7838 120.528 78.9978 120.371C79.0104 120.421 79.0292 120.478 79.0481 120.528C79.067 120.585 79.0859 120.635 79.111 120.679C79.1362 120.723 79.1614 120.774 79.1866 120.824C79.2117 120.874 79.2432 120.919 79.281 120.963C78.9978 121.076 78.7209 121.177 78.4503 121.277C78.1797 121.378 77.9153 121.479 77.651 121.592L77.6384 121.636C78.0035 121.661 78.3622 121.793 78.6957 122.045C79.0292 122.297 79.2873 122.605 79.4572 122.964C79.7907 123.675 79.8159 124.342 79.5264 124.965C79.2369 125.594 78.6894 126.091 77.8902 126.469C77.758 126.532 77.6259 126.588 77.4937 126.638C77.3615 126.689 77.2294 126.745 77.0972 126.808C76.9273 126.89 76.7952 127.022 76.7071 127.217C76.619 127.412 76.619 127.601 76.7071 127.79C76.8203 128.035 76.9651 128.186 77.135 128.243C77.3049 128.3 77.5566 128.262 77.8776 128.117C78.1482 128.004 78.4125 127.884 78.6705 127.771C78.9285 127.658 79.1929 127.538 79.4635 127.425C79.904 127.23 80.3004 127.11 80.6466 127.06C80.9927 127.01 81.3074 127.022 81.578 127.092C81.8486 127.161 82.0751 127.28 82.2639 127.444C82.4527 127.608 82.6037 127.815 82.717 128.061C82.8743 128.394 82.9687 128.759 83.0002 129.156C83.0317 129.558 82.9813 129.955 82.8366 130.357C82.6981 130.76 82.4527 131.15 82.1129 131.528C81.773 131.905 81.3011 132.239 80.7095 132.516C79.7907 132.95 78.9852 133.107 78.2866 132.988C77.5881 132.874 77.0846 132.497 76.7889 131.868C76.6756 131.622 76.6127 131.37 76.6064 131.125C76.6001 130.88 76.6253 130.634 76.6945 130.408C76.7637 130.181 76.8644 129.98 76.9965 129.797C77.1287 129.615 77.2797 129.464 77.4497 129.325L77.4371 129.3C77.1035 129.351 76.814 129.313 76.5686 129.187C76.3232 129.061 76.1407 128.86 76.0085 128.583C75.933 128.419 75.8952 128.262 75.8952 128.098C75.8952 127.935 75.9141 127.784 75.9645 127.633C76.0085 127.482 76.0777 127.35 76.1721 127.224C76.2665 127.098 76.3609 127.003 76.4679 126.928L76.4553 126.903C75.933 126.915 75.4673 126.808 75.0583 126.582C74.6492 126.355 74.322 125.978 74.0765 125.455L74.0702 125.449ZM78.3055 123.373C78.0286 122.775 77.6699 122.391 77.242 122.209C76.814 122.032 76.3672 122.051 75.9015 122.265C75.3918 122.504 75.0771 122.863 74.9513 123.341C74.8317 123.819 74.9072 124.348 75.1778 124.927C75.4547 125.525 75.8071 125.934 76.2288 126.154C76.6504 126.38 77.135 126.362 77.6825 126.104C77.9594 125.971 78.1671 125.808 78.3055 125.613C78.4503 125.411 78.5384 125.191 78.5824 124.946C78.6265 124.7 78.6202 124.442 78.5635 124.172C78.5132 123.901 78.4251 123.637 78.2992 123.373H78.3055ZM81.9555 129.156C81.6849 128.589 81.3388 128.268 80.8983 128.199C80.4578 128.13 79.8599 128.275 79.0922 128.633C78.381 128.967 77.8902 129.338 77.607 129.753C77.3301 130.169 77.3301 130.678 77.6133 131.282C77.7643 131.603 77.9468 131.855 78.1608 132.031C78.3747 132.207 78.6076 132.321 78.8593 132.377C79.111 132.434 79.3754 132.434 79.6648 132.377C79.948 132.321 80.2438 132.226 80.5333 132.088C80.8165 131.956 81.0745 131.786 81.3136 131.584C81.5528 131.383 81.7416 131.15 81.8863 130.899C82.0248 130.647 82.1129 130.376 82.1317 130.081C82.1569 129.785 82.0877 129.476 81.943 129.156H81.9555Z" fill="white"/>
<path d="M86.9964 122.786C87.16 122.818 87.3362 122.837 87.525 122.83C87.7138 122.83 87.9026 122.793 88.1039 122.736C88.3053 122.679 88.4878 122.579 88.664 122.447C88.8214 122.327 88.9535 122.189 89.0605 122.025C89.1675 121.861 89.243 121.698 89.2871 121.522C89.3311 121.345 89.3311 121.163 89.2871 120.968C89.243 120.773 89.1549 120.59 89.0164 120.408C88.8214 120.15 88.5948 120.005 88.3494 119.98C88.0977 119.955 87.8333 119.98 87.5501 120.055C87.267 120.131 86.9712 120.238 86.6628 120.364C86.3545 120.49 86.0461 120.578 85.7377 120.622C85.4294 120.666 85.1273 120.641 84.8315 120.553C84.5357 120.464 84.2525 120.244 83.9882 119.892C83.7806 119.615 83.6358 119.332 83.554 119.03C83.4722 118.728 83.4533 118.432 83.5037 118.136C83.554 117.834 83.6673 117.545 83.8561 117.249C84.0449 116.953 84.3029 116.683 84.6301 116.431C84.9385 116.198 85.228 116.041 85.5049 115.965C85.7818 115.89 86.0398 115.808 86.2789 115.732C86.3041 115.909 86.3607 116.11 86.4426 116.337C86.5244 116.563 86.5936 116.733 86.6502 116.846L86.4992 116.959C86.2789 116.808 86.0146 116.727 85.7063 116.714C85.3979 116.701 85.0958 116.802 84.8126 117.016C84.6868 117.11 84.5798 117.23 84.4854 117.362C84.391 117.501 84.3281 117.645 84.2903 117.803C84.2525 117.96 84.2525 118.136 84.2903 118.319C84.3218 118.501 84.4099 118.684 84.5483 118.866C84.7497 119.13 84.9825 119.281 85.2343 119.319C85.4923 119.357 85.7566 119.332 86.0398 119.25C86.3167 119.168 86.6125 119.061 86.9145 118.929C87.2229 118.797 87.525 118.703 87.827 118.652C88.1291 118.602 88.4312 118.621 88.727 118.709C89.0227 118.797 89.3059 119.017 89.5702 119.37C89.7527 119.609 89.8786 119.886 89.9541 120.2C90.0296 120.515 90.0359 120.836 89.9856 121.169C89.929 121.503 89.8094 121.83 89.6143 122.138C89.4192 122.453 89.1486 122.742 88.7962 123.007C88.4123 123.296 88.0662 123.504 87.7515 123.623C87.4369 123.743 87.1537 123.818 86.902 123.856C86.8705 123.711 86.8076 123.523 86.7195 123.296C86.6314 123.07 86.5432 122.893 86.4426 122.768L86.5936 122.654C86.7006 122.705 86.8327 122.749 86.9964 122.78V122.786Z" fill="white"/>
<path d="M88.0536 114.864C88.1354 114.278 88.2739 113.806 88.4689 113.435C88.664 113.064 88.9095 112.737 89.2052 112.441C89.4695 112.177 89.7527 111.969 90.0548 111.831C90.3569 111.686 90.6527 111.61 90.9547 111.604C91.2568 111.598 91.5463 111.648 91.8421 111.761C92.1315 111.875 92.4022 112.057 92.6413 112.303C93.0629 112.724 93.472 113.152 93.8747 113.586C94.2775 114.02 94.7054 114.467 95.1711 114.939C95.2592 115.027 95.3536 115.122 95.4606 115.216C95.5613 115.31 95.6683 115.386 95.7753 115.436C95.8823 115.487 95.9892 115.505 96.0962 115.505C96.2032 115.505 96.3102 115.442 96.4235 115.336C96.4612 115.298 96.499 115.26 96.5367 115.216C96.5745 115.172 96.5997 115.122 96.6123 115.059L96.8577 115.304C96.8136 115.424 96.7444 115.556 96.6374 115.694C96.5367 115.839 96.4109 115.984 96.2661 116.128C96.027 116.361 95.7879 116.481 95.5361 116.487C95.2907 116.487 95.0579 116.405 94.8439 116.235C94.8439 116.77 94.7747 117.223 94.6362 117.607C94.5041 117.991 94.246 118.369 93.8685 118.746C93.686 118.929 93.4783 119.086 93.2454 119.212C93.0189 119.338 92.7734 119.407 92.5154 119.426C92.2637 119.445 92.0057 119.413 91.754 119.331C91.5022 119.249 91.2694 119.098 91.0554 118.885C90.6149 118.438 90.4135 117.96 90.445 117.437C90.4827 116.915 90.703 116.374 91.1121 115.807C91.4456 115.342 91.7036 114.977 91.8798 114.7C92.056 114.429 92.1756 114.209 92.2322 114.052C92.2889 113.895 92.2952 113.769 92.2448 113.674C92.1945 113.58 92.119 113.479 92.0057 113.366C91.8232 113.183 91.6218 113.026 91.4078 112.9C91.1939 112.774 90.9799 112.699 90.7534 112.667C90.5331 112.636 90.3065 112.661 90.0737 112.737C89.8408 112.812 89.6143 112.963 89.394 113.183C89.0983 113.479 88.8906 113.819 88.7647 114.209C88.6389 114.599 88.6326 114.971 88.7458 115.336L88.6263 115.455L88.0536 114.876V114.864ZM92.7672 114.115C92.6853 114.285 92.5784 114.467 92.4399 114.662C92.3015 114.857 92.163 115.059 92.0309 115.26C91.8987 115.461 91.7665 115.675 91.6533 115.889C91.54 116.11 91.4582 116.323 91.4204 116.544C91.3764 116.764 91.3827 116.978 91.4393 117.186C91.4959 117.393 91.6218 117.607 91.8295 117.815C92.1756 118.161 92.5343 118.324 92.9119 118.306C93.2895 118.287 93.5978 118.155 93.8433 117.909C94.1265 117.632 94.3027 117.299 94.3845 116.909C94.46 116.519 94.46 116.16 94.3845 115.826L92.7734 114.115H92.7672Z" fill="white"/>
<path d="M91.8987 108.2C91.5715 107.942 91.2442 107.69 90.917 107.445C90.5897 107.199 90.2814 106.967 89.9793 106.746C89.6772 106.526 89.4192 106.344 89.2052 106.199C89.4318 106.004 89.5954 105.834 89.7087 105.695C89.822 105.557 89.9478 105.356 90.0863 105.098C90.2751 105.274 90.5142 105.488 90.7911 105.733C91.068 105.979 91.3701 106.23 91.6784 106.495C91.9931 106.759 92.3077 107.023 92.6287 107.287C92.9496 107.552 93.2517 107.797 93.5286 108.017L95.7438 109.786C96.0207 110.006 96.3228 110.245 96.6563 110.503C96.9898 110.761 97.3171 111.013 97.638 111.258C97.9653 111.503 98.2736 111.736 98.5694 111.95C98.8652 112.164 99.1106 112.34 99.312 112.473C99.1484 112.649 98.9911 112.825 98.8463 113.007C98.7016 113.184 98.5631 113.379 98.431 113.58C98.2548 113.416 98.0282 113.209 97.7576 112.97C97.4807 112.731 97.1849 112.479 96.8766 112.215C96.5682 111.95 96.2472 111.686 95.9263 111.422C95.6053 111.157 95.3033 110.912 95.0264 110.692L92.8112 108.924C92.5343 108.703 92.2322 108.464 91.8987 108.206V108.2Z" fill="white"/>
<path d="M97.6884 108.697C97.0842 108.326 96.6248 107.917 96.3228 107.464C96.0144 107.011 95.8256 106.552 95.7564 106.08C95.6872 105.608 95.7061 105.142 95.8256 104.676C95.9452 104.217 96.1214 103.796 96.3542 103.412C96.5934 103.022 96.8892 102.669 97.2479 102.361C97.6066 102.052 98.0093 101.82 98.4625 101.669C98.9156 101.518 99.4127 101.48 99.9539 101.543C100.495 101.612 101.068 101.832 101.672 102.204C102.276 102.575 102.735 102.984 103.038 103.437C103.34 103.89 103.535 104.349 103.604 104.821C103.673 105.293 103.648 105.753 103.522 106.206C103.396 106.652 103.207 107.074 102.968 107.464C102.735 107.848 102.446 108.2 102.1 108.521C101.754 108.842 101.357 109.081 100.904 109.232C100.451 109.383 99.9539 109.427 99.4127 109.358C98.8715 109.289 98.2988 109.069 97.6947 108.697H97.6884ZM98.4121 107.521C98.7834 107.747 99.1673 107.936 99.5575 108.087C99.9476 108.232 100.325 108.307 100.697 108.314C101.068 108.32 101.414 108.238 101.735 108.068C102.056 107.898 102.339 107.621 102.584 107.225C102.824 106.835 102.949 106.457 102.949 106.086C102.949 105.721 102.868 105.375 102.691 105.048C102.522 104.721 102.276 104.418 101.974 104.135C101.666 103.858 101.326 103.6 100.955 103.374C100.583 103.147 100.199 102.959 99.8092 102.814C99.419 102.669 99.0414 102.594 98.6701 102.587C98.2988 102.581 97.9527 102.663 97.6318 102.833C97.3108 103.003 97.0276 103.28 96.7822 103.676C96.5367 104.072 96.4172 104.444 96.4172 104.809C96.4172 105.174 96.499 105.52 96.6689 105.847C96.8451 106.174 97.0842 106.476 97.3863 106.759C97.6947 107.036 98.0345 107.294 98.4058 107.521H98.4121Z" fill="white"/>
<path d="M101.861 95.313C101.376 95.4451 101.036 95.7598 100.835 96.2506C100.564 96.9302 100.571 97.5091 100.866 97.9936C101.156 98.4781 101.678 98.8683 102.44 99.1703L103.679 99.6674C104.114 99.8436 104.579 100.02 105.064 100.196C105.549 100.372 105.995 100.517 106.404 100.624C106.297 100.838 106.197 101.052 106.115 101.266C106.027 101.48 105.951 101.7 105.882 101.933C105.511 101.731 105.089 101.524 104.617 101.316C104.145 101.108 103.686 100.92 103.252 100.743L101.741 100.139C101.307 99.9632 100.841 99.787 100.357 99.6108C99.8721 99.4346 99.4064 99.2836 98.9722 99.1703C99.1295 98.9186 99.2428 98.711 99.3057 98.5474C99.3372 98.4719 99.3624 98.3838 99.3875 98.2831C99.4127 98.1824 99.4379 98.0691 99.4694 97.937C99.8469 98.1195 100.231 98.2894 100.615 98.4467L100.627 98.4152C100.319 97.9747 100.124 97.5217 100.048 97.056C99.9728 96.5841 100.036 96.087 100.243 95.5647C100.35 95.2941 100.501 95.0361 100.69 94.7907C100.879 94.5453 101.112 94.3502 101.389 94.1992C101.666 94.0545 101.999 93.9727 102.377 93.9601C102.754 93.9475 103.201 94.0419 103.705 94.2433C104.12 94.4132 104.548 94.5893 104.982 94.7844C105.416 94.9795 105.882 95.1746 106.373 95.3759L107.317 95.7535C107.474 95.8164 107.625 95.873 107.776 95.9297C107.927 95.9863 108.072 96.0366 108.217 96.0807C108.122 96.2695 108.028 96.4645 107.946 96.6785C107.864 96.8798 107.795 97.0875 107.739 97.2889C107.241 97.0686 106.732 96.8421 106.209 96.603C105.687 96.3638 105.139 96.1373 104.579 95.9108L103.692 95.5584C102.962 95.2689 102.358 95.1871 101.873 95.3193L101.861 95.313Z" fill="white"/>
<path d="M110.463 56.6133L112.062 56.8209C112.314 56.865 112.446 56.972 112.446 57.1356C112.446 57.1607 112.433 57.1922 112.408 57.2425C112.339 57.4313 112.213 57.5131 112.024 57.5005C111.842 57.4879 111.697 57.4817 111.609 57.4817C110.866 57.4817 110.218 57.7837 109.664 58.3815C109.11 58.9856 108.626 59.8539 108.204 60.9866C107.789 62.1193 107.002 64.5419 105.844 68.2419C104.686 71.9419 104.038 73.9807 103.9 74.352C105.102 74.05 105.907 73.8989 106.31 73.8989C106.713 73.8989 106.977 73.9367 107.09 74.0059C107.254 74.1443 107.285 74.2702 107.197 74.3898C107.103 74.503 107.015 74.5408 106.92 74.4967C106.826 74.4527 106.65 74.4275 106.386 74.4275C106.121 74.4275 105.593 74.5282 104.806 74.7233C104.019 74.9183 103.554 75.2015 103.415 75.5728C101.099 81.4248 98.2988 85.4961 95.0138 87.7866C93.5538 88.806 92.2385 89.3157 91.0554 89.3157C90.6149 89.3157 90.2121 89.2465 89.8408 89.108C88.7521 88.7179 88.2109 87.9188 88.2109 86.7106C88.2109 85.3199 88.9409 83.7971 90.3946 82.1296C93.2643 78.8449 97.1031 76.4285 101.917 74.8743C102.081 74.503 102.459 73.1942 103.063 70.954C103.667 68.7076 104.114 67.0904 104.416 66.0962C102.358 69.2173 100.218 71.835 97.9968 73.9367C95.7753 76.0384 93.7489 77.0956 91.9239 77.0956C90.2814 77.0956 89.457 76.0321 89.457 73.9052C89.457 71.9608 90.4198 69.0222 92.3392 65.0894C93.3776 62.9373 94.0006 61.6347 94.1957 61.188C94.3908 60.7349 94.3971 60.521 94.2146 60.5461C94.0321 60.5902 93.7615 60.7412 93.4154 60.9992C91.6092 62.5283 90.0359 63.3337 88.6955 63.4281C88.4627 63.4533 88.3494 63.3967 88.3494 63.2582C88.3934 63.0506 88.5445 62.9247 88.8025 62.8744C89.7024 62.78 91.0554 62.0123 92.849 60.565C94.6425 59.1177 95.7249 58.048 96.0962 57.3558C96.1906 57.0789 96.6311 56.9405 97.4178 56.9405C98.0219 56.9845 98.3114 57.123 98.2862 57.3558C94.309 64.0448 92.0497 68.8334 91.5211 71.7217C91.4078 72.3698 91.3449 72.9488 91.3449 73.4585C91.3449 75.0756 91.9239 75.8874 93.0818 75.8874C94.0321 75.8874 95.1145 75.3966 96.3417 74.4149C97.5688 73.4333 98.7834 72.1748 99.9854 70.652C102.83 66.952 105.026 63.2582 106.581 59.5834C106.996 58.6143 107.323 58.0354 107.55 57.8466C108.034 57.0349 109.01 56.6322 110.463 56.6322V56.6133ZM90.0926 86.2512C90.0926 86.5281 90.1303 86.7861 90.1996 87.0126C90.4324 87.9125 91.0114 88.3655 91.9365 88.3655C93.3021 88.3655 94.7243 87.4531 96.2032 85.622C98.4499 82.9162 100.287 79.5496 101.722 75.5224C97.7199 76.8438 94.5166 78.9833 92.1064 81.9408C90.7659 83.5832 90.0926 85.0179 90.0926 86.2449V86.2512Z" fill="white"/>
<path d="M122.055 73.5144C121.156 74.4834 120.344 75.2385 119.626 75.7734C118.701 76.4467 117.694 76.7802 116.606 76.7802C116.398 76.7802 116.127 76.6795 115.787 76.4845C115.454 76.2894 115.227 76.0062 115.108 75.635C114.995 75.2637 114.932 74.905 114.932 74.5589C114.932 73.3571 115.164 72.1615 115.624 70.9848C115.555 71.0288 115.234 71.5196 114.667 72.4572C114.101 73.3948 113.409 74.2758 112.584 75.1127C111.76 75.9433 110.935 76.3649 110.105 76.3649C109.708 76.3649 109.261 76.2579 108.752 76.0503C107.827 75.635 107.361 74.8673 107.361 73.7598C107.361 72.3943 107.827 70.9911 108.764 69.5438C109.702 68.0965 110.3 67.3288 110.552 67.2344C110.898 67.14 111.231 67.096 111.54 67.096C111.848 67.096 112.169 67.1589 112.496 67.2847C112.817 67.4106 112.773 67.6245 112.358 67.9266C110.759 69.3865 109.626 71.0036 108.953 72.7844C108.701 73.4766 108.569 74.0618 108.569 74.5401C108.569 75.0183 108.689 75.3203 108.934 75.4588C109.18 75.5972 109.413 75.6664 109.645 75.6664C110.199 75.6664 110.961 75.2763 111.917 74.5023C112.88 73.7283 114.202 72.1111 115.888 69.6633C116.121 69.3172 116.524 68.6376 117.103 67.6308C117.682 66.624 118.028 66.0262 118.141 65.8438C118.512 65.8438 118.947 65.9318 119.444 66.1017C119.941 66.2779 120.111 66.4982 119.947 66.7751C118.84 68.6251 118.053 69.9905 117.606 70.8715C117.153 71.7525 116.851 72.7781 116.687 73.9611C116.662 74.1688 116.65 74.4331 116.65 74.7603C116.65 75.0875 116.744 75.3518 116.927 75.5595C117.273 75.9307 117.751 75.9496 118.368 75.6098C118.978 75.2763 119.821 74.6282 120.885 73.6654C121.948 72.7026 122.804 71.7588 123.452 70.84C123.547 70.7268 123.654 70.6953 123.78 70.7519C123.906 70.8086 123.969 70.8652 123.969 70.9281C123.969 70.9911 123.943 71.0477 123.899 71.1169C123.553 71.7399 122.93 72.539 122.024 73.5081L122.055 73.5144Z" fill="white"/>
<path d="M54.7629 59.9674C54.9265 58.432 56.2103 57.3874 57.1983 56.3429C57.3179 56.2296 57.5004 56.2359 57.6137 56.3555C57.7144 56.4624 57.7207 56.6323 57.6263 56.7456C57.1857 57.2868 56.7515 57.8342 56.3425 58.3817C55.9271 58.9543 55.5369 59.5521 55.323 60.0807C55.2097 60.3701 54.7566 60.2757 54.7629 59.9674Z" fill="white"/>
<path d="M45.9651 32.249C46.8965 32.1609 47.746 32.8091 48.5201 33.2433C49.3634 33.7089 50.2193 34.1431 51.094 34.5458C51.245 34.615 51.4338 34.6025 51.5786 34.5018C51.6667 34.4388 51.7799 34.2564 51.6226 34.1809C50.6535 33.7341 49.7095 33.2496 48.7844 32.7273C47.9285 32.2427 47.0664 31.7016 46.0406 31.796C45.9085 31.8086 45.6819 31.8904 45.663 32.054C45.6441 32.2176 45.8392 32.2616 45.9651 32.249Z" fill="white"/>
<path d="M45.5434 31.8649V31.909L45.6064 31.7391L45.663 31.7013L45.9273 31.651C46.0469 31.651 46.2671 31.0217 46.349 30.8959C46.5126 30.6441 46.7203 30.4113 46.9531 30.2225C47.444 29.8324 48.067 29.6311 48.6963 29.6688C49.0172 29.6877 49.3256 29.7632 49.6214 29.8828C49.9172 30.0023 50.1815 30.0841 50.5024 30.0212C51.138 29.889 51.6792 29.3731 52.233 29.0521C52.7868 28.7312 53.4036 28.4418 54.0581 28.404C54.7125 28.3662 55.3419 28.5802 55.9208 28.8634C57.0851 29.4297 58.1234 30.1848 59.3632 30.5875C60.7099 31.0154 62.1825 31.0783 63.4852 30.4743C63.5984 30.4239 63.7495 30.2918 63.6551 30.1596C63.5607 30.0275 63.3153 30.0715 63.202 30.1282C61.8427 30.7574 60.2757 30.4554 58.9604 29.8702C57.6451 29.285 56.4935 28.2844 55.0398 28.0202C53.5168 27.7433 52.1701 28.5173 50.9492 29.3353C50.8171 29.4234 50.6535 29.5681 50.4961 29.5996C50.3388 29.631 50.1815 29.543 50.0304 29.48C49.6717 29.3353 49.2879 29.2535 48.904 29.2346C48.2054 29.2032 47.5006 29.3668 46.8965 29.7254C46.2923 30.0841 45.7574 30.6567 45.4742 31.3237C45.3735 31.5629 45.191 31.9782 45.556 32.0914C45.8266 32.1732 46.242 32.0159 46.2231 31.695C46.2042 31.4244 45.5308 31.5755 45.5497 31.8712L45.5434 31.8649Z" fill="white"/>
<path d="M52.6736 29.0031C53.7182 28.8646 54.4231 29.9281 55.0146 30.614C55.3041 30.9538 55.6314 31.2936 56.0215 31.5201C56.4809 31.7844 56.9907 31.8662 57.513 31.9291C58.0605 31.992 58.5577 32.1179 59.0674 32.3255C59.5331 32.5143 59.9988 32.7157 60.5022 32.8038C61.4651 32.9737 62.3021 32.6528 62.8873 31.8725C63.1517 31.5201 63.3782 31.0985 63.7747 30.8908C63.9509 30.7965 64.1774 30.6958 64.2089 30.4692C64.2404 30.2427 64.0705 30.142 63.8817 30.098C63.5481 30.0288 63.1957 30.4881 63.6425 30.5825L63.6929 30.5951L63.5041 30.5007C63.5041 30.5007 63.6173 30.4567 63.5167 30.4818C63.4726 30.4944 63.4286 30.5259 63.3845 30.551C63.3153 30.5888 63.2461 30.6328 63.1831 30.6769C63.0321 30.7902 62.8936 30.9286 62.7741 31.0733C62.5475 31.3439 62.3713 31.6522 62.1322 31.9165C61.5029 32.6276 60.5589 32.3193 59.7974 32.0109C59.3758 31.841 58.9604 31.6585 58.5136 31.5579C58.0416 31.4509 57.5508 31.4509 57.0788 31.3313C56.204 31.1174 55.7006 30.3623 55.1468 29.7204C54.5426 29.0157 53.7308 28.3675 52.7428 28.4997C52.5981 28.5186 52.3841 28.5941 52.3715 28.7703C52.3589 28.9339 52.5477 29.0094 52.6799 28.9905L52.6736 29.0031Z" fill="white"/>
<path d="M58.3122 35.332C58.8849 35.3887 59.4513 35.5082 59.9925 35.697C60.1687 35.7599 60.3449 35.8291 60.5337 35.8606C61.0938 35.9739 61.6602 35.7788 62.2266 35.697C62.7929 35.6152 63.4537 35.6844 63.7873 36.1501C63.7873 36.1501 61.8993 36.1123 61.3203 36.3703C61.0812 36.4773 60.8358 36.5842 60.5778 36.6409C59.9107 36.7856 59.2247 36.5717 58.5577 36.4269C57.8906 36.2822 57.1417 36.2067 56.5753 36.5842L58.3185 35.332H58.3122Z" fill="white"/>
<path d="M58.0983 35.4965C58.6143 35.5468 59.124 35.6538 59.6149 35.8111C60.068 35.9621 60.4708 36.088 60.9616 36.0565C61.7672 35.9999 62.8559 35.4902 63.4663 36.2767L63.9194 35.9936C63.5607 35.9873 63.1957 35.9936 62.837 36.0125C62.3084 36.0376 61.742 36.0628 61.2448 36.2453C60.8295 36.3963 60.4959 36.5599 60.0428 36.5222C59.5897 36.4844 59.1303 36.346 58.6772 36.2516C57.9032 36.0943 57.0599 36.088 56.3676 36.5159L56.8333 36.6291L58.5765 35.3769C58.6961 35.2888 58.6458 35.2133 58.5262 35.1818C58.3814 35.1441 58.1675 35.2196 58.0479 35.3077L56.3047 36.5599C56.204 36.6354 56.2166 36.7046 56.3236 36.7487C56.4432 36.799 56.6634 36.7361 56.7704 36.6732C57.4564 36.2453 58.3626 36.6228 59.08 36.7676C59.9107 36.9375 60.6155 36.8368 61.3896 36.5159C61.7797 36.3523 62.2643 36.3585 62.686 36.3397C63.0006 36.3271 63.3216 36.3208 63.6362 36.3271C63.7369 36.3271 64.2278 36.2138 64.0893 36.0439C63.5292 35.314 62.4594 35.5153 61.6853 35.6664C61.4084 35.7167 61.1253 35.7733 60.8421 35.7356C60.5903 35.7041 60.3449 35.5909 60.1058 35.5153C59.5897 35.3517 59.0548 35.2448 58.5199 35.1881C58.3689 35.1755 58.1612 35.207 58.0416 35.314C57.9472 35.3958 57.9472 35.4965 58.092 35.5091L58.0983 35.4965Z" fill="white"/>
<path d="M52.7428 28.3794C53.3343 25.4156 54.5174 22.3385 57.0662 20.52C57.7207 20.0543 58.457 19.7397 59.1555 19.3496C59.7974 18.9972 60.3764 18.5693 60.9176 18.0848C61.9685 17.1535 62.8747 16.0523 64.039 15.2594C65.4549 14.2903 67.2485 13.938 68.9287 14.2966C69.0924 14.3344 69.2874 14.3029 69.407 14.1708C69.5014 14.0638 69.4888 13.9002 69.3315 13.8687C67.7708 13.5352 66.1346 13.6988 64.6809 14.3659C63.2712 15.014 62.2014 16.1341 61.1127 17.2038C60.5526 17.7513 59.9799 18.2861 59.3254 18.714C58.6143 19.1797 57.8213 19.4943 57.0976 19.9348C55.8075 20.7213 54.7629 21.8729 53.9762 23.1503C52.9882 24.7612 52.4281 26.5923 52.0631 28.436C52.0002 28.7506 52.6861 28.6625 52.7428 28.3794Z" fill="white"/>
<path d="M53.2211 27.4856C54.1147 25.0881 55.8579 23.0116 58.0857 21.7405C58.6646 21.407 59.2751 21.149 59.9044 20.9161C60.5337 20.6833 61.2197 20.4253 61.7923 20.0163C62.3587 19.6136 62.7929 19.0598 63.2146 18.5187C63.674 17.9335 64.146 17.3545 64.6683 16.826C65.8262 15.6556 67.3051 14.6487 68.998 14.5606C69.1301 14.5544 69.3756 14.5166 69.4448 14.3908C69.514 14.2649 69.3882 14.2209 69.2749 14.2271C67.7456 14.3027 66.3108 14.9319 65.1151 15.8758C64.4984 16.3603 63.9446 16.9204 63.4286 17.5056C62.9251 18.0845 62.4846 18.7137 61.9748 19.2864C61.4273 19.8967 60.7917 20.2617 60.0365 20.5512C59.3695 20.8092 58.7087 21.0483 58.0731 21.3755C56.8963 21.9859 55.8264 22.8039 54.9202 23.773C53.8944 24.8742 53.0889 26.1704 52.5603 27.58C52.4911 27.7624 53.1581 27.6869 53.2337 27.4856H53.2211Z" fill="white"/>
<path d="M62 11.5724C63.1202 11.3899 64.2655 11.4906 65.348 11.8241C66.4304 12.1576 67.4876 12.6547 68.3183 13.3783C68.74 13.7433 69.0231 14.404 68.4505 14.7753C68.0162 15.0522 67.6261 15.3227 67.2799 15.7129C66.5751 16.5183 66.0717 17.5377 65.6878 18.5257C65.2158 19.7401 64.9452 21.0238 64.8634 22.3264C64.8571 22.4648 65.5242 22.3767 65.5367 22.1502C65.6186 20.8917 65.8892 19.652 66.336 18.4753C66.7513 17.393 67.3051 16.2415 68.1484 15.4234C68.3498 15.2284 68.57 15.071 68.8092 14.9326C69.0231 14.8068 69.2434 14.6809 69.363 14.4544C69.6084 13.995 69.3315 13.4853 68.9854 13.1707C68.1547 12.4156 67.003 11.8807 65.9395 11.5535C64.6998 11.1697 63.3908 11.0627 62.107 11.2766C62.0189 11.2892 61.7231 11.3521 61.7168 11.478C61.7168 11.6101 61.9056 11.5913 61.9937 11.5787L62 11.5724Z" fill="white"/>
<path d="M64.8697 22.0374C64.6872 24.8502 65.0018 28.223 62.8622 30.4254C62.5853 30.7148 63.2398 30.7274 63.4034 30.5575C65.6249 28.2607 65.348 24.9068 65.543 21.9682C65.5619 21.6787 64.8823 21.8046 64.8634 22.0437L64.8697 22.0374Z" fill="white"/>
<path d="M66.0087 20.8343C66.1912 20.721 66.2604 21.042 66.2542 21.1741C66.2416 21.4195 66.1598 21.6838 66.1157 21.9229C66.0339 22.3697 65.971 22.8165 65.908 23.2632C65.7759 24.2952 65.6752 25.3335 65.4675 26.3529C65.1403 28.0078 64.4984 29.6816 63.1831 30.808C63.0635 30.9087 63.2838 30.9213 63.3404 30.915C63.4915 30.9087 63.6803 30.8583 63.7935 30.7577C66.5122 28.4294 66.2353 24.4588 66.8835 21.2622C66.9464 20.9476 66.9527 20.6078 66.5751 20.5323C66.2164 20.463 65.7885 20.6204 65.4927 20.8091C65.3794 20.8846 65.4109 20.935 65.5304 20.9539C65.6752 20.979 65.8892 20.9035 66.0087 20.828V20.8343Z" fill="white"/>
<path d="M45.147 15.4662C43.6114 14.7929 41.8053 14.6986 40.2257 15.2901C39.6342 15.5103 38.8727 16.0766 39.1181 16.8066C39.3636 17.5239 40.49 17.5994 41.1194 17.6309C42.013 17.6686 42.8814 17.6435 43.7625 17.8448C44.6435 18.0462 45.4742 18.3923 46.2294 18.8642C47.6516 19.7578 48.7341 21.0666 49.7284 22.3881C50.836 23.8605 52.1575 25.4399 52.2897 27.3529C52.3086 27.592 52.9819 27.4536 52.9631 27.1767C52.8561 25.6224 51.9499 24.2884 51.0499 23.0614C50.1563 21.8343 49.2501 20.5947 48.1173 19.5627C46.972 18.5181 45.5938 17.763 44.0708 17.4358C43.259 17.2596 42.4598 17.247 41.6354 17.2282C41.0501 17.2156 39.5901 17.203 39.7726 16.2906C39.9363 15.4851 41.2389 15.3593 41.8997 15.3152C42.8248 15.2523 43.7562 15.4285 44.6058 15.7998C44.7568 15.869 44.9519 15.8375 45.084 15.7494C45.1721 15.6928 45.2917 15.5355 45.1407 15.4662H45.147Z" fill="white"/>
<path d="M39.4265 17.3553C40.2195 17.8964 41.2515 18.123 41.8431 18.9284C42.1703 19.3815 42.3717 19.9226 42.592 20.4323C42.8248 20.9672 43.0451 21.5084 43.2213 22.0621C43.5926 23.2262 43.6555 24.4155 43.687 25.6237C43.7121 26.6746 43.731 27.7317 44.0079 28.7511C44.2785 29.7453 44.7757 30.664 45.5938 31.2996C45.7952 31.4569 46.4056 31.1674 46.1287 30.9472C44.4484 29.6383 44.4044 27.2661 44.3603 25.3342C44.3352 24.1638 44.2534 23.006 43.9009 21.8859C43.7247 21.3322 43.5045 20.791 43.2716 20.2561C43.064 19.7716 42.8689 19.2682 42.5794 18.8214C41.9689 17.8587 40.8551 17.6133 39.9614 17.0092C39.7538 16.8645 39.137 17.1602 39.4265 17.3616V17.3553Z" fill="white"/>
<path d="M44.6121 17.2676C44.7379 16.1098 45.5812 15.147 46.6447 14.7254C47.9726 14.1968 49.4829 14.4422 50.8108 14.8198C52.1827 15.2099 53.498 15.7763 54.9013 16.0531C55.5999 16.1916 56.3047 16.2671 57.0158 16.2167C57.727 16.1664 58.4255 15.9839 59.1052 15.7637C60.5652 15.2854 62.1384 14.5681 63.6677 15.1596C63.9068 15.254 64.4606 14.9079 64.0767 14.7569C62.6797 14.2157 61.1756 14.6247 59.8226 15.0904C59.0926 15.3421 58.35 15.6252 57.5822 15.7385C56.7893 15.8581 55.9775 15.7888 55.1971 15.6252C52.3086 15.0212 49.4137 13.2089 46.4119 14.3667C45.1659 14.8513 44.0771 15.9525 43.9261 17.3242C43.8946 17.6263 44.5743 17.5193 44.6058 17.2613L44.6121 17.2676Z" fill="white"/>
<path d="M45.5183 15.5992C47.1734 15.1021 49.0235 15.3098 50.515 16.1907C51.3331 16.6753 51.9939 17.3675 52.7302 17.959C53.4162 18.519 54.1965 18.9658 55.0335 19.2678C55.9838 19.6139 56.9907 19.7775 58.0039 19.7712C58.4003 19.7712 58.5199 19.2426 58.0605 19.2489C56.16 19.2741 54.3979 18.5505 52.9693 17.3234C52.2645 16.7193 51.5912 16.0838 50.7667 15.637C50.0116 15.228 49.1746 14.97 48.3187 14.863C47.337 14.7435 46.3364 14.819 45.3861 15.1084C44.9708 15.2343 45.0966 15.7251 45.512 15.5992H45.5183Z" fill="white"/>
<path d="M47.0916 14.2017C48.8285 12.8299 50.9241 12.0245 53.07 11.5462C54.1776 11.2945 55.2852 11.1938 56.4054 11.4078C57.4186 11.5966 58.3877 11.9867 59.2688 12.509C60.2568 13.0942 61.1441 13.843 61.9056 14.7051C62.0126 14.8246 62.6356 14.5855 62.5475 14.4848C61.0812 12.8362 59.1178 11.5525 56.9214 11.1561C55.7383 10.9421 54.5552 11.0365 53.3784 11.2819C52.2016 11.5273 51.0562 11.8609 49.9424 12.3013C48.7026 12.7922 47.5258 13.434 46.4811 14.2646C46.3616 14.359 46.5881 14.3653 46.6385 14.3653C46.7895 14.3527 46.972 14.3087 47.0916 14.208V14.2017Z" fill="white"/>
<path d="M48.0418 14.3096C51.4401 13.4035 54.9706 11.9814 58.5262 12.8435C59.4387 13.0637 60.3071 13.4476 61.0686 14.0013C61.1945 14.0894 61.377 14.0579 61.5154 14.0013C61.5721 13.9761 61.8238 13.8377 61.7042 13.7496C58.652 11.5346 54.6559 12.1324 51.2576 13.0637C50.1563 13.3657 49.0676 13.7055 47.96 13.995C47.8656 14.0202 47.6265 14.1083 47.6642 14.2404C47.702 14.3726 47.96 14.3348 48.0418 14.3096Z" fill="white"/>
<path d="M45.2099 15.0577C45.1218 13.409 45.6315 11.6471 47.0349 10.6529C47.1797 10.5522 47.3307 10.4578 47.488 10.3823C47.5824 10.332 47.8908 10.1495 47.9915 10.1872C48.0922 10.225 48.1362 10.4956 48.2117 10.6025C48.2998 10.7221 48.432 10.8102 48.5579 10.8794C48.9417 11.0808 49.3823 11.2003 49.7913 11.3451L51.2136 11.8485C51.4968 11.9491 52.0065 11.5464 51.61 11.4017L49.9675 10.8165C49.5962 10.6843 48.9166 10.5774 48.7592 10.1621C48.6963 9.99215 48.6523 9.85372 48.4698 9.76562C48.2873 9.67753 48.0985 9.68382 47.916 9.72157C47.4943 9.80338 47.0853 10.0236 46.7329 10.2501C45.1155 11.2947 44.4296 13.2454 44.524 15.108C44.5428 15.4604 45.2225 15.3534 45.2099 15.0577Z" fill="white"/>
<path d="M47.5824 10.132C47.3496 10.3774 47.1104 10.6354 47.0097 10.9626C46.9091 11.2898 46.9972 11.617 47.2615 11.8247C47.5258 12.0323 47.8845 12.1393 48.1991 12.2463C48.5453 12.3658 48.8977 12.4539 49.2627 12.5168C49.4263 12.5483 49.6214 12.5168 49.741 12.391C49.8354 12.2966 49.8228 12.1519 49.6717 12.1267C49.3571 12.0701 49.0487 11.9946 48.7404 11.9002C48.4635 11.8121 48.1614 11.7177 47.916 11.5667C47.6894 11.4282 47.6202 11.1891 47.6768 10.9437C47.7397 10.6731 47.9411 10.4655 48.1299 10.2767C48.2306 10.176 48.2054 10.0502 48.0607 10.0124C47.916 9.97464 47.6894 10.025 47.5824 10.1382V10.132Z" fill="white"/>
<path d="M49.4452 10.3961C49.7913 9.69767 50.5968 9.43968 51.201 9.03066C51.5093 8.82301 51.7799 8.5776 51.975 8.26297C52.038 8.16229 52.038 8.11824 52.1512 8.09936C52.2519 8.08049 52.3967 8.11824 52.4974 8.13712C52.7868 8.18117 53.0763 8.25039 53.3595 8.33848C54.3601 8.64682 55.2789 9.1691 56.2166 9.62216C57.192 10.0941 58.2241 10.478 59.1303 11.0883C60.024 11.6924 60.7728 12.5482 60.9742 13.6305C61.0057 13.8004 61.6853 13.6431 61.6476 13.4543C61.2196 11.0946 58.652 10.2577 56.7704 9.34529C55.7006 8.8293 54.6496 8.21892 53.4791 7.94834C52.9756 7.82879 52.3904 7.70923 51.8869 7.87283C51.4149 8.02385 51.3142 8.45804 50.9681 8.76638C50.257 9.38934 49.2186 9.60329 48.7718 10.5094C48.7089 10.6416 49.3508 10.5912 49.4389 10.4024L49.4452 10.3961Z" fill="white"/>
<path d="M59.1744 10.5913C59.3569 10.4465 59.6527 10.522 59.8729 10.522C60.1876 10.522 60.5022 10.4654 60.798 10.3584C60.8924 10.327 61.1001 10.1822 61.2008 10.1885C61.3015 10.1948 61.3896 10.3144 61.4399 10.3962C61.6098 10.6731 61.5658 11.0317 61.6098 11.3401C61.6916 11.9001 62.0378 12.3595 62.3398 12.8188C62.6482 13.2845 62.988 13.9011 62.7489 14.4675C62.6041 14.8073 63.2838 14.7821 63.3908 14.5304C63.6803 13.8508 63.3845 13.1712 63.0069 12.5986C62.8181 12.3154 62.6042 12.0385 62.4594 11.7239C62.2958 11.3778 62.2895 11.0317 62.2454 10.6605C62.2077 10.3396 62.0755 10.0249 61.7923 9.84874C61.4714 9.65367 61.1001 9.74806 60.7791 9.89279C60.4393 10.0438 60.1309 10.0753 59.7659 10.069C59.4009 10.0627 59.0359 10.0879 58.7465 10.3207C58.3877 10.6101 58.9353 10.7989 59.1807 10.5976L59.1744 10.5913Z" fill="white"/>
<path d="M42.8248 14.6358C42.7808 14.4974 42.8752 14.3715 42.9255 14.2457C42.9884 14.0884 43.0199 13.9373 42.9884 13.7737C42.9633 13.629 42.9003 13.4969 42.8563 13.3584C42.8374 13.2955 42.8248 13.2326 42.8374 13.1697C42.85 13.0941 42.8311 13.1885 42.8563 13.113C42.8437 13.1193 42.8437 13.113 42.8689 13.0941C42.8689 13.1004 42.8563 13.1067 42.85 13.1067C42.8311 13.113 42.8374 13.1067 42.8689 13.1004C42.8311 13.113 42.8311 13.113 42.8689 13.1004H42.8437C42.8814 13.1004 42.8877 13.1004 42.8563 13.1004C42.9381 13.1004 43.0136 13.1319 43.0891 13.1634C43.2653 13.2263 43.4289 13.3018 43.6115 13.3396C44.0205 13.4277 44.4359 13.4025 44.8449 13.371C44.9834 13.3584 45.1973 13.2766 45.2225 13.1193C45.2477 12.962 45.0337 12.918 44.9204 12.9242C44.5177 12.9557 44.1149 12.9809 43.731 12.8362C43.5296 12.7606 43.3346 12.6663 43.1143 12.6537C42.8752 12.6348 42.6108 12.6977 42.4158 12.8362C42.2458 12.9557 42.1451 13.1382 42.1577 13.3458C42.164 13.5157 42.2395 13.6731 42.2836 13.8367C42.3276 14.0003 42.3276 14.1198 42.2521 14.2709C42.1703 14.4408 42.0885 14.6232 42.1514 14.812C42.2018 14.963 42.4158 14.963 42.5416 14.9316C42.6549 14.9001 42.8752 14.7868 42.8248 14.6358Z" fill="white"/>
<path d="M57.7584 31.8848C57.5759 32.2371 57.664 32.665 57.7899 33.0489C57.9095 33.4264 58.0605 33.8229 57.9913 34.213C57.8969 34.7164 57.4689 35.0751 57.0662 35.3897C57.0662 35.3897 58.6583 33.9676 59.1366 33.8166C59.7156 33.6341 60.2631 33.395 60.7665 33.0552L61.5972 32.7909C60.2883 33.9613 58.8408 34.9807 57.299 35.8302C57.0284 35.9812 56.7452 36.1322 56.569 36.3839C56.569 36.3839 55.9586 38.4479 55.8957 39.9518L54.9391 62.2338C54.8384 64.5368 54.744 66.8462 54.8258 69.1556C54.9769 73.1828 55.6817 77.1597 56.2418 81.1492C57.0851 87.1649 57.5822 93.2183 58.0857 99.2655C58.2682 101.443 58.4444 103.62 58.6269 105.797C58.9478 109.636 59.1429 113.902 56.7138 116.897C55.323 116.306 54.53 113.707 54.53 113.707C58.0668 98.1265 53.1518 81.9546 53.2903 65.9778C53.3721 56.7026 55.1656 47.3959 53.9574 38.2025C53.9448 38.1207 53.907 38.0389 53.8441 37.9823C53.5924 37.7494 52.9001 37.1328 52.4407 36.9943C51.8743 36.8181 51.2324 36.8999 50.7227 37.2146C52.3715 35.0814 53.498 36.686 53.498 36.686C53.1456 36.0441 52.3526 35.7295 51.6226 35.7484C50.8863 35.761 50.1878 36.0441 49.5081 36.3336C48.8285 36.6168 48.1362 36.9188 47.4062 36.9629C45.8707 37.0635 44.417 36.0693 42.8814 36.1826C42.8814 36.1826 43.7688 35.7673 44.2596 35.8113C44.7505 35.8554 45.2225 36.0127 45.7071 36.0882C46.8776 36.277 48.0922 35.9686 49.1242 35.3834C49.571 35.1317 49.9927 34.8297 50.471 34.6472C50.9492 34.4647 51.4842 34.3452 51.9247 34.6094L54.014 35.5533C53.7937 35.3394 53.8441 34.9996 53.9762 34.7227C54.1084 34.4458 54.3538 34.2382 54.5993 34.0557C55.4551 33.4076 56.4557 32.8664 56.9781 31.9288" fill="white"/>
<path d="M57.4375 31.847C57.1983 32.4197 57.3997 32.9231 57.5633 33.4894C57.7962 34.2949 57.4626 34.7542 56.8459 35.2387L57.3431 35.4716C57.8906 34.987 58.4695 34.4144 59.1177 34.0683C59.3443 33.9425 59.6086 33.8858 59.8477 33.7852C60.2065 33.6404 60.5211 33.4391 60.8609 33.2692C61.012 33.1937 61.4084 33.0741 61.6539 32.9923L61.3203 32.684C60.2694 33.6153 59.1303 34.4522 57.9283 35.1821C57.4249 35.4904 56.7767 35.7296 56.3676 36.1763C56.204 36.3588 56.1663 36.5853 56.1096 36.8119C55.839 37.8439 55.6062 38.901 55.5495 39.9644C55.4677 41.5124 55.4174 43.0604 55.3481 44.6084C55.0838 50.7436 54.8132 56.8725 54.5552 63.0078C54.4294 66.0219 54.3853 69.0235 54.6622 72.0376C54.9391 75.0643 55.4425 78.0596 55.8642 81.0611C56.7201 87.1272 57.2235 93.2372 57.7332 99.341C57.9724 102.254 58.2933 105.18 58.4255 108.1C58.5325 110.504 58.4444 113.052 57.3871 115.255C57.1228 115.802 56.8019 116.318 56.4243 116.79L56.9026 116.664C56.1159 116.306 55.6125 115.4 55.2663 114.651C55.1342 114.374 55.0209 114.084 54.9202 113.795C54.7944 113.443 55.0083 113.015 55.0775 112.65C55.6502 109.85 55.9586 106.999 56.0782 104.142C56.3236 98.3908 55.8138 92.6394 55.2097 86.9258C54.593 81.0926 53.8567 75.2594 53.6616 69.3884C53.4665 63.4105 54.0895 57.4766 54.4671 51.5239C54.6559 48.5538 54.7692 45.5774 54.6559 42.601C54.5993 41.1412 54.5615 39.6184 54.2972 38.1837C54.2154 37.7558 53.756 37.4663 53.4287 37.2209C53.0197 36.9126 52.598 36.6986 52.082 36.6671C51.5093 36.6294 50.987 36.7804 50.4961 37.0636L50.9933 37.2964C51.3646 36.8308 51.9624 36.126 52.6358 36.3966C52.8435 36.4784 53.0449 36.6357 53.177 36.8182C53.3406 37.0447 53.9699 36.8182 53.8 36.535C52.6924 34.7039 50.2885 35.7736 48.8033 36.3651C48.3187 36.5602 47.809 36.7238 47.2866 36.7301C46.7643 36.7364 46.242 36.6105 45.7385 36.4658C44.8071 36.2015 43.8883 35.8932 42.9066 35.9435L43.0136 36.3588C43.3283 36.2141 43.687 36.0568 44.0331 36.0316C44.6876 35.9875 45.3546 36.3211 46.0091 36.3525C47.3055 36.4217 48.5264 36.0001 49.6277 35.3331C50.2067 34.9807 50.9492 34.471 51.6415 34.7794C51.8303 34.8612 52.0128 34.9493 52.2016 35.0374L53.7937 35.761C53.9574 35.8365 54.4986 35.6415 54.3035 35.4023C53.7119 34.685 55.2412 33.8733 55.6943 33.546C56.311 33.1056 56.8837 32.6147 57.2739 31.954C57.4564 31.6394 56.7767 31.6457 56.6319 31.8848C56.1348 32.728 55.2789 33.2251 54.5112 33.7852C53.9762 34.1753 53.0952 34.9744 53.6805 35.6855L54.1902 35.3268L52.4722 34.5466C52.2079 34.427 51.9373 34.2697 51.6478 34.2256C51.0373 34.1375 50.3954 34.3641 49.8668 34.6535C49.2312 34.9933 48.6523 35.4023 47.9663 35.6352C47.2237 35.8869 46.4371 35.9624 45.6693 35.8177C45.0526 35.6981 44.4547 35.4779 43.8191 35.61C43.4415 35.6855 43.0702 35.8239 42.7241 35.9875C42.4283 36.126 42.5164 36.4217 42.8311 36.4029C43.7688 36.3525 44.6498 36.7049 45.5371 36.944C46.3615 37.1643 47.1797 37.2649 48.0229 37.0762C49.527 36.7364 52.0191 34.8989 53.1707 36.8119L53.7937 36.5287C53.5609 36.2015 53.1707 35.9624 52.7743 35.8869C51.8051 35.7044 50.9933 36.4029 50.4269 37.1076C50.1563 37.4474 50.7416 37.4474 50.9241 37.3405C51.5408 36.9881 52.1953 37.095 52.7491 37.4852C52.9505 37.6236 53.1393 37.7746 53.3218 37.9319C53.5798 38.1522 53.6112 38.3473 53.6553 38.6808C53.8378 40.191 53.9448 41.7075 53.9888 43.2303C54.0769 46.15 53.9448 49.0761 53.756 51.9895C53.3721 57.8353 52.7868 63.6559 52.9819 69.5206C53.1707 75.2153 53.863 80.8724 54.4734 86.5357C55.0838 92.2115 55.6125 97.9252 55.4174 103.639C55.323 106.464 55.0461 109.29 54.5175 112.071C54.4545 112.411 54.3853 112.75 54.3161 113.09C54.272 113.304 54.1587 113.575 54.1839 113.789C54.2028 113.965 54.3098 114.154 54.3727 114.317C54.6622 115.047 55.0272 115.796 55.5558 116.388C55.8264 116.69 56.1348 116.929 56.4998 117.099C56.6382 117.162 56.8837 117.092 56.9781 116.973C58.4821 115.085 59.0233 112.719 59.1177 110.353C59.2247 107.71 58.8912 105.055 58.6772 102.431C58.1675 96.3017 57.7018 90.1602 56.9529 84.0564C56.5879 81.0485 56.097 78.0659 55.7006 75.0643C55.2915 71.9936 55.0713 68.9228 55.1342 65.8206C55.1971 62.7561 55.3733 59.6853 55.5055 56.6208L55.9019 47.333L56.097 42.7772C56.16 41.3866 56.1348 39.9644 56.3739 38.5864C56.4683 38.0515 56.5816 37.5229 56.7138 37.0007C56.7641 36.8056 56.8145 36.4784 56.9151 36.3525C57.1039 36.1071 57.4689 35.975 57.7332 35.8302C58.029 35.6603 58.3248 35.4904 58.6143 35.308C59.2121 34.9367 59.7911 34.5403 60.3512 34.1124C60.8735 33.7159 61.377 33.3006 61.8678 32.8664C62.107 32.6525 61.7105 32.5015 61.5343 32.5581C61.2322 32.6525 60.905 32.7217 60.6155 32.8539C60.2253 33.03 59.8855 33.2818 59.4827 33.4391C59.2121 33.546 58.9478 33.6153 58.6961 33.76C58.0039 34.1753 57.3808 34.7416 56.7767 35.2828C56.4872 35.5408 57.0851 35.6666 57.2739 35.5156C57.7332 35.1506 58.2493 34.7227 58.3248 34.0998C58.4129 33.3573 57.7647 32.6336 58.0668 31.91C58.2115 31.5639 57.5319 31.5828 57.4249 31.8408L57.4375 31.847Z" fill="white"/>
<path d="M57.4752 56.0922C57.7458 53.5248 58.8408 50.9511 60.9239 49.334C61.8867 48.5851 63.0447 48.0503 64.2655 47.937C65.7255 47.8049 67.1352 48.302 68.5512 48.5537C70.1874 48.8368 71.8488 48.7173 73.4976 48.5914L73.3151 48.5285C72.8997 50.2086 72.4844 51.8887 72.0627 53.5688C71.8802 54.2925 71.6914 55.0224 71.3642 55.6957C71.0369 56.3627 70.5713 56.9291 69.9923 57.3947C69.4133 57.8604 68.8029 58.2002 68.161 58.5211C67.4624 58.8735 66.7324 59.2259 65.9584 59.358C65.1277 59.5027 64.3599 59.2699 63.5859 58.993C62.8307 58.7224 62.0755 58.54 61.2826 58.4078C59.8226 58.1624 57.1039 57.8541 57.4375 56.1991C57.513 55.8342 56.8774 55.9411 56.7641 56.3753C56.3802 57.7723 58.8408 58.3197 60.1939 58.5651C61.1001 58.7287 61.9811 58.8672 62.8559 59.1755C63.611 59.4461 64.3473 59.6915 65.1592 59.6537C66.745 59.5845 68.3372 58.7917 69.6713 57.9799C70.2881 57.6087 70.867 57.1745 71.339 56.6333C71.8928 56.0041 72.2263 55.2364 72.4655 54.4372C72.7487 53.487 72.9626 52.5117 73.2018 51.5552L73.9821 48.4152C74.001 48.3334 73.8437 48.3523 73.7996 48.3523C72.1634 48.4782 70.5209 48.5851 68.8973 48.2768C67.4247 47.9999 65.9898 47.5469 64.4732 47.7105C61.8238 47.9936 59.489 49.6045 58.1675 51.895C57.3934 53.2353 56.9592 54.7456 56.8019 56.2809C56.7956 56.3439 57.4564 56.2935 57.4752 56.1047V56.0922Z" fill="white"/>
<path d="M69.1553 48.4834C67.8149 48.2884 66.5059 47.829 65.1466 47.7912C63.0195 47.7346 60.9428 48.7855 59.5331 50.3775C58.1234 51.9695 57.3494 54.0649 57.1354 56.1792L57.0977 56.2799C57.4186 57.2741 58.4129 57.9034 59.4135 58.1991C60.4141 58.4949 61.4777 58.5452 62.4783 58.8347C63.2398 59.0549 63.9635 59.4136 64.7501 59.508C65.9332 59.6464 67.0912 59.1682 68.161 58.6459C69.3693 58.0607 70.5901 57.3622 71.3453 56.2547C71.918 55.4115 72.176 54.3984 72.4214 53.4105C72.8305 51.7618 73.2396 50.1195 73.6486 48.4708C72.1508 48.5904 70.6405 48.7037 69.1616 48.4897L69.1553 48.4834ZM68.0981 52.0387C67.1541 52.7372 65.6374 53.3476 63.5922 53.7818C61.7986 54.1593 59.9422 54.7382 58.6269 56.0911C58.5136 56.2044 58.3059 56.2736 58.1486 56.217C58.0102 56.1666 57.9598 55.9527 58.0731 55.8394C58.8094 55.0843 59.703 54.5872 60.6722 54.1782C62.5286 53.3979 63.2586 53.4734 65.2095 53.0329C66.2416 52.8001 67.0093 52.5421 68.0414 51.9003C68.3183 51.7304 68.4631 51.7744 68.0918 52.045L68.0981 52.0387Z" fill="white"/>
<path d="M41.8808 17.7201C43.5233 18.0095 45.3358 18.3682 46.4434 19.7274C46.9909 20.4007 47.3433 21.1999 47.8782 21.8732C48.4131 22.5465 49.1746 23.0373 49.9109 23.5092C50.729 24.0315 51.5786 24.623 51.9436 25.5606C52.0505 25.8375 52.7239 25.6424 52.6169 25.3844C51.9058 23.5848 49.8416 23.1443 48.6522 21.7788C48.0544 21.0929 47.6894 20.2371 47.123 19.5261C46.5818 18.8339 45.8455 18.3493 45.04 18.0158C44.1149 17.632 43.1143 17.4558 42.1326 17.2796C41.8305 17.2293 41.434 17.6446 41.8808 17.7201Z" fill="white"/>
<path d="M53.5357 73.9755C53.1959 73.0254 52.9568 72.006 52.4218 71.0998C51.8932 70.1182 51.1632 69.2939 50.5654 68.35C50.4269 68.1298 50.6912 67.8466 50.9178 67.9724C51.975 68.5765 52.6232 69.6085 53.2714 70.5964C53.8441 71.6221 54.8195 72.9562 54.0266 74.1392C53.863 74.3468 53.5609 74.221 53.5357 73.9693V73.9755Z" fill="white"/>
<path d="M37.0477 60.8169C39.4831 59.2563 42.485 58.8977 45.3232 59.4892C46.544 59.7409 47.8971 60.4834 48.7844 61.5217C49.7473 62.6417 50.2004 64.1205 50.6409 65.5049C51.0562 66.82 51.3709 68.4686 50.3073 69.5761C50.0934 69.7964 49.8291 69.9914 49.5207 70.0355C49.0865 70.0984 48.6334 70.004 48.2054 69.9474C47.4566 69.853 46.7265 69.8971 45.9777 70.0166C45.2225 70.1362 44.4736 70.2935 43.7058 70.2431C43.0576 70.2054 42.4157 70.0481 41.8179 69.8027C40.6474 69.3181 39.609 68.4749 38.9356 67.3989C37.5512 65.1776 37.8532 62.0062 35.701 60.2506L35.1661 60.4645L36.5694 60.9302C36.6953 60.9742 36.8778 60.9113 36.9911 60.8547C37.0477 60.8232 37.1924 60.7414 37.0666 60.7036L35.6632 60.238C35.5688 60.2065 35.0213 60.3638 35.1283 60.4519C37.2176 62.1509 36.9722 65.2406 38.2497 67.4241C38.9231 68.5693 39.9866 69.4755 41.2138 69.9914C41.8242 70.2494 42.4598 70.413 43.1206 70.476C43.8946 70.5515 44.6624 70.4382 45.4239 70.3124C45.8644 70.2369 46.3112 70.1613 46.7643 70.1362C47.2174 70.111 47.6453 70.1739 48.0922 70.2306C48.841 70.3312 49.5962 70.3375 50.2759 69.9726C51.5911 69.2741 51.7988 67.6695 51.5219 66.3481C51.352 65.5363 51.0625 64.7435 50.7793 63.9695C50.5213 63.2521 50.2192 62.5473 49.7976 61.9118C48.9921 60.6973 47.746 59.8982 46.3804 59.4451C43.517 58.4887 40.2132 58.8851 37.5512 60.2569C37.2239 60.4268 36.903 60.6092 36.5883 60.8106C36.4876 60.8798 36.5191 60.9239 36.6198 60.9427C36.7456 60.9616 36.9407 60.8987 37.0477 60.8295V60.8169Z" fill="white"/>
<path d="M50.7919 65.1216C50.3829 63.8945 49.9549 62.636 49.1242 61.6481C48.0418 60.3581 46.4245 59.5401 45.0715 59.2569C42.9633 58.8164 39.395 59.2129 37.0477 60.7294L35.4178 60.5091C37.3812 62.076 37.2617 65.0838 38.4448 67.2988C39.5335 69.3376 41.8557 70.6465 44.1652 70.5269C45.2791 70.464 46.3741 70.1053 47.4817 70.1745C48.2369 70.2186 49.011 70.464 49.741 70.2437C50.6786 69.9606 51.2513 68.96 51.3268 67.9847C51.4087 67.0094 51.1003 66.0529 50.7919 65.1216ZM50.3388 67.9973C50.1878 68.0225 50.0179 67.9281 49.9424 67.8085C48.4698 66.0277 47.2048 65.3104 45.3295 64.4294C43.3408 63.4918 41.9689 63.4478 41.2012 62.7304C41.069 62.6046 40.8739 62.4095 41.2704 62.6109C42.1137 63.045 43.5926 63.2024 45.0778 63.6743C45.7952 63.9071 47.4377 64.5112 49.1746 65.8012C49.8794 66.3298 50.4332 67.2233 50.4773 67.6764C50.4899 67.8211 50.4773 67.9721 50.3451 67.9973H50.3388Z" fill="white"/>
</g>
<defs>
<clipPath id="clip0_853_409">
<rect width="124" height="134" fill="white"/>
</clipPath>
</defs>
</svg>
