<svg width="478" height="206" viewBox="0 0 478 206" fill="none" xmlns="http://www.w3.org/2000/svg">
<rect x="0.5" y="8.5" width="477" height="197" fill="#18212A" stroke="black"/>
<line x1="21.8339" y1="29.5" x2="454.264" y2="29.5" stroke="#D9B855"/>
<line x1="21.8339" y1="26.5" x2="454.264" y2="26.5" stroke="#D9B855"/>
<line x1="21.8339" y1="186.5" x2="454.264" y2="186.5" stroke="#D9B855"/>
<line x1="21.8339" y1="183.5" x2="454.264" y2="183.5" stroke="#D9B855"/>
<path d="M202.856 70.16L194 79.034L185.126 70.16L194 61.286L202.856 70.16ZM185.882 70.16L194 78.26L202.1 70.16L194 62.06L185.882 70.16ZM206.096 68.648C205.34 69.704 204.644 70.538 204.008 71.15L203.774 70.97C204.242 70.262 204.698 69.446 205.142 68.522C205.598 67.598 206.006 66.62 206.366 65.588C206.57 65 206.762 64.328 206.942 63.572C207.122 62.816 207.224 62.198 207.248 61.718C208.04 61.97 208.592 62.168 208.904 62.312C209.216 62.444 209.372 62.546 209.372 62.618C209.372 62.666 209.318 62.714 209.21 62.762L208.886 62.906C208.37 64.346 207.836 65.588 207.284 66.632L207.986 66.902C207.914 67.07 207.74 67.178 207.464 67.226V73.67C207.488 75.158 207.536 76.568 207.608 77.9C207.512 78.02 207.332 78.14 207.068 78.26C206.816 78.392 206.576 78.458 206.348 78.458C206.228 78.458 206.12 78.422 206.024 78.35C205.94 78.278 205.898 78.194 205.898 78.098C205.946 77.39 205.988 76.706 206.024 76.046C206.06 75.374 206.084 74.498 206.096 73.418V68.648ZM217.85 70.052C217.886 70.004 217.946 69.92 218.03 69.8C218.114 69.68 218.18 69.59 218.228 69.53C218.288 69.47 218.342 69.44 218.39 69.44C218.462 69.44 218.63 69.542 218.894 69.746C219.158 69.95 219.404 70.172 219.632 70.412C219.872 70.64 219.992 70.796 219.992 70.88C219.956 71.072 219.8 71.168 219.524 71.168H214.97C215.522 72.164 216.284 73.082 217.256 73.922C218.228 74.75 219.218 75.38 220.226 75.812L220.19 76.01C219.902 76.07 219.656 76.208 219.452 76.424C219.26 76.628 219.122 76.904 219.038 77.252C218.162 76.628 217.358 75.836 216.626 74.876C215.894 73.916 215.288 72.848 214.808 71.672V73.796C214.832 75.272 214.88 76.658 214.952 77.954C214.856 78.086 214.694 78.206 214.466 78.314C214.238 78.434 213.968 78.494 213.656 78.494C213.548 78.494 213.458 78.458 213.386 78.386C213.326 78.314 213.296 78.23 213.296 78.134C213.368 77.018 213.416 75.902 213.44 74.786V72.914C212.204 74.774 210.452 76.286 208.184 77.45L208.022 77.216C209.054 76.448 209.972 75.542 210.776 74.498C211.58 73.442 212.216 72.332 212.684 71.168H211.208C210.356 71.18 209.456 71.264 208.508 71.42L208.058 70.502C208.718 70.574 209.516 70.622 210.452 70.646H213.44V68.144H211.388V68.792C211.388 68.876 211.262 68.978 211.01 69.098C210.758 69.206 210.5 69.26 210.236 69.26C210.14 69.26 210.062 69.224 210.002 69.152C209.954 69.08 209.93 68.996 209.93 68.9C209.978 68.384 210.014 67.736 210.038 66.956V65.804C210.038 64.388 209.966 63.212 209.822 62.276L211.496 63.032H216.752L217.076 62.618C217.112 62.582 217.16 62.522 217.22 62.438C217.292 62.354 217.352 62.294 217.4 62.258C217.448 62.21 217.496 62.186 217.544 62.186C217.616 62.186 217.778 62.276 218.03 62.456C218.294 62.624 218.534 62.81 218.75 63.014C218.966 63.218 219.074 63.362 219.074 63.446C218.93 63.626 218.678 63.752 218.318 63.824V65.408C218.342 66.692 218.378 67.712 218.426 68.468C218.354 68.576 218.18 68.69 217.904 68.81C217.628 68.918 217.382 68.972 217.166 68.972H216.95V68.144H214.808V70.646H217.436L217.85 70.052ZM216.95 63.554H211.388V67.604H216.95V63.554ZM233.96 67.352C233.996 67.292 234.044 67.22 234.104 67.136C234.176 67.04 234.23 66.968 234.266 66.92C234.314 66.872 234.362 66.848 234.41 66.848C234.482 66.848 234.65 66.95 234.914 67.154C235.19 67.358 235.442 67.574 235.67 67.802C235.91 68.03 236.03 68.186 236.03 68.27C235.97 68.354 235.868 68.438 235.724 68.522C235.58 68.594 235.418 68.648 235.238 68.684V76.496C235.238 76.904 235.19 77.234 235.094 77.486C234.998 77.738 234.8 77.942 234.5 78.098C234.2 78.266 233.756 78.38 233.168 78.44C233.108 77.936 232.976 77.582 232.772 77.378C232.484 77.126 231.974 76.946 231.242 76.838V76.568C232.466 76.652 233.198 76.694 233.438 76.694C233.594 76.694 233.696 76.67 233.744 76.622C233.804 76.562 233.834 76.46 233.834 76.316V73.994H227.426V75.326C227.45 76.394 227.486 77.246 227.534 77.882C227.462 78.014 227.312 78.14 227.084 78.26C226.868 78.38 226.604 78.44 226.292 78.44C226.172 78.44 226.064 78.404 225.968 78.332C225.884 78.26 225.842 78.176 225.842 78.08C225.89 77.372 225.932 76.688 225.968 76.028C226.004 75.356 226.028 74.48 226.04 73.4V69.206C224.888 70.478 223.604 71.504 222.188 72.284L222.008 72.05C223.112 71.21 224.102 70.208 224.978 69.044C225.854 67.868 226.604 66.602 227.228 65.246H225.194C224.342 65.258 223.442 65.342 222.494 65.498L222.044 64.58C222.704 64.652 223.502 64.7 224.438 64.724H227.48C227.696 64.244 227.882 63.722 228.038 63.158C228.194 62.582 228.29 62.078 228.326 61.646C229.73 62.09 230.432 62.39 230.432 62.546C230.432 62.594 230.372 62.636 230.252 62.672L229.91 62.78C229.694 63.356 229.412 64.004 229.064 64.724H235.256L235.688 64.112C235.736 64.04 235.802 63.95 235.886 63.842C235.97 63.722 236.036 63.638 236.084 63.59C236.144 63.53 236.198 63.5 236.246 63.5C236.318 63.5 236.492 63.608 236.768 63.824C237.056 64.028 237.32 64.25 237.56 64.49C237.8 64.718 237.92 64.874 237.92 64.958C237.884 65.15 237.734 65.246 237.47 65.246H228.812C228.38 66.086 227.87 66.902 227.282 67.694L227.624 67.838H233.654L233.96 67.352ZM233.834 70.646V68.36H227.426V70.646H233.834ZM227.426 71.15V73.472H233.834V71.15H227.426ZM250.664 64.13C250.94 64.97 251.486 65.66 252.302 66.2C253.118 66.74 254.348 67.148 255.992 67.424V67.658C255.644 67.718 255.386 67.826 255.218 67.982C255.05 68.138 254.942 68.39 254.894 68.738C254.186 68.546 253.562 68.312 253.022 68.036C253.226 68.204 253.406 68.372 253.562 68.54C253.718 68.708 253.796 68.828 253.796 68.9C253.736 68.972 253.646 69.038 253.526 69.098C253.406 69.158 253.274 69.2 253.13 69.224V71.276C253.154 72.692 253.202 74.03 253.274 75.29C253.19 75.398 253.004 75.512 252.716 75.632C252.44 75.752 252.194 75.812 251.978 75.812H251.744V75.11H244.616V75.65C244.616 75.734 244.49 75.83 244.238 75.938C243.986 76.046 243.728 76.1 243.464 76.1C243.356 76.1 243.272 76.064 243.212 75.992C243.152 75.92 243.122 75.836 243.122 75.74C243.17 75.068 243.212 74.156 243.248 73.004V71.438C243.248 69.926 243.17 68.696 243.014 67.748L244.724 68.504H251.6L251.906 68.054C251.942 68.006 252.002 67.922 252.086 67.802C252.182 67.682 252.266 67.616 252.338 67.604C251.798 67.208 251.372 66.758 251.06 66.254C250.76 65.738 250.538 65.162 250.394 64.526C250.058 65.57 249.44 66.374 248.54 66.938C247.652 67.49 246.434 67.898 244.886 68.162L244.796 67.892C246.092 67.508 247.076 67.028 247.748 66.452C248.42 65.864 248.864 65.09 249.08 64.13H247.424C246.668 64.862 245.864 65.408 245.012 65.768L244.832 65.57C245.048 65.402 245.258 65.21 245.462 64.994C245.858 64.574 246.212 64.046 246.524 63.41C246.836 62.762 247.022 62.18 247.082 61.664C248.45 62.024 249.134 62.276 249.134 62.42C249.134 62.456 249.086 62.486 248.99 62.51L248.684 62.582C248.456 62.942 248.198 63.284 247.91 63.608H253.526L253.85 63.212C253.886 63.176 253.934 63.122 253.994 63.05C254.066 62.966 254.126 62.906 254.174 62.87C254.222 62.834 254.27 62.816 254.318 62.816C254.39 62.816 254.534 62.912 254.75 63.104C254.966 63.296 255.17 63.506 255.362 63.734C255.554 63.95 255.65 64.1 255.65 64.184C255.554 64.28 255.332 64.34 254.984 64.364C254.732 64.592 254.402 64.85 253.994 65.138C253.586 65.426 253.202 65.672 252.842 65.876L252.608 65.732C252.86 65.384 253.154 64.85 253.49 64.13H250.664ZM243.554 64.886C243.374 64.466 243.062 64.016 242.618 63.536C242.174 63.056 241.724 62.654 241.268 62.33L241.412 62.168C242.18 62.252 242.81 62.414 243.302 62.654C243.806 62.882 244.166 63.14 244.382 63.428C244.61 63.716 244.724 63.998 244.724 64.274C244.724 64.49 244.658 64.67 244.526 64.814C244.406 64.946 244.244 65.012 244.04 65.012C243.872 65.012 243.71 64.97 243.554 64.886ZM241.394 68.324C241.322 68.552 241.196 68.702 241.016 68.774L240.188 67.046C241.436 66.818 243.332 66.386 245.876 65.75L245.93 66.002C244.406 66.842 242.894 67.616 241.394 68.324ZM244.616 70.52H251.744V69.008H244.616V70.52ZM244.616 72.518H251.744V71.024H244.616V72.518ZM244.616 74.588H251.744V73.04H244.616V74.588ZM247.01 76.1C247.466 76.376 247.694 76.568 247.694 76.676C247.694 76.748 247.592 76.784 247.388 76.784L246.956 76.766C246.188 77.138 245.228 77.474 244.076 77.774C242.936 78.086 241.802 78.302 240.674 78.422L240.584 78.152C241.364 77.948 242.258 77.624 243.266 77.18C243.83 76.928 244.364 76.634 244.868 76.298C245.372 75.962 245.792 75.614 246.128 75.254L247.01 76.1ZM248.972 75.884C250.448 75.956 251.636 76.1 252.536 76.316C253.448 76.52 254.096 76.754 254.48 77.018C254.864 77.282 255.056 77.54 255.056 77.792C255.056 77.972 254.978 78.116 254.822 78.224C254.666 78.344 254.48 78.404 254.264 78.404C254.024 78.404 253.79 78.326 253.562 78.17C253.07 77.798 252.428 77.432 251.636 77.072C250.844 76.712 249.938 76.4 248.918 76.136L248.972 75.884ZM262.868 65.552C262.916 65.48 262.97 65.396 263.03 65.3C263.102 65.192 263.162 65.114 263.21 65.066C263.258 65.018 263.306 64.994 263.354 64.994C263.426 64.994 263.576 65.09 263.804 65.282C264.032 65.474 264.242 65.678 264.434 65.894C264.626 66.11 264.722 66.26 264.722 66.344C264.686 66.536 264.536 66.632 264.272 66.632H261.878V68.108C262.682 68.432 263.27 68.81 263.642 69.242C264.026 69.662 264.218 70.058 264.218 70.43C264.218 70.646 264.158 70.826 264.038 70.97C263.93 71.102 263.792 71.168 263.624 71.168C263.444 71.168 263.27 71.09 263.102 70.934C263.03 70.586 262.88 70.196 262.652 69.764C262.424 69.332 262.166 68.918 261.878 68.522V73.67C261.902 75.158 261.95 76.568 262.022 77.9C261.95 78.032 261.794 78.158 261.554 78.278C261.314 78.41 261.08 78.476 260.852 78.476C260.72 78.476 260.606 78.44 260.51 78.368C260.426 78.296 260.384 78.212 260.384 78.116C260.432 77.408 260.474 76.724 260.51 76.064C260.546 75.392 260.57 74.516 260.582 73.436V70.412C259.91 71.948 259.07 73.28 258.062 74.408L257.846 74.174C258.986 72.278 259.808 69.764 260.312 66.632H259.556C259.148 66.644 258.728 66.728 258.296 66.884L257.864 65.948C258.368 66.02 258.98 66.068 259.7 66.092H260.582V65.39C260.582 63.878 260.504 62.648 260.348 61.7C261.092 61.892 261.608 62.054 261.896 62.186C262.196 62.306 262.346 62.408 262.346 62.492C262.346 62.552 262.292 62.612 262.184 62.672L261.878 62.87V66.092H262.508L262.868 65.552ZM266.432 65.84C265.784 66.884 264.98 67.778 264.02 68.522L263.768 68.342C264.356 67.586 264.908 66.656 265.424 65.552C265.676 65 265.904 64.346 266.108 63.59C266.312 62.834 266.426 62.21 266.45 61.718C267.782 62.174 268.448 62.486 268.448 62.654C268.448 62.69 268.394 62.732 268.286 62.78L267.944 62.906L267.638 63.626L267.44 64.094H270.878L271.256 63.698C271.316 63.65 271.4 63.572 271.508 63.464C271.616 63.344 271.706 63.284 271.778 63.284C271.85 63.284 271.994 63.38 272.21 63.572C272.426 63.752 272.624 63.95 272.804 64.166C272.996 64.37 273.092 64.514 273.092 64.598C273.032 64.682 272.942 64.742 272.822 64.778C272.714 64.802 272.552 64.82 272.336 64.832C271.664 66.26 270.806 67.502 269.762 68.558C270.986 69.362 272.456 69.986 274.172 70.43L274.136 70.61C273.536 70.802 273.188 71.216 273.092 71.852C272.588 71.648 272.15 71.45 271.778 71.258C272.414 71.714 272.732 72.02 272.732 72.176C272.732 72.26 272.672 72.32 272.552 72.356L272.228 72.464V74.282C272.264 75.818 272.306 77 272.354 77.828C272.282 77.936 272.126 78.038 271.886 78.134C271.646 78.23 271.376 78.278 271.076 78.278C270.884 78.278 270.788 78.158 270.788 77.918C270.788 77.918 270.812 77.798 270.86 77.558V77.198H266.648V78.044C266.648 78.104 266.54 78.182 266.324 78.278C266.108 78.374 265.85 78.422 265.55 78.422C265.442 78.422 265.346 78.386 265.262 78.314C265.19 78.242 265.154 78.158 265.154 78.062C265.202 77.438 265.238 76.82 265.262 76.208C265.298 75.584 265.322 74.804 265.334 73.868V71.582C264.65 71.882 263.918 72.152 263.138 72.392L262.994 72.122C265.07 71.234 266.822 70.052 268.25 68.576C267.614 67.856 267.008 66.944 266.432 65.84ZM267.17 64.634C267.002 64.97 266.84 65.24 266.684 65.444C267.296 66.416 268.016 67.232 268.844 67.892C269.648 66.944 270.32 65.858 270.86 64.634H267.17ZM266.828 71.834H270.806L271.4 71.06C270.5 70.592 269.678 70.004 268.934 69.296C267.974 70.148 266.918 70.838 265.766 71.366L266.828 71.834ZM266.648 72.356V76.658H270.86V72.356H266.648ZM292.856 70.16L284 79.034L275.126 70.16L284 61.286L292.856 70.16ZM275.882 70.16L284 78.26L292.1 70.16L284 62.06L275.882 70.16ZM75.9602 140.786C76.0082 140.738 76.0862 140.654 76.1942 140.534C76.3022 140.402 76.3922 140.336 76.4642 140.336C76.5362 140.336 76.6922 140.444 76.9322 140.66C77.1722 140.876 77.3942 141.104 77.5982 141.344C77.8142 141.584 77.9222 141.746 77.9222 141.83C77.8022 141.95 77.5802 142.016 77.2562 142.028C76.9562 142.364 76.5602 142.736 76.0682 143.144C75.5762 143.54 75.1262 143.864 74.7182 144.116L74.5202 143.99C74.9522 143.198 75.3062 142.448 75.5822 141.74H64.7282C64.7522 142.328 64.6742 142.838 64.4942 143.27C64.3262 143.702 64.0982 144.014 63.8102 144.206C63.5822 144.374 63.3482 144.458 63.1082 144.458C62.7842 144.458 62.5742 144.332 62.4782 144.08C62.4422 143.984 62.4242 143.888 62.4242 143.792C62.4242 143.636 62.4722 143.486 62.5682 143.342C62.6642 143.186 62.7962 143.06 62.9642 142.964C63.3122 142.736 63.6062 142.358 63.8462 141.83C64.0862 141.302 64.1882 140.75 64.1522 140.174L64.4402 140.156C64.5722 140.552 64.6562 140.906 64.6922 141.218H72.0722L72.6842 140.246C72.9842 139.718 73.2662 139.136 73.5302 138.5C73.8062 137.864 74.0042 137.306 74.1242 136.826C75.4922 137.366 76.1762 137.714 76.1762 137.87C76.1762 137.906 76.1222 137.948 76.0142 137.996L75.6902 138.104C75.3062 138.584 74.8322 139.112 74.2682 139.688C73.7042 140.252 73.1402 140.762 72.5762 141.218H75.5822L75.9602 140.786ZM68.5982 136.898C69.3902 137.27 69.9662 137.69 70.3262 138.158C70.6862 138.626 70.8662 139.076 70.8662 139.508C70.8662 139.796 70.7942 140.036 70.6502 140.228C70.5062 140.42 70.3262 140.516 70.1102 140.516C69.9062 140.516 69.7022 140.414 69.4982 140.21C69.4982 139.694 69.3902 139.142 69.1742 138.554C68.9702 137.966 68.7122 137.45 68.4002 137.006L68.5982 136.898ZM64.6022 137.222C65.5142 137.546 66.1802 137.948 66.6002 138.428C67.0322 138.896 67.2482 139.352 67.2482 139.796C67.2482 140.06 67.1762 140.276 67.0322 140.444C66.9002 140.612 66.7322 140.696 66.5282 140.696C66.3242 140.696 66.1322 140.612 65.9522 140.444C65.9162 139.94 65.7482 139.406 65.4482 138.842C65.1602 138.266 64.8182 137.768 64.4222 137.348L64.6022 137.222ZM75.3842 144.908C75.4322 144.848 75.4922 144.764 75.5642 144.656C75.6482 144.536 75.7142 144.452 75.7622 144.404C75.8222 144.344 75.8762 144.314 75.9242 144.314C75.9962 144.314 76.1642 144.416 76.4282 144.62C76.6922 144.824 76.9382 145.04 77.1662 145.268C77.4062 145.496 77.5262 145.652 77.5262 145.736C77.5022 145.832 77.4482 145.904 77.3642 145.952C77.2802 146 77.1782 146.024 77.0582 146.024H71.1722C71.8442 147.14 72.8042 148.148 74.0522 149.048C75.3002 149.948 76.6082 150.644 77.9762 151.136L77.9402 151.316C77.6642 151.352 77.4242 151.472 77.2202 151.676C77.0162 151.88 76.8662 152.15 76.7702 152.486C75.4382 151.754 74.2442 150.842 73.1882 149.75C72.1442 148.646 71.3402 147.404 70.7762 146.024H70.7402V148.67C70.7642 150.158 70.8122 151.568 70.8842 152.9C70.8122 153.032 70.6442 153.158 70.3802 153.278C70.1282 153.398 69.8702 153.458 69.6062 153.458C69.4862 153.458 69.3842 153.422 69.3002 153.35C69.2282 153.278 69.1922 153.194 69.1922 153.098C69.2762 151.922 69.3302 150.614 69.3542 149.174V147.014C68.5622 148.202 67.5782 149.276 66.4022 150.236C65.2262 151.184 63.8882 151.994 62.3882 152.666L62.2262 152.396C63.4982 151.628 64.6622 150.686 65.7182 149.57C66.7742 148.442 67.6202 147.26 68.2562 146.024H65.8442C64.9922 146.036 64.0922 146.12 63.1442 146.276L62.6762 145.358C63.3362 145.43 64.1342 145.478 65.0702 145.502H69.3542C69.3542 144.146 69.2822 143.018 69.1382 142.118C69.9062 142.322 70.4402 142.49 70.7402 142.622C71.0522 142.742 71.2082 142.844 71.2082 142.928C71.2082 142.976 71.1542 143.03 71.0462 143.09L70.7402 143.288V145.502H74.9702L75.3842 144.908ZM93.8522 142.478C93.9002 142.418 93.9602 142.34 94.0322 142.244C94.1162 142.136 94.1822 142.058 94.2302 142.01C94.2782 141.962 94.3262 141.938 94.3742 141.938C94.4462 141.938 94.6082 142.034 94.8602 142.226C95.1242 142.406 95.3642 142.604 95.5802 142.82C95.8082 143.024 95.9222 143.168 95.9222 143.252C95.8742 143.444 95.7242 143.54 95.4722 143.54H91.1522C91.7162 144.152 92.4602 144.698 93.3842 145.178C94.3202 145.658 95.2862 146.03 96.2822 146.294L96.2642 146.492C95.7482 146.612 95.4002 147.008 95.2202 147.68C94.2362 147.212 93.3482 146.63 92.5562 145.934L92.3942 145.97V147.158L92.4122 147.896C92.4242 148.436 92.4482 148.952 92.4842 149.444C92.4242 149.54 92.2622 149.642 91.9982 149.75C91.7342 149.846 91.4942 149.894 91.2782 149.894H91.0622V149.354H88.2722C88.9082 150.074 89.7782 150.638 90.8822 151.046C91.2902 150.734 91.7042 150.356 92.1242 149.912C92.5562 149.456 92.9042 149.042 93.1682 148.67C94.0562 149.354 94.5002 149.768 94.5002 149.912C94.5002 149.972 94.4402 150.002 94.3202 150.002H94.0142C93.3902 150.374 92.5322 150.788 91.4402 151.244C92.6522 151.628 94.1462 151.868 95.9222 151.964V152.162C95.3942 152.33 95.0642 152.744 94.9322 153.404C93.1442 153.092 91.6682 152.624 90.5042 152C89.3522 151.388 88.4522 150.506 87.8042 149.354H85.1222V151.46C86.7782 151.292 88.1042 151.148 89.1002 151.028L89.1362 151.298C87.2522 151.874 85.0922 152.468 82.6562 153.08C82.5722 153.296 82.4282 153.428 82.2242 153.476L81.4502 151.784C82.3502 151.724 83.1302 151.658 83.7902 151.586V146.078C82.7342 146.882 81.4982 147.566 80.0822 148.13L79.9202 147.842C80.8562 147.302 81.7202 146.66 82.5122 145.916C83.3042 145.16 83.9582 144.368 84.4742 143.54H83.1242C82.3442 143.552 81.5282 143.636 80.6762 143.792L80.2082 142.874C80.8682 142.946 81.6662 142.994 82.6022 143.018H87.3542V141.614H84.6902C83.8382 141.626 82.9382 141.71 81.9902 141.866L81.5042 140.948C82.1642 141.02 82.9622 141.068 83.8982 141.092H87.3542V139.742H83.8262C82.9742 139.754 82.0742 139.838 81.1262 139.994L80.6762 139.076C81.3362 139.148 82.1342 139.196 83.0702 139.22H85.5722L85.5362 139.202C85.4282 138.842 85.2302 138.452 84.9422 138.032C84.6542 137.612 84.3542 137.264 84.0422 136.988L84.2222 136.844C85.0622 136.976 85.6802 137.21 86.0762 137.546C86.4842 137.882 86.6882 138.236 86.6882 138.608C86.6882 138.86 86.5982 139.064 86.4182 139.22H89.2262C89.4302 138.812 89.6162 138.374 89.7842 137.906C89.9522 137.426 90.0662 137.012 90.1262 136.664C91.3742 137.084 91.9982 137.366 91.9982 137.51C91.9982 137.558 91.9442 137.6 91.8362 137.636L91.5122 137.744C91.0802 138.188 90.5042 138.68 89.7842 139.22H93.0962L93.4922 138.698C93.5402 138.638 93.6002 138.56 93.6722 138.464C93.7562 138.356 93.8222 138.278 93.8702 138.23C93.9182 138.182 93.9662 138.158 94.0142 138.158C94.0862 138.158 94.2482 138.248 94.5002 138.428C94.7522 138.608 94.9862 138.806 95.2022 139.022C95.4302 139.226 95.5442 139.37 95.5442 139.454C95.4962 139.646 95.3402 139.742 95.0762 139.742H88.7222V141.092H92.3222L92.6822 140.606C92.7182 140.558 92.7722 140.486 92.8442 140.39C92.9162 140.294 92.9762 140.222 93.0242 140.174C93.0842 140.126 93.1382 140.102 93.1862 140.102C93.2582 140.102 93.4142 140.186 93.6542 140.354C93.8942 140.522 94.1162 140.708 94.3202 140.912C94.5362 141.104 94.6442 141.242 94.6442 141.326C94.6082 141.518 94.4582 141.614 94.1942 141.614H88.7222V143.018H93.4562L93.8522 142.478ZM87.4082 145.34C87.4082 144.692 87.3782 144.182 87.3182 143.81C88.4822 144.146 89.0642 144.392 89.0642 144.548C89.0642 144.596 89.0282 144.644 88.9562 144.692L88.7222 144.854V145.34H90.9182L91.4402 144.764C91.0922 144.284 90.8342 143.876 90.6662 143.54H86.1842C85.8602 144.056 85.4222 144.59 84.8702 145.142L85.3382 145.34H87.4082ZM91.0622 145.844H85.1222V147.086H91.0622V145.844ZM85.1222 147.59V148.85H91.0622V147.59H85.1222ZM110.772 151.388C110.808 151.328 110.868 151.238 110.952 151.118C111.048 150.986 111.126 150.89 111.186 150.83C111.246 150.77 111.3 150.74 111.348 150.74C111.42 150.74 111.6 150.854 111.888 151.082C112.188 151.298 112.464 151.532 112.716 151.784C112.98 152.024 113.112 152.186 113.112 152.27C113.064 152.462 112.902 152.558 112.626 152.558H102.168C101.316 152.57 100.416 152.654 99.4682 152.81L98.9822 151.874C99.6422 151.946 100.44 151.994 101.376 152.018H105.318V143.81H101.196C100.344 143.822 99.4442 143.906 98.4962 144.062L98.0282 143.144C98.6882 143.216 99.4862 143.264 100.422 143.288H105.318V140.732C105.318 139.22 105.24 137.99 105.084 137.042C105.912 137.246 106.482 137.408 106.794 137.528C107.106 137.648 107.262 137.75 107.262 137.834C107.262 137.894 107.214 137.954 107.118 138.014L106.812 138.23V143.288H111.24L111.69 142.64C111.726 142.58 111.786 142.49 111.87 142.37C111.966 142.238 112.044 142.142 112.104 142.082C112.164 142.022 112.218 141.992 112.266 141.992C112.338 141.992 112.518 142.106 112.806 142.334C113.106 142.55 113.382 142.784 113.634 143.036C113.886 143.276 114.012 143.438 114.012 143.522C113.964 143.714 113.808 143.81 113.544 143.81H106.812V152.018H110.322L110.772 151.388ZM125.62 153.854C125.572 153.854 125.518 153.836 125.458 153.8C124.258 152.804 123.262 151.55 122.47 150.038C121.678 148.514 121.282 146.888 121.282 145.16C121.282 143.432 121.678 141.806 122.47 140.282C123.262 138.758 124.258 137.504 125.458 136.52C125.518 136.484 125.572 136.466 125.62 136.466C125.68 136.466 125.728 136.49 125.764 136.538C125.812 136.574 125.836 136.616 125.836 136.664C125.836 136.712 125.818 136.754 125.782 136.79C124.954 137.738 124.3 138.968 123.82 140.48C123.352 141.992 123.118 143.552 123.118 145.16C123.118 146.768 123.352 148.328 123.82 149.84C124.3 151.34 124.954 152.57 125.782 153.53C125.818 153.566 125.836 153.608 125.836 153.656C125.836 153.716 125.812 153.764 125.764 153.8C125.728 153.836 125.68 153.854 125.62 153.854ZM134.348 152.882C134.348 152.99 134.234 153.11 134.006 153.242C133.778 153.374 133.526 153.44 133.25 153.44C133.13 153.44 133.022 153.404 132.926 153.332C132.842 153.26 132.8 153.176 132.8 153.08C132.848 152.372 132.89 151.688 132.926 151.028C132.962 150.356 132.986 149.48 132.998 148.4V140.876C132.998 139.364 132.92 138.134 132.764 137.186L134.492 137.996H145.436L145.76 137.564C145.796 137.516 145.844 137.45 145.904 137.366C145.976 137.282 146.036 137.222 146.084 137.186C146.132 137.138 146.18 137.114 146.228 137.114C146.3 137.114 146.456 137.204 146.696 137.384C146.948 137.564 147.182 137.762 147.398 137.978C147.614 138.182 147.722 138.326 147.722 138.41C147.602 138.578 147.362 138.698 147.002 138.77V148.508C147.026 149.996 147.074 151.406 147.146 152.738C147.062 152.87 146.876 153.002 146.588 153.134C146.312 153.278 146.06 153.35 145.832 153.35C145.64 153.35 145.544 153.23 145.544 152.99C145.544 152.966 145.568 152.816 145.616 152.54V152.126H134.348V152.882ZM134.348 138.518V151.604H145.616V138.518H134.348ZM142.484 143.99C142.52 143.942 142.568 143.87 142.628 143.774C142.7 143.666 142.76 143.588 142.808 143.54C142.856 143.492 142.904 143.468 142.952 143.468C143.024 143.468 143.168 143.558 143.384 143.738C143.612 143.906 143.816 144.092 143.996 144.296C144.188 144.5 144.284 144.644 144.284 144.728C144.248 144.92 144.104 145.016 143.852 145.016H140.54V149.03H142.88L143.24 148.49C143.276 148.442 143.33 148.37 143.402 148.274C143.474 148.166 143.534 148.088 143.582 148.04C143.642 147.98 143.696 147.95 143.744 147.95C143.816 147.95 143.966 148.046 144.194 148.238C144.434 148.418 144.65 148.616 144.842 148.832C145.046 149.036 145.148 149.18 145.148 149.264C145.1 149.456 144.95 149.552 144.698 149.552H138.11C137.258 149.564 136.358 149.648 135.41 149.804L134.942 148.886C135.602 148.958 136.4 149.006 137.336 149.03H139.226V145.016H138.2C137.624 145.028 137.024 145.112 136.4 145.268L135.932 144.35C136.544 144.422 137.288 144.47 138.164 144.494H139.226V141.236H137.984C137.264 141.248 136.508 141.332 135.716 141.488L135.266 140.552C135.926 140.624 136.724 140.672 137.66 140.696H142.484L142.844 140.174C142.892 140.114 142.94 140.042 142.988 139.958C143.048 139.874 143.108 139.802 143.168 139.742C143.228 139.682 143.282 139.652 143.33 139.652C143.402 139.652 143.552 139.742 143.78 139.922C144.02 140.102 144.242 140.3 144.446 140.516C144.65 140.72 144.752 140.864 144.752 140.948C144.704 141.14 144.554 141.236 144.302 141.236H140.54V144.494H142.142L142.484 143.99ZM141.566 145.466C142.298 145.706 142.838 146.006 143.186 146.366C143.534 146.714 143.708 147.056 143.708 147.392C143.708 147.584 143.654 147.746 143.546 147.878C143.438 148.01 143.3 148.076 143.132 148.076C142.964 148.076 142.796 148.01 142.628 147.878C142.58 147.518 142.43 147.122 142.178 146.69C141.938 146.258 141.674 145.892 141.386 145.592L141.566 145.466ZM163.994 138.716C164.042 138.668 164.114 138.584 164.21 138.464C164.318 138.344 164.408 138.284 164.48 138.284C164.552 138.284 164.702 138.392 164.93 138.608C165.158 138.812 165.374 139.034 165.578 139.274C165.782 139.502 165.884 139.658 165.884 139.742C165.812 139.814 165.728 139.862 165.632 139.886C165.548 139.898 165.41 139.91 165.218 139.922C164.954 140.186 164.624 140.468 164.228 140.768C163.832 141.068 163.454 141.32 163.094 141.524L163.4 141.794L163.706 142.064C163.694 142.148 163.64 142.214 163.544 142.262C163.46 142.31 163.358 142.334 163.238 142.334H159.134C159.494 143.774 160.016 145.052 160.7 146.168C161.048 145.856 161.216 145.706 161.204 145.718C161.66 145.262 162.092 144.776 162.5 144.26C162.92 143.732 163.226 143.252 163.418 142.82C164.546 143.588 165.11 144.05 165.11 144.206C165.11 144.266 165.056 144.296 164.948 144.296L164.624 144.314C164.192 144.674 163.64 145.058 162.968 145.466C162.308 145.862 161.63 146.222 160.934 146.546C162.206 148.478 163.892 149.93 165.992 150.902L165.956 151.064C165.644 151.088 165.362 151.202 165.11 151.406C164.87 151.598 164.684 151.868 164.552 152.216C163.016 151.208 161.768 149.9 160.808 148.292C159.86 146.672 159.194 144.686 158.81 142.334H158.54C157.94 142.886 157.286 143.366 156.578 143.774C157.586 144.578 158.336 145.55 158.828 146.69C159.32 147.83 159.566 148.958 159.566 150.074C159.566 150.662 159.5 151.202 159.368 151.694C159.236 152.174 159.05 152.552 158.81 152.828C158.438 153.26 157.736 153.476 156.704 153.476C156.692 153.068 156.572 152.762 156.344 152.558C156.224 152.462 156.026 152.366 155.75 152.27C155.474 152.174 155.18 152.102 154.868 152.054L154.85 151.766C155.258 151.802 155.678 151.838 156.11 151.874C156.542 151.898 156.902 151.91 157.19 151.91C157.442 151.91 157.61 151.85 157.694 151.73C157.85 151.526 157.97 151.232 158.054 150.848C158.15 150.452 158.198 150.002 158.198 149.498C158.198 149.318 158.186 149.036 158.162 148.652C157.106 149.456 155.864 150.188 154.436 150.848C153.008 151.508 151.556 152.012 150.08 152.36L149.972 152.072C151.484 151.556 152.954 150.83 154.382 149.894C155.81 148.958 156.95 147.962 157.802 146.906C157.73 146.642 157.622 146.342 157.478 146.006C156.59 146.642 155.534 147.254 154.31 147.842C153.086 148.418 151.874 148.874 150.674 149.21L150.548 148.922C151.688 148.454 152.834 147.83 153.986 147.05C155.138 146.27 156.074 145.484 156.794 144.692C156.65 144.464 156.47 144.224 156.254 143.972C154.754 144.836 152.96 145.55 150.872 146.114L150.746 145.826C151.826 145.406 152.87 144.89 153.878 144.278C154.886 143.654 155.756 143.006 156.488 142.334H155.192C154.448 142.346 153.668 142.43 152.852 142.586L152.402 141.686C153.062 141.758 153.86 141.806 154.796 141.83H161.24L162.104 140.696L162.842 141.308C163.19 140.636 163.448 140.09 163.616 139.67H152.6C152.6 140.234 152.504 140.726 152.312 141.146C152.132 141.554 151.904 141.86 151.628 142.064C151.424 142.22 151.178 142.298 150.89 142.298C150.566 142.298 150.35 142.178 150.242 141.938C150.206 141.83 150.188 141.728 150.188 141.632C150.188 141.464 150.236 141.308 150.332 141.164C150.428 141.008 150.56 140.882 150.728 140.786C151.1 140.558 151.418 140.186 151.682 139.67C151.958 139.142 152.084 138.59 152.06 138.014H152.33C152.426 138.326 152.51 138.698 152.582 139.13H157.28C157.28 138.146 157.232 137.366 157.136 136.79C158.48 137.126 159.152 137.384 159.152 137.564C159.152 137.612 159.098 137.666 158.99 137.726L158.684 137.924V139.13H163.634L163.994 138.716ZM178.664 139.13C178.94 139.97 179.486 140.66 180.302 141.2C181.118 141.74 182.348 142.148 183.992 142.424V142.658C183.644 142.718 183.386 142.826 183.218 142.982C183.05 143.138 182.942 143.39 182.894 143.738C182.186 143.546 181.562 143.312 181.022 143.036C181.226 143.204 181.406 143.372 181.562 143.54C181.718 143.708 181.796 143.828 181.796 143.9C181.736 143.972 181.646 144.038 181.526 144.098C181.406 144.158 181.274 144.2 181.13 144.224V146.276C181.154 147.692 181.202 149.03 181.274 150.29C181.19 150.398 181.004 150.512 180.716 150.632C180.44 150.752 180.194 150.812 179.978 150.812H179.744V150.11H172.616V150.65C172.616 150.734 172.49 150.83 172.238 150.938C171.986 151.046 171.728 151.1 171.464 151.1C171.356 151.1 171.272 151.064 171.212 150.992C171.152 150.92 171.122 150.836 171.122 150.74C171.17 150.068 171.212 149.156 171.248 148.004V146.438C171.248 144.926 171.17 143.696 171.014 142.748L172.724 143.504H179.6L179.906 143.054C179.942 143.006 180.002 142.922 180.086 142.802C180.182 142.682 180.266 142.616 180.338 142.604C179.798 142.208 179.372 141.758 179.06 141.254C178.76 140.738 178.538 140.162 178.394 139.526C178.058 140.57 177.44 141.374 176.54 141.938C175.652 142.49 174.434 142.898 172.886 143.162L172.796 142.892C174.092 142.508 175.076 142.028 175.748 141.452C176.42 140.864 176.864 140.09 177.08 139.13H175.424C174.668 139.862 173.864 140.408 173.012 140.768L172.832 140.57C173.048 140.402 173.258 140.21 173.462 139.994C173.858 139.574 174.212 139.046 174.524 138.41C174.836 137.762 175.022 137.18 175.082 136.664C176.45 137.024 177.134 137.276 177.134 137.42C177.134 137.456 177.086 137.486 176.99 137.51L176.684 137.582C176.456 137.942 176.198 138.284 175.91 138.608H181.526L181.85 138.212C181.886 138.176 181.934 138.122 181.994 138.05C182.066 137.966 182.126 137.906 182.174 137.87C182.222 137.834 182.27 137.816 182.318 137.816C182.39 137.816 182.534 137.912 182.75 138.104C182.966 138.296 183.17 138.506 183.362 138.734C183.554 138.95 183.65 139.1 183.65 139.184C183.554 139.28 183.332 139.34 182.984 139.364C182.732 139.592 182.402 139.85 181.994 140.138C181.586 140.426 181.202 140.672 180.842 140.876L180.608 140.732C180.86 140.384 181.154 139.85 181.49 139.13H178.664ZM171.554 139.886C171.374 139.466 171.062 139.016 170.618 138.536C170.174 138.056 169.724 137.654 169.268 137.33L169.412 137.168C170.18 137.252 170.81 137.414 171.302 137.654C171.806 137.882 172.166 138.14 172.382 138.428C172.61 138.716 172.724 138.998 172.724 139.274C172.724 139.49 172.658 139.67 172.526 139.814C172.406 139.946 172.244 140.012 172.04 140.012C171.872 140.012 171.71 139.97 171.554 139.886ZM169.394 143.324C169.322 143.552 169.196 143.702 169.016 143.774L168.188 142.046C169.436 141.818 171.332 141.386 173.876 140.75L173.93 141.002C172.406 141.842 170.894 142.616 169.394 143.324ZM172.616 145.52H179.744V144.008H172.616V145.52ZM172.616 147.518H179.744V146.024H172.616V147.518ZM172.616 149.588H179.744V148.04H172.616V149.588ZM175.01 151.1C175.466 151.376 175.694 151.568 175.694 151.676C175.694 151.748 175.592 151.784 175.388 151.784L174.956 151.766C174.188 152.138 173.228 152.474 172.076 152.774C170.936 153.086 169.802 153.302 168.674 153.422L168.584 153.152C169.364 152.948 170.258 152.624 171.266 152.18C171.83 151.928 172.364 151.634 172.868 151.298C173.372 150.962 173.792 150.614 174.128 150.254L175.01 151.1ZM176.972 150.884C178.448 150.956 179.636 151.1 180.536 151.316C181.448 151.52 182.096 151.754 182.48 152.018C182.864 152.282 183.056 152.54 183.056 152.792C183.056 152.972 182.978 153.116 182.822 153.224C182.666 153.344 182.48 153.404 182.264 153.404C182.024 153.404 181.79 153.326 181.562 153.17C181.07 152.798 180.428 152.432 179.636 152.072C178.844 151.712 177.938 151.4 176.918 151.136L176.972 150.884ZM190.868 140.552C190.916 140.48 190.97 140.396 191.03 140.3C191.102 140.192 191.162 140.114 191.21 140.066C191.258 140.018 191.306 139.994 191.354 139.994C191.426 139.994 191.576 140.09 191.804 140.282C192.032 140.474 192.242 140.678 192.434 140.894C192.626 141.11 192.722 141.26 192.722 141.344C192.686 141.536 192.536 141.632 192.272 141.632H189.878V143.108C190.682 143.432 191.27 143.81 191.642 144.242C192.026 144.662 192.218 145.058 192.218 145.43C192.218 145.646 192.158 145.826 192.038 145.97C191.93 146.102 191.792 146.168 191.624 146.168C191.444 146.168 191.27 146.09 191.102 145.934C191.03 145.586 190.88 145.196 190.652 144.764C190.424 144.332 190.166 143.918 189.878 143.522V148.67C189.902 150.158 189.95 151.568 190.022 152.9C189.95 153.032 189.794 153.158 189.554 153.278C189.314 153.41 189.08 153.476 188.852 153.476C188.72 153.476 188.606 153.44 188.51 153.368C188.426 153.296 188.384 153.212 188.384 153.116C188.432 152.408 188.474 151.724 188.51 151.064C188.546 150.392 188.57 149.516 188.582 148.436V145.412C187.91 146.948 187.07 148.28 186.062 149.408L185.846 149.174C186.986 147.278 187.808 144.764 188.312 141.632H187.556C187.148 141.644 186.728 141.728 186.296 141.884L185.864 140.948C186.368 141.02 186.98 141.068 187.7 141.092H188.582V140.39C188.582 138.878 188.504 137.648 188.348 136.7C189.092 136.892 189.608 137.054 189.896 137.186C190.196 137.306 190.346 137.408 190.346 137.492C190.346 137.552 190.292 137.612 190.184 137.672L189.878 137.87V141.092H190.508L190.868 140.552ZM194.432 140.84C193.784 141.884 192.98 142.778 192.02 143.522L191.768 143.342C192.356 142.586 192.908 141.656 193.424 140.552C193.676 140 193.904 139.346 194.108 138.59C194.312 137.834 194.426 137.21 194.45 136.718C195.782 137.174 196.448 137.486 196.448 137.654C196.448 137.69 196.394 137.732 196.286 137.78L195.944 137.906L195.638 138.626L195.44 139.094H198.878L199.256 138.698C199.316 138.65 199.4 138.572 199.508 138.464C199.616 138.344 199.706 138.284 199.778 138.284C199.85 138.284 199.994 138.38 200.21 138.572C200.426 138.752 200.624 138.95 200.804 139.166C200.996 139.37 201.092 139.514 201.092 139.598C201.032 139.682 200.942 139.742 200.822 139.778C200.714 139.802 200.552 139.82 200.336 139.832C199.664 141.26 198.806 142.502 197.762 143.558C198.986 144.362 200.456 144.986 202.172 145.43L202.136 145.61C201.536 145.802 201.188 146.216 201.092 146.852C200.588 146.648 200.15 146.45 199.778 146.258C200.414 146.714 200.732 147.02 200.732 147.176C200.732 147.26 200.672 147.32 200.552 147.356L200.228 147.464V149.282C200.264 150.818 200.306 152 200.354 152.828C200.282 152.936 200.126 153.038 199.886 153.134C199.646 153.23 199.376 153.278 199.076 153.278C198.884 153.278 198.788 153.158 198.788 152.918C198.788 152.918 198.812 152.798 198.86 152.558V152.198H194.648V153.044C194.648 153.104 194.54 153.182 194.324 153.278C194.108 153.374 193.85 153.422 193.55 153.422C193.442 153.422 193.346 153.386 193.262 153.314C193.19 153.242 193.154 153.158 193.154 153.062C193.202 152.438 193.238 151.82 193.262 151.208C193.298 150.584 193.322 149.804 193.334 148.868V146.582C192.65 146.882 191.918 147.152 191.138 147.392L190.994 147.122C193.07 146.234 194.822 145.052 196.25 143.576C195.614 142.856 195.008 141.944 194.432 140.84ZM195.17 139.634C195.002 139.97 194.84 140.24 194.684 140.444C195.296 141.416 196.016 142.232 196.844 142.892C197.648 141.944 198.32 140.858 198.86 139.634H195.17ZM194.828 146.834H198.806L199.4 146.06C198.5 145.592 197.678 145.004 196.934 144.296C195.974 145.148 194.918 145.838 193.766 146.366L194.828 146.834ZM194.648 147.356V151.658H198.86V147.356H194.648ZM208.379 153.854C208.319 153.854 208.265 153.836 208.217 153.8C208.181 153.764 208.163 153.716 208.163 153.656C208.163 153.608 208.181 153.566 208.217 153.53C209.057 152.57 209.711 151.34 210.179 149.84C210.647 148.34 210.881 146.78 210.881 145.16C210.881 143.54 210.647 141.98 210.179 140.48C209.711 138.968 209.057 137.738 208.217 136.79C208.181 136.754 208.163 136.712 208.163 136.664C208.163 136.616 208.181 136.574 208.217 136.538C208.265 136.49 208.319 136.466 208.379 136.466C208.427 136.466 208.481 136.484 208.541 136.52C209.741 137.504 210.737 138.758 211.529 140.282C212.321 141.806 212.717 143.432 212.717 145.16C212.717 146.888 212.321 148.514 211.529 150.038C210.737 151.55 209.741 152.804 208.541 153.8C208.481 153.836 208.427 153.854 208.379 153.854ZM222.616 152.684C222.208 152 221.824 151.418 221.464 150.938C221.116 150.458 220.714 150.032 220.258 149.66C220.21 149.624 220.144 149.576 220.06 149.516C219.976 149.456 219.934 149.408 219.934 149.372C219.934 149.312 219.982 149.282 220.078 149.282C220.162 149.282 220.27 149.3 220.402 149.336C220.798 149.432 221.308 149.63 221.932 149.93C222.556 150.23 223.102 150.596 223.57 151.028C224.05 151.448 224.29 151.886 224.29 152.342C224.29 152.666 224.2 152.912 224.02 153.08C223.852 153.248 223.666 153.332 223.462 153.332C223.15 153.332 222.868 153.116 222.616 152.684ZM239.878 152.18C239.794 152.18 239.752 152.15 239.752 152.09C239.752 152.018 239.872 151.916 240.112 151.784C242.272 150.668 244.066 149.372 245.494 147.896C246.934 146.408 247.996 145.034 248.68 143.774C249.364 142.514 249.718 141.674 249.742 141.254C249.742 141.158 249.688 141.11 249.58 141.11C249.472 141.11 248.974 141.17 248.086 141.29C247.21 141.41 246.268 141.566 245.26 141.758C244.264 141.95 243.43 142.148 242.758 142.352C242.494 142.436 242.248 142.478 242.02 142.478C241.648 142.478 241.324 142.37 241.048 142.154C240.832 141.974 240.646 141.728 240.49 141.416C240.334 141.104 240.256 140.852 240.256 140.66C240.256 140.528 240.31 140.462 240.418 140.462C240.526 140.462 240.664 140.51 240.832 140.606C241.096 140.714 241.318 140.786 241.498 140.822C241.678 140.858 241.876 140.876 242.092 140.876C242.464 140.876 243.544 140.804 245.332 140.66C247.132 140.516 248.224 140.39 248.608 140.282C248.824 140.222 249.04 140.138 249.256 140.03C249.688 139.862 249.964 139.778 250.084 139.778C250.216 139.778 250.432 139.874 250.732 140.066C251.032 140.258 251.302 140.48 251.542 140.732C251.782 140.984 251.902 141.194 251.902 141.362C251.902 141.494 251.866 141.614 251.794 141.722C251.722 141.83 251.602 141.974 251.434 142.154C251.122 142.49 250.9 142.784 250.768 143.036C249.964 144.608 249.052 145.946 248.032 147.05C247.012 148.154 245.878 149.09 244.63 149.858C243.382 150.626 241.9 151.37 240.184 152.09C240.04 152.15 239.938 152.18 239.878 152.18ZM258.292 146.636C258.136 146.636 257.998 146.624 257.878 146.6C257.77 146.564 257.65 146.498 257.518 146.402C257.302 146.27 257.098 146.084 256.906 145.844C256.726 145.592 256.636 145.34 256.636 145.088C256.636 144.944 256.666 144.782 256.726 144.602C256.798 144.422 256.876 144.332 256.96 144.332C257.008 144.332 257.068 144.38 257.14 144.476C257.296 144.668 257.47 144.782 257.662 144.818C258.082 144.95 258.604 145.016 259.228 145.016C259.756 145.004 260.524 144.98 261.532 144.944C262.552 144.908 263.416 144.878 264.124 144.854L267.868 144.674C268.48 144.626 269.014 144.602 269.47 144.602C269.986 144.602 270.4 144.656 270.712 144.764C271.024 144.86 271.18 145.064 271.18 145.376C271.18 145.568 271.084 145.718 270.892 145.826C270.712 145.922 270.466 145.982 270.154 146.006C269.962 146.03 269.602 146.042 269.074 146.042C268.51 146.054 267.706 146.072 266.662 146.096C265.618 146.108 264.742 146.126 264.034 146.15C263.146 146.174 262.192 146.222 261.172 146.294C260.152 146.354 259.456 146.426 259.084 146.51C258.688 146.594 258.424 146.636 258.292 146.636ZM285.85 137.672C286.15 137.672 286.522 137.738 286.966 137.87C287.422 138.002 287.818 138.2 288.154 138.464C288.49 138.728 288.658 139.052 288.658 139.436C288.658 139.664 288.592 139.838 288.46 139.958C288.328 140.066 288.184 140.12 288.028 140.12C287.728 140.12 287.494 139.958 287.326 139.634C287.122 139.25 286.936 138.962 286.768 138.77C286.612 138.566 286.378 138.368 286.066 138.176C285.97 138.116 285.88 138.068 285.796 138.032C285.724 137.984 285.664 137.942 285.616 137.906C285.568 137.87 285.544 137.834 285.544 137.798C285.544 137.714 285.646 137.672 285.85 137.672ZM281.188 143.324C282.448 143.528 283.57 143.87 284.554 144.35C285.55 144.83 286.048 145.442 286.048 146.186C286.048 146.414 285.988 146.606 285.868 146.762C285.748 146.918 285.598 146.996 285.418 146.996C285.058 146.996 284.62 146.678 284.104 146.042C283.252 144.962 282.28 144.176 281.188 143.684V143.954V146.888C281.212 148.784 281.248 149.9 281.296 150.236C281.416 150.86 281.476 151.292 281.476 151.532C281.476 151.856 281.386 152.12 281.206 152.324C281.038 152.528 280.87 152.63 280.702 152.63C280.51 152.63 280.33 152.486 280.162 152.198C279.994 151.91 279.856 151.58 279.748 151.208C279.652 150.836 279.604 150.566 279.604 150.398C279.604 150.266 279.622 150.092 279.658 149.876C279.73 149.408 279.778 149.018 279.802 148.706C279.838 148.262 279.874 147.458 279.91 146.294C279.91 146.054 279.922 145.682 279.946 145.178C279.97 144.41 279.982 143.288 279.982 141.812C279.982 140.636 279.952 139.862 279.892 139.49C279.856 139.214 279.778 139.01 279.658 138.878C279.538 138.746 279.364 138.602 279.136 138.446C279.076 138.41 279.028 138.38 278.992 138.356C278.956 138.332 278.938 138.302 278.938 138.266C278.938 138.122 279.088 138.014 279.388 137.942C279.7 137.87 279.97 137.834 280.198 137.834C280.618 137.834 280.978 137.984 281.278 138.284C281.422 138.428 281.494 138.602 281.494 138.806C281.494 138.914 281.47 139.064 281.422 139.256C281.29 139.784 281.224 140.42 281.224 141.164L281.188 143.324ZM283.942 139.148C284.182 139.148 284.536 139.22 285.004 139.364C285.484 139.496 285.916 139.712 286.3 140.012C286.696 140.3 286.894 140.666 286.894 141.11C286.894 141.338 286.822 141.512 286.678 141.632C286.534 141.74 286.366 141.794 286.174 141.794C286.03 141.794 285.886 141.752 285.742 141.668C285.598 141.584 285.49 141.452 285.418 141.272C285.262 140.9 285.082 140.582 284.878 140.318C284.686 140.054 284.428 139.82 284.104 139.616C284.056 139.592 283.984 139.556 283.888 139.508C283.804 139.448 283.738 139.406 283.69 139.382C283.654 139.346 283.636 139.31 283.636 139.274C283.636 139.19 283.738 139.148 283.942 139.148ZM300.862 145.718C302.038 146.186 303.136 146.798 304.156 147.554C305.188 148.298 305.704 149.024 305.704 149.732C305.704 149.996 305.62 150.218 305.452 150.398C305.296 150.578 305.122 150.668 304.93 150.668C304.738 150.668 304.546 150.59 304.354 150.434C304.174 150.266 304.012 150.038 303.868 149.75C303.46 148.934 302.974 148.196 302.41 147.536C301.858 146.876 301.27 146.354 300.646 145.97C298.39 148.514 295.786 150.392 292.834 151.604C292.774 151.628 292.72 151.64 292.672 151.64C292.6 151.64 292.564 151.61 292.564 151.55C292.564 151.49 292.63 151.43 292.762 151.37C294.058 150.674 295.336 149.732 296.596 148.544C297.856 147.356 298.936 146.15 299.836 144.926C300.748 143.702 301.354 142.706 301.654 141.938C301.678 141.818 301.69 141.752 301.69 141.74C301.69 141.68 301.636 141.65 301.528 141.65C301.312 141.65 300.682 141.794 299.638 142.082C298.606 142.358 297.892 142.586 297.496 142.766C297.424 142.802 297.322 142.856 297.19 142.928C297.058 142.988 296.932 143.018 296.812 143.018C296.512 143.018 296.224 142.91 295.948 142.694C295.672 142.478 295.45 142.226 295.282 141.938C295.126 141.65 295.048 141.41 295.048 141.218C295.048 141.05 295.09 140.966 295.174 140.966C295.21 140.966 295.282 141.008 295.39 141.092C295.498 141.176 295.618 141.248 295.75 141.308C295.978 141.404 296.248 141.452 296.56 141.452C296.812 141.452 297.598 141.35 298.918 141.146C300.238 140.93 301.066 140.774 301.402 140.678C301.522 140.642 301.732 140.552 302.032 140.408C302.236 140.288 302.374 140.228 302.446 140.228C302.59 140.228 302.794 140.312 303.058 140.48C303.322 140.648 303.556 140.846 303.76 141.074C303.976 141.29 304.084 141.476 304.084 141.632C304.084 141.716 304.042 141.8 303.958 141.884C303.886 141.956 303.772 142.046 303.616 142.154C303.52 142.226 303.418 142.304 303.31 142.388C303.214 142.472 303.142 142.556 303.094 142.64C302.398 143.744 301.654 144.77 300.862 145.718ZM322.012 143.9C321.532 143.9 321.124 143.738 320.788 143.414C320.452 143.078 320.284 142.67 320.284 142.19C320.284 141.71 320.452 141.308 320.788 140.984C321.124 140.648 321.532 140.48 322.012 140.48C322.48 140.48 322.882 140.648 323.218 140.984C323.554 141.32 323.722 141.722 323.722 142.19C323.722 142.67 323.554 143.078 323.218 143.414C322.882 143.738 322.48 143.9 322.012 143.9ZM322.012 143.414C322.348 143.414 322.63 143.294 322.858 143.054C323.098 142.814 323.218 142.526 323.218 142.19C323.218 141.854 323.098 141.566 322.858 141.326C322.63 141.074 322.348 140.948 322.012 140.948C321.676 140.948 321.382 141.074 321.13 141.326C320.89 141.566 320.77 141.854 320.77 142.19C320.77 142.526 320.89 142.814 321.13 143.054C321.382 143.294 321.676 143.414 322.012 143.414ZM325.054 149.732C324.634 149.732 323.86 149.402 322.732 148.742C321.604 148.07 320.416 147.284 319.168 146.384C317.92 145.484 316.954 144.734 316.27 144.134C316.114 144.002 315.97 143.936 315.838 143.936C315.73 143.936 315.604 143.99 315.46 144.098C314.092 145.382 313.174 146.402 312.706 147.158C312.658 147.23 312.58 147.356 312.472 147.536C312.364 147.704 312.28 147.806 312.22 147.842C312.172 147.866 312.106 147.878 312.022 147.878C311.866 147.878 311.65 147.806 311.374 147.662C311.098 147.506 310.84 147.296 310.6 147.032C310.36 146.768 310.21 146.474 310.15 146.15L310.132 145.916C310.132 145.772 310.15 145.652 310.186 145.556C310.222 145.46 310.264 145.412 310.312 145.412C310.348 145.412 310.396 145.448 310.456 145.52C310.528 145.592 310.606 145.658 310.69 145.718C310.81 145.802 310.966 145.844 311.158 145.844C311.518 145.844 311.86 145.73 312.184 145.502C312.496 145.298 312.982 144.938 313.642 144.422C314.302 143.894 314.776 143.486 315.064 143.198C315.292 142.994 315.526 142.892 315.766 142.892C316.042 142.892 316.33 143.006 316.63 143.234C317.698 144.074 318.952 144.908 320.392 145.736C321.832 146.552 323.308 147.284 324.82 147.932C325.528 148.232 325.882 148.592 325.882 149.012C325.882 149.252 325.804 149.432 325.648 149.552C325.504 149.672 325.306 149.732 325.054 149.732ZM334.846 142.352C334.702 142.352 334.552 142.316 334.396 142.244C334.252 142.16 334.144 142.076 334.072 141.992C333.748 141.608 333.472 141.314 333.244 141.11C333.016 140.894 332.74 140.69 332.416 140.498C332.236 140.378 332.062 140.294 331.894 140.246C331.738 140.186 331.636 140.144 331.588 140.12C331.456 140.048 331.39 140 331.39 139.976C331.39 139.844 331.66 139.778 332.2 139.778C332.716 139.778 333.226 139.85 333.73 139.994C334.246 140.126 334.672 140.324 335.008 140.588C335.344 140.852 335.512 141.176 335.512 141.56C335.512 141.776 335.452 141.962 335.332 142.118C335.212 142.274 335.05 142.352 334.846 142.352ZM332.02 151.82C331.876 151.82 331.738 151.736 331.606 151.568C331.318 151.232 331.066 150.8 330.85 150.272C330.646 149.732 330.538 149.3 330.526 148.976C330.526 148.736 330.586 148.616 330.706 148.616C330.754 148.616 330.814 148.676 330.886 148.796C330.97 148.904 331.054 149.006 331.138 149.102C331.402 149.366 331.744 149.498 332.164 149.498C332.464 149.498 332.776 149.426 333.1 149.282C334.744 148.586 336.442 147.566 338.194 146.222C339.946 144.878 341.506 143.36 342.874 141.668C342.982 141.512 343.084 141.434 343.18 141.434C343.252 141.434 343.288 141.464 343.288 141.524C343.288 141.608 343.246 141.722 343.162 141.866C342.31 143.198 341.29 144.464 340.102 145.664C338.926 146.864 337.726 147.92 336.502 148.832C335.29 149.744 334.174 150.47 333.154 151.01C332.998 151.082 332.806 151.232 332.578 151.46C332.338 151.7 332.152 151.82 332.02 151.82ZM332.83 146.042C332.698 146.042 332.566 146.012 332.434 145.952C332.302 145.88 332.2 145.796 332.128 145.7C331.84 145.388 331.6 145.148 331.408 144.98C331.216 144.812 330.982 144.644 330.706 144.476C330.418 144.32 330.166 144.206 329.95 144.134C329.746 144.062 329.62 144.02 329.572 144.008C329.476 143.972 329.428 143.93 329.428 143.882C329.428 143.798 329.572 143.738 329.86 143.702C330.16 143.654 330.436 143.63 330.688 143.63C331.432 143.63 332.086 143.786 332.65 144.098C333.214 144.398 333.496 144.812 333.496 145.34C333.496 145.544 333.43 145.712 333.298 145.844C333.178 145.976 333.022 146.042 332.83 146.042ZM357.508 143.27C357.64 143.27 357.856 143.354 358.156 143.522C358.456 143.69 358.72 143.882 358.948 144.098C359.188 144.314 359.308 144.488 359.308 144.62C359.308 144.716 359.278 144.788 359.218 144.836C359.158 144.872 359.05 144.92 358.894 144.98C358.714 145.04 358.552 145.118 358.408 145.214C358.012 145.502 357.43 145.91 356.662 146.438C355.906 146.966 355.396 147.308 355.132 147.464C355.06 147.524 354.988 147.554 354.916 147.554C354.856 147.554 354.826 147.53 354.826 147.482C354.826 147.434 354.868 147.374 354.952 147.302C355.456 146.81 355.924 146.276 356.356 145.7C356.8 145.124 357.022 144.728 357.022 144.512C357.022 144.44 356.968 144.404 356.86 144.404C356.764 144.404 356.356 144.506 355.636 144.71C354.928 144.902 354.184 145.124 353.404 145.376C353.584 146.24 353.902 147.482 354.358 149.102C354.394 149.246 354.478 149.576 354.61 150.092C354.754 150.608 354.856 151.028 354.916 151.352C354.988 151.676 355.024 151.934 355.024 152.126C355.024 152.594 354.814 152.828 354.394 152.828C354.178 152.828 353.986 152.744 353.818 152.576C353.662 152.408 353.578 152.192 353.566 151.928C353.506 151.028 353.38 150.02 353.188 148.904C352.996 147.788 352.78 146.708 352.54 145.664C351.892 145.868 351.298 146.084 350.758 146.312C350.578 146.384 350.428 146.444 350.308 146.492C350.2 146.54 350.11 146.582 350.038 146.618C349.858 146.714 349.726 146.774 349.642 146.798C349.558 146.822 349.462 146.834 349.354 146.834C349.066 146.834 348.778 146.69 348.49 146.402C348.202 146.114 348.058 145.82 348.058 145.52C348.058 145.376 348.082 145.304 348.13 145.304C348.154 145.304 348.202 145.328 348.274 145.376C348.346 145.424 348.43 145.466 348.526 145.502C348.718 145.574 348.91 145.61 349.102 145.61C349.462 145.61 350.548 145.37 352.36 144.89C352.108 143.93 351.94 143.342 351.856 143.126C351.748 142.85 351.622 142.652 351.478 142.532C351.346 142.4 351.13 142.316 350.83 142.28C350.77 142.28 350.716 142.274 350.668 142.262C350.632 142.238 350.614 142.202 350.614 142.154C350.614 142.058 350.674 141.968 350.794 141.884C350.914 141.8 351.052 141.746 351.208 141.722C351.34 141.686 351.538 141.668 351.802 141.668C352.258 141.668 352.606 141.716 352.846 141.812C353.05 141.884 353.152 142.034 353.152 142.262C353.152 142.382 353.122 142.562 353.062 142.802C353.05 142.85 353.044 142.94 353.044 143.072C353.044 143.276 353.08 143.606 353.152 144.062L353.26 144.656C353.344 144.632 353.416 144.614 353.476 144.602C353.548 144.578 353.608 144.56 353.656 144.548C354.112 144.44 354.706 144.29 355.438 144.098C356.182 143.906 356.626 143.78 356.77 143.72C356.83 143.696 356.938 143.618 357.094 143.486C357.262 143.342 357.4 143.27 357.508 143.27ZM367.66 152.882C367.6 152.882 367.57 152.858 367.57 152.81C367.57 152.762 367.672 152.684 367.876 152.576C369.484 151.7 370.708 150.74 371.548 149.696C372.388 148.64 372.952 147.494 373.24 146.258C373.54 145.01 373.69 143.51 373.69 141.758C373.69 141.326 373.666 140.762 373.618 140.066C373.594 139.502 373.444 139.112 373.168 138.896C373.024 138.788 372.892 138.71 372.772 138.662C372.664 138.614 372.586 138.578 372.538 138.554C372.49 138.53 372.466 138.488 372.466 138.428C372.466 138.332 372.562 138.254 372.754 138.194C372.958 138.134 373.18 138.104 373.42 138.104C373.564 138.104 373.72 138.116 373.888 138.14C374.236 138.236 374.584 138.428 374.932 138.716C375.292 138.992 375.472 139.232 375.472 139.436C375.472 139.544 375.43 139.682 375.346 139.85C375.298 139.958 375.25 140.078 375.202 140.21C375.166 140.33 375.148 140.45 375.148 140.57C375.148 141.062 375.136 141.656 375.112 142.352C375.064 144.212 374.83 145.778 374.41 147.05C374.002 148.322 373.282 149.438 372.25 150.398C371.23 151.346 369.79 152.156 367.93 152.828C367.81 152.864 367.72 152.882 367.66 152.882ZM369.838 146.798C369.67 146.798 369.49 146.672 369.298 146.42C369.118 146.156 369.028 145.85 369.028 145.502C369.028 145.43 369.052 145.16 369.1 144.692C369.148 144.224 369.172 143.798 369.172 143.414C369.172 142.286 369.118 141.464 369.01 140.948C368.902 140.516 368.692 140.234 368.38 140.102C368.284 140.066 368.206 140.03 368.146 139.994C368.086 139.946 368.056 139.898 368.056 139.85C368.056 139.766 368.158 139.67 368.362 139.562C368.578 139.442 368.806 139.382 369.046 139.382C369.202 139.382 369.334 139.406 369.442 139.454C369.886 139.61 370.192 139.772 370.36 139.94C370.528 140.096 370.612 140.282 370.612 140.498C370.612 140.582 370.6 140.684 370.576 140.804C370.552 140.912 370.534 140.996 370.522 141.056C370.474 141.392 370.45 141.962 370.45 142.766L370.468 144.188C370.468 144.236 370.486 144.512 370.522 145.016C370.546 145.376 370.558 145.622 370.558 145.754C370.558 146.018 370.492 146.258 370.36 146.474C370.228 146.69 370.054 146.798 369.838 146.798ZM390.862 145.718C392.038 146.186 393.136 146.798 394.156 147.554C395.188 148.298 395.704 149.024 395.704 149.732C395.704 149.996 395.62 150.218 395.452 150.398C395.296 150.578 395.122 150.668 394.93 150.668C394.738 150.668 394.546 150.59 394.354 150.434C394.174 150.266 394.012 150.038 393.868 149.75C393.46 148.934 392.974 148.196 392.41 147.536C391.858 146.876 391.27 146.354 390.646 145.97C388.39 148.514 385.786 150.392 382.834 151.604C382.774 151.628 382.72 151.64 382.672 151.64C382.6 151.64 382.564 151.61 382.564 151.55C382.564 151.49 382.63 151.43 382.762 151.37C384.058 150.674 385.336 149.732 386.596 148.544C387.856 147.356 388.936 146.15 389.836 144.926C390.748 143.702 391.354 142.706 391.654 141.938C391.678 141.818 391.69 141.752 391.69 141.74C391.69 141.68 391.636 141.65 391.528 141.65C391.312 141.65 390.682 141.794 389.638 142.082C388.606 142.358 387.892 142.586 387.496 142.766C387.424 142.802 387.322 142.856 387.19 142.928C387.058 142.988 386.932 143.018 386.812 143.018C386.512 143.018 386.224 142.91 385.948 142.694C385.672 142.478 385.45 142.226 385.282 141.938C385.126 141.65 385.048 141.41 385.048 141.218C385.048 141.05 385.09 140.966 385.174 140.966C385.21 140.966 385.282 141.008 385.39 141.092C385.498 141.176 385.618 141.248 385.75 141.308C385.978 141.404 386.248 141.452 386.56 141.452C386.812 141.452 387.598 141.35 388.918 141.146C390.238 140.93 391.066 140.774 391.402 140.678C391.522 140.642 391.732 140.552 392.032 140.408C392.236 140.288 392.374 140.228 392.446 140.228C392.59 140.228 392.794 140.312 393.058 140.48C393.322 140.648 393.556 140.846 393.76 141.074C393.976 141.29 394.084 141.476 394.084 141.632C394.084 141.716 394.042 141.8 393.958 141.884C393.886 141.956 393.772 142.046 393.616 142.154C393.52 142.226 393.418 142.304 393.31 142.388C393.214 142.472 393.142 142.556 393.094 142.64C392.398 143.744 391.654 144.77 390.862 145.718ZM407.188 143.324C408.448 143.528 409.57 143.87 410.554 144.35C411.55 144.83 412.048 145.442 412.048 146.186C412.048 146.414 411.988 146.606 411.868 146.762C411.748 146.918 411.598 146.996 411.418 146.996C411.058 146.996 410.62 146.678 410.104 146.042C409.252 144.962 408.28 144.176 407.188 143.684V143.954V146.888C407.212 148.784 407.248 149.9 407.296 150.236C407.416 150.86 407.476 151.292 407.476 151.532C407.476 151.856 407.386 152.12 407.206 152.324C407.038 152.528 406.87 152.63 406.702 152.63C406.51 152.63 406.33 152.486 406.162 152.198C405.994 151.91 405.856 151.58 405.748 151.208C405.652 150.836 405.604 150.566 405.604 150.398C405.604 150.266 405.622 150.092 405.658 149.876C405.73 149.408 405.778 149.018 405.802 148.706C405.838 148.262 405.874 147.458 405.91 146.294C405.91 146.054 405.922 145.682 405.946 145.178C405.97 144.41 405.982 143.288 405.982 141.812C405.982 140.636 405.952 139.862 405.892 139.49C405.856 139.214 405.778 139.01 405.658 138.878C405.538 138.746 405.364 138.602 405.136 138.446C405.076 138.41 405.028 138.38 404.992 138.356C404.956 138.332 404.938 138.302 404.938 138.266C404.938 138.122 405.088 138.014 405.388 137.942C405.7 137.87 405.97 137.834 406.198 137.834C406.618 137.834 406.978 137.984 407.278 138.284C407.422 138.428 407.494 138.602 407.494 138.806C407.494 138.914 407.47 139.064 407.422 139.256C407.29 139.784 407.224 140.42 407.224 141.164L407.188 143.324Z" fill="#F3F5FB"/>
</svg>
